<?xml version="1.0" encoding="utf-8"?>
<!-- Generator: Adobe Illustrator 23.0.2, SVG Export Plug-In . SVG Version: 6.00 Build 0)  -->
<svg version="1.1" id="Layer_1" xmlns="http://www.w3.org/2000/svg" xmlns:xlink="http://www.w3.org/1999/xlink" x="0px" y="0px"
	 viewBox="0 0 540 350" style="enable-background:new 0 0 540 350;" xml:space="preserve">
<style type="text/css">
	.st0{fill:url(#SVGID_1_);}
	.st1{fill:#BDD0FB;}
	.st2{fill:#FFFFFF;}
	.st3{fill:url(#SVGID_2_);}
	.st4{fill:url(#SVGID_3_);}
	.st5{opacity:0.33;fill:#FFFFFF;}
	.st6{opacity:0.25;fill:#FFFFFF;}
	.st7{fill:url(#SVGID_4_);}
	.st8{fill:url(#SVGID_5_);}
	.st9{fill:url(#SVGID_6_);}
	.st10{opacity:0.2;fill:#FFFFFF;}
	.st11{opacity:0.62;fill:url(#SVGID_7_);}
	.st12{opacity:0.62;fill:url(#SVGID_8_);}
	.st13{opacity:0.62;fill:url(#SVGID_9_);}
	.st14{fill:url(#SVGID_10_);}
	.st15{opacity:0.62;fill:url(#SVGID_11_);}
	.st16{opacity:0.62;fill:url(#SVGID_12_);}
	.st17{opacity:0.62;fill:url(#SVGID_13_);}
	.st18{opacity:0.62;fill:url(#SVGID_14_);}
	.st19{opacity:0.62;}
	.st20{fill:url(#SVGID_15_);}
	.st21{fill:url(#SVGID_16_);}
	.st22{fill:url(#SVGID_17_);}
	.st23{fill:url(#SVGID_18_);}
	.st24{fill:url(#SVGID_19_);}
	.st25{fill:url(#SVGID_20_);}
	.st26{opacity:0.62;fill:url(#SVGID_21_);}
	.st27{fill:url(#SVGID_22_);}
	.st28{fill:#7D97F4;}
	.st29{fill:url(#SVGID_23_);}
	.st30{fill:url(#SVGID_24_);}
	.st31{fill:url(#SVGID_25_);}
	.st32{filter:url(#Adobe_OpacityMaskFilter);}
	.st33{filter:url(#Adobe_OpacityMaskFilter_1_);}
	.st34{mask:url(#SVGID_26_);fill:url(#SVGID_27_);}
	.st35{fill:url(#SVGID_28_);}
	.st36{fill:url(#SVGID_29_);}
	.st37{fill:url(#SVGID_30_);}
	.st38{fill:url(#SVGID_31_);}
	.st39{fill:url(#SVGID_32_);}
	.st40{opacity:0.39;fill:url(#SVGID_33_);}
	.st41{opacity:0.39;fill:url(#SVGID_34_);}
	.st42{opacity:0.39;fill:url(#SVGID_35_);}
	.st43{opacity:0.39;fill:url(#SVGID_36_);}
	.st44{fill:url(#SVGID_37_);}
	.st45{fill:url(#SVGID_38_);}
	.st46{fill:url(#SVGID_39_);}
	.st47{fill:url(#SVGID_40_);}
	.st48{fill:url(#SVGID_41_);}
	.st49{fill:url(#SVGID_42_);}
	.st50{fill:url(#SVGID_43_);}
	.st51{fill:url(#SVGID_44_);}
	.st52{fill:url(#SVGID_45_);}
	.st53{fill:url(#SVGID_46_);}
	.st54{fill:url(#SVGID_47_);}
	.st55{fill:url(#SVGID_48_);}
	.st56{fill:url(#SVGID_49_);}
	.st57{fill:url(#SVGID_50_);}
	.st58{fill:url(#SVGID_51_);}
	.st59{fill:url(#SVGID_52_);}
	.st60{fill:url(#SVGID_53_);}
	.st61{fill:url(#SVGID_54_);}
	.st62{fill:url(#SVGID_55_);}
	.st63{fill:url(#SVGID_56_);}
	.st64{fill:url(#SVGID_57_);}
	.st65{fill:url(#SVGID_58_);}
	.st66{fill:url(#SVGID_59_);}
	.st67{opacity:0.8;fill:#FFFFFF;}
	.st68{opacity:0.8;}
	.st69{fill:url(#SVGID_60_);}
	.st70{opacity:0.71;fill:#FFFFFF;}
	.st71{fill:url(#SVGID_61_);}
	.st72{fill:url(#SVGID_62_);}
	.st73{fill:url(#SVGID_63_);}
	.st74{fill:url(#SVGID_64_);}
	.st75{fill:#91B3FA;}
</style>
<g>
	<linearGradient id="SVGID_1_" gradientUnits="userSpaceOnUse" x1="22.4559" y1="166.0264" x2="518.4799" y2="166.0264">
		<stop  offset="0" style="stop-color:#DAE3FE"/>
		<stop  offset="1" style="stop-color:#E9EFFD"/>
	</linearGradient>
	<path class="st0" d="M266.17,326.26c0,0-168.42,2-215.33-43.07c-46.91-45.08-29.25-90.01,6.67-102.74
		c35.92-12.73,42.05-25.97,22.72-43.83c-19.33-17.86-43.88-54.51-3.12-91.35s87.27,16.07,123.7,9.05
		c36.43-7.03,22-30.69,69.91-14.35c47.91,16.34,37.34-31.24,75.86-35.55c38.51-4.31,34.57,49.49,74.18,29.18
		c39.61-20.31,72.02-17.51,89.05,14.75c17.03,32.25,9.63,75.69-27.73,101.58c-37.36,25.89-33.35,24.12-19.39,49.56
		c13.96,25.44,26.49,109.1-37.08,121.05C362.02,332.49,266.17,326.26,266.17,326.26z"/>
	<g>
		<path class="st1" d="M17.2,143.44c-8.02-10.8-5.77-26.06,5.02-34.07c10.79-8.01,26.04-5.75,34.06,5.05c0,0,0,0,0,0
			c4.46,6.01,11.28,9.81,18.72,10.45c8.56,0.73,16.78,5,22.31,12.44c0,0,0,0,0,0c5.39,7.27,13.86,11.61,22.9,11.76
			c10.58,0.18,20.96,5.1,27.76,14.25c11.61,15.65,8.36,37.74-7.27,49.34c-15.63,11.61-37.71,8.33-49.33-7.32
			c-0.62-0.84-1.2-1.69-1.74-2.56c-5.25-8.53-13.78-14.52-23.58-16.56c-7.19-1.5-13.88-5.54-18.61-11.9
			c-2.08-2.8-3.61-5.83-4.63-8.97c-2.04-6.3-7.02-11.22-13.34-13.2C24.74,150.69,20.4,147.74,17.2,143.44z"/>
		<path class="st2" d="M142.12,195.58c-0.13,0.07-0.29,0.09-0.44,0.02C77.5,167.9,36.16,130.88,35.75,130.51
			c-0.2-0.18-0.22-0.49-0.04-0.69c0.18-0.2,0.49-0.22,0.69-0.03c0.41,0.37,41.64,37.29,105.66,64.92c0.25,0.11,0.36,0.4,0.26,0.65
			C142.28,195.44,142.21,195.52,142.12,195.58z"/>
		<path class="st2" d="M54.12,144.45c-0.11,0.06-0.25,0.08-0.39,0.04c-0.26-0.08-0.41-0.35-0.33-0.61
			c2.06-6.74-3.61-21.39-3.67-21.53c-0.1-0.25,0.03-0.54,0.28-0.64c0.25-0.1,0.54,0.03,0.64,0.28c0.24,0.61,5.85,15.11,3.69,22.18
			C54.3,144.29,54.22,144.39,54.12,144.45z"/>
		<path class="st2" d="M53.73,144.73c-0.03,0.02-0.07,0.03-0.1,0.04c-0.42,0.13-10.42,3.06-18.94,1.61c-0.27-0.05-0.45-0.3-0.4-0.57
			c0.05-0.27,0.3-0.45,0.57-0.4c8.29,1.41,18.39-1.56,18.49-1.59c0.26-0.08,0.53,0.07,0.61,0.33
			C54.03,144.39,53.93,144.62,53.73,144.73z"/>
		<path class="st2" d="M84.51,165.1c-0.09,0.05-0.2,0.07-0.31,0.06c-0.27-0.04-0.46-0.28-0.42-0.55c1.5-11.48-5.47-24.71-5.54-24.85
			c-0.13-0.24-0.05-0.54,0.2-0.67c0.24-0.13,0.54-0.04,0.67,0.2c0.07,0.13,7.19,13.64,5.65,25.44
			C84.73,164.9,84.64,165.03,84.51,165.1z"/>
		<path class="st2" d="M83.44,166.07c-2.84,1.62-11.09,5.44-23.48,3.86c-0.27-0.03-0.46-0.28-0.43-0.55
			c0.03-0.27,0.28-0.46,0.55-0.43c14.81,1.9,23.78-4.29,23.87-4.36c0.22-0.15,0.53-0.1,0.68,0.12c0.16,0.22,0.1,0.53-0.12,0.69
			C84.46,165.45,84.09,165.71,83.44,166.07z"/>
		<path class="st2" d="M121.15,189.25c-3.95,2.25-12.12,6.03-21.8,5.53c-0.27-0.01-0.48-0.25-0.47-0.52
			c0.01-0.27,0.25-0.48,0.52-0.47c13.29,0.68,23.62-6.87,23.72-6.94c0.22-0.16,0.53-0.12,0.69,0.1c0.16,0.22,0.12,0.53-0.1,0.69
			C123.67,187.67,122.76,188.33,121.15,189.25z"/>
		<path class="st2" d="M123.91,187.31c-0.1,0.06-0.22,0.08-0.35,0.05c-0.27-0.06-0.43-0.32-0.38-0.58
			c0.02-0.11,2.19-10.84-5.33-23.73c-0.14-0.23-0.06-0.54,0.18-0.67c0,0,0,0,0,0c0.23-0.13,0.53-0.05,0.67,0.18
			c7.73,13.23,5.54,23.98,5.44,24.43C124.11,187.13,124.02,187.25,123.91,187.31z"/>
	</g>
	<g>
		<path class="st1" d="M101.95,27.78c-13.54-11.05-33.25-8.85-44.02,4.91C47.16,46.44,49.4,66.55,62.94,77.6
			c7.77,5.35,12.78,14.01,13.58,23.52c1.1,13.03,7.62,26.15,14.07,31.41c9.1,7.43,18.07,10.25,17.87,22.11
			c-0.24,13.88,1.9,36.25,13.38,45.62c19.61,16,48.15,12.82,63.75-7.1c15.6-19.92,12.35-49.04-7.26-65.04
			c-0.18-0.15-0.79-0.52-1.73-1.05c-12.02-6.74-20.56-18.5-23.39-32.17c-2.37-11.46-8.14-22.07-12.85-25.92
			c-1.82-1.48-6.54-3.97-12-5.95c-7.92-2.87-14.02-9.42-16.44-17.62C109.62,37.6,105.25,30.47,101.95,27.78z"/>
		<path class="st2" d="M163.22,194.27c-0.01,0.01-0.02,0.01-0.03,0.02c-0.25,0.1-0.54-0.03-0.64-0.29
			C129.8,108.66,84.11,52.76,83.65,52.2c-0.18-0.21-0.15-0.53,0.06-0.71c0.21-0.18,0.52-0.15,0.7,0.06
			c0.46,0.56,46.25,56.58,79.06,142.08C163.56,193.89,163.45,194.16,163.22,194.27z"/>
		<path class="st2" d="M101.31,76.35c-0.03,0.01-0.06,0.02-0.09,0.03c-9.14,2.47-27.49-5.58-28.26-5.93
			c-0.25-0.11-0.37-0.41-0.26-0.66c0.11-0.25,0.4-0.37,0.65-0.26c0.19,0.08,18.81,8.25,27.62,5.88c0.26-0.07,0.53,0.09,0.61,0.36
			C101.63,76,101.52,76.25,101.31,76.35z"/>
		<path class="st2" d="M101.69,75.86c-0.11,0.05-0.24,0.07-0.37,0.02c-0.26-0.09-0.4-0.38-0.31-0.64
			c0.04-0.13,4.31-13.26,2.85-24.23c-0.04-0.28,0.15-0.53,0.42-0.56c0.27-0.04,0.52,0.16,0.56,0.43
			c1.49,11.21-2.85,24.55-2.89,24.69C101.9,75.7,101.81,75.8,101.69,75.86z"/>
		<path class="st2" d="M126.54,117.23c-0.05,0.02-0.11,0.04-0.17,0.05c-15.19,1.43-32.2-8.54-32.37-8.64
			c-0.24-0.14-0.32-0.45-0.18-0.69c0.14-0.24,0.44-0.32,0.67-0.18c0.17,0.1,16.91,9.91,31.78,8.51c0.27-0.03,0.51,0.18,0.54,0.45
			C126.84,116.94,126.73,117.14,126.54,117.23z"/>
		<path class="st2" d="M126.97,117.21c-0.16,0.08-0.36,0.06-0.51-0.05c-0.22-0.17-0.26-0.49-0.1-0.71
			c0.08-0.11,8.46-11.6,6.67-31.18c-0.03-0.28,0.17-0.52,0.45-0.55c0.27-0.02,0.51,0.18,0.54,0.46c1.84,19.99-6.77,31.77-6.86,31.89
			C127.09,117.12,127.03,117.17,126.97,117.21z"/>
		<path class="st2" d="M153.87,169.67c-0.17,0.08-0.37,0.06-0.52-0.06c-0.21-0.17-0.25-0.49-0.08-0.71
			c0.1-0.13,10.29-13.36,9.99-30.86c-0.01-0.28,0.21-0.51,0.48-0.51c0.27,0,0.5,0.22,0.5,0.5c0.31,17.87-10.1,31.37-10.2,31.5
			C153.99,169.59,153.93,169.64,153.87,169.67z"/>
		<path class="st2" d="M153.39,169.98c-0.04,0.02-0.08,0.03-0.13,0.04c-0.14,0.03-14.44,2.43-31.07-8.32
			c-0.23-0.15-0.3-0.46-0.15-0.7c0.15-0.24,0.45-0.3,0.68-0.15c16.31,10.55,30.23,8.2,30.37,8.18c0.27-0.05,0.53,0.13,0.57,0.41
			C153.7,169.67,153.58,169.89,153.39,169.98z"/>
	</g>
	<g>
		<path class="st1" d="M431.39,13.7c13.26-16.21,36.93-18.34,52.86-4.77c15.94,13.58,18.11,37.73,4.85,53.94
			c-7.84,8.14-11.65,19.51-10.32,30.87c1.83,15.57-2.69,32.53-9.01,40.25c-8.91,10.9-18.77,16.36-15.7,30.23
			c3.6,16.25,6.44,43.02-4.8,56.76c-19.2,23.48-53.48,26.57-76.56,6.9c-23.08-19.66-26.23-54.64-7.03-78.12
			c0.17-0.21,0.8-0.8,1.78-1.65c12.5-10.79,19.72-26.64,19.77-43.37c0.04-14.03,4.28-27.86,8.89-33.51
			c1.78-2.17,6.73-6.23,12.67-9.86c8.61-5.26,14.21-14.42,15.09-24.62C424.73,27.08,428.16,17.65,431.39,13.7z"/>
		<path class="st2" d="M399.26,223.86c0.01,0,0.03,0.01,0.04,0.01c0.32,0.06,0.63-0.16,0.68-0.49
			c18.05-108.04,58.33-184.61,58.73-185.37c0.16-0.29,0.05-0.66-0.24-0.82c-0.29-0.16-0.65-0.05-0.8,0.24
			c-0.41,0.76-40.78,77.5-58.86,185.75C398.76,223.49,398.96,223.79,399.26,223.86z"/>
		<path class="st2" d="M443.75,70.58c0.04,0.01,0.07,0.01,0.11,0.02c11.32,0.71,30.94-13.13,31.77-13.72
			c0.27-0.19,0.33-0.57,0.15-0.84c-0.19-0.27-0.56-0.34-0.82-0.15c-0.2,0.14-20.11,14.19-31.02,13.51
			c-0.33-0.02-0.61,0.23-0.63,0.57C443.29,70.26,443.48,70.51,443.75,70.58z"/>
		<path class="st2" d="M443.18,70.1c0.14,0.04,0.3,0.02,0.44-0.06c0.28-0.17,0.38-0.54,0.21-0.82c-0.08-0.14-8.23-14.54-9.14-27.77
			c-0.02-0.33-0.31-0.58-0.63-0.56c-0.33,0.02-0.57,0.31-0.55,0.64c0.94,13.52,9.22,28.15,9.3,28.3
			C442.9,69.96,443.04,70.06,443.18,70.1z"/>
		<path class="st2" d="M423.9,124.62c0.07,0.02,0.14,0.02,0.21,0.02c18.18-1.95,35.77-17.73,35.95-17.89
			c0.24-0.22,0.27-0.6,0.05-0.85c-0.22-0.25-0.59-0.27-0.84-0.05c-0.17,0.16-17.49,15.68-35.29,17.6c-0.32,0.03-0.56,0.33-0.52,0.66
			C423.48,124.36,423.66,124.56,423.9,124.62z"/>
		<path class="st2" d="M423.4,124.7c0.21,0.05,0.44-0.01,0.59-0.19c0.21-0.25,0.19-0.63-0.06-0.85
			c-0.13-0.11-12.71-11.6-15.28-35.02c-0.04-0.33-0.33-0.57-0.65-0.53c-0.32,0.04-0.56,0.33-0.52,0.67
			c2.62,23.92,15.55,35.68,15.68,35.8C423.22,124.63,423.31,124.67,423.4,124.7z"/>
		<path class="st2" d="M404.35,192.73c0.21,0.06,0.45-0.01,0.6-0.2c0.21-0.26,0.17-0.64-0.08-0.85
			c-0.15-0.13-15.28-13.23-19.11-33.85c-0.06-0.33-0.37-0.54-0.69-0.48c-0.32,0.06-0.53,0.38-0.47,0.7
			c3.91,21.05,19.36,34.42,19.51,34.55C404.19,192.67,404.27,192.71,404.35,192.73z"/>
		<path class="st2" d="M404.99,192.99c0.05,0.01,0.1,0.02,0.16,0.02c0.17,0,17.54-0.6,34.49-17.2c0.24-0.23,0.24-0.61,0.02-0.85
			c-0.23-0.24-0.6-0.25-0.84-0.02c-16.63,16.29-33.54,16.86-33.7,16.87c-0.33,0.01-0.58,0.28-0.58,0.62
			C404.55,192.7,404.74,192.93,404.99,192.99z"/>
	</g>
	<g>
		<path class="st1" d="M525.51,218.1c4.38-11.28-1.21-24.01-12.47-28.45c-11.26-4.43-23.93,1.12-28.31,12.4c0,0,0,0,0,0
			c-2.43,6.27-7.44,11.18-13.74,13.48c-7.24,2.65-13.35,8.29-16.37,16.06c0,0,0,0,0,0c-2.94,7.59-9.25,13.35-17.05,15.61
			c-9.12,2.64-16.95,9.36-20.66,18.92c-6.34,16.33,1.75,34.78,18.05,41.2c16.31,6.42,34.66-1.62,41-17.96
			c0.34-0.87,0.64-1.75,0.89-2.64c2.52-8.65,8.49-15.86,16.49-19.94c5.88-2.99,10.71-8.08,13.29-14.72
			c1.13-2.92,1.74-5.92,1.87-8.89c0.26-5.96,3.41-11.41,8.42-14.61C520.71,226.17,523.77,222.59,525.51,218.1z"/>
		<path class="st2" d="M425.86,289.13c0.09-0.01,0.17-0.04,0.25-0.09c52.38-34.57,83.09-73.88,83.39-74.27
			c0.18-0.24,0.14-0.58-0.1-0.77c-0.24-0.18-0.58-0.14-0.76,0.09c-0.3,0.39-30.91,39.56-83.13,74.03c-0.25,0.17-0.32,0.5-0.15,0.75
			C425.47,289.06,425.67,289.14,425.86,289.13z"/>
		<path class="st2" d="M495.58,230.06c0.07-0.01,0.13-0.02,0.2-0.06c0.27-0.14,0.37-0.46,0.24-0.73
			c-2.87-5.64-0.19-19.48-0.16-19.62c0.06-0.3-0.13-0.58-0.43-0.64c-0.29-0.06-0.58,0.13-0.64,0.43
			c-0.12,0.58-2.78,14.35,0.26,20.33C495.16,229.97,495.37,230.08,495.58,230.06z"/>
		<path class="st2" d="M505.11,230.32c2.54-0.22,5.29-0.69,7.8-1.59c0.28-0.1,0.43-0.41,0.33-0.7c-0.1-0.28-0.41-0.43-0.69-0.33
			c-7.09,2.53-16.46,1.47-16.56,1.46c-0.3-0.03-0.57,0.18-0.6,0.48c-0.03,0.3,0.18,0.57,0.48,0.6
			C496.12,230.28,500.24,230.75,505.11,230.32z"/>
		<path class="st2" d="M471.98,253.12c0.04,0,0.08-0.01,0.12-0.02c0.29-0.09,0.44-0.4,0.35-0.68c-3.13-9.93,0.92-22.73,0.97-22.85
			c0.09-0.29-0.06-0.59-0.35-0.69c-0.29-0.09-0.59,0.06-0.68,0.35c-0.17,0.54-4.21,13.25-0.97,23.52
			C471.49,252.99,471.73,253.14,471.98,253.12z"/>
		<path class="st2" d="M485.93,255.23c2.53-0.22,5.33-0.73,8.36-1.67c0.29-0.09,0.45-0.39,0.36-0.68c-0.09-0.29-0.4-0.45-0.68-0.36
			c-12.78,3.98-21.63-0.11-21.72-0.15c-0.27-0.13-0.59-0.01-0.72,0.26c-0.13,0.27-0.01,0.6,0.26,0.73
			C472.06,253.49,477.44,255.98,485.93,255.23z"/>
		<path class="st2" d="M459.12,282.41c1.39-0.12,2.82-0.34,4.27-0.67c0.29-0.07,0.47-0.36,0.41-0.65c-0.07-0.29-0.36-0.48-0.65-0.41
			c-11.59,2.66-21.91-2.41-22.01-2.46c-0.27-0.14-0.59-0.03-0.73,0.24c-0.13,0.27-0.02,0.6,0.24,0.73
			C440.74,279.23,448.99,283.3,459.12,282.41z"/>
		<path class="st2" d="M440.66,278.96c0.05,0,0.11-0.02,0.16-0.04c0.28-0.11,0.41-0.43,0.3-0.71c-0.04-0.09-3.64-9.25,0.96-21.81
			c0.1-0.28-0.04-0.6-0.32-0.7c-0.28-0.1-0.59,0.04-0.7,0.32c-4.75,12.98-1.1,22.22-0.94,22.6
			C440.2,278.85,440.43,278.98,440.66,278.96z"/>
	</g>
	<g>
		<g>
			<linearGradient id="SVGID_2_" gradientUnits="userSpaceOnUse" x1="284.9113" y1="5.5439" x2="257.6443" y2="328.9846">
				<stop  offset="0" style="stop-color:#09005D"/>
				<stop  offset="1" style="stop-color:#1A0F91"/>
			</linearGradient>
			<path class="st3" d="M456.71,310.03c0,3.67-3,6.67-6.68,6.67H88.94c-3.67,0-6.68-3-6.68-6.67l-3-207.51
				c0-3.67,4.32-10.83,12.25-10.29l352.9-9.13c4.61-0.12,9.06,1.65,12.33,4.91c3.26,3.25,5.05,7.7,4.94,12.3L456.71,310.03z"/>
			<linearGradient id="SVGID_3_" gradientUnits="userSpaceOnUse" x1="263.45" y1="366.8365" x2="279.5716" y2="-66.1394">
				<stop  offset="0" style="stop-color:#FE7062"/>
				<stop  offset="1" style="stop-color:#FF928E"/>
			</linearGradient>
			<path class="st4" d="M450.12,303.63c0,3.47-2.84,6.32-6.32,6.32H97.65c-3.47,0-6.32-2.84-6.32-6.32L88.5,115.25
				c0.33-11.34,10.27-15.41,16.3-15.17l338.22-9.07c3.24-0.09,6.37,1.16,8.66,3.45s3.55,5.42,3.47,8.65L450.12,303.63z"/>
			<g>
				<path class="st2" d="M95.07,213.72c-0.28,0-0.51-0.22-0.51-0.5l-0.22-15.28c0-0.28,0.22-0.51,0.5-0.52
					c0.27-0.01,0.51,0.22,0.52,0.5l0.22,15.28C95.59,213.48,95.36,213.72,95.07,213.72C95.08,213.72,95.08,213.72,95.07,213.72z"/>
				<path class="st5" d="M94.52,176.28c-0.28,0-0.51-0.22-0.51-0.5l-0.86-58.51c0.02-3.91,1.22-7.03,3.58-9.29
					c4.29-4.11,11-3.9,11.28-3.89l108.01-2.9c0.28,0,0.52,0.21,0.52,0.5c0.01,0.28-0.21,0.52-0.5,0.52l-108.04,2.9
					c-0.3-0.01-6.59-0.2-10.57,3.61c-2.15,2.06-3.25,4.93-3.26,8.55l0.86,58.5C95.04,176.05,94.81,176.28,94.52,176.28
					C94.53,176.28,94.53,176.28,94.52,176.28z"/>
			</g>
			<path class="st6" d="M106.58,293.18c0.36-15.57,0.23-153.44-0.67-165.35c-0.89-11.91,17.65-14.14,46.12-15.48
				c28.47-1.34,268.7-6.65,274.89-7.15c13.9-1.13,16.78,19.65,15.39,64.77c-1.04,33.89-2.78,89.73-3.57,115.41
				c-0.24,7.65-6.49,13.71-14.14,13.73c-57.81,0.16-279.38,0.79-294.13,1.23C113.51,300.85,106.44,299.35,106.58,293.18z"/>
		</g>
		<linearGradient id="SVGID_4_" gradientUnits="userSpaceOnUse" x1="297.9551" y1="202.4137" x2="267.5133" y2="344.4747">
			<stop  offset="0" style="stop-color:#09005D"/>
			<stop  offset="1" style="stop-color:#1A0F91"/>
		</linearGradient>
		<path class="st7" d="M478.88,327.29H67.42c-3.92,0-7.13-3.21-7.13-7.13v-3.98c0-3.92,3.21-7.13,7.13-7.13h411.46
			c3.92,0,7.13,3.21,7.13,7.13v3.98C486.01,324.09,482.8,327.29,478.88,327.29z"/>
	</g>
	<g>
		<g>
			<g>
				<linearGradient id="SVGID_5_" gradientUnits="userSpaceOnUse" x1="93.7724" y1="263.6539" x2="74.0256" y2="403.9974">
					<stop  offset="0" style="stop-color:#09005D"/>
					<stop  offset="1" style="stop-color:#1A0F91"/>
				</linearGradient>
				<path class="st8" d="M151.94,181.06c0.61,21.91,2.6,97.48,1.65,124.25c-0.1,2.84-2.67,5.11-5.87,5.21
					c-15.85,0.46-73.95,1.62-99.87,0.66c-5.4-0.2-9.69-4.07-9.81-8.86c-0.54-23-1.73-87.67,1.1-117.3c0.34-3.55,3.49-6.38,7.49-6.73
					c17.26-1.53,75.61-5.27,98.01-3.98C148.67,174.55,151.84,177.48,151.94,181.06z"/>
				<linearGradient id="SVGID_6_" gradientUnits="userSpaceOnUse" x1="156.3664" y1="138.4736" x2="35.5231" y2="262.8537">
					<stop  offset="0" style="stop-color:#FE7062"/>
					<stop  offset="1" style="stop-color:#FF928E"/>
				</linearGradient>
				<path class="st9" d="M147.38,190.72v18.57c0,3.56-2.89,6.45-6.45,6.45h-88.7c-3.56,0-6.45-2.89-6.45-6.45v-18.57
					c0-3.56,2.89-6.45,6.45-6.45h88.7C144.5,184.27,147.38,187.16,147.38,190.72z"/>
				<path class="st10" d="M50.5,189.81c0.8-0.8,1.88-1.24,3.01-1.24l83.01,0.16c2.22,0,4.06,1.72,4.23,3.93l1.4,18.44
					c0.11,1.51-2.39,2.74-5.55,2.72l-81.61-0.46c-3.16-0.02-5.75-1.27-5.75-2.78l0.01-17.76C49.26,191.69,49.7,190.61,50.5,189.81z"
					/>
			</g>
			<linearGradient id="SVGID_7_" gradientUnits="userSpaceOnUse" x1="193.3467" y1="125.8608" x2="116.125" y2="269.104">
				<stop  offset="0" style="stop-color:#4042E2"/>
				<stop  offset="1" style="stop-color:#4F52FF"/>
			</linearGradient>
			<path class="st11" d="M125.21,234.56c0,3.28,2.66,5.93,5.93,5.93h7.22c3.28,0,5.93-2.66,5.93-5.93l0,0
				c0-3.28-2.66-5.93-5.93-5.93h-7.22C127.86,228.63,125.21,231.28,125.21,234.56L125.21,234.56z"/>
			<linearGradient id="SVGID_8_" gradientUnits="userSpaceOnUse" x1="129.4601" y1="192.0187" x2="80.5333" y2="288.6933">
				<stop  offset="0" style="stop-color:#4042E2"/>
				<stop  offset="1" style="stop-color:#4F52FF"/>
			</linearGradient>
			<path class="st12" d="M98.39,234.56c0,3.28,2.66,5.93,5.93,5.93h7.22c3.28,0,5.93-2.66,5.93-5.93l0,0c0-3.28-2.66-5.93-5.93-5.93
				h-7.22C101.05,228.63,98.39,231.28,98.39,234.56L98.39,234.56z"/>
			<linearGradient id="SVGID_9_" gradientUnits="userSpaceOnUse" x1="108.932" y1="181.6294" x2="60.0051" y2="278.304">
				<stop  offset="0" style="stop-color:#4042E2"/>
				<stop  offset="1" style="stop-color:#4F52FF"/>
			</linearGradient>
			<path class="st13" d="M72.6,234.56c0,3.28,2.66,5.93,5.93,5.93h7.22c3.28,0,5.93-2.66,5.93-5.93l0,0c0-3.28-2.66-5.93-5.93-5.93
				h-7.22C75.26,228.63,72.6,231.28,72.6,234.56L72.6,234.56z"/>
			
				<linearGradient id="SVGID_10_" gradientUnits="userSpaceOnUse" x1="4006.7126" y1="228.4853" x2="3964.2075" y2="278.6033" gradientTransform="matrix(-1 0 0 1 4056.8052 0)">
				<stop  offset="0" style="stop-color:#FE7062"/>
				<stop  offset="1" style="stop-color:#FF928E"/>
			</linearGradient>
			<path class="st14" d="M46.46,235.43c0,3.33,2.7,6.03,6.03,6.03h6.98c3.33,0,6.03-2.7,6.03-6.03l0,0c0-3.33-2.7-6.03-6.03-6.03
				h-6.98C49.16,229.4,46.46,232.1,46.46,235.43L46.46,235.43z"/>
			<linearGradient id="SVGID_11_" gradientUnits="userSpaceOnUse" x1="201.1017" y1="130.0415" x2="123.8802" y2="273.2844">
				<stop  offset="0" style="stop-color:#4042E2"/>
				<stop  offset="1" style="stop-color:#4F52FF"/>
			</linearGradient>
			<path class="st15" d="M125.21,253.12c0,3.28,2.66,5.93,5.93,5.93h7.22c3.28,0,5.93-2.66,5.93-5.93l0,0
				c0-3.28-2.66-5.93-5.93-5.93h-7.22C127.86,247.19,125.21,249.85,125.21,253.12L125.21,253.12z"/>
			<linearGradient id="SVGID_12_" gradientUnits="userSpaceOnUse" x1="167.4106" y1="174.5432" x2="22.3993" y2="366.1233">
				<stop  offset="0" style="stop-color:#4042E2"/>
				<stop  offset="1" style="stop-color:#4F52FF"/>
			</linearGradient>
			<path class="st16" d="M98.39,253.12c0,3.28,2.66,5.93,5.93,5.93h7.22c3.28,0,5.93-2.66,5.93-5.93l0,0c0-3.28-2.66-5.93-5.93-5.93
				h-7.22C101.05,247.19,98.39,249.85,98.39,253.12L98.39,253.12z"/>
			<linearGradient id="SVGID_13_" gradientUnits="userSpaceOnUse" x1="89.955" y1="233.8523" x2="44.5652" y2="345.8532">
				<stop  offset="0" style="stop-color:#4042E2"/>
				<stop  offset="1" style="stop-color:#4F52FF"/>
			</linearGradient>
			<path class="st17" d="M72.6,253.12c0,3.28,2.66,5.93,5.93,5.93h7.22c3.28,0,5.93-2.66,5.93-5.93l0,0c0-3.28-2.66-5.93-5.93-5.93
				h-7.22C75.26,247.19,72.6,249.85,72.6,253.12L72.6,253.12z"/>
			<linearGradient id="SVGID_14_" gradientUnits="userSpaceOnUse" x1="88.5238" y1="177.1216" x2="43.7235" y2="279.6909">
				<stop  offset="0" style="stop-color:#4042E2"/>
				<stop  offset="1" style="stop-color:#4F52FF"/>
			</linearGradient>
			<path class="st18" d="M45.79,253.12c0,3.28,2.66,5.93,5.93,5.93h7.22c3.28,0,5.93-2.66,5.93-5.93l0,0c0-3.28-2.66-5.93-5.93-5.93
				h-7.22C48.44,247.19,45.79,249.85,45.79,253.12L45.79,253.12z"/>
			<g class="st19">
				
					<linearGradient id="SVGID_15_" gradientUnits="userSpaceOnUse" x1="2626.1807" y1="1791.9945" x2="2710.4763" y2="1692.962" gradientTransform="matrix(-1 0 0 1 4056.8052 0)">
					<stop  offset="0" style="stop-color:#4042E2"/>
					<stop  offset="1" style="stop-color:#4F52FF"/>
				</linearGradient>
				<path class="st20" d="M125.21,269.57c0,3.28,2.66,5.93,5.93,5.93h7.22c3.28,0,5.93-2.66,5.93-5.93l0,0
					c0-3.28-2.66-5.93-5.93-5.93h-7.22C127.86,263.64,125.21,266.29,125.21,269.57L125.21,269.57z"/>
				<linearGradient id="SVGID_16_" gradientUnits="userSpaceOnUse" x1="175.3232" y1="180.5322" x2="30.3116" y2="372.1126">
					<stop  offset="0" style="stop-color:#4042E2"/>
					<stop  offset="1" style="stop-color:#4F52FF"/>
				</linearGradient>
				<path class="st21" d="M98.39,269.57c0,3.28,2.66,5.93,5.93,5.93h7.22c3.28,0,5.93-2.66,5.93-5.93l0,0
					c0-3.28-2.66-5.93-5.93-5.93h-7.22C101.05,263.64,98.39,266.29,98.39,269.57L98.39,269.57z"/>
				<linearGradient id="SVGID_17_" gradientUnits="userSpaceOnUse" x1="95.6787" y1="236.1718" x2="50.2887" y2="348.1729">
					<stop  offset="0" style="stop-color:#4042E2"/>
					<stop  offset="1" style="stop-color:#4F52FF"/>
				</linearGradient>
				<path class="st22" d="M72.6,269.57c0,3.28,2.66,5.93,5.93,5.93h7.22c3.28,0,5.93-2.66,5.93-5.93l0,0c0-3.28-2.66-5.93-5.93-5.93
					h-7.22C75.26,263.64,72.6,266.29,72.6,269.57L72.6,269.57z"/>
			</g>
			<g class="st19">
				
					<linearGradient id="SVGID_18_" gradientUnits="userSpaceOnUse" x1="2635.0896" y1="1799.5785" x2="2719.385" y2="1700.5459" gradientTransform="matrix(-1 0 0 1 4056.8052 0)">
					<stop  offset="0" style="stop-color:#4042E2"/>
					<stop  offset="1" style="stop-color:#4F52FF"/>
				</linearGradient>
				<path class="st23" d="M125.21,287.62c0,3.28,2.66,5.93,5.93,5.93h7.22c3.28,0,5.93-2.66,5.93-5.93l0,0
					c0-3.28-2.66-5.93-5.93-5.93h-7.22C127.86,281.69,125.21,284.34,125.21,287.62L125.21,287.62z"/>
				<linearGradient id="SVGID_19_" gradientUnits="userSpaceOnUse" x1="184.0092" y1="187.107" x2="38.9977" y2="378.6874">
					<stop  offset="0" style="stop-color:#4042E2"/>
					<stop  offset="1" style="stop-color:#4F52FF"/>
				</linearGradient>
				<path class="st24" d="M98.39,287.62c0,3.28,2.66,5.93,5.93,5.93h7.22c3.28,0,5.93-2.66,5.93-5.93l0,0
					c0-3.28-2.66-5.93-5.93-5.93h-7.22C101.05,281.69,98.39,284.34,98.39,287.62L98.39,287.62z"/>
				<linearGradient id="SVGID_20_" gradientUnits="userSpaceOnUse" x1="99.2041" y1="229.1895" x2="75.6249" y2="309.9482">
					<stop  offset="0" style="stop-color:#4042E2"/>
					<stop  offset="1" style="stop-color:#4F52FF"/>
				</linearGradient>
				<path class="st25" d="M72.6,287.62c0,3.28,2.66,5.93,5.93,5.93h7.22c3.28,0,5.93-2.66,5.93-5.93l0,0c0-3.28-2.66-5.93-5.93-5.93
					h-7.22C75.26,281.69,72.6,284.34,72.6,287.62L72.6,287.62z"/>
			</g>
			<linearGradient id="SVGID_21_" gradientUnits="userSpaceOnUse" x1="87.799" y1="171.2628" x2="67.1672" y2="242.0004">
				<stop  offset="0" style="stop-color:#4042E2"/>
				<stop  offset="1" style="stop-color:#4F52FF"/>
			</linearGradient>
			<path class="st26" d="M48.37,287.13c0,4.15,3.36,7.51,7.51,7.51h0.46c4.15,0,7.51-3.36,7.51-7.51v-14.38
				c0-4.15-3.36-7.51-7.51-7.51h-0.46c-4.15,0-7.51,3.36-7.51,7.51V287.13z"/>
		</g>
	</g>
	<g>
		<linearGradient id="SVGID_22_" gradientUnits="userSpaceOnUse" x1="518.4003" y1="115.8886" x2="415.2512" y2="198.0856">
			<stop  offset="0" style="stop-color:#4042E2"/>
			<stop  offset="1" style="stop-color:#4F52FF"/>
		</linearGradient>
		<path class="st27" d="M416.81,198.7c1.35,1.05,38.43-1.64,54,1.58c0,0,12.07-52.68-22.59-54.75
			c-34.67-2.07-46.69,19.32-46.69,19.32L416.81,198.7z"/>
		<path class="st28" d="M380.2,143.05l68.03,2.48c0,0-24.79,0.34-22.04,31.69s16.71,122.89-18.76,122.98s-36.04-16.11-36.04-16.11
			L380.2,143.05z"/>
		<linearGradient id="SVGID_23_" gradientUnits="userSpaceOnUse" x1="489.0014" y1="125.0418" x2="360.6023" y2="228.191">
			<stop  offset="0" style="stop-color:#4042E2"/>
			<stop  offset="1" style="stop-color:#4F52FF"/>
		</linearGradient>
		<path class="st29" d="M348.43,128.35l26.29-6.12c0,0,17.58-1.58,19.96,14.05s1.69,108.2,0.94,127.3s1.05,33.78,11.79,36.64
			l-78.17,1.35L348.43,128.35z"/>
		<path class="st2" d="M423.37,212.68c-0.42,0-0.78-0.33-0.8-0.76c-0.01-0.21-1.29-21.44-3.59-39.1
			c-2.38-18.33,7.65-22.19,8.07-22.35c0.42-0.15,0.88,0.06,1.03,0.48c0.15,0.42-0.06,0.88-0.48,1.03l0,0
			c-0.38,0.14-9.24,3.66-7.03,20.63c2.3,17.72,3.59,39,3.6,39.21c0.03,0.44-0.31,0.83-0.76,0.85
			C423.4,212.68,423.38,212.68,423.37,212.68z"/>
		<path class="st28" d="M294.97,129.62c0,0,47.88,2.63,79.75-7.39c0,0-21.19-1.45-21.19,47.47c0,37.4,5.55,108.79,0.7,122.34
			c-4.84,13.55-22.95,31.77-48.91,16.11C279.37,292.49,294.97,129.62,294.97,129.62z"/>
		<path class="st2" d="M347.31,236.55c-0.44,0-0.8-0.35-0.81-0.79c0-0.02-0.05-2.56-0.29-11.26c-0.01-0.44,0.34-0.82,0.78-0.83
			c0.43-0.02,0.82,0.34,0.83,0.78c0.24,8.71,0.29,11.25,0.29,11.28c0.01,0.44-0.35,0.81-0.79,0.82
			C347.33,236.55,347.32,236.55,347.31,236.55z"/>
		<path class="st2" d="M346.73,215.32c-0.43,0-0.79-0.34-0.8-0.78c-0.17-5.66-0.44-11.92-0.73-18.55c-0.39-8.96-0.79-18.22-1-27.14
			c-0.56-23.54,3.33-32.58,6.68-36.02c1.82-1.87,3.35-1.92,3.52-1.92c0.44,0,0.81,0.36,0.81,0.81c0,0.44-0.35,0.8-0.79,0.81
			c-0.18,0.01-9.44,1.03-8.61,36.29c0.21,8.9,0.61,18.16,1,27.1c0.29,6.63,0.56,12.9,0.73,18.57c0.01,0.44-0.34,0.82-0.78,0.83
			C346.75,215.32,346.74,215.32,346.73,215.32z"/>
	</g>
	<linearGradient id="SVGID_24_" gradientUnits="userSpaceOnUse" x1="338.5177" y1="109.5628" x2="242.8897" y2="-89.2147">
		<stop  offset="0" style="stop-color:#4042E2"/>
		<stop  offset="1" style="stop-color:#4F52FF"/>
	</linearGradient>
	<path class="st30" d="M282.24,56.28c0,0,52.83,5.76,59.63-3.2c0,0-5.41-16.11-21.49-15.04C304.31,39.11,282.24,56.28,282.24,56.28z
		"/>
	<linearGradient id="SVGID_25_" gradientUnits="userSpaceOnUse" x1="110.3164" y1="176.8747" x2="341.8732" y2="176.8747">
		<stop  offset="0" style="stop-color:#4042E2"/>
		<stop  offset="1" style="stop-color:#4F52FF"/>
	</linearGradient>
	<path class="st31" d="M110.43,74.41c4.61,51.77,14.28,161.27,18.49,214.61c0.94,11.89,10.47,21.28,22.37,22.05
		c42.4,2.72,137.83,8,174.45,3.09h0c-8.39-4.14-13.67-12.71-13.6-22.06l1.94-239.35c0.07-8.46,8.49-14.53,16.41-11.57
		c4.99,1.87,8.77,5.85,11.36,11.91c-3.46-10.08-8.9-17.45-21.49-15.04c0,0-123.18,1.23-182.95,4.94
		C121.19,43.98,108.99,58.2,110.43,74.41z"/>
	<defs>
		<filter id="Adobe_OpacityMaskFilter" filterUnits="userSpaceOnUse" x="115.14" y="43.46" width="199.06" height="269.11">
			<feFlood  style="flood-color:white;flood-opacity:1" result="back"/>
			<feBlend  in="SourceGraphic" in2="back" mode="normal"/>
		</filter>
	</defs>
	<mask maskUnits="userSpaceOnUse" x="115.14" y="43.46" width="199.06" height="269.11" id="SVGID_26_">
		<g class="st32">
			<defs>
				<filter id="Adobe_OpacityMaskFilter_1_" filterUnits="userSpaceOnUse" x="115.14" y="43.46" width="199.06" height="269.11">
					<feFlood  style="flood-color:white;flood-opacity:1" result="back"/>
					<feBlend  in="SourceGraphic" in2="back" mode="normal"/>
				</filter>
			</defs>
			<mask maskUnits="userSpaceOnUse" x="115.14" y="43.46" width="199.06" height="269.11" id="SVGID_26_">
			</mask>
			<linearGradient id="SVGID_27_" gradientUnits="userSpaceOnUse" x1="289.4993" y1="94.2129" x2="34.636" y2="420.3596">
				<stop  offset="0" style="stop-color:#FFFFFF"/>
				<stop  offset="1" style="stop-color:#000000"/>
			</linearGradient>
			<path class="st34" d="M140.9,49.83l165.51-6.37c-6.83,50.54-3.95,153.46-1.34,254.88c0.15,6.01,3.68,11.42,9.12,13.99l0,0
				c0,0-110.4,1.27-157.83-2.09c-11.17-0.79-20.28-9.24-21.94-20.32c-6.51-43.46-22.09-155.72-18.85-215.15
				C116.32,61.16,127.28,50.35,140.9,49.83z"/>
		</g>
	</mask>
	<path class="st1" d="M140.9,49.83l165.51-6.37c-6.83,50.54-3.95,153.46-1.34,254.88c0.15,6.01,3.68,11.42,9.12,13.99l0,0
		c0,0-110.4,1.27-157.83-2.09c-11.17-0.79-20.28-9.24-21.94-20.32c-6.51-43.46-22.09-155.72-18.85-215.15
		C116.32,61.16,127.28,50.35,140.9,49.83z"/>
	<g>
		<linearGradient id="SVGID_28_" gradientUnits="userSpaceOnUse" x1="137.013" y1="108.1177" x2="282.2417" y2="108.1177">
			<stop  offset="0" style="stop-color:#DAE3FE"/>
			<stop  offset="1" style="stop-color:#E9EFFD"/>
		</linearGradient>
		<path class="st35" d="M141.89,105.66c23.27-0.56,112.6-2.8,135.15-3.37c2.85-0.07,5.2,1.69,5.2,3.89l0,0
			c0,2.09-2.14,3.81-4.85,3.89l-135.07,3.87c-2.6,0.07-4.85-1.39-5.18-3.39l-0.08-0.5C136.67,107.77,138.92,105.73,141.89,105.66z"
			/>
		<linearGradient id="SVGID_29_" gradientUnits="userSpaceOnUse" x1="139.6754" y1="126.117" x2="237.1567" y2="126.117">
			<stop  offset="0" style="stop-color:#DAE3FE"/>
			<stop  offset="1" style="stop-color:#E9EFFD"/>
		</linearGradient>
		<path class="st36" d="M140.43,130.1L140.43,130.1c0.4,0.51,1.12,0.82,1.89,0.81l92.74-1.56c1.17-0.02,2.1-0.75,2.1-1.65v-4.72
			c0-0.94-1.01-1.69-2.22-1.65l-90.16,2.6C140.76,124.04,138.37,127.44,140.43,130.1z"/>
	</g>
	<g>
		<path class="st1" d="M150.1,280.31c17.57,0.18,85,0.76,102.03,0.91c2.15,0.02,3.85,1.85,3.76,4.05l0,0
			c-0.09,2.09-1.78,3.74-3.82,3.73l-101.99-0.4c-1.96-0.01-3.6-1.55-3.77-3.55l-0.04-0.51C146.08,282.25,147.86,280.29,150.1,280.31
			z"/>
	</g>
	<g>
		<path class="st2" d="M161.15,87.66l-0.61-23.05l4.04-0.11l0.61,23.05L161.15,87.66z"/>
		<path class="st2" d="M186.2,86.99l-5.23,0.14l-7.57-16.51l-0.2,0.01c0.3,1.26,0.46,2.63,0.5,4.09l0.33,12.6l-3.97,0.11
			l-0.61-23.05l5.27-0.14l7.5,16.33l0.17,0c-0.23-1.1-0.36-2.41-0.4-3.93l-0.33-12.58l3.94-0.1L186.2,86.99z"/>
		<path class="st2" d="M199.57,63.57l4.32-0.11l-4.81,23.19l-5.45,0.14l-6-22.91l4.32-0.11l3.38,14c0.3,1.19,0.62,2.9,0.94,5.13
			c0.17-1.91,0.4-3.63,0.7-5.18L199.57,63.57z"/>
		<path class="st2" d="M221.6,74.49c0.1,3.82-0.54,6.77-1.91,8.85c-1.37,2.09-3.39,3.17-6.05,3.24c-2.67,0.07-4.75-0.9-6.23-2.9
			c-1.48-2.01-2.28-4.93-2.38-8.78c-0.1-3.82,0.54-6.76,1.91-8.83c1.38-2.07,3.41-3.14,6.1-3.21c2.66-0.07,4.72,0.9,6.2,2.9
			C220.71,67.77,221.5,70.68,221.6,74.49z M209.42,74.81c0.07,2.63,0.45,4.62,1.15,5.98c0.7,1.36,1.69,2.02,2.97,1.99
			c2.59-0.07,3.81-2.79,3.66-8.17c-0.14-5.38-1.5-8.04-4.06-7.97c-1.3,0.03-2.27,0.75-2.89,2.14
			C209.62,70.16,209.35,72.18,209.42,74.81z"/>
		<path class="st2" d="M226.04,85.94l-0.61-23.05l4.04-0.11l0.61,23.05L226.04,85.94z"/>
		<path class="st2" d="M242.07,65.87c-1.23,0.03-2.18,0.78-2.85,2.24c-0.67,1.46-0.97,3.47-0.91,6.03c0.14,5.34,1.6,7.97,4.39,7.9
			c1.22-0.03,2.49-0.45,3.8-1.27l0.1,3.82c-1.11,0.78-2.53,1.19-4.29,1.23c-2.6,0.07-4.62-0.91-6.06-2.94
			c-1.45-2.03-2.22-4.91-2.32-8.65c-0.1-3.74,0.54-6.68,1.92-8.81c1.38-2.13,3.35-3.23,5.9-3.3c0.84-0.02,1.65,0.07,2.43,0.28
			c0.78,0.21,1.62,0.59,2.52,1.15l-1.33,3.52c-0.48-0.31-0.99-0.6-1.54-0.85C243.29,65.98,242.7,65.86,242.07,65.87z"/>
		<path class="st2" d="M260.28,85.03l-10.39,0.27l-0.61-23.05l10.39-0.27l0.1,3.7l-6.1,0.16l0.14,5.49l5.66-0.15l0.1,3.72
			l-5.66,0.15l0.17,6.38l6.1-0.16L260.28,85.03z"/>
	</g>
	<g>
		<path class="st1" d="M284.75,262.4H146.42c-1.76,0-3.24-1.38-3.42-3.18l-10.28-106.87c-0.2-2.05,1.34-3.83,3.35-3.87l143.32-3.01
			c1.86-0.04,3.41,1.45,3.5,3.35l5.29,109.88C288.28,260.72,286.71,262.4,284.75,262.4z"/>
		<linearGradient id="SVGID_30_" gradientUnits="userSpaceOnUse" x1="132.1175" y1="203.9337" x2="288.7753" y2="203.9337">
			<stop  offset="0" style="stop-color:#DAE3FE"/>
			<stop  offset="1" style="stop-color:#E9EFFD"/>
		</linearGradient>
		<path class="st37" d="M284.75,263H146.42c-2.08,0-3.8-1.6-4-3.72l-10.28-106.87c-0.11-1.16,0.26-2.32,1.03-3.18
			c0.75-0.84,1.78-1.32,2.89-1.34l143.32-3.01c2.19-0.04,3.99,1.67,4.1,3.92l5.29,109.88c0.05,1.14-0.36,2.26-1.14,3.08
			C286.87,262.55,285.84,263,284.75,263z M279.47,146.06c-0.02,0-0.04,0-0.06,0l-143.32,3.01c-0.78,0.02-1.5,0.35-2.03,0.95
			c-0.55,0.62-0.82,1.45-0.74,2.28l10.28,106.87c0.15,1.51,1.36,2.65,2.83,2.65h138.33c0.77,0,1.48-0.31,2.02-0.88
			c0.56-0.59,0.85-1.38,0.81-2.21l-5.29-109.88C282.23,147.27,280.99,146.06,279.47,146.06z"/>
		<linearGradient id="SVGID_31_" gradientUnits="userSpaceOnUse" x1="244.3509" y1="204.7193" x2="252.9295" y2="204.7193">
			<stop  offset="0" style="stop-color:#DAE3FE"/>
			<stop  offset="1" style="stop-color:#E9EFFD"/>
		</linearGradient>
		<path class="st38" d="M252.34,262.08c-0.31,0-0.57-0.24-0.59-0.55l-7.39-113.54c-0.02-0.33,0.23-0.61,0.55-0.63
			c0.33-0.02,0.61,0.23,0.63,0.55l7.39,113.54c0.02,0.33-0.23,0.61-0.55,0.63C252.36,262.08,252.35,262.08,252.34,262.08z"/>
		<linearGradient id="SVGID_32_" gradientUnits="userSpaceOnUse" x1="134.8038" y1="161.8948" x2="283.0709" y2="161.8948">
			<stop  offset="0" style="stop-color:#DAE3FE"/>
			<stop  offset="1" style="stop-color:#E9EFFD"/>
		</linearGradient>
		<path class="st39" d="M135.63,164.36c-0.45,0-0.82-0.36-0.83-0.81c-0.01-0.46,0.35-0.84,0.81-0.85l146.61-3.27
			c0.46-0.01,0.84,0.35,0.85,0.81c0.01,0.46-0.35,0.84-0.81,0.85l-146.61,3.27C135.65,164.36,135.64,164.36,135.63,164.36z"/>
		<linearGradient id="SVGID_33_" gradientUnits="userSpaceOnUse" x1="135.0406" y1="179.7816" x2="284.0544" y2="179.7816">
			<stop  offset="0" style="stop-color:#DAE3FE"/>
			<stop  offset="1" style="stop-color:#E9EFFD"/>
		</linearGradient>
		<path class="st40" d="M135.63,182.14c-0.32,0-0.58-0.26-0.59-0.58c-0.01-0.33,0.25-0.6,0.58-0.61l147.83-3.54
			c0.33-0.01,0.6,0.25,0.61,0.58c0.01,0.33-0.25,0.6-0.58,0.61l-147.83,3.54C135.64,182.14,135.64,182.14,135.63,182.14z"/>
		<linearGradient id="SVGID_34_" gradientUnits="userSpaceOnUse" x1="136.4208" y1="197.782" x2="285.8425" y2="197.782">
			<stop  offset="0" style="stop-color:#DAE3FE"/>
			<stop  offset="1" style="stop-color:#E9EFFD"/>
		</linearGradient>
		<path class="st41" d="M137.01,199.76c-0.32,0-0.59-0.26-0.59-0.58c-0.01-0.33,0.25-0.6,0.58-0.6l148.24-2.78
			c0.34,0,0.6,0.25,0.6,0.58c0.01,0.33-0.25,0.6-0.58,0.6l-148.24,2.78C137.02,199.76,137.02,199.76,137.01,199.76z"/>
		<linearGradient id="SVGID_35_" gradientUnits="userSpaceOnUse" x1="138.3799" y1="214.6564" x2="286.7131" y2="214.6564">
			<stop  offset="0" style="stop-color:#DAE3FE"/>
			<stop  offset="1" style="stop-color:#E9EFFD"/>
		</linearGradient>
		<path class="st42" d="M138.97,215.91c-0.32,0-0.59-0.26-0.59-0.59c0-0.33,0.26-0.59,0.59-0.6l147.15-1.32
			c0.33,0,0.59,0.26,0.6,0.59c0,0.33-0.26,0.59-0.59,0.6L138.97,215.91C138.98,215.91,138.97,215.91,138.97,215.91z"/>
		<linearGradient id="SVGID_36_" gradientUnits="userSpaceOnUse" x1="140.2493" y1="233.2108" x2="285.8424" y2="233.2108">
			<stop  offset="0" style="stop-color:#DAE3FE"/>
			<stop  offset="1" style="stop-color:#E9EFFD"/>
		</linearGradient>
		<path class="st43" d="M140.84,234.81c-0.32,0-0.59-0.26-0.59-0.58c0-0.33,0.26-0.6,0.58-0.6l144.41-2.01
			c0.32-0.01,0.6,0.26,0.6,0.58c0,0.33-0.26,0.6-0.58,0.6L140.84,234.81C140.85,234.81,140.84,234.81,140.84,234.81z"/>
		<linearGradient id="SVGID_37_" gradientUnits="userSpaceOnUse" x1="141.7584" y1="248.2444" x2="286.713" y2="248.2444">
			<stop  offset="0" style="stop-color:#DAE3FE"/>
			<stop  offset="1" style="stop-color:#E9EFFD"/>
		</linearGradient>
		<path class="st44" d="M142.35,250.07c-0.32,0-0.59-0.26-0.59-0.58c-0.01-0.33,0.25-0.6,0.58-0.6l143.77-2.46
			c0.33-0.01,0.6,0.25,0.6,0.58c0.01,0.33-0.25,0.6-0.58,0.6l-143.77,2.46C142.36,250.07,142.35,250.07,142.35,250.07z"/>
	</g>
	<g>
		<g>
			<linearGradient id="SVGID_38_" gradientUnits="userSpaceOnUse" x1="389.1265" y1="170.6763" x2="379.724" y2="377.528">
				<stop  offset="0" style="stop-color:#09005D"/>
				<stop  offset="1" style="stop-color:#1A0F91"/>
			</linearGradient>
			<path class="st45" d="M329.59,174.45c-0.68,27.3-2.87,121.46-1.82,154.83c0.11,3.54,2.94,6.37,6.48,6.49
				c17.48,0.57,67.78,2.02,96.38,0.82c5.96-0.25,10.69-5.07,10.82-11.04c0.59-28.65,1.91-109.24-1.21-146.16
				c-0.37-4.42-3.85-7.95-8.26-8.39c-19.04-1.9-69.61-6.56-94.32-4.96C333.2,166.34,329.7,169.99,329.59,174.45z"/>
			<linearGradient id="SVGID_39_" gradientUnits="userSpaceOnUse" x1="354.2983" y1="197.0367" x2="485.3979" y2="413.9937">
				<stop  offset="0" style="stop-color:#FE7062"/>
				<stop  offset="1" style="stop-color:#FF928E"/>
			</linearGradient>
			<path class="st46" d="M336.7,182.93c-0.95,22.36-3.97,96.74-3.01,124.24c0.14,4.02,3.31,7.27,7.32,7.51
				c16.53,0.97,58.94,3.1,83.19,1.16c4.37-0.35,7.79-3.88,8.03-8.26c1.23-22.81,4.76-92.07,3.84-119.26
				c-0.15-4.34-3.51-7.88-7.83-8.27c-17.89-1.61-63.82-5.43-84.43-4.3C339.94,175.96,336.86,179.06,336.7,182.93z"/>
			<path class="st10" d="M339.55,185.64c-0.89,21.2-3.69,91.71-2.8,117.79c0.13,3.81,3.08,6.89,6.82,7.12
				c15.4,0.92,54.9,2.94,77.48,1.1c4.07-0.33,7.26-3.68,7.48-7.83c1.14-21.62,4.43-87.28,3.58-113.07
				c-0.14-4.11-3.27-7.47-7.29-7.84c-16.66-1.52-59.45-5.15-78.64-4.08C342.57,179.02,339.7,181.97,339.55,185.64z"/>
			<path class="st28" d="M372.8,170.82L372.8,170.82c0,0.84,0.65,1.53,1.49,1.57c4.13,0.22,15.76,0.83,20.96,1.13
				c1.03,0.06,1.83-0.86,1.64-1.87l-0.03-0.17c-0.13-0.69-0.7-1.21-1.4-1.27c-3.51-0.32-14.12-1.21-21.14-0.96
				C373.47,169.27,372.8,169.97,372.8,170.82z"/>
		</g>
		<g>
			<linearGradient id="SVGID_40_" gradientUnits="userSpaceOnUse" x1="368.0779" y1="283.7501" x2="280.83" y2="534.2117">
				<stop  offset="0" style="stop-color:#4042E2"/>
				<stop  offset="1" style="stop-color:#4F52FF"/>
			</linearGradient>
			<path class="st47" d="M423.4,228.58c-0.21,8.29-6.39,14.87-13.81,14.68l-44.67-1.13c-7.42-0.19-13.26-7.06-13.05-15.36l0-0.18
				c0.21-8.29,6.39-14.87,13.81-14.68l44.67,1.13c7.42,0.19,13.26,7.06,13.05,15.36L423.4,228.58z"/>
			<g>
				<path class="st1" d="M381.75,223.94c-0.04,1.46-0.43,2.58-1.19,3.34c-0.76,0.76-1.83,1.13-3.23,1.09l-0.64-0.02l-0.13,5
					l-2.56-0.06l0.35-13.78l3.5,0.09C380.52,219.67,381.82,221.12,381.75,223.94z M376.74,226.14l0.49,0.01
					c0.63,0.02,1.1-0.15,1.42-0.48c0.32-0.34,0.48-0.9,0.5-1.69c0.02-0.72-0.11-1.26-0.38-1.62c-0.27-0.36-0.71-0.54-1.3-0.56
					l-0.62-0.02L376.74,226.14z"/>
				<path class="st1" d="M389.38,233.68l-0.7-3.5l-3.59-0.09l-0.88,3.46l-2.56-0.06l3.76-13.75l3.48,0.09l3.07,13.93L389.38,233.68z
					 M388.26,227.9l-0.65-3.22c-0.04-0.2-0.13-0.69-0.26-1.47c-0.13-0.79-0.21-1.31-0.24-1.58c-0.1,0.54-0.21,1.13-0.36,1.78
					c-0.14,0.65-0.51,2.12-1.09,4.43L388.26,227.9z"/>
				<path class="st1" d="M396.37,225.51l1.98-5.39l2.69,0.07l-3.48,8.18l-0.14,5.52l-2.53-0.06l0.14-5.42l-3.05-8.44l2.71,0.07
					L396.37,225.51z"/>
			</g>
		</g>
	</g>
	<g>
		<g>
			
				<linearGradient id="SVGID_41_" gradientUnits="userSpaceOnUse" x1="-308.2889" y1="355.2891" x2="-342.7641" y2="325.6717" gradientTransform="matrix(1 0 0 1 855.6062 0)">
				<stop  offset="0" style="stop-color:#FF928E"/>
				<stop  offset="1" style="stop-color:#FEB3B1"/>
			</linearGradient>
			<path class="st48" d="M408.66,239.23c-0.1,0.31,1.03,0.78,1.7-0.49c0.02-0.61,0.39-3.22,0.03-3.71
				c-1.94-2.64-5.69-5.95-5.69-5.95c-0.63,0.63-0.11,1.24-0.11,1.24l1.82,1.9c-0.38,0.69-0.85,1.27-1.06,2.1
				c-0.16,0.63-0.06,1.3,0.25,1.88c0.32,0.58,0.76,1.32,1.17,1.91C407.55,239.22,408.66,239.23,408.66,239.23z"/>
			<linearGradient id="SVGID_42_" gradientUnits="userSpaceOnUse" x1="410.4019" y1="222.2449" x2="407.2677" y2="239.7959">
				<stop  offset="0" style="stop-color:#FF928E"/>
				<stop  offset="1" style="stop-color:#FEB3B1"/>
			</linearGradient>
			<path class="st49" d="M407.2,233.45l1.66,1.41l0.52,1.4l-1.48,1.64c0,0-0.5-2.78-0.87-3.38
				C406.67,233.92,406.86,233.63,407.2,233.45z"/>
		</g>
		<g>
			
				<linearGradient id="SVGID_43_" gradientUnits="userSpaceOnUse" x1="2232.4272" y1="339.5585" x2="2191.9417" y2="383.5956" gradientTransform="matrix(-1 0 0 1 2660.8884 0)">
				<stop  offset="0" style="stop-color:#09005D"/>
				<stop  offset="1" style="stop-color:#1A0F91"/>
			</linearGradient>
			<path class="st50" d="M441.26,342.84c0,0,0.42,2.37,0.62,4.72c0.08,0.92-0.63,1.72-1.55,1.75c-3.13,0.13-9.82,0.38-12.22,0.28
				c-0.36-0.02-0.6-0.39-0.46-0.72l0,0c0.11-0.28,0.33-0.51,0.6-0.64l11.06-5.08L441.26,342.84z"/>
			
				<linearGradient id="SVGID_44_" gradientUnits="userSpaceOnUse" x1="2219.2861" y1="342.8292" x2="2222.8823" y2="342.8292" gradientTransform="matrix(-1 0 0 1 2660.8884 0)">
				<stop  offset="0" style="stop-color:#FF928E"/>
				<stop  offset="1" style="stop-color:#FEB3B1"/>
			</linearGradient>
			<path class="st51" d="M441.6,341.44l-0.34,2.84c0,0-1.94,0.9-3.26-0.11l0.8-3.16L441.6,341.44z"/>
			<path class="st28" d="M441.35,288.07c0.15,0.74,0.78,37-3.09,53.25c-0.06,0.27,0.07,0.54,0.32,0.64
				c0.59,0.24,1.76,0.59,3.16,0.64c0.43,0.01,0.82-0.27,0.94-0.68c1.11-3.77,6.42-22.66,7.11-40.7c0.77-20.16,0-0.69,0-0.69
				l-0.45-12.46L441.35,288.07z"/>
			
				<linearGradient id="SVGID_45_" gradientUnits="userSpaceOnUse" x1="2223.3447" y1="331.2088" x2="2182.8594" y2="375.2455" gradientTransform="matrix(-1 0 0 1 2660.8884 0)">
				<stop  offset="0" style="stop-color:#09005D"/>
				<stop  offset="1" style="stop-color:#1A0F91"/>
			</linearGradient>
			<path class="st52" d="M453.98,344.08c0,0,0.67,1.2,1.31,4.38c0.12,0.58-0.29,1.13-0.87,1.18c-1.03,0.1-2.62,0.23-3.9,0.22
				c-0.59,0-1.05-0.52-0.97-1.1c0.14-1.16,0.58-3.07,1.94-4.56L453.98,344.08z"/>
			
				<linearGradient id="SVGID_46_" gradientUnits="userSpaceOnUse" x1="2206.3257" y1="342.6448" x2="2209.4307" y2="342.6448" gradientTransform="matrix(-1 0 0 1 2660.8884 0)">
				<stop  offset="0" style="stop-color:#FF928E"/>
				<stop  offset="1" style="stop-color:#FEB3B1"/>
			</linearGradient>
			<path class="st53" d="M454.56,340.43l-0.79,4.29c0,0-0.78,0.58-2.32,0.16l0.38-4.62L454.56,340.43z"/>
			<path class="st28" d="M456.69,289.18c3.17,19.13-0.69,47.28-1.99,52.79c-0.08,0.34-0.35,0.6-0.69,0.65
				c-0.58,0.1-1.54,0.17-2.48-0.1c-0.32-0.09-0.55-0.39-0.57-0.73c-0.17-4.45,0.14-31.8-2.81-42.61c-0.15-0.55-0.48-1.03-0.95-1.35
				l-5.73-4.08l-0.44-6.59L456.69,289.18z"/>
			<g>
				<linearGradient id="SVGID_47_" gradientUnits="userSpaceOnUse" x1="455.6889" y1="234.7326" x2="421.1319" y2="323.5933">
					<stop  offset="0" style="stop-color:#4042E2"/>
					<stop  offset="1" style="stop-color:#4F52FF"/>
				</linearGradient>
				<path class="st54" d="M436.49,252.93c9.5-0.16,19.98,2.49,19.98,2.49c2.83,16.52,0.5,35.58,0.5,35.58
					c-7.35,1.93-15.65-1.18-15.65-1.18c-1.22-6.91-6.93-26.34-6.93-26.34c-4.64-0.58-8.46-1.92-11.61-3.69
					c2.4-2.78,3.53-6.33,4.03-8.42C430.16,252.42,433.56,252.98,436.49,252.93z"/>
				
					<linearGradient id="SVGID_48_" gradientUnits="userSpaceOnUse" x1="-311.2111" y1="358.6905" x2="-345.6862" y2="329.0732" gradientTransform="matrix(1 0 0 1 855.6062 0)">
					<stop  offset="0" style="stop-color:#FF928E"/>
					<stop  offset="1" style="stop-color:#FEB3B1"/>
				</linearGradient>
				<path class="st55" d="M408.43,238.94c0.93-1.13,2.11-0.59,2.11-0.59c1.4,5.9,8.73,10.69,16.26,13.03
					c-0.49,2.09-1.62,5.64-4.03,8.42C410.28,252.77,408.43,238.94,408.43,238.94z"/>
			</g>
			<linearGradient id="SVGID_49_" gradientUnits="userSpaceOnUse" x1="470.1271" y1="240.3475" x2="435.5702" y2="329.2082">
				<stop  offset="0" style="stop-color:#4042E2"/>
				<stop  offset="1" style="stop-color:#4F52FF"/>
			</linearGradient>
			<path class="st56" d="M452.83,264.62l3.64-9.2c0,0,8.87,6.03,10.33,13.67c-1.68,0.12-4.73,0.56-7.71,2.07
				C458.43,267.56,452.83,264.62,452.83,264.62z"/>
			<linearGradient id="SVGID_50_" gradientUnits="userSpaceOnUse" x1="445.2308" y1="238.0256" x2="443.9772" y2="259.651">
				<stop  offset="0" style="stop-color:#FF928E"/>
				<stop  offset="1" style="stop-color:#FEB3B1"/>
			</linearGradient>
			<path class="st57" d="M446.11,245.22l3.02,8.74c0.05,0.14-0.01,0.31-0.14,0.38c-0.82,0.46-3.79,1.77-7.37-0.5
				c-0.37-0.24-0.63-0.62-0.68-1.06l-0.98-7.57H446.11z"/>
			<g>
				<linearGradient id="SVGID_51_" gradientUnits="userSpaceOnUse" x1="438.7928" y1="234.8731" x2="443.0238" y2="245.3723">
					<stop  offset="0" style="stop-color:#FF928E"/>
					<stop  offset="1" style="stop-color:#FEB3B1"/>
				</linearGradient>
				<path class="st58" d="M439.54,237.13c0,0-3.32,6.25-2.89,8.77c0.43,2.52,4.54,2.34,8.13,0.29l2.51-6.75L439.54,237.13z"/>
				
					<linearGradient id="SVGID_52_" gradientUnits="userSpaceOnUse" x1="-4387.9082" y1="-542.7559" x2="-4385.0347" y2="-526.3669" gradientTransform="matrix(-0.746 -0.6659 -0.6659 0.746 -3181.5691 -2285.3442)">
					<stop  offset="0" style="stop-color:#4042E2"/>
					<stop  offset="1" style="stop-color:#4F52FF"/>
				</linearGradient>
				<path class="st59" d="M444.62,242.88c-0.15-0.06-0.2-0.24-0.11-0.38c0.27-0.41,0.76-1.23,0.92-1.96c0,0,0.6-0.38-1.52-0.89
					c-2.12-0.51-5.27-1.29-5.93-3.09c-0.65-1.76,1.05-6.17,3.76-2.65c0.1,0.13,0.31,0.14,0.41,0c0.44-0.58,1.61-1.78,3.23-1.05
					c1.52,0.68,1.69,1.79,1.67,2.35c-0.01,0.16,0.14,0.29,0.3,0.26c0.77-0.15,2.61-0.27,3.47,1.62c0.71,1.56,0.25,2.44-0.17,2.87
					c-0.14,0.14-0.08,0.37,0.11,0.43c0.5,0.15,1.16,0.58,1.09,1.76c-0.09,1.63-1.92,1.49-2.44,1.41c-0.09-0.01-0.17,0.02-0.23,0.08
					c-0.45,0.49-2.45,2.59-4.63,2.84c-0.19,0.02-0.33-0.16-0.27-0.34l0.94-2.73c0.04-0.13-0.02-0.27-0.14-0.32L444.62,242.88z"/>
				
					<linearGradient id="SVGID_53_" gradientUnits="userSpaceOnUse" x1="-4568.606" y1="-971.816" x2="-4564.375" y2="-961.3168" gradientTransform="matrix(-0.746 -0.6659 -0.6659 0.746 -3181.5691 -2285.3442)">
					<stop  offset="0" style="stop-color:#FF928E"/>
					<stop  offset="1" style="stop-color:#FEB3B1"/>
				</linearGradient>
				<path class="st60" d="M444.24,243.27c0,0,2.36-1.62,2.54-0.26c0.17,1.37-2.13,1.98-3.27,1.47L444.24,243.27z"/>
			</g>
			
				<linearGradient id="SVGID_54_" gradientUnits="userSpaceOnUse" x1="-3748.0002" y1="66.6714" x2="-3778.6738" y2="109.6849" gradientTransform="matrix(-1 0 0 1 -3437.7915 0)">
				<stop  offset="0" style="stop-color:#FF928E"/>
				<stop  offset="1" style="stop-color:#FEB3B1"/>
			</linearGradient>
			<path class="st61" d="M459.09,271.17c0,0,3.1,13.99,0.29,21.86c3.44,1.6,2.81,1.3,2.81,1.3s6.81-19.91,4.61-25.22
				C462.47,268.64,460.32,269.8,459.09,271.17z"/>
			
				<linearGradient id="SVGID_55_" gradientUnits="userSpaceOnUse" x1="-3738.4204" y1="73.502" x2="-3769.094" y2="116.5155" gradientTransform="matrix(-1 0 0 1 -3437.7915 0)">
				<stop  offset="0" style="stop-color:#FF928E"/>
				<stop  offset="1" style="stop-color:#FEB3B1"/>
			</linearGradient>
			<path class="st62" d="M459.38,293.02c0,0-1.77,2.3-1.63,3.21c0.14,0.91,0.18,1.29,0.18,1.29s0.89-0.61,0.84-1.39
				c-0.12,2.47-0.95,5.29-0.2,5.15c0.75-0.14,4.65-3.73,3.77-7.56C460.33,292.34,459.77,292.49,459.38,293.02z"/>
		</g>
	</g>
	<g>
		<g>
			<linearGradient id="SVGID_56_" gradientUnits="userSpaceOnUse" x1="404.5575" y1="170.2544" x2="482.4511" y2="170.2544">
				<stop  offset="0" style="stop-color:#4042E2"/>
				<stop  offset="1" style="stop-color:#4F52FF"/>
			</linearGradient>
			<circle class="st63" cx="443.5" cy="170.25" r="38.95"/>
			<linearGradient id="SVGID_57_" gradientUnits="userSpaceOnUse" x1="408.3396" y1="170.6765" x2="478.8224" y2="170.6765">
				<stop  offset="0" style="stop-color:#DAE3FE"/>
				<stop  offset="1" style="stop-color:#E9EFFD"/>
			</linearGradient>
			<circle class="st64" cx="443.58" cy="170.68" r="35.24"/>
		</g>
		<g>
			<linearGradient id="SVGID_58_" gradientUnits="userSpaceOnUse" x1="418.5443" y1="178.0119" x2="480.7115" y2="178.0119">
				<stop  offset="0" style="stop-color:#4042E2"/>
				<stop  offset="1" style="stop-color:#4F52FF"/>
			</linearGradient>
			<path class="st65" d="M480.32,160.81l0.34,29.36l0.05,4.55c0.02,0.59-0.45,1.1-1.04,1.12l-58.34,2.06
				c-0.59,0.02-1.1-0.45-1.12-1.04l-0.23-4.54l-1.44-28.97c-0.02-0.59,0.64-1.78,1.92-1.73l56.96-3.49
				c0.74-0.04,1.47,0.22,2.02,0.72C479.99,159.36,480.31,160.07,480.32,160.81z"/>
			<path class="st28" d="M479.25,193.86c0.02,0.55-0.43,1.02-0.99,1.04l-55.57,1.96c-0.57,0.02-1.04-0.42-1.06-0.97l-1.57-31.27
				c-0.02-0.55,0.61-1.66,1.83-1.62l54.26-3.29c0.71-0.04,1.4,0.2,1.92,0.67c0.52,0.47,0.82,1.13,0.83,1.83L479.25,193.86z"/>
			<path class="st2" d="M472.01,195.48c-0.12,0-0.21-0.09-0.22-0.21c0-0.12,0.09-0.22,0.21-0.22l6.22-0.22
				c0.35-0.01,0.71-0.19,0.98-0.49c0.28-0.3,0.43-0.67,0.42-1.02l-0.67-19.03c0-0.12,0.09-0.22,0.21-0.22
				c0.12,0,0.22,0.09,0.22,0.21l0.67,19.03c0.02,0.46-0.18,0.95-0.53,1.33c-0.35,0.38-0.82,0.61-1.28,0.63L472.01,195.48
				C472.02,195.48,472.01,195.48,472.01,195.48z"/>
			<path class="st2" d="M420.51,176.57c-0.12,0-0.21-0.09-0.22-0.21l-0.4-11.41c-0.02-0.59,0.18-1.19,0.56-1.65
				c0.4-0.49,0.94-0.77,1.53-0.79l4.94-0.17c0.13,0,0.22,0.09,0.22,0.21c0,0.12-0.09,0.22-0.21,0.22l-4.94,0.17
				c-0.46,0.02-0.89,0.24-1.21,0.63c-0.31,0.38-0.48,0.88-0.46,1.36l0.4,11.41C420.74,176.46,420.64,176.57,420.51,176.57
				C420.52,176.57,420.52,176.57,420.51,176.57z"/>
			<g>
				
					<linearGradient id="SVGID_59_" gradientUnits="userSpaceOnUse" x1="-774.4189" y1="505.3458" x2="-798.3817" y2="514.4644" gradientTransform="matrix(0.9994 -0.0353 0.0353 0.9994 1206.7534 -363.2318)">
					<stop  offset="0" style="stop-color:#FE7062"/>
					<stop  offset="1" style="stop-color:#FF928E"/>
				</linearGradient>
				<path class="st66" d="M434.53,174.96c-0.02-0.6-0.52-1.06-1.12-1.04l-7.21,0.25c-0.6,0.02-1.06,0.52-1.04,1.12l0.19,5.48
					c0.02,0.6,0.52,1.06,1.12,1.04l7.21-0.25c0.6-0.02,1.06-0.52,1.04-1.12L434.53,174.96z"/>
				<g>
					<path class="st67" d="M428.58,179.49c-0.14,0-0.27-0.05-0.37-0.15c-0.11-0.1-0.17-0.23-0.17-0.38l-0.06-1.81
						c-0.01-0.3,0.23-0.55,0.53-0.56l2.05-0.07c0.15,0,0.28,0.05,0.39,0.15c0.11,0.1,0.17,0.23,0.17,0.38l0.06,1.81
						c0.01,0.3-0.23,0.55-0.53,0.56l-2.05,0.07C428.6,179.49,428.59,179.49,428.58,179.49z M430.57,176.96
						C430.57,176.96,430.57,176.96,430.57,176.96l-2.06,0.07c-0.06,0-0.11,0.05-0.11,0.11l0.06,1.81c0,0.03,0.01,0.06,0.04,0.08
						c0.02,0.02,0.05,0.03,0.08,0.03l2.06-0.07c0.06,0,0.11-0.05,0.11-0.11l-0.06-1.81v0c0-0.03-0.01-0.06-0.04-0.08
						C430.63,176.97,430.6,176.96,430.57,176.96z"/>
					<g>
						<path class="st2" d="M425.25,177.88c-0.12,0-0.21-0.09-0.22-0.21c0-0.12,0.09-0.22,0.21-0.22l2.96-0.1
							c0.13,0,0.22,0.09,0.22,0.21c0,0.12-0.09,0.22-0.21,0.22L425.25,177.88C425.25,177.88,425.25,177.88,425.25,177.88z"/>
						<path class="st2" d="M425.28,178.62c-0.12,0-0.21-0.09-0.22-0.21c0-0.12,0.09-0.22,0.21-0.22l2.96-0.1
							c0.12,0,0.22,0.09,0.22,0.21c0,0.12-0.09,0.22-0.21,0.22L425.28,178.62C425.28,178.62,425.28,178.62,425.28,178.62z"/>
					</g>
					<g>
						<path class="st2" d="M431.41,177.67c-0.12,0-0.21-0.09-0.22-0.21c0-0.12,0.09-0.22,0.21-0.22l3.2-0.11
							c0.12,0,0.22,0.09,0.22,0.21c0,0.12-0.09,0.22-0.21,0.22L431.41,177.67C431.42,177.67,431.41,177.67,431.41,177.67z"/>
						<path class="st2" d="M431.44,178.4c-0.12,0-0.21-0.09-0.22-0.21c0-0.12,0.09-0.22,0.21-0.22l3.2-0.11
							c0.12,0,0.22,0.09,0.22,0.21c0,0.12-0.09,0.22-0.21,0.22L431.44,178.4C431.44,178.4,431.44,178.4,431.44,178.4z"/>
					</g>
					<g>
						<g>
							<path class="st2" d="M428.85,177.03c-0.1,0-0.18-0.06-0.21-0.16l-0.73-2.66c-0.03-0.12,0.04-0.24,0.15-0.27
								c0.12-0.03,0.24,0.04,0.27,0.15l0.73,2.66c0.03,0.12-0.04,0.24-0.15,0.27C428.89,177.02,428.87,177.03,428.85,177.03z"/>
							<path class="st2" d="M430.57,176.97c-0.01,0-0.03,0-0.04,0c-0.12-0.02-0.19-0.14-0.17-0.26l0.56-2.71
								c0.02-0.12,0.14-0.19,0.26-0.17c0.12,0.02,0.19,0.14,0.17,0.26l-0.56,2.71C430.76,176.9,430.67,176.97,430.57,176.97z"/>
						</g>
						<g>
							<path class="st2" d="M428.4,182.06c-0.01,0-0.03,0-0.04,0c-0.12-0.02-0.19-0.14-0.17-0.26l0.54-2.7
								c0.02-0.12,0.14-0.19,0.26-0.17c0.12,0.02,0.19,0.14,0.17,0.26l-0.54,2.7C428.59,181.99,428.5,182.06,428.4,182.06z"/>
							<path class="st2" d="M431.41,181.95c-0.09,0-0.18-0.06-0.21-0.16l-0.75-2.66c-0.03-0.12,0.03-0.24,0.15-0.27
								c0.12-0.03,0.24,0.03,0.27,0.15l0.75,2.66c0.03,0.12-0.03,0.24-0.15,0.27C431.45,181.95,431.43,181.95,431.41,181.95z"/>
						</g>
					</g>
				</g>
			</g>
			<path class="st1" d="M434.25,166.94c0.02,0.71-0.53,1.3-1.24,1.33l-8.03,0.28c-0.71,0.02-1.3-0.53-1.33-1.24l-0.01-0.15
				c-0.02-0.71,0.53-1.3,1.24-1.33l8.03-0.28c0.71-0.03,1.3,0.53,1.33,1.24L434.25,166.94z"/>
			<g>
				<path class="st1" d="M435.67,186.19c0.02,0.68-0.5,1.24-1.18,1.27l-8.89,0.31c-0.68,0.02-1.24-0.5-1.27-1.18l0-0.02
					c-0.02-0.68,0.5-1.24,1.18-1.27l8.89-0.31c0.68-0.02,1.24,0.5,1.27,1.18L435.67,186.19z"/>
				<path class="st1" d="M448.48,185.74c0.02,0.68-0.5,1.24-1.18,1.27l-8.89,0.31c-0.68,0.02-1.24-0.5-1.27-1.18l0-0.02
					c-0.02-0.68,0.5-1.24,1.18-1.27l8.89-0.31c0.68-0.02,1.24,0.5,1.27,1.18L448.48,185.74z"/>
				<path class="st1" d="M461.3,185.29c0.02,0.68-0.5,1.24-1.18,1.27l-8.89,0.31c-0.68,0.02-1.24-0.5-1.27-1.18l0-0.02
					c-0.02-0.68,0.5-1.24,1.18-1.27l8.89-0.31c0.68-0.02,1.24,0.5,1.27,1.18L461.3,185.29z"/>
				<path class="st1" d="M474.36,184.82c0.02,0.68-0.5,1.24-1.18,1.27l-8.89,0.31c-0.68,0.02-1.24-0.5-1.27-1.18l0-0.02
					c-0.02-0.68,0.5-1.24,1.18-1.27l8.89-0.31c0.68-0.02,1.24,0.5,1.27,1.18L474.36,184.82z"/>
			</g>
			<g class="st68">
				<g>
					<path class="st1" d="M444.24,191.32c0.02,0.54-0.4,0.99-0.94,1.01l-16.54,0.58c-0.54,0.02-0.99-0.4-1.01-0.94l0-0.03
						c-0.02-0.54,0.4-0.99,0.94-1.01l16.54-0.58c0.54-0.02,0.99,0.4,1.01,0.94L444.24,191.32z"/>
				</g>
				<g>
					<path class="st1" d="M473.05,189.81c0.02,0.54-0.4,0.99-0.94,1.01l-7.17,0.25c-0.54,0.02-0.99-0.4-1.01-0.94l0-0.03
						c-0.02-0.54,0.4-0.99,0.94-1.01l7.17-0.25c0.54-0.02,0.99,0.4,1.01,0.94L473.05,189.81z"/>
				</g>
			</g>
		</g>
		<g>
			<g>
				<linearGradient id="SVGID_60_" gradientUnits="userSpaceOnUse" x1="441.4044" y1="135.1215" x2="406.0998" y2="188.4567">
					<stop  offset="0" style="stop-color:#FE7062"/>
					<stop  offset="1" style="stop-color:#FF928E"/>
				</linearGradient>
				<circle class="st69" cx="434.9" cy="144.95" r="8.61"/>
				<path class="st70" d="M427.8,141.71c-0.05,0-0.1-0.01-0.15-0.04c-0.16-0.08-0.23-0.28-0.15-0.45c1.42-2.81,4.25-4.55,7.39-4.55
					c0.5,0,1,0.05,1.49,0.13c0.18,0.03,0.3,0.21,0.27,0.39c-0.03,0.18-0.21,0.3-0.39,0.27c-0.45-0.08-0.91-0.12-1.37-0.12
					c-2.89,0-5.49,1.6-6.8,4.19C428.04,141.64,427.93,141.71,427.8,141.71z"/>
				
					<ellipse transform="matrix(0.7071 -0.7071 0.7071 0.7071 24.8068 350.1623)" class="st70" cx="435.09" cy="145.14" rx="7.28" ry="7.28"/>
			</g>
			<g>
				<linearGradient id="SVGID_61_" gradientUnits="userSpaceOnUse" x1="471.561" y1="117.2852" x2="410.1018" y2="210.1326">
					<stop  offset="0" style="stop-color:#FE7062"/>
					<stop  offset="1" style="stop-color:#FF928E"/>
				</linearGradient>
				<circle class="st71" cx="460.24" cy="134.39" r="14.98"/>
				<path class="st70" d="M447.88,128.5c-0.05,0-0.1-0.01-0.15-0.04c-0.16-0.08-0.23-0.28-0.15-0.45c2.43-4.8,7.27-7.79,12.65-7.79
					c0.86,0,1.72,0.08,2.55,0.23c0.18,0.03,0.3,0.21,0.27,0.39c-0.03,0.18-0.21,0.3-0.39,0.27c-0.8-0.15-1.62-0.22-2.43-0.22
					c-5.12,0-9.74,2.84-12.05,7.42C448.12,128.44,448.01,128.5,447.88,128.5z"/>
				
					<ellipse transform="matrix(0.9184 -0.3956 0.3956 0.9184 -15.7247 193.1814)" class="st70" cx="460.56" cy="134.72" rx="12.68" ry="12.68"/>
			</g>
			<g>
				<linearGradient id="SVGID_62_" gradientUnits="userSpaceOnUse" x1="482.5759" y1="151.3989" x2="419.335" y2="246.9379">
					<stop  offset="0" style="stop-color:#FE7062"/>
					<stop  offset="1" style="stop-color:#FF928E"/>
				</linearGradient>
				<circle class="st72" cx="470.92" cy="169" r="15.41"/>
				<path class="st70" d="M458.21,162.93c-0.05,0-0.1-0.01-0.15-0.04c-0.16-0.08-0.23-0.28-0.15-0.45
					c2.49-4.94,7.48-8.01,13.01-8.01c0.88,0,1.77,0.08,2.63,0.24c0.18,0.03,0.3,0.21,0.27,0.39c-0.03,0.18-0.21,0.3-0.39,0.27
					c-0.82-0.15-1.66-0.23-2.51-0.23c-5.28,0-10.03,2.93-12.41,7.64C458.45,162.87,458.33,162.93,458.21,162.93z"/>
				
					<ellipse transform="matrix(0.3892 -0.9211 0.9211 0.3892 131.841 537.5184)" class="st70" cx="471.26" cy="169.34" rx="13.05" ry="13.05"/>
			</g>
			<g>
				<linearGradient id="SVGID_63_" gradientUnits="userSpaceOnUse" x1="499.9157" y1="134.3851" x2="453.5796" y2="204.3858">
					<stop  offset="0" style="stop-color:#FE7062"/>
					<stop  offset="1" style="stop-color:#FF928E"/>
				</linearGradient>
				<circle class="st73" cx="491.38" cy="147.28" r="11.29"/>
				<path class="st70" d="M482.06,142.93c-0.05,0-0.1-0.01-0.15-0.04c-0.16-0.08-0.23-0.28-0.15-0.45c1.84-3.65,5.53-5.92,9.61-5.92
					c0.65,0,1.31,0.06,1.94,0.17c0.18,0.03,0.3,0.21,0.27,0.39c-0.03,0.18-0.21,0.3-0.39,0.27c-0.6-0.11-1.21-0.16-1.82-0.16
					c-3.83,0-7.29,2.13-9.01,5.55C482.3,142.86,482.19,142.93,482.06,142.93z"/>
				
					<ellipse transform="matrix(0.9737 -0.2278 0.2278 0.9737 -20.6805 115.8547)" class="st70" cx="491.62" cy="147.53" rx="9.56" ry="9.56"/>
			</g>
		</g>
	</g>
	<linearGradient id="SVGID_64_" gradientUnits="userSpaceOnUse" x1="182.5579" y1="280.6559" x2="226.3428" y2="280.6559">
		<stop  offset="0" style="stop-color:#4042E2"/>
		<stop  offset="1" style="stop-color:#4F52FF"/>
	</linearGradient>
	<path class="st74" d="M193.9,303.11c-0.73,0-1.48-0.35-2.27-1.08c-3.11-2.85-3.82-7.32-4-11.5c-1.5,1.69-3.04,3.33-4.56,4.95
		l-0.51-0.48c1.68-1.79,3.39-3.61,5.04-5.49c-0.14-5.61,0.12-11.28,0.76-16.85c0.39-3.39,0.96-6.98,2.43-10.25
		c0.46-1.03,1.23-2.5,2.53-3.42c1.34-0.94,3.09-1.04,4.26-0.26c1.32,0.89,1.68,2.6,1.84,3.81c0.93,7.26-1.9,13.92-4.45,18.23
		c-1.9,3.23-4.22,6.18-6.66,8.99c0.12,4.24,0.7,8.9,3.8,11.75c0.68,0.62,1.28,0.91,1.85,0.89c0.94-0.03,1.67-0.9,2.26-1.75
		c2.58-3.69,4.58-7.69,5.98-11.94c0.16-1.26,0.51-2.49,1.04-3.64l0.66,0.23c-0.29,1.21-0.63,2.4-1.02,3.57
		c-0.15,1.22-0.1,2.47,0.14,3.67c0.13,0.66,0.69,2.83,2.34,3.14c1.24,0.24,2.46-0.63,3.84-2.73l4.82-7.33l-0.45,1.92
		c-0.25,1.08-0.67,3.67,0.91,4.32c0.91,0.37,1.86-0.16,2.86-0.73c0.97-0.55,1.98-1.12,3.1-0.97l0.36,0.05l-0.06,0.36
		c-0.26,1.5-0.13,3.35,1.09,3.62c0.8,0.18,1.45-0.43,2.21-1.12c0.64-0.59,1.29-1.19,2.13-1.4l0.17,0.69
		c-0.66,0.16-1.25,0.7-1.82,1.23c-0.82,0.76-1.68,1.55-2.84,1.29c-1.59-0.35-1.92-2.25-1.69-4.04c-0.76,0.03-1.51,0.46-2.3,0.9
		c-1.11,0.62-2.25,1.27-3.48,0.77c-1.14-0.47-1.69-1.72-1.58-3.51l-2.85,4.33c-0.98,1.49-2.52,3.42-4.56,3.03
		c-1.4-0.27-2.49-1.65-2.9-3.7c-0.11-0.55-0.18-1.1-0.21-1.65c-1.36,3.54-3.14,6.89-5.33,10.03c-0.69,0.99-1.56,2-2.81,2.05
		C193.95,303.11,193.93,303.11,193.9,303.11z M195.75,258.9c-0.68,0-1.4,0.22-2.03,0.66c-1.16,0.81-1.87,2.17-2.3,3.13
		c-1.43,3.18-1.98,6.71-2.37,10.04c-0.61,5.28-0.87,10.65-0.78,15.97c2.24-2.61,4.33-5.34,6.08-8.3c2.49-4.22,5.26-10.72,4.36-17.79
		c-0.22-1.7-0.71-2.76-1.53-3.31C196.78,259.04,196.28,258.9,195.75,258.9z"/>
	<g>
		<path class="st2" d="M179.27,27.26l-1.38,1.12c-0.26,0.21-0.63,0.17-0.84-0.09c-0.21-0.26-0.17-0.63,0.09-0.84l0,0l1.39-1.11
			c0.26-0.2,0.63-0.16,0.83,0.09C179.57,26.69,179.52,27.06,179.27,27.26z"/>
		<path class="st2" d="M174.67,30.99l-1.37,1.13c-0.26,0.22-0.65,0.18-0.86-0.08c-0.22-0.26-0.18-0.65,0.08-0.86l0,0l1.38-1.12
			c0.26-0.21,0.64-0.17,0.85,0.09C174.97,30.4,174.93,30.78,174.67,30.99z"/>
		<path class="st2" d="M170.12,34.77l-1.36,1.15c-0.26,0.22-0.66,0.19-0.88-0.07c-0.22-0.26-0.19-0.66,0.07-0.88l0,0l1.37-1.14
			c0.26-0.22,0.66-0.19,0.88,0.08C170.42,34.16,170.38,34.55,170.12,34.77z"/>
		<path class="st2" d="M165.62,38.61l-1.34,1.17l0,0c-0.27,0.23-0.67,0.21-0.91-0.06c-0.23-0.27-0.21-0.67,0.06-0.91l0,0l1.35-1.16
			c0.27-0.23,0.67-0.2,0.9,0.07C165.92,37.98,165.89,38.38,165.62,38.61L165.62,38.61z"/>
		<path class="st2" d="M161.2,42.53l-1.31,1.19l0,0c-0.27,0.24-0.68,0.22-0.93-0.04c-0.24-0.27-0.22-0.68,0.04-0.93l0,0l1.32-1.19
			c0.27-0.24,0.68-0.22,0.92,0.05C161.49,41.88,161.47,42.29,161.2,42.53L161.2,42.53z"/>
		<path class="st2" d="M156.86,46.54l-1.29,1.22l0,0c-0.27,0.26-0.69,0.25-0.95-0.02c-0.26-0.27-0.25-0.69,0.02-0.95l0,0l1.3-1.22
			c0.27-0.25,0.69-0.24,0.94,0.03C157.14,45.86,157.13,46.29,156.86,46.54L156.86,46.54z"/>
		<path class="st2" d="M152.61,50.66l-1.25,1.26l0,0c-0.27,0.27-0.7,0.27-0.97,0c-0.27-0.27-0.27-0.7,0-0.97l0,0l1.27-1.26
			c0.27-0.27,0.7-0.26,0.97,0C152.88,49.96,152.88,50.39,152.61,50.66L152.61,50.66z"/>
		<path class="st2" d="M148.49,54.89l-1.21,1.29l0,0.01c-0.27,0.28-0.71,0.3-0.99,0.03c-0.28-0.27-0.3-0.71-0.03-0.99l0,0l1.23-1.3
			c0.26-0.28,0.71-0.29,0.99-0.03C148.75,54.16,148.76,54.6,148.49,54.89L148.49,54.89z"/>
		<path class="st2" d="M144.51,59.24l-1.16,1.33l-0.01,0.01c-0.26,0.3-0.71,0.33-1.01,0.07c-0.3-0.26-0.33-0.71-0.07-1.01l0,0
			l1.18-1.34c0.26-0.3,0.71-0.32,1.01-0.06C144.75,58.49,144.77,58.94,144.51,59.24L144.51,59.24z"/>
		<path class="st2" d="M140.69,63.73l-1.11,1.37l-0.01,0.01c-0.25,0.31-0.72,0.36-1.03,0.11c-0.31-0.25-0.36-0.72-0.11-1.03l0,0
			l1.13-1.38c0.25-0.31,0.71-0.36,1.02-0.1C140.9,62.95,140.95,63.41,140.69,63.73L140.69,63.73z"/>
		<path class="st2" d="M137.05,68.36l-1.06,1.42l-0.01,0.01c-0.25,0.33-0.71,0.4-1.05,0.15c-0.33-0.25-0.4-0.71-0.15-1.05l0,0
			l1.07-1.43c0.25-0.33,0.71-0.39,1.04-0.15C137.23,67.56,137.29,68.02,137.05,68.36L137.05,68.36z"/>
		<path class="st2" d="M133.61,73.14l-0.99,1.46l-0.01,0.01c-0.24,0.35-0.71,0.44-1.06,0.21c-0.35-0.24-0.44-0.71-0.21-1.06l0,0
			l1.01-1.48c0.24-0.35,0.71-0.43,1.05-0.2C133.75,72.32,133.84,72.79,133.61,73.14L133.61,73.14z"/>
		<path class="st2" d="M130.4,78.08l-0.92,1.51l-0.01,0.01c-0.22,0.37-0.7,0.48-1.07,0.26c-0.37-0.22-0.48-0.7-0.26-1.07l0,0
			l0.94-1.52c0.22-0.36,0.7-0.48,1.06-0.25c0.36,0.22,0.48,0.7,0.26,1.06L130.4,78.08z"/>
		<path class="st2" d="M127.43,83.16l-0.84,1.55l-0.01,0.01c-0.21,0.39-0.69,0.53-1.07,0.32c-0.39-0.21-0.53-0.69-0.32-1.07l0,0
			l0.86-1.57c0.21-0.38,0.69-0.52,1.07-0.31c0.38,0.21,0.52,0.68,0.32,1.07L127.43,83.16z"/>
		<path class="st2" d="M124.74,88.39l-0.75,1.6L123.98,90c-0.19,0.4-0.67,0.58-1.07,0.39c-0.4-0.19-0.58-0.67-0.39-1.07l0,0
			l0.77-1.62c0.19-0.4,0.67-0.57,1.07-0.38c0.4,0.19,0.57,0.67,0.38,1.07L124.74,88.39z"/>
		<path class="st2" d="M122.34,93.76l-0.66,1.64l-0.01,0.01c-0.17,0.42-0.65,0.63-1.07,0.46c-0.42-0.17-0.63-0.65-0.46-1.07l0,0
			l0.68-1.66c0.17-0.42,0.65-0.62,1.07-0.45c0.42,0.17,0.62,0.65,0.45,1.06L122.34,93.76z"/>
		<path class="st2" d="M120.26,99.25l-0.56,1.67l-0.01,0.01c-0.15,0.43-0.61,0.67-1.05,0.52c-0.43-0.15-0.67-0.61-0.52-1.05l0,0
			l0.57-1.7c0.15-0.43,0.61-0.67,1.05-0.52c0.43,0.15,0.67,0.61,0.52,1.05L120.26,99.25z"/>
		<path class="st2" d="M118.52,104.86l-0.45,1.7l0,0.02c-0.12,0.45-0.57,0.71-1.02,0.59c-0.45-0.12-0.71-0.57-0.59-1.02l0,0
			l0.46-1.73c0.12-0.44,0.57-0.71,1.02-0.59c0.44,0.12,0.71,0.57,0.59,1.02L118.52,104.86z"/>
		<path class="st2" d="M117.16,110.57l-0.33,1.73l0,0.02c-0.09,0.46-0.53,0.75-0.98,0.67c-0.46-0.09-0.75-0.53-0.67-0.98l0,0
			l0.34-1.76c0.09-0.45,0.53-0.75,0.98-0.66c0.45,0.09,0.75,0.53,0.66,0.98L117.16,110.57z"/>
		<path class="st2" d="M116.21,116.35l-0.2,1.74l0,0.02c-0.05,0.46-0.47,0.8-0.94,0.74c-0.46-0.05-0.8-0.47-0.74-0.94l0,0l0.21-1.78
			c0.05-0.46,0.47-0.79,0.93-0.74c0.46,0.05,0.79,0.47,0.74,0.93L116.21,116.35z"/>
		<path class="st2" d="M115.7,122.18l-0.06,1.75l0,0.02c-0.02,0.47-0.41,0.83-0.88,0.82c-0.47-0.02-0.83-0.41-0.82-0.88l0,0
			l0.07-1.8c0.02-0.47,0.41-0.83,0.88-0.81c0.47,0.02,0.83,0.41,0.81,0.88L115.7,122.18z"/>
		<path class="st2" d="M115.66,128.04l0.08,1.75l0,0.02c0.02,0.47-0.34,0.87-0.81,0.89c-0.47,0.02-0.87-0.34-0.89-0.81l0,0
			l-0.08-1.8c-0.02-0.47,0.34-0.87,0.81-0.89c0.47-0.02,0.87,0.34,0.89,0.81L115.66,128.04z"/>
		<path class="st2" d="M116.11,133.87l0.23,1.74l0,0.02c0.06,0.47-0.27,0.9-0.74,0.97c-0.47,0.06-0.9-0.27-0.97-0.74l0,0l-0.23-1.78
			c-0.06-0.47,0.27-0.9,0.74-0.96c0.47-0.06,0.9,0.27,0.96,0.74L116.11,133.87z"/>
		<path class="st2" d="M117.06,139.64l0.38,1.71l0,0.02c0.1,0.47-0.19,0.93-0.66,1.03c-0.47,0.1-0.93-0.19-1.03-0.66l0,0l-0.38-1.76
			c-0.1-0.47,0.19-0.93,0.66-1.03c0.47-0.1,0.93,0.19,1.03,0.66L117.06,139.64z"/>
		<path class="st2" d="M118.49,145.31l0.52,1.67l0.01,0.02c0.14,0.46-0.11,0.95-0.57,1.09c-0.46,0.14-0.95-0.11-1.09-0.57l0,0
			l-0.54-1.72c-0.14-0.46,0.11-0.94,0.57-1.09c0.46-0.14,0.94,0.11,1.09,0.57L118.49,145.31z"/>
		<path class="st2" d="M120.41,150.84l0.67,1.62l0.01,0.02c0.19,0.45-0.03,0.96-0.47,1.14c-0.45,0.19-0.96-0.03-1.14-0.47l0,0
			l-0.69-1.67c-0.18-0.45,0.03-0.96,0.47-1.14c0.45-0.18,0.96,0.03,1.14,0.47L120.41,150.84z"/>
		<path class="st2" d="M122.82,156.15l0.82,1.55l0.01,0.02c0.23,0.43,0.06,0.96-0.36,1.19c-0.43,0.23-0.96,0.06-1.19-0.36l0,0
			l-0.84-1.59c-0.23-0.43-0.06-0.96,0.37-1.19c0.43-0.23,0.96-0.06,1.19,0.37L122.82,156.15z"/>
		<path class="st2" d="M125.74,161.21l0.97,1.46l0.02,0.02c0.27,0.41,0.16,0.96-0.25,1.23c-0.41,0.27-0.96,0.16-1.23-0.25l0,0
			l-1-1.5c-0.27-0.41-0.16-0.96,0.25-1.23c0.41-0.27,0.96-0.16,1.23,0.25L125.74,161.21z"/>
		<path class="st2" d="M129.14,165.94l1.12,1.35l0.02,0.02c0.31,0.38,0.26,0.94-0.12,1.25c-0.38,0.31-0.94,0.26-1.25-0.12l0,0
			l-1.15-1.39c-0.31-0.38-0.26-0.94,0.12-1.25c0.38-0.31,0.94-0.26,1.25,0.12L129.14,165.94z"/>
		<path class="st2" d="M133.03,170.28l1.26,1.21l0.02,0.02c0.36,0.34,0.37,0.91,0.02,1.27c-0.34,0.36-0.91,0.37-1.27,0.02l0,0
			l-1.3-1.26c-0.35-0.34-0.36-0.91-0.02-1.26c0.34-0.35,0.91-0.36,1.26-0.02L133.03,170.28z"/>
		<path class="st2" d="M137.38,174.15l1.39,1.06l0.02,0.02c0.4,0.3,0.47,0.87,0.17,1.26c-0.3,0.4-0.87,0.47-1.26,0.17l0,0l-1.43-1.1
			c-0.39-0.3-0.47-0.87-0.17-1.26c0.3-0.39,0.87-0.47,1.26-0.17L137.38,174.15z"/>
		<path class="st2" d="M142.14,177.49l1.5,0.9l0.03,0.02c0.43,0.26,0.57,0.81,0.31,1.24c-0.26,0.43-0.81,0.57-1.24,0.31l0,0
			l-1.55-0.93c-0.43-0.26-0.57-0.81-0.31-1.24c0.26-0.43,0.81-0.57,1.24-0.31L142.14,177.49z"/>
		<path class="st2" d="M147.25,180.29l1.59,0.73l0.03,0.01c0.46,0.21,0.66,0.75,0.45,1.21c-0.21,0.46-0.75,0.66-1.21,0.45l0,0
			l-1.64-0.76c-0.46-0.21-0.65-0.75-0.44-1.21c0.21-0.46,0.75-0.65,1.21-0.44L147.25,180.29z"/>
		<path class="st2" d="M152.63,182.53l1.66,0.57l0.03,0.01c0.48,0.16,0.73,0.68,0.57,1.16c-0.16,0.48-0.68,0.73-1.16,0.57l0,0
			l-1.71-0.59c-0.48-0.16-0.73-0.68-0.57-1.16c0.16-0.48,0.68-0.73,1.16-0.57L152.63,182.53z"/>
		<path class="st2" d="M158.21,184.23l1.7,0.4l0.03,0.01c0.5,0.12,0.8,0.61,0.69,1.11c-0.12,0.5-0.61,0.8-1.11,0.69l0,0l-1.75-0.42
			c-0.49-0.12-0.8-0.61-0.68-1.11c0.12-0.49,0.61-0.8,1.11-0.68L158.21,184.23z"/>
		<path class="st2" d="M163.93,185.38l1.74,0.24l0.02,0c0.51,0.07,0.86,0.54,0.79,1.05c-0.07,0.51-0.54,0.86-1.05,0.79l0,0
			l-1.78-0.25c-0.51-0.07-0.86-0.54-0.79-1.05c0.07-0.51,0.54-0.86,1.05-0.79L163.93,185.38z"/>
		<path class="st2" d="M169.74,186.01l1.75,0.09l0.02,0c0.51,0.03,0.91,0.46,0.88,0.98c-0.03,0.51-0.46,0.91-0.98,0.88l0,0
			l-1.8-0.09c-0.51-0.03-0.91-0.46-0.88-0.98c0.03-0.51,0.46-0.91,0.98-0.88L169.74,186.01z"/>
		<path class="st2" d="M175.58,186.12l1.75-0.07l0.02,0c0.52-0.02,0.95,0.38,0.97,0.9c0.02,0.52-0.38,0.95-0.9,0.97l0,0l-1.8,0.06
			c-0.52,0.02-0.95-0.39-0.97-0.9c-0.02-0.52,0.39-0.95,0.9-0.97L175.58,186.12z"/>
		<path class="st2" d="M181.41,185.73l1.74-0.22l0.02,0c0.52-0.06,0.99,0.3,1.05,0.82c0.06,0.52-0.3,0.99-0.82,1.05l0,0l-1.79,0.22
			c-0.52,0.06-0.99-0.3-1.05-0.82c-0.06-0.52,0.3-0.99,0.82-1.05L181.41,185.73z"/>
		<path class="st2" d="M187.18,184.84l1.72-0.36l0.02-0.01c0.51-0.11,1.02,0.22,1.12,0.73c0.11,0.51-0.22,1.02-0.73,1.12l0,0
			l-1.76,0.37c-0.51,0.11-1.01-0.22-1.12-0.73c-0.11-0.51,0.22-1.01,0.73-1.12L187.18,184.84z"/>
		<path class="st2" d="M192.86,183.45l1.68-0.51l0.02-0.01c0.5-0.15,1.04,0.13,1.19,0.64c0.15,0.5-0.13,1.04-0.64,1.19l0,0
			l-1.72,0.52c-0.5,0.15-1.03-0.14-1.18-0.64c-0.15-0.5,0.14-1.03,0.64-1.18L192.86,183.45z"/>
		<path class="st2" d="M198.41,181.61l1.64-0.63l0.02-0.01c0.49-0.19,1.05,0.05,1.24,0.55c0.19,0.49-0.05,1.05-0.55,1.24l0,0
			l-1.68,0.65c-0.49,0.19-1.05-0.06-1.24-0.55c-0.19-0.49,0.06-1.05,0.55-1.24L198.41,181.61z"/>
		<path class="st2" d="M203.82,179.36l1.59-0.75l0.02-0.01c0.48-0.23,1.06-0.02,1.28,0.46c0.23,0.48,0.02,1.06-0.46,1.28l0,0
			l-1.63,0.77c-0.48,0.23-1.05,0.02-1.28-0.46c-0.23-0.48-0.02-1.05,0.46-1.28L203.82,179.36z"/>
		<path class="st2" d="M209.05,176.73l1.53-0.86l0.02-0.01c0.47-0.26,1.06-0.1,1.32,0.37c0.26,0.47,0.1,1.06-0.37,1.32l0,0
			l-1.57,0.88c-0.47,0.26-1.06,0.09-1.32-0.37c-0.26-0.47-0.09-1.06,0.37-1.32L209.05,176.73z"/>
		<path class="st2" d="M214.09,173.75l1.48-0.96l0.02-0.01c0.45-0.29,1.05-0.16,1.35,0.29c0.29,0.45,0.16,1.05-0.29,1.35l0,0
			l-1.51,0.98c-0.45,0.29-1.05,0.16-1.34-0.29c-0.29-0.45-0.16-1.05,0.29-1.34L214.09,173.75z"/>
		<path class="st2" d="M218.94,170.45l1.41-1.05l0.01-0.01c0.43-0.32,1.05-0.23,1.37,0.2c0.32,0.43,0.23,1.05-0.2,1.37l0,0
			l-1.44,1.06c-0.43,0.32-1.05,0.23-1.37-0.21c-0.32-0.43-0.23-1.05,0.21-1.37L218.94,170.45z"/>
		<path class="st2" d="M223.58,166.86l1.35-1.13l0.01-0.01c0.42-0.35,1.04-0.29,1.39,0.13c0.35,0.42,0.29,1.04-0.13,1.39l0,0
			l-1.38,1.15c-0.42,0.35-1.04,0.29-1.38-0.13c-0.35-0.42-0.29-1.04,0.13-1.38L223.58,166.86z"/>
		<path class="st2" d="M228.02,163.02l1.29-1.2l0.01-0.01c0.4-0.37,1.03-0.35,1.4,0.05c0.37,0.4,0.35,1.03-0.05,1.4l0,0l-1.32,1.22
			c-0.4,0.37-1.02,0.35-1.4-0.05c-0.37-0.4-0.35-1.02,0.05-1.4L228.02,163.02z"/>
		<path class="st2" d="M232.24,158.93l1.23-1.27l0.01-0.01c0.38-0.39,1.01-0.41,1.41-0.02c0.39,0.38,0.41,1.01,0.02,1.41l0,0
			l-1.25,1.29c-0.38,0.39-1.01,0.4-1.4,0.02C231.86,159.97,231.85,159.34,232.24,158.93L232.24,158.93z"/>
		<path class="st2" d="M236.25,154.63l1.16-1.33l0.01-0.01c0.36-0.42,0.99-0.46,1.41-0.1c0.42,0.36,0.46,0.99,0.1,1.41l0,0
			l-1.18,1.35c-0.36,0.41-0.99,0.46-1.41,0.09c-0.41-0.36-0.46-0.99-0.09-1.41L236.25,154.63z"/>
		<path class="st2" d="M240,150.13l1.06-1.4l0.01-0.02c0.34-0.44,0.97-0.53,1.41-0.19c0.44,0.34,0.53,0.97,0.19,1.41l0,0l-1.09,1.43
			c-0.34,0.44-0.97,0.52-1.41,0.19c-0.44-0.34-0.52-0.97-0.19-1.41L240,150.13z"/>
		<path class="st2" d="M243.41,145.39l0.94-1.48l0.02-0.02c0.3-0.47,0.92-0.61,1.39-0.31c0.47,0.3,0.61,0.92,0.31,1.39l0,0
			l-0.97,1.52c-0.3,0.47-0.92,0.61-1.39,0.31c-0.47-0.3-0.61-0.92-0.31-1.39L243.41,145.39z"/>
		<path class="st2" d="M246.37,140.37l0.78-1.56l0.02-0.03c0.25-0.5,0.86-0.7,1.36-0.45c0.5,0.25,0.7,0.86,0.45,1.36l0,0l-0.82,1.62
			c-0.25,0.5-0.86,0.7-1.36,0.45c-0.5-0.25-0.7-0.86-0.45-1.36L246.37,140.37z"/>
		<path class="st2" d="M248.75,135.09l0.57-1.64l0.01-0.04c0.19-0.53,0.77-0.81,1.3-0.63c0.53,0.19,0.81,0.77,0.63,1.3l0,0
			l-0.6,1.72c-0.19,0.53-0.77,0.81-1.3,0.62c-0.53-0.19-0.81-0.77-0.62-1.3L248.75,135.09z"/>
		<path class="st2" d="M250.34,129.56l0.3-1.7l0.01-0.05c0.1-0.56,0.63-0.93,1.19-0.83c0.56,0.1,0.93,0.63,0.83,1.19l0,0l-0.32,1.8
			c-0.1,0.56-0.63,0.93-1.19,0.83c-0.56-0.1-0.93-0.63-0.83-1.19L250.34,129.56z"/>
		<path class="st2" d="M250.96,123.87l-0.04-1.71l0-0.06c-0.01-0.57,0.44-1.04,1.01-1.05c0.57-0.01,1.04,0.44,1.05,1.01l0,0
			l0.04,1.84c0.01,0.57-0.44,1.04-1.01,1.05c-0.57,0.01-1.04-0.44-1.05-1.01L250.96,123.87z"/>
		<path class="st2" d="M250.42,118.2l-0.41-1.66l-0.02-0.07c-0.14-0.56,0.2-1.12,0.76-1.25c0.56-0.14,1.12,0.2,1.25,0.76l0,0
			l0.44,1.8c0.13,0.55-0.21,1.11-0.76,1.25c-0.55,0.13-1.11-0.21-1.25-0.76L250.42,118.2z"/>
		<path class="st2" d="M248.63,112.81l-0.76-1.53l-0.03-0.06c-0.26-0.51-0.05-1.14,0.47-1.4c0.51-0.26,1.14-0.05,1.4,0.47l0,0
			l0.82,1.65c0.26,0.51,0.05,1.14-0.47,1.39c-0.51,0.26-1.14,0.05-1.39-0.47L248.63,112.81z"/>
		<path class="st2" d="M245.72,107.91l-1.06-1.35l-0.04-0.05c-0.36-0.45-0.28-1.11,0.17-1.47c0.45-0.36,1.11-0.28,1.47,0.17l0,0
			l1.13,1.45c0.36,0.45,0.28,1.11-0.18,1.47c-0.45,0.36-1.11,0.28-1.47-0.18L245.72,107.91z"/>
		<path class="st2" d="M241.89,103.66l-1.3-1.13l-0.04-0.04c-0.44-0.38-0.48-1.05-0.1-1.48c0.38-0.44,1.05-0.48,1.48-0.1l0,0
			l1.38,1.21c0.44,0.38,0.48,1.04,0.1,1.48c-0.38,0.44-1.04,0.48-1.48,0.1L241.89,103.66z"/>
		<path class="st2" d="M237.35,100.17l-1.48-0.89l-0.05-0.03c-0.5-0.3-0.66-0.95-0.36-1.45c0.3-0.5,0.95-0.66,1.45-0.36l1.57,0.94
			c0.5,0.3,0.66,0.95,0.36,1.45c-0.3,0.5-0.95,0.66-1.45,0.36l0,0L237.35,100.17z"/>
		<path class="st2" d="M232.26,97.52l-1.61-0.61l-0.05-0.02c-0.54-0.21-0.81-0.81-0.61-1.35c0.21-0.54,0.81-0.81,1.35-0.61
			l1.71,0.65c0.54,0.21,0.81,0.81,0.61,1.36c-0.21,0.54-0.81,0.81-1.36,0.61l0,0L232.26,97.52z"/>
		<path class="st2" d="M226.79,95.82l-1.69-0.31l-0.06-0.01c-0.57-0.1-0.94-0.65-0.84-1.21c0.1-0.57,0.65-0.94,1.21-0.84l1.81,0.33
			c0.57,0.1,0.95,0.65,0.84,1.21c-0.1,0.57-0.65,0.95-1.21,0.84l0,0L226.79,95.82z"/>
		<path class="st2" d="M221.1,95.16l-1.73-0.01l-0.05,0c-0.57,0-1.04-0.47-1.03-1.04c0-0.57,0.47-1.04,1.04-1.03l1.83,0
			c0.57,0,1.04,0.47,1.04,1.04c0,0.57-0.47,1.04-1.04,1.04l0,0L221.1,95.16z"/>
		<path class="st2" d="M215.36,95.46l-1.71,0.27l-0.05,0.01c-0.56,0.09-1.09-0.3-1.18-0.86c-0.09-0.56,0.29-1.09,0.86-1.18l1.8-0.29
			c0.56-0.09,1.1,0.29,1.19,0.86c0.09,0.56-0.29,1.1-0.86,1.19l0,0L215.36,95.46z"/>
		<path class="st2" d="M209.72,96.67l-1.65,0.52l-0.04,0.01c-0.54,0.17-1.12-0.13-1.29-0.67c-0.17-0.54,0.13-1.12,0.67-1.29
			l1.74-0.55c0.54-0.17,1.12,0.13,1.29,0.67c0.17,0.54-0.13,1.12-0.67,1.29l0,0L209.72,96.67z"/>
		<path class="st2" d="M204.3,98.67l-1.57,0.74l-0.04,0.02c-0.51,0.24-1.12,0.02-1.36-0.49c-0.24-0.51-0.03-1.12,0.48-1.36
			l1.64-0.78c0.51-0.24,1.12-0.03,1.37,0.48c0.24,0.51,0.03,1.12-0.48,1.37l0,0L204.3,98.67z"/>
		<path class="st2" d="M199.19,101.39l-1.46,0.94l-0.03,0.02c-0.47,0.3-1.1,0.17-1.41-0.3c-0.3-0.47-0.17-1.1,0.3-1.41l1.53-0.99
			c0.47-0.31,1.1-0.17,1.41,0.3c0.31,0.47,0.17,1.1-0.3,1.41l0,0L199.19,101.39z"/>
		<path class="st2" d="M194.47,104.74l-1.33,1.12l-0.03,0.02c-0.43,0.36-1.07,0.31-1.43-0.12c-0.36-0.43-0.31-1.07,0.12-1.43
			l1.39-1.17c0.43-0.36,1.07-0.31,1.43,0.12c0.36,0.43,0.31,1.07-0.12,1.43l0,0L194.47,104.74z"/>
		<path class="st2" d="M190.21,108.67l-1.18,1.28l-0.02,0.03c-0.38,0.41-1.01,0.44-1.42,0.06c-0.41-0.38-0.44-1.01-0.06-1.42
			l1.22-1.33c0.38-0.41,1.02-0.44,1.43-0.06c0.41,0.38,0.44,1.02,0.06,1.43l0,0L190.21,108.67z"/>
		<path class="st2" d="M186.45,113.1l-1.03,1.41l-0.02,0.03c-0.33,0.45-0.95,0.54-1.4,0.22c-0.45-0.33-0.55-0.95-0.22-1.4l1.07-1.46
			c0.33-0.45,0.95-0.55,1.4-0.22c0.45,0.33,0.55,0.95,0.22,1.4l0,0L186.45,113.1z"/>
		<path class="st2" d="M183.19,117.92l-0.88,1.51l-0.01,0.03c-0.28,0.48-0.89,0.64-1.36,0.36c-0.48-0.28-0.64-0.89-0.36-1.36
			l0.91-1.56c0.28-0.48,0.89-0.64,1.37-0.36c0.48,0.28,0.64,0.89,0.36,1.37l0,0L183.19,117.92z"/>
		<path class="st2" d="M180.43,123.05l-0.73,1.59l-0.01,0.02c-0.23,0.5-0.82,0.72-1.32,0.49c-0.5-0.23-0.72-0.82-0.49-1.31
			l0.75-1.64c0.23-0.5,0.82-0.72,1.32-0.49c0.5,0.23,0.72,0.82,0.49,1.32l0,0L180.43,123.05z"/>
		<path class="st2" d="M178.16,128.42l-0.59,1.65l-0.01,0.02c-0.18,0.51-0.75,0.78-1.26,0.59c-0.51-0.18-0.78-0.75-0.6-1.26
			l0.61-1.7c0.18-0.51,0.75-0.78,1.26-0.6c0.51,0.18,0.78,0.75,0.6,1.26l0,0L178.16,128.42z"/>
		<path class="st2" d="M176.34,133.98l-0.46,1.7l-0.01,0.02c-0.14,0.52-0.68,0.83-1.21,0.69c-0.52-0.14-0.83-0.68-0.69-1.2
			l0.47-1.74c0.14-0.52,0.68-0.83,1.21-0.69c0.52,0.14,0.83,0.68,0.69,1.21l0,0L176.34,133.98z"/>
		<path class="st2" d="M174.95,139.66l-0.34,1.73l0,0.02c-0.1,0.53-0.62,0.88-1.15,0.77c-0.53-0.1-0.88-0.61-0.77-1.14l0.34-1.77
			c0.1-0.53,0.62-0.88,1.15-0.78c0.53,0.1,0.88,0.61,0.78,1.15l0,0L174.95,139.66z"/>
		<path class="st2" d="M173.97,145.44l-0.22,1.74l0,0.02c-0.07,0.53-0.55,0.91-1.08,0.84c-0.53-0.07-0.91-0.55-0.84-1.08l0.22-1.78
			c0.07-0.53,0.55-0.91,1.08-0.85c0.53,0.07,0.91,0.55,0.85,1.08l0,0L173.97,145.44z"/>
		<path class="st2" d="M173.39,151.27l-0.1,1.76l0,0.02c-0.03,0.53-0.49,0.94-1.02,0.91c-0.53-0.03-0.94-0.49-0.91-1.02l0.1-1.79
			c0.03-0.53,0.49-0.94,1.02-0.91c0.53,0.03,0.94,0.49,0.91,1.02l0,0L173.39,151.27z"/>
		<path class="st2" d="M173.18,157.12l0.01,1.76l0,0.02c0,0.53-0.42,0.96-0.95,0.97c-0.53,0-0.96-0.42-0.97-0.95l-0.02-1.8
			c0-0.53,0.42-0.97,0.95-0.97c0.53,0,0.97,0.42,0.97,0.95l0,0L173.18,157.12z"/>
		<path class="st2" d="M173.36,162.98l0.12,1.76l0,0.02c0.04,0.53-0.36,0.98-0.89,1.02c-0.53,0.04-0.98-0.36-1.02-0.89l-0.13-1.79
			c-0.04-0.53,0.36-0.99,0.89-1.02c0.53-0.04,0.99,0.36,1.02,0.89l0,0L173.36,162.98z"/>
		<path class="st2" d="M173.89,168.83l0.23,1.75l0,0.02c0.07,0.52-0.3,1-0.82,1.07c-0.52,0.07-1-0.3-1.07-0.82l-0.24-1.78
			c-0.07-0.52,0.3-1,0.82-1.07c0.52-0.07,1,0.3,1.07,0.82l0,0L173.89,168.83z"/>
		<path class="st2" d="M174.78,174.63l0.33,1.73l0,0.02c0.1,0.51-0.24,1.01-0.75,1.11c-0.51,0.1-1.01-0.24-1.11-0.75l-0.34-1.76
			c-0.1-0.51,0.24-1.01,0.75-1.11c0.51-0.1,1.01,0.24,1.11,0.75l0,0L174.78,174.63z"/>
		<path class="st2" d="M176,180.37l0.43,1.71l0,0.02c0.13,0.5-0.18,1.01-0.68,1.14c-0.5,0.13-1.01-0.18-1.14-0.68l-0.44-1.74
			c-0.13-0.5,0.18-1.02,0.68-1.15c0.5-0.13,1.02,0.18,1.15,0.68l0,0L176,180.37z"/>
		<path class="st2" d="M177.55,186.03l0.53,1.68l0,0.01c0.15,0.49-0.12,1.02-0.61,1.17c-0.49,0.15-1.02-0.12-1.17-0.61l-0.54-1.71
			c-0.16-0.49,0.12-1.02,0.61-1.17c0.49-0.16,1.02,0.12,1.17,0.61l0,0L177.55,186.03z"/>
		<path class="st2" d="M179.41,191.6l0.62,1.65l0.01,0.01c0.18,0.48-0.06,1.02-0.54,1.2c-0.48,0.18-1.02-0.06-1.2-0.54l-0.63-1.68
			c-0.18-0.48,0.06-1.02,0.54-1.2c0.48-0.18,1.02,0.06,1.2,0.54l0,0L179.41,191.6z"/>
		<path class="st2" d="M181.58,197.06l0.71,1.62l0.01,0.01c0.2,0.47-0.01,1.01-0.48,1.22c-0.47,0.2-1.01-0.01-1.22-0.48l-0.72-1.64
			c-0.21-0.47,0.01-1.02,0.48-1.22c0.47-0.21,1.01,0.01,1.22,0.48l0,0L181.58,197.06z"/>
		<path class="st2" d="M184.03,202.4l0.79,1.58l0.01,0.01c0.23,0.45,0.04,1.01-0.41,1.23c-0.45,0.23-1.01,0.05-1.23-0.41l-0.81-1.6
			c-0.23-0.45-0.05-1.01,0.41-1.24c0.45-0.23,1.01-0.05,1.24,0.41l0,0L184.03,202.4z"/>
		<path class="st2" d="M186.76,207.6l0.87,1.53l0.01,0.01c0.25,0.44,0.1,1-0.34,1.25c-0.44,0.25-1,0.1-1.25-0.34l-0.89-1.56
			c-0.25-0.44-0.1-1,0.34-1.25c0.44-0.25,1-0.1,1.25,0.34l0,0L186.76,207.6z"/>
		<path class="st2" d="M189.76,212.66l0.95,1.49l0.01,0.01c0.27,0.42,0.15,0.99-0.27,1.26c-0.42,0.27-0.98,0.15-1.26-0.27
			l-0.97-1.51c-0.27-0.42-0.15-0.99,0.27-1.26c0.42-0.27,0.99-0.15,1.26,0.27l0,0L189.76,212.66z"/>
		<path class="st2" d="M193.02,217.55l1.03,1.43l0.01,0.01c0.29,0.41,0.2,0.97-0.21,1.26c-0.41,0.29-0.97,0.2-1.26-0.21l-1.05-1.46
			c-0.29-0.41-0.2-0.97,0.21-1.26c0.41-0.29,0.97-0.2,1.26,0.21l0,0L193.02,217.55z"/>
		<path class="st2" d="M196.54,222.26l1.1,1.38l0.01,0.01c0.31,0.39,0.25,0.95-0.14,1.26c-0.39,0.31-0.95,0.25-1.26-0.14l-1.12-1.4
			c-0.31-0.39-0.25-0.95,0.14-1.27c0.39-0.31,0.95-0.25,1.27,0.14l0,0L196.54,222.26z"/>
		<path class="st2" d="M200.29,226.78l1.17,1.32l0.01,0.01c0.33,0.37,0.29,0.93-0.08,1.26c-0.37,0.33-0.93,0.29-1.26-0.07
			l-1.19-1.34c-0.33-0.37-0.3-0.94,0.07-1.26c0.37-0.33,0.94-0.3,1.26,0.07L200.29,226.78L200.29,226.78z"/>
		<path class="st2" d="M204.27,231.11l1.23,1.26l0.01,0.01c0.34,0.35,0.34,0.91-0.01,1.26c-0.35,0.34-0.91,0.34-1.26-0.01
			l-1.25-1.28c-0.34-0.35-0.34-0.91,0.01-1.26c0.35-0.34,0.91-0.34,1.26,0.01L204.27,231.11L204.27,231.11z"/>
		<path class="st2" d="M208.45,235.25l1.29,1.2l0.01,0.01c0.36,0.33,0.38,0.89,0.04,1.25c-0.33,0.36-0.89,0.38-1.25,0.05l-1.31-1.22
			c-0.36-0.33-0.38-0.89-0.05-1.25c0.33-0.36,0.89-0.38,1.25-0.05L208.45,235.25L208.45,235.25z"/>
		<path class="st2" d="M212.82,239.19l1.35,1.14l0.01,0.01c0.37,0.31,0.41,0.87,0.1,1.24c-0.31,0.37-0.87,0.42-1.24,0.1l-1.37-1.16
			c-0.37-0.31-0.42-0.87-0.1-1.24c0.31-0.37,0.87-0.42,1.24-0.1L212.82,239.19L212.82,239.19z"/>
		<path class="st2" d="M217.36,242.93l1.4,1.08l0.01,0.01c0.38,0.3,0.45,0.84,0.15,1.22c-0.3,0.38-0.84,0.45-1.22,0.16l-1.42-1.09
			c-0.38-0.3-0.45-0.84-0.16-1.23c0.3-0.38,0.84-0.45,1.23-0.16L217.36,242.93L217.36,242.93z"/>
		<path class="st2" d="M222.07,246.47l1.44,1.02l0.01,0.01c0.39,0.28,0.48,0.82,0.21,1.21c-0.28,0.39-0.82,0.48-1.21,0.21
			l-1.46-1.03c-0.39-0.28-0.49-0.82-0.21-1.21c0.28-0.39,0.82-0.49,1.21-0.21L222.07,246.47L222.07,246.47z"/>
		<path class="st2" d="M226.92,249.8l1.48,0.96l0.01,0.01c0.4,0.26,0.51,0.79,0.26,1.19c-0.26,0.4-0.79,0.51-1.19,0.26l-1.5-0.97
			c-0.4-0.26-0.52-0.79-0.26-1.19c0.26-0.4,0.79-0.52,1.19-0.26L226.92,249.8L226.92,249.8z"/>
		<path class="st2" d="M231.91,252.93l1.52,0.9l0.01,0.01c0.41,0.24,0.54,0.77,0.3,1.17c-0.24,0.41-0.77,0.54-1.17,0.3l-1.54-0.91
			c-0.41-0.24-0.54-0.77-0.3-1.18c0.24-0.41,0.77-0.54,1.18-0.3L231.91,252.93L231.91,252.93z"/>
		<path class="st2" d="M237.02,255.86l1.55,0.84l0.01,0c0.41,0.22,0.57,0.74,0.35,1.15c-0.22,0.41-0.74,0.57-1.15,0.35l-1.57-0.85
			c-0.42-0.22-0.57-0.74-0.35-1.16c0.22-0.42,0.74-0.57,1.16-0.35L237.02,255.86L237.02,255.86z"/>
		<path class="st2" d="M242.24,258.59l1.59,0.78l0.01,0c0.42,0.21,0.59,0.71,0.39,1.13c-0.21,0.42-0.71,0.59-1.13,0.39l-1.61-0.79
			c-0.42-0.21-0.6-0.71-0.39-1.14c0.21-0.42,0.71-0.6,1.14-0.39L242.24,258.59L242.24,258.59z"/>
		<path class="st2" d="M247.56,261.12l1.62,0.72l0.01,0c0.42,0.19,0.62,0.69,0.43,1.11c-0.19,0.42-0.69,0.62-1.11,0.43l-1.63-0.73
			c-0.43-0.19-0.62-0.69-0.43-1.11C246.63,261.12,247.13,260.93,247.56,261.12L247.56,261.12L247.56,261.12z"/>
		<path class="st2" d="M252.98,263.45l1.64,0.66l0.01,0c0.43,0.17,0.64,0.66,0.46,1.09c-0.17,0.43-0.66,0.64-1.09,0.46l-1.66-0.67
			c-0.43-0.17-0.64-0.66-0.47-1.09C252.05,263.48,252.54,263.27,252.98,263.45L252.98,263.45L252.98,263.45z"/>
		<path class="st2" d="M258.47,265.58l1.66,0.6l0.01,0c0.43,0.16,0.66,0.63,0.5,1.07c-0.16,0.43-0.63,0.66-1.06,0.5l-1.68-0.61
			c-0.43-0.16-0.66-0.63-0.5-1.07C257.55,265.65,258.03,265.43,258.47,265.58L258.47,265.58L258.47,265.58z"/>
		<path class="st2" d="M264.04,267.52l1.68,0.54l0.01,0c0.43,0.14,0.67,0.61,0.53,1.04c-0.14,0.43-0.6,0.67-1.04,0.53l-1.7-0.55
			c-0.44-0.14-0.68-0.61-0.54-1.04C263.13,267.62,263.6,267.38,264.04,267.52L264.04,267.52L264.04,267.52z"/>
		<path class="st2" d="M269.68,269.27l1.7,0.49l0.01,0c0.43,0.12,0.68,0.58,0.56,1.01c-0.12,0.43-0.57,0.68-1.01,0.56l-1.72-0.48
			c-0.44-0.12-0.69-0.58-0.57-1.01c0.12-0.44,0.58-0.69,1.01-0.57L269.68,269.27L269.68,269.27z"/>
		<path class="st2" d="M275.36,270.83l1.71,0.43l0.01,0c0.43,0.11,0.69,0.54,0.58,0.97c-0.11,0.43-0.54,0.69-0.97,0.58l-1.73-0.43
			c-0.43-0.11-0.7-0.54-0.59-0.98c0.11-0.43,0.54-0.7,0.97-0.59L275.36,270.83L275.36,270.83z"/>
		<path class="st2" d="M281.1,272.2l1.73,0.38l0.01,0c0.42,0.09,0.69,0.51,0.6,0.94c-0.09,0.42-0.51,0.69-0.93,0.6l-1.75-0.37
			c-0.43-0.09-0.7-0.51-0.61-0.94c0.09-0.43,0.51-0.7,0.94-0.61L281.1,272.2L281.1,272.2z"/>
		<path class="st2" d="M286.88,273.4l1.74,0.33l0.01,0c0.42,0.08,0.69,0.48,0.62,0.9c-0.08,0.42-0.48,0.69-0.9,0.62l-1.76-0.32
			c-0.42-0.08-0.7-0.48-0.62-0.9c0.08-0.42,0.48-0.7,0.9-0.62L286.88,273.4L286.88,273.4z"/>
		<path class="st2" d="M292.69,274.43l1.75,0.27l0.01,0c0.41,0.06,0.69,0.45,0.63,0.86c-0.06,0.41-0.45,0.69-0.86,0.63l-1.76-0.27
			c-0.42-0.06-0.7-0.45-0.64-0.87c0.06-0.42,0.45-0.7,0.87-0.64L292.69,274.43L292.69,274.43z"/>
		<path class="st2" d="M298.53,275.29l1.76,0.23l0.01,0c0.41,0.05,0.69,0.42,0.64,0.83c-0.05,0.4-0.42,0.69-0.83,0.64l-1.77-0.22
			c-0.41-0.05-0.7-0.42-0.65-0.83C297.74,275.52,298.11,275.23,298.53,275.29L298.53,275.29L298.53,275.29z"/>
		<path class="st2" d="M304.39,275.98l1.76,0.18l0.01,0c0.4,0.04,0.69,0.4,0.65,0.8c-0.04,0.4-0.39,0.69-0.79,0.65l-1.77-0.17
			c-0.4-0.04-0.7-0.4-0.66-0.8C303.63,276.24,303.98,275.94,304.39,275.98L304.39,275.98L304.39,275.98z"/>
		<path class="st2" d="M310.27,276.53l1.76,0.13l0.01,0c0.39,0.03,0.68,0.37,0.66,0.76c-0.03,0.39-0.37,0.68-0.76,0.66l-1.78-0.13
			c-0.39-0.03-0.69-0.37-0.66-0.76C309.53,276.79,309.87,276.5,310.27,276.53L310.27,276.53L310.27,276.53z"/>
		<path class="st2" d="M316.17,276.92l1.77,0.09l0,0c0.38,0.02,0.68,0.35,0.66,0.73c-0.02,0.38-0.34,0.68-0.73,0.66l-1.78-0.08
			c-0.39-0.02-0.69-0.35-0.67-0.73C315.44,277.2,315.77,276.9,316.17,276.92L316.17,276.92L316.17,276.92z"/>
		<path class="st2" d="M322.06,277.17l1.77,0.05l0,0c0.38,0.01,0.67,0.32,0.66,0.7c-0.01,0.37-0.32,0.67-0.7,0.66l-1.78-0.04
			c-0.38-0.01-0.68-0.32-0.67-0.7C321.36,277.46,321.68,277.16,322.06,277.17L322.06,277.17L322.06,277.17z"/>
		<path class="st2" d="M327.97,277.29l1.77,0.01l0,0c0.37,0,0.66,0.3,0.66,0.67c0,0.37-0.3,0.66-0.67,0.66l-1.78,0
			c-0.37,0-0.67-0.3-0.67-0.67C327.29,277.59,327.59,277.29,327.97,277.29L327.97,277.29L327.97,277.29z"/>
		<path class="st2" d="M333.88,277.28l1.77-0.03l0,0c0.36-0.01,0.66,0.28,0.66,0.64c0.01,0.36-0.28,0.65-0.64,0.66l-1.78,0.04
			c-0.36,0.01-0.66-0.28-0.67-0.64C333.23,277.59,333.51,277.29,333.88,277.28L333.88,277.28L333.88,277.28z"/>
		<path class="st2" d="M339.8,277.14l1.77-0.06l0,0c0.35-0.01,0.65,0.26,0.66,0.61c0.01,0.35-0.26,0.64-0.61,0.66l-1.78,0.07
			c-0.35,0.01-0.65-0.26-0.67-0.61C339.16,277.46,339.44,277.16,339.8,277.14L339.8,277.14L339.8,277.14z"/>
		<path class="st2" d="M345.71,276.89l1.77-0.1l0,0c0.34-0.02,0.63,0.24,0.65,0.59c0.02,0.34-0.24,0.63-0.58,0.65l-1.78,0.11
			c-0.34,0.02-0.64-0.24-0.66-0.59C345.09,277.21,345.36,276.91,345.71,276.89L345.71,276.89L345.71,276.89z"/>
		<path class="st2" d="M351.61,276.53l1.77-0.13l0,0c0.33-0.02,0.62,0.23,0.65,0.56c0.02,0.33-0.22,0.62-0.56,0.65l-1.78,0.14
			c-0.34,0.03-0.63-0.22-0.66-0.56C351.02,276.85,351.27,276.56,351.61,276.53L351.61,276.53L351.61,276.53z"/>
		<path class="st2" d="M357.51,276.06l1.04-0.09c0.33-0.03,0.61,0.21,0.64,0.54c0.03,0.32-0.21,0.61-0.53,0.64l-1.04,0.1
			c-0.33,0.03-0.62-0.21-0.65-0.54C356.94,276.38,357.18,276.09,357.51,276.06L357.51,276.06z"/>
	</g>
	<g>
		<polygon class="st28" points="170.5,22.82 171.67,31.42 176.99,26.93 		"/>
		<path class="st75" d="M208.49,12.62l-20.45,23.53c-0.39,0.45-0.95,0.72-1.55,0.75c-0.6,0.03-1.18-0.18-1.61-0.59l-22.85-21.42
			c-0.26-0.25-0.35-0.62-0.22-0.96c0.13-0.33,0.45-0.56,0.81-0.56L208.49,12.62z"/>
		<polygon class="st28" points="170.5,22.82 208.49,12.62 174.18,26.29 174.4,28.69 		"/>
		<polygon class="st28" points="176.38,28.33 171.67,31.42 174.18,26.29 		"/>
	</g>
</g>
</svg>
