<?xml version="1.0" encoding="utf-8"?>
<!-- Generator: Adobe Illustrator 23.0.2, SVG Export Plug-In . SVG Version: 6.00 Build 0)  -->
<svg version="1.1" id="Layer_1" xmlns="http://www.w3.org/2000/svg" xmlns:xlink="http://www.w3.org/1999/xlink" x="0px" y="0px"
	 viewBox="0 0 1200 1200" style="enable-background:new 0 0 1200 1200;" xml:space="preserve">
<style type="text/css">
	.st0{fill:#A3B523;}
	.st1{fill:#BBD631;}
	.st2{fill:#50BFA5;}
	.st3{fill:#3C8F7C;}
	.st4{fill:#FFE838;}
	.st5{fill:#FFFDF5;}
	.st6{fill:#A16EB0;}
	.st7{fill:#6C5E81;}
	.st8{fill:#3B314A;}
	.st9{opacity:0.5;fill:#642D78;}
	.st10{opacity:0.2;fill:#FFFFFF;}
	.st11{fill:#F48C7F;}
	.st12{fill:#F7A491;}
	.st13{fill:#F8A492;}
	.st14{fill:#642D78;}
	.st15{fill:#FE875E;}
	.st16{fill:#F47458;}
	.st17{fill:#FFFFFF;}
	.st18{opacity:0.3;fill:#642D78;}
	.st19{fill:#EAB054;}
	.st20{fill:#F7CC7F;}
	.st21{fill:#FFF2BD;}
	.st22{fill:#F4F2EA;}
	.st23{fill:#880136;}
	.st24{fill:#544866;}
	.st25{fill:#07345A;}
	.st26{fill:#C1C1C1;}
	.st27{fill:#EAE8E1;}
</style>
<g>
	<path class="st0" d="M707.32,898.8c96.38-105.31,171.06-233.59,220.1-378.1c57,32.61,114.01,65.22,171.01,97.83
		c-56.7,167.08-143.04,315.41-254.49,437.17C798.4,1003.4,752.86,951.1,707.32,898.8z"/>
	<path class="st1" d="M956.22,548.79c35.47,20.66,70.95,41.32,106.42,61.98c-5.27,15.13,0.42,33.52,13.08,41.29
		c-51.34,137.41-123.37,261.14-213.37,366.54c-10.53-11.42-26.97-11.36-37.01-0.18c-28.63-32.42-57.26-64.84-85.89-97.25
		c9.24-10.29,7.97-28.12-2.56-39.54c79.03-92.56,142.28-201.21,187.37-321.88C936.91,567.53,951.37,562.71,956.22,548.79z"/>
	<g>
		<path class="st2" d="M874.94,857.19c-28.36-26.66-35.24-71.53-17.28-101.87c18.04-30.28,55.89-37.57,86.51-14.7
			c30.56,22.83,40.67,70.4,20.4,104.49C944.34,879.23,903.25,883.81,874.94,857.19z"/>
		<path class="st3" d="M868.76,760.13c3.26,2.59,6.52,5.18,9.78,7.77c2.79-4.53,6.13-8.5,9.36-11.42c2.69-2.44,6.82-1.86,9.44,1.34
			c0.1,0.13,0.21,0.26,0.32,0.39c2.89,3.53,2.79,8.88-0.25,11.55c-3.1,2.71-6.12,6.18-8.52,10.5c-3.5,6.28-3.69,12.36,0.4,15.69
			c3.88,3.15,8.37,1.63,15.55-4.6c10.34-9.02,19.92-13.4,30.02-5.68c9.15,6.99,12.55,19.76,7.86,33.89c3.26,2.58,6.53,5.16,9.8,7.74
			c-2.11,3.82-4.24,7.62-6.39,11.41c-3.01-2.42-6.02-4.84-9.02-7.26c-2.54,4.05-5.01,7.06-7.35,9.36c-2.86,2.81-7.26,2.22-9.86-1.24
			l0,0c-2.68-3.58-2.43-8.82,0.56-11.6c2.24-2.08,4.69-4.92,6.96-8.95c4.18-7.43,2.59-12.13-0.29-14.4
			c-3.41-2.69-7.75-0.37-16.45,6.54c-11.92,9.88-20.68,10.43-29.78,2.83c-9.02-7.55-12.64-20.72-7.62-34.82
			c-3.48-2.82-6.96-5.63-10.44-8.45C864.83,767.19,866.8,763.67,868.76,760.13z"/>
		<path class="st2" d="M800.44,949.16c21.73-25.5,42.33-52.15,61.78-79.86c4.8,4.55,9.61,9.1,14.41,13.65
			c-19.72,28.1-40.61,55.11-62.64,80.98C809.47,959.01,804.95,954.09,800.44,949.16z"/>
	</g>
	<path class="st0" d="M722.63,848.38c135.76-39.52,264.28-107.39,378.81-200.05c32.86,52.35,65.71,104.69,98.56,157.03
		c-132.42,107.14-281.02,185.62-437.99,231.31C748.88,973.9,735.76,911.14,722.63,848.38z"/>
	<path class="st1" d="M1112.23,684.03c20.26,32.87,40.53,65.73,60.79,98.6c-12.11,9.64-16.39,26.94-9.36,38.99
		c-112.96,85.93-236.93,151.4-367.23,193.94c-3.37-13.98-17.58-21.52-31.83-17.24c-8.48-39.09-16.96-78.18-25.45-117.26
		c13.11-3.94,20.93-18.76,17.56-32.73C871.14,810.98,980,753.49,1079.2,678.02C1086.22,690.07,1101.08,692.9,1112.23,684.03z"/>
	<g>
		<path class="st0" d="M887.98,892.58c-11.13-34.37,5.37-73.35,36.03-89.27c30.69-15.83,66.98-4.17,81.94,28.22
			c14.94,32.33-0.12,74.96-34.64,92.8C936.81,942.21,899.08,926.89,887.98,892.58z"/>
	</g>
	<path class="st0" d="M763.99,895.21c115.82,25.8,239.2,26.43,363.65,1.87c0.13,54.59,0.26,109.18,0.39,163.77
		c-143.89,28.4-286.55,27.67-420.46-2.16C726.38,1004.19,745.18,949.7,763.99,895.21z"/>
	<path class="st1" d="M1119.34,929.47c-0.18,34.12-0.37,68.24-0.55,102.37c-13.09,2.47-23.97,14.2-24.33,26.54
		c-120.29,19.96-239.29,19.35-352.53-1.81c3.86-12.33-2.99-24.14-15.21-26.74c11.49-34.06,22.98-68.13,34.48-102.19
		c11.24,2.4,23.57-5.91,27.43-18.23c99.45,18.58,203.95,19.12,309.58,1.59C1097.84,923.33,1107.3,931.74,1119.34,929.47z"/>
	<path class="st0" d="M863.45,998.73c7.45-31.49,36.93-55.04,66.24-54.67c29.29,0.44,50.24,24.7,46.44,56.24
		c-3.78,31.48-33.87,58.49-66.83,58.01C876.33,1057.87,856,1030.16,863.45,998.73z"/>
	<path class="st2" d="M743.85,983.17c27.38,5.08,55.12,8.89,83.14,11.41c-1.29,5.35-2.57,10.7-3.86,16.04
		c-28.42-2.56-56.54-6.42-84.31-11.57C740.5,993.76,742.17,988.47,743.85,983.17z"/>
	<path class="st0" d="M1006.07,994.8c27.56-3.97,55.06-9.26,82.41-15.86c0.5,5.48,0.99,10.96,1.49,16.43
		c-27.74,6.69-55.61,12.06-83.56,16.08C1006.3,1005.91,1006.18,1000.35,1006.07,994.8z"/>
	<path class="st0" d="M1022.99,820.55c24.12-13.92,47.68-29.04,70.63-45.32c2.49,4.9,4.99,9.81,7.48,14.71
		c-23.27,16.51-47.16,31.84-71.62,45.95C1027.32,830.78,1025.16,825.67,1022.99,820.55z"/>
	<path class="st0" d="M932.35,702.85c14.48-23.79,27.89-48.36,40.21-73.66c4.54,3.1,9.08,6.21,13.63,9.31
		c-12.49,25.65-26.09,50.57-40.78,74.69C941.06,709.74,936.71,706.29,932.35,702.85z"/>
	<path class="st1" d="M412.31,123.34c36.29-5.78,68.58,7.61,72.13,29.9c1.78,11.15-3.97,22.41-14.7,31.61l19.96,30.52l-35.06-20.61
		c-8.58,4.32-18.59,7.58-29.48,9.31c-36.29,5.78-68.58-7.61-72.13-29.9C349.48,151.88,376.02,129.12,412.31,123.34z"/>
	<g>
		<path class="st4" d="M444.25,163.74c-1.35,12.74-12.77,21.96-25.5,20.61c-12.73-1.35-21.96-12.77-20.61-25.51
			c1.35-12.74,12.77-21.96,25.5-20.61C436.37,139.58,445.6,151,444.25,163.74z"/>
		<path class="st5" d="M408.48,163.63c-0.72,6.81,4.21,12.92,11.02,13.64c6.81,0.72,12.91-4.21,13.64-11.02L408.48,163.63z"/>
	</g>
	<path class="st6" d="M373.3,437.18l3.72-6.83l-3.5-6.95c-0.4-0.79,0.28-1.7,1.15-1.53l7.63,1.44l5.51-5.49
		c0.63-0.62,1.7-0.26,1.81,0.62l0.99,7.72l6.9,3.56c0.79,0.4,0.77,1.54-0.03,1.92l-7.01,3.33l-1.24,7.68
		c-0.14,0.88-1.22,1.21-1.83,0.56l-5.33-5.66l-7.67,1.19C373.52,438.89,372.87,437.96,373.3,437.18z"/>
	<path class="st4" d="M131.26,294.14c-0.48-6.93,4.73-12.94,11.64-13.42c6.91-0.48,12.9,4.75,13.38,11.68
		c0.48,6.93-4.73,12.94-11.65,13.42C137.73,306.3,131.74,301.08,131.26,294.14z"/>
	<g>
		<path class="st4" d="M152.53,329.67c-0.75-3.65-1.2-7.56-2.44-11.07c-1.07-3.02-5.77-2.1-5.54,1.15
			c0.29,3.98,1.53,8.01,2.36,11.91c0.34,1.58,2.42,2.31,3.8,1.83C152.39,332.88,152.85,331.25,152.53,329.67L152.53,329.67z"/>
	</g>
	<g>
		<path class="st4" d="M174.03,314.08c-4.16-2.46-7.78-5.5-11.62-8.41c-3-2.27-6.23,1.64-3.76,4.34c3.54,3.88,8.19,6.91,12.67,9.56
			c1.42,0.84,3.39,0.02,4.09-1.38C176.18,316.61,175.45,314.92,174.03,314.08L174.03,314.08z"/>
	</g>
	<g>
		<path class="st4" d="M166.15,291.56c-0.94,0.76-1.13,1.85-0.55,2.9c1.41,2.56,4.98,2.43,7.51,2.34c2.65-0.09,5.29-0.63,7.79-1.49
			c3.7-1.27,1.69-7.02-2.02-5.75C171.63,292.06,168.89,289.36,166.15,291.56z"/>
	</g>
	<g>
		<path class="st4" d="M162.16,267.1c-3.65,5.36-6.63,7.17-6.17,10.11c0.27,1.72,1.63,2.55,3.29,2.17c1.96-0.45,3.03-2.53,4.2-4
			c1.13-1.4,2.23-2.81,3.24-4.31c0.91-1.36,1.04-3.11-0.3-4.28C165.31,265.83,163.09,265.74,162.16,267.1L162.16,267.1z"/>
	</g>
	<g>
		<path class="st4" d="M147.93,266.17c-1.17-3.25-1.42-4.43-2.94-5.94c-1.32-1.31-4.09-0.48-4.28,1.46
			c-0.21,2.25,0.26,3.09,1.48,6.5c0.56,1.55,2.32,2.41,3.87,1.86C147.62,269.52,148.49,267.73,147.93,266.17L147.93,266.17z"/>
	</g>
	<g>
		<path class="st4" d="M132.57,274.03c-5.26-4.01-6.33-5.14-8.4-4.92c-1.21,0.13-2.57,1.3-2.31,2.66c0.49,2.54,1.96,3.22,6.8,6.76
			c1.3,0.95,3.08,1,4.2-0.29C133.87,277.09,133.86,275.01,132.57,274.03L132.57,274.03z"/>
	</g>
	<g>
		<path class="st4" d="M111.43,292.41c-2.07,1.1-1.24,4.7,1.01,4.99c2.15,0.28,2.98-0.06,13.43-1.98c1.61-0.3,2.94-1.48,2.82-3.25
			c-0.1-1.5-1.62-3.12-3.24-2.83C114.6,291.31,113.51,291.3,111.43,292.41z"/>
	</g>
	<g>
		<path class="st4" d="M127.8,309.55c-5.73,5.56-6.57,4.58-8.83,7.98c-1.03,1.55,0.67,4.03,2.47,3.7c2.31-0.43,2.93-0.82,5.94-3.21
			c1.75-1.39,3.42-2.88,5.03-4.43c1.19-1.15,0.87-3.31-0.3-4.33C130.78,308.08,128.99,308.4,127.8,309.55L127.8,309.55z"/>
	</g>
	<polygon class="st7" points="399.83,298.26 422.68,306.38 416.76,285.88 	"/>
	<polygon class="st1" points="287.91,266.74 268.97,266.33 261.93,248.3 266.64,246.46 272.45,261.33 292.02,261.76 296.61,283.24 
		309.65,281.91 309.75,287 292.62,288.74 	"/>
	<path class="st6" d="M1009.03,817.05l-13.3-95.58c-0.91-6.57-5.05-12.25-11.03-15.12l-33.37-16.07c-3.36-1.62-5.98-4.45-7.39-7.91
		c-41.87-102.89-151.97-176.35-281.21-176.35c-123.33,0-229.22,66.89-275.04,162.42c-0.23,0.04-0.47,0.07-0.73,0.09
		c-0.87,0.07-1.91,0.01-3.06-0.22c-1.15-0.22-2.38-0.55-3.66-1.03c-1.28-0.48-2.59-1.06-3.9-1.72c-2.63-1.35-5.29-3.01-7.86-4.88
		c-1.29-0.93-2.55-1.91-3.79-2.93c-0.52-0.43-1.04-0.87-1.55-1.31c0.55-0.5,1.1-1,1.64-1.51c1.71-1.64,3.3-3.39,4.8-5.21
		c1.51-1.81,2.91-3.7,4.22-5.64c1.31-1.94,2.56-3.93,3.71-5.96c0.3-0.5,0.57-1.02,0.85-1.53c0.28-0.51,0.56-1.02,0.83-1.57
		c0.56-1.07,1.07-2.17,1.56-3.29c0.97-2.23,1.8-4.56,2.4-7.03c0.6-2.46,0.98-5.05,0.95-7.79c-0.04-2.72-0.52-5.64-1.77-8.41
		c-1.23-2.76-3.19-5.28-5.63-7.15c-2.42-1.87-5.15-3.13-8-3.82c-2.85-0.69-5.85-0.87-8.88-0.39c-3.02,0.46-6.15,1.69-8.81,3.85
		c-0.32,0.27-0.68,0.55-0.96,0.81l-0.71,0.69c-0.47,0.47-0.95,0.92-1.41,1.41c-0.88,1-1.78,1.98-2.57,3.08
		c-0.84,1.05-1.53,2.2-2.27,3.33c-0.65,1.17-1.33,2.34-1.87,3.57c-1.13,2.44-2.02,4.98-2.62,7.57c-1.26,5.17-1.5,10.45-1.09,15.57
		c0.45,5.13,1.54,10.14,3.29,15.02c0.88,2.44,1.93,4.85,3.28,7.28c0.22,0.39,0.45,0.78,0.69,1.18c-1.95,0.41-3.94,0.66-5.94,0.7
		c-2.1,0.05-4.22-0.12-6.3-0.49c-1.05-0.16-2.07-0.45-3.1-0.71c-1.01-0.33-2.04-0.62-3.02-1.05c-3.99-1.56-7.65-4.01-10.91-6.92
		c-3.27-2.92-6.12-6.35-8.62-10.02c-2.5-3.68-4.65-7.62-6.58-11.66c1.61,4.18,3.46,8.29,5.7,12.21c2.24,3.92,4.88,7.65,8.06,10.96
		c3.17,3.3,6.86,6.22,11.09,8.26c1.04,0.55,2.14,0.96,3.23,1.41c1.11,0.38,2.23,0.77,3.38,1.05c2.29,0.59,4.64,0.97,7.02,1.09
		c2.37,0.13,4.77,0.02,7.13-0.32c0.64-0.09,1.27-0.2,1.9-0.33c0.07,0.08,0.15,0.16,0.23,0.25c0.32,0.34,0.62,0.66,0.98,1.01
		c0.09,0.09,0.2,0.17,0.29,0.25l0.96,1.04l1.03,1.07c0.68,0.7,1.37,1.38,2.07,2.05c1.4,1.34,2.84,2.65,4.32,3.91
		c2.97,2.53,6.16,4.91,9.67,7.08c3.54,2.14,7.4,4.1,11.99,5.38c0.12,0.04,0.26,0.06,0.38,0.1c-10.55,27.43-16.28,56.86-16.28,87.5
		c0,68.95,29,131.82,76.66,179.35c16.61,16.57,28.98,36.9,35.67,59.39l16.3,54.79c1.68,5.64,6.86,9.5,12.74,9.5h105.24
		c5.81,0,11.08-3.38,13.51-8.66l8.8-19.15c2.17-4.72,6.99-7.65,12.18-7.37c6.01,0.32,12.07,0.49,18.16,0.49
		c5.76,0,11.48-0.15,17.16-0.44c5.18-0.27,10,2.66,12.16,7.37l8.06,17.55c2.86,6.23,9.08,10.21,15.94,10.21H816.4
		c7.76,0,14.6-5.1,16.81-12.53L852,1001.7c4.56-15.31,13.13-29.14,24.89-39.95c26.52-24.36,47.91-53.22,62.61-85.19
		c3.73-8.11,10.22-14.61,18.34-18.33l38.2-17.49C1005.13,836.58,1010.41,826.95,1009.03,817.05z M358.73,652.33
		c-0.05-0.07-0.11-0.15-0.17-0.22c-0.24-0.3-0.48-0.66-0.72-1c-0.95-1.42-1.84-3.06-2.62-4.78c-1.55-3.45-2.69-7.2-3.31-10.96
		c-1.25-7.54-0.28-15.16,3.61-21.22c0.45-0.78,1.03-1.48,1.56-2.22c0.28-0.36,0.6-0.69,0.89-1.04l0.45-0.52l0.3-0.29
		c0.75-0.76,1.85-1.41,3.23-1.73c2.73-0.7,6.27-0.2,8.66,1.39c1.19,0.76,2.16,1.8,2.87,3.06c0.71,1.27,1.15,2.83,1.32,4.57
		c0.32,3.5-0.41,7.53-1.75,11.38c-0.34,0.97-0.7,1.93-1.1,2.88c-0.19,0.47-0.41,0.96-0.64,1.45c-0.22,0.49-0.44,0.98-0.67,1.46
		c-0.91,1.95-1.91,3.85-2.97,5.7c-1.06,1.86-2.2,3.66-3.42,5.4c-1.23,1.74-2.52,3.42-3.94,4.99
		C359.8,651.22,359.27,651.78,358.73,652.33z"/>
	<path class="st8" d="M913.15,699.26c1.55,9.19,0.08,17.1-3.26,17.66c-3.35,0.56-7.31-6.43-8.86-15.62
		c-1.55-9.19-0.08-17.1,3.26-17.66C907.63,683.07,911.6,690.06,913.15,699.26z"/>
	<path class="st6" d="M778.33,545.76c8.03-8.36,56.92-55.28,146.2-58.21c3.25-0.11,5.45,3.29,4.04,6.22
		c-10.51,21.9-44.78,95.77-54.75,148.18c-0.4,2.13-2.3,3.63-4.46,3.54c-17.92-0.79-92.91-9.3-92.23-96.78
		C777.14,547.61,777.57,546.55,778.33,545.76z"/>
	<path class="st9" d="M833.6,577.51c0-1.9,0.08-3.78,0.23-5.63c1.47-18.05,9.72-34.84,22.6-47.57
		c15.07-14.89,38.06-30.48,70.82-35.91c-0.74-0.56-1.68-0.89-2.72-0.85c-89.29,2.93-138.19,49.86-146.21,58.21
		c-0.76,0.79-1.19,1.85-1.2,2.94c-0.68,87.48,74.32,95.99,92.23,96.78c2.16,0.09,4.06-1.41,4.46-3.54c0.27-1.42,0.56-2.86,0.87-4.31
		C850.54,629.94,836.55,619.23,833.6,577.51z"/>
	<path class="st9" d="M949.95,863.13c0,0-35.18,7.63-137.07,20.8C664.25,903.14,547.11,808.42,567.39,675
		c11.4-75.02,54.27-133.89,99.88-168.94c-1.51-0.02-3.03-0.04-4.55-0.04c-123.33,0-229.22,66.89-275.04,162.42
		c-0.23,0.04-0.47,0.07-0.73,0.09c-0.87,0.07-1.91,0.01-3.06-0.22c-1.15-0.22-2.38-0.55-3.66-1.03c-1.28-0.48-2.59-1.06-3.9-1.72
		c-2.63-1.35-5.29-3.01-7.86-4.88c-1.29-0.93-2.55-1.91-3.79-2.93c-0.52-0.43-1.04-0.87-1.55-1.31c0.55-0.5,1.1-1,1.64-1.51
		c1.71-1.64,3.3-3.39,4.8-5.21c1.51-1.81,2.91-3.7,4.22-5.64c1.31-1.94,2.56-3.93,3.71-5.96c0.3-0.5,0.57-1.02,0.85-1.53
		c0.28-0.51,0.56-1.02,0.83-1.57c0.56-1.07,1.07-2.17,1.56-3.29c0.97-2.23,1.8-4.56,2.4-7.03c0.6-2.46,0.98-5.05,0.95-7.79
		c-0.04-2.72-0.52-5.64-1.77-8.41c-1.23-2.76-3.19-5.28-5.63-7.15c-2.42-1.87-5.15-3.13-8-3.82c-2.85-0.69-5.85-0.87-8.88-0.39
		c-3.02,0.46-6.15,1.69-8.81,3.85c-0.32,0.27-0.68,0.55-0.96,0.81l-0.71,0.69c-0.47,0.47-0.95,0.92-1.41,1.41
		c-0.88,1-1.78,1.98-2.57,3.08c-0.84,1.05-1.53,2.2-2.27,3.33c-0.65,1.17-1.33,2.34-1.87,3.57c-1.13,2.44-2.02,4.98-2.62,7.57
		c-1.26,5.17-1.5,10.45-1.09,15.57c0.45,5.13,1.54,10.14,3.29,15.02c0.88,2.44,1.93,4.85,3.28,7.28c0.22,0.39,0.45,0.78,0.69,1.18
		c-1.95,0.41-3.94,0.66-5.94,0.7c-2.1,0.05-4.22-0.12-6.3-0.49c-1.05-0.16-2.07-0.45-3.1-0.71c-1.01-0.33-2.04-0.62-3.02-1.05
		c-3.99-1.56-7.65-4.01-10.91-6.92c-3.27-2.92-6.12-6.35-8.62-10.02c-2.5-3.68-4.65-7.62-6.58-11.66c1.61,4.18,3.46,8.29,5.7,12.21
		c2.24,3.92,4.88,7.65,8.06,10.96c3.17,3.3,6.86,6.22,11.09,8.26c1.04,0.55,2.14,0.96,3.23,1.41c1.11,0.38,2.23,0.77,3.38,1.05
		c2.29,0.59,4.64,0.97,7.02,1.09c2.37,0.13,4.77,0.02,7.13-0.32c0.64-0.09,1.27-0.2,1.9-0.33c0.07,0.08,0.15,0.16,0.23,0.25
		c0.32,0.34,0.62,0.66,0.98,1.01c0.09,0.09,0.2,0.17,0.29,0.25l0.96,1.04l1.03,1.07c0.68,0.7,1.37,1.38,2.07,2.05
		c1.4,1.34,2.84,2.65,4.32,3.91c2.97,2.53,6.16,4.91,9.67,7.08c3.54,2.14,7.4,4.1,11.99,5.38c0.12,0.04,0.26,0.06,0.38,0.1
		c-10.55,27.43-16.28,56.86-16.28,87.5c0,68.95,29,131.82,76.66,179.35c16.61,16.57,28.98,36.9,35.67,59.39l16.3,54.79
		c1.68,5.64,6.86,9.5,12.74,9.5h105.24c5.81,0,11.08-3.38,13.51-8.66l8.8-19.15c2.17-4.72,6.99-7.65,12.18-7.37
		c6.01,0.32,12.07,0.49,18.16,0.49c5.76,0,11.48-0.15,17.16-0.44c5.18-0.27,10,2.66,12.16,7.37l8.06,17.55
		c2.86,6.23,9.08,10.21,15.94,10.21H816.4c7.76,0,14.6-5.1,16.81-12.53L852,1001.7c4.56-15.31,13.13-29.14,24.89-39.95
		c26.52-24.36,47.91-53.22,62.61-85.19c2.42-5.26,6.01-9.85,10.45-13.43C949.96,863.13,949.95,863.13,949.95,863.13z M358.73,652.33
		c-0.05-0.07-0.11-0.15-0.17-0.22c-0.24-0.3-0.48-0.66-0.72-1c-0.95-1.42-1.84-3.06-2.62-4.78c-1.55-3.45-2.69-7.2-3.31-10.96
		c-1.25-7.54-0.28-15.16,3.61-21.22c0.45-0.78,1.03-1.48,1.56-2.22c0.28-0.36,0.6-0.69,0.89-1.04l0.45-0.52l0.3-0.29
		c0.75-0.76,1.85-1.41,3.23-1.73c2.73-0.7,6.27-0.2,8.66,1.39c1.19,0.76,2.16,1.8,2.87,3.06c0.71,1.27,1.15,2.83,1.32,4.57
		c0.32,3.5-0.41,7.53-1.75,11.38c-0.34,0.97-0.7,1.93-1.1,2.88c-0.19,0.47-0.41,0.96-0.64,1.45c-0.22,0.49-0.44,0.98-0.67,1.46
		c-0.91,1.95-1.91,3.85-2.97,5.7c-1.06,1.86-2.2,3.66-3.42,5.4c-1.23,1.74-2.52,3.42-3.94,4.99
		C359.8,651.22,359.27,651.78,358.73,652.33z"/>
	<path class="st10" d="M531.75,575.96c8.82,13.72-4,37.68-28.63,53.51c-24.63,15.83-51.75,17.55-60.57,3.83
		c-8.82-13.72,4-37.68,28.63-53.51C495.81,563.96,522.93,562.24,531.75,575.96z"/>
	<path class="st8" d="M735.68,545.56c-86.81-28.38-163.22-0.4-163.98-0.11l-5.65-10.99c0.84-0.32,20.96-7.77,52.57-11.54
		c29.11-3.47,73.93-4.31,122.07,11.43L735.68,545.56z"/>
	<path class="st11" d="M470.62,552.36c0,0-3.13,5.1-2.84,6.61c0.28,1.51,4.04,17.51,6.11,18.57c2.07,1.06,7.32,0.85,6.14,2.93
		c-0.89,1.57-10.27,3.66-16.52,4.88c-1.83,0.36-7.72-13.44-8.97-15.37c-1.81-2.8-6.08-9.07-5.68-11.45c0.2-1.16,1.85-3.85,4.44-6.64
		c2.72-2.93,4.65-8.39,4.65-8.39L470.62,552.36z"/>
	<path class="st12" d="M516.02,550.9c0,0-1.06,11.44-1.06,11.47c0.14,1.73,0.1,6.12,0.48,7.63c1.44,5.68,24.39-11.31,18.02-12.37
		c-0.58-0.1-2.67-1.5-3.33-3.39c-1.02-2.91,0.46-7.26,0.46-7.26L516.02,550.9z"/>
	<path class="st0" d="M506.71,345.27c0,0,6.63,18.34,6.7,18.63c7.71,30.44,28.8,88.37,29.1,94.38c0.73,14.67-11.37,93.5-11.37,93.5
		l-16.78,2.18L514,463.33l-16.5-32.34l-28.22-65.03L506.71,345.27z"/>
	<path class="st1" d="M456.27,375.75l1.43,18.62l10.23,75.52l-13.67,79.8c0,0,7.12,9.3,14.1,9.1l32.02-86.48l7.61-102.22
		l-6.41-20.66L456.27,375.75z"/>
	<path class="st8" d="M453.47,551.74c0,0,16.39,24.52,20.47,24.87c1.08,0.09,6.08-0.24,7.51,1.64c0.43,0.57,1.35,3.41,1.35,3.41
		l-20.57,5.92c0,0-5.56-12.75-7.88-17.71c0,0-8.51-11.41-8.21-12.71C446.44,555.85,453.47,551.74,453.47,551.74z"/>
	<path class="st8" d="M514.42,572.91l0.63-10.67c0,0,6.82,1.05,9.79-0.17c2.97-1.21,8.54-4.47,8.54-4.47
		c13.32,0.93,23.89,0.35,22.88,4.07l0,0L514.42,572.91z"/>
	<g>
		<path class="st13" d="M642.75,280.38c-5.62,3.89-4.78,4.71-5.52,5.19c-0.87,0.57-14.48,0.28-14.48,0.28s-40.14-0.56-42.3-0.67
			l-37.51-18.34l-14.11,16.95c0,0,41.33,18.81,43.65,19.4c2.33,0.59,56.71-5.27,61.51-5.62c0,0,5.86,1.79,9.58,2.78
			c3.72,1,7.68,0.21,8.77,0.32c0.16,0.02,3.81,0.17,8.36-0.9c3.92-0.92-0.19-1.92-0.19-1.92s-7.55,0.34-7.46-0.29
			c0.06-0.48,4.19-0.41,8.54-1.38c1.12-0.25,2.22-0.5,3.23-0.74c2.65-0.63,3.05-2.5,0.18-2.31c-1.01,0.07-2.7,0.22-3.88,0.51
			c-1.28,0.31-2.55,0.17-3.67,0.26c-2.21,0.18-3.82,0.34-3.78,0.24c0.06-0.13-0.4-0.42,0.77-0.72c1.42-0.36,4.59-0.44,6.63-1.15
			c1.16-0.4,3.63-1.08,3.63-1.08s4.21-1.53,3.97-2.11c-0.53-1.26-3.34-0.77-4.85-0.01c-1.19-0.03-3.77,0.76-3.77,0.76
			s-5.55,0.38-5.61-0.44c-0.02-0.33,3.01-1.25,6.11-2.48c3.28-1.3,5.58-2.39,5.46-3.09c-0.2-1.1-2.9-0.27-2.9-0.27
			s-2.38,0.74-3.19,0.92c-0.95,0.21-3.83,0.62-3.83,0.62s-10.11,0.94-10.1,0.15c0.01-0.78,0.8-2.79,1.4-3.07
			c0.61-0.29,1.98-0.2,2.59-0.48c0.61-0.29,1.86-1.02,1.58-1.83c-0.27-0.81-4.39-0.78-4.39-0.78S644.38,279.26,642.75,280.38z"/>
		<path class="st14" d="M567.97,277.35c0,0-3.32,8.1-4.92,11.01c-1.33,2.42-8.93,11.86-8.93,11.86s-16.97-10.35-24.84-15.84
			c-9.56-6.66-19.63-18.54-18.58-19.49c2.96-2.68,7.41-5.57,12.75-5.65C541.95,258.98,567.97,277.35,567.97,277.35z"/>
		<path class="st15" d="M640.81,290.94c2.8-0.83,5.23-2.59,5.25-5.53C647.66,288.12,644.04,291.56,640.81,290.94z"/>
	</g>
	<path class="st6" d="M538.68,262.12c-8.52-3.56-24.83-6.62-24.83-6.62s-10.15-2.73-13.57-2.34c-5.04,0.57-25.54-8.04-46.18,125.83
		l63.72,0.11c-4.23-12.54,10.75-47.15,12.45-53.09C534.07,312.74,546.74,265.49,538.68,262.12z"/>
	<path class="st12" d="M524.24,238.05l-11.66,17.16c0,0,6.12,14.02,13.11,15.08c5.87,0.9,5.8-7.93,5.8-7.93s2.04-11.19,5.37-15.96
		C540.2,241.64,524.24,238.05,524.24,238.05z"/>
	<path class="st16" d="M524.42,245.42c1.98,2.59,5.37,6.08,9.18,8.47c0.86-2.77,1.96-5.62,3.27-7.48c1.54-2.2-1.04-4.15-4.25-5.61
		c-4.34-1.64-8.38-2.74-8.38-2.74l-2.24,3.3C522.36,242.62,523.76,244.55,524.42,245.42z"/>
	<path class="st12" d="M521.37,210.32c-0.43-0.21-5.84,22.66-0.51,29.64c5.33,6.98,16.74,10.23,21.4,5.63
		c5.15-5.1,7.36-30.04-1.26-37.53C532.37,200.57,521.37,210.32,521.37,210.32z"/>
	<path class="st8" d="M533.43,198.18c-7.33-0.46-17.22,3.11-22.52,10.17c-6.52,8.68-3.05,21.06,2.99,26.74
		c6.04,5.68,4.81,11.11,4.81,11.11l3.32-4.88c0,0,0.69-5.48-0.55-8.99c-1.24-3.51,3.92-5.25,5.58-7.9
		c1.28-2.04,1.81-6.96,3.84-10.34c0,0,7.04-4.48,11.7-4.17C550.55,210.44,543.93,198.84,533.43,198.18z"/>
	<path class="st12" d="M524.66,228.99c1.22,2.46,1.02,5.05-0.46,5.79c-1.48,0.73-3.67-0.67-4.89-3.13
		c-1.22-2.46-1.02-5.05,0.46-5.79C521.24,225.12,523.43,226.52,524.66,228.99z"/>
	<path class="st17" d="M544.54,235.67l-9.54-1.91c0,0-0.51,3.73,3.67,4.69C543.76,239.63,544.54,235.67,544.54,235.67z"/>
	<g>
		
			<ellipse transform="matrix(0.1498 -0.9887 0.9887 0.1498 262.5157 911.9415)" class="st6" cx="661.52" cy="303.33" rx="83.36" ry="82.68"/>
		<path class="st14" d="M590.55,294.94c-4.69,39.52,23.29,75.3,62.49,79.93c39.2,4.63,74.78-23.65,79.47-63.16
			c4.69-39.52-23.29-75.3-62.49-79.93C630.82,227.15,595.24,255.43,590.55,294.94z"/>
		<path class="st18" d="M670.01,231.78c22,2.6,40.46,15.01,51.6,32.38c-11.26-13.4-27.4-22.69-46.08-24.9
			c-39.2-4.63-74.78,23.65-79.47,63.16c-2.06,17.34,2.18,33.96,10.89,47.55c-12.36-14.71-18.86-34.36-16.4-55.04
			C595.24,255.43,630.82,227.15,670.01,231.78z"/>
	</g>
	<path class="st13" d="M612.06,331.9c-2.99-1.73-5.53-5.08-9.31-6.76c-1.27-0.56-3.08-1.01-5.08-1.38
		c-14.99-1.27-53.94-4.41-55.78-5.21c-2.18-0.95-39.51-25.65-39.51-25.65l16.7-13.16l33.68,23.59c2.11,0.48,41.36,8.11,41.36,8.11
		s7.92,1.76,12.08,2.37c2.04,0.17,3.87,0.04,5.45-0.14c1.99-0.22,6-0.15,6.93,0.12c1.08,0.31,3.29,1.02,4.62,1.46
		c1.32,0.44,2.9,0.91,3.57,1.23c0.41,0.19,1.42,0.25,2.15,0.26c1.09,0.02,1.59,1.37,0.77,2.09c-0.77,0.67-2.23,0.69-3.15,0.69
		c-2.57,0.01-6.41-1.43-6.39-1.04c0.02,0.39,5.35,4.86,5.93,5.41c0.58,0.55,6.74,5.78,7.6,7.19c0.86,1.41,0.13,2.18-0.79,1.95
		c-0.79-0.19-9.85-6.79-9.85-6.79s-1.16-0.84-1.09-0.08c0.07,0.76,8.27,6.77,9.33,7.89c1.06,1.12,1.24,2.37-0.21,2.49
		c-1.76,0.14-10.12-6.81-10.12-6.81s-1.06-0.85-1.25-0.29c-0.18,0.56,6.88,5.55,7.3,6.32c0.42,0.76,0.08,1.88-1.27,1.71
		c-1.58-0.19-9-6.46-9-6.46s-0.7-0.32-0.66,0.12c0.04,0.44,5.76,5.13,5.97,6.11c0.17,0.83-0.56,1-0.56,1
		C619.98,338.96,615.05,333.63,612.06,331.9z"/>
	<path class="st14" d="M516.21,308.75c0,0,5.17-4.84,8.23-8.5c2.05-2.45,10.76-13.57,10.76-13.57s-14.82-18.43-21.7-24.31
		c-25.27-21.59-30.15,3.93-29.94,9.23C484.04,283.46,516.21,308.75,516.21,308.75z"/>
	<path class="st8" d="M146.67,1032.1v38.58c0,6.24,69.59,11.29,155.42,11.29c85.84,0,155.42-5.06,155.42-11.29v-38.58H146.67z"/>
	<g>
		<path class="st7" d="M259.15,1081.54v-49.44H146.67v38.58C146.67,1075.84,194.2,1080.19,259.15,1081.54z"/>
		<path class="st7" d="M264.38,1081.65c12.07,0.22,24.71,0.33,37.71,0.33c19.38,0,37.93-0.26,55.04-0.73v-49.15h-92.75V1081.65z"/>
		<path class="st19" d="M363.36,1081.07c55.37-1.73,94.16-5.73,94.16-10.38v-38.58h-94.16V1081.07z"/>
	</g>
	<ellipse class="st8" cx="302.1" cy="1031.69" rx="155.42" ry="11.29"/>
	<ellipse class="st20" cx="302.1" cy="1031.69" rx="127.99" ry="7.83"/>
	<path class="st8" d="M120.08,991.27v38.58c0,6.24,69.59,11.29,155.42,11.29s155.42-5.06,155.42-11.29v-38.58H120.08z"/>
	<g>
		<path class="st7" d="M232.56,1040.72v-49.44H120.08v38.58C120.08,1035.01,167.61,1039.36,232.56,1040.72z"/>
		<path class="st7" d="M237.79,1040.82c12.07,0.22,24.71,0.34,37.71,0.34c19.38,0,37.93-0.26,55.04-0.73v-49.15h-92.75V1040.82z"/>
		<path class="st19" d="M336.77,1040.24c55.38-1.73,94.16-5.73,94.16-10.38v-38.58h-94.16V1040.24z"/>
	</g>
	<ellipse class="st8" cx="275.5" cy="990.86" rx="155.42" ry="11.29"/>
	<path class="st8" d="M403.49,990.86c0,4.32-57.3,7.83-127.99,7.83c-70.69,0-127.99-3.51-127.99-7.83c0-4.32,57.3-7.83,127.99-7.83
		C346.19,983.03,403.49,986.54,403.49,990.86z"/>
	<path class="st8" d="M137.8,949.36v38.58c0,6.24,69.59,11.29,155.42,11.29c85.84,0,155.42-5.06,155.42-11.29v-38.58H137.8z"/>
	<g>
		<path class="st7" d="M250.27,998.8v-49.44H137.8v38.58C137.8,993.1,185.32,997.45,250.27,998.8z"/>
		<path class="st7" d="M255.51,998.9c12.07,0.22,24.71,0.34,37.71,0.34c19.38,0,37.93-0.26,55.04-0.73v-49.15h-92.75V998.9z"/>
		<path class="st7" d="M354.49,998.33c55.37-1.73,94.16-5.73,94.16-10.38v-38.58h-94.16V998.33z"/>
	</g>
	<ellipse class="st8" cx="293.22" cy="948.95" rx="155.42" ry="11.29"/>
	<ellipse class="st20" cx="293.22" cy="948.95" rx="127.99" ry="7.83"/>
	<path class="st8" d="M120.08,908.02v38.58c0,6.24,69.59,11.29,155.42,11.29s155.42-5.06,155.42-11.29v-38.58H120.08z"/>
	<g>
		<path class="st7" d="M232.56,957.46v-49.44H120.08v38.58C120.08,951.76,167.61,956.11,232.56,957.46z"/>
		<path class="st7" d="M237.79,957.56c12.07,0.22,24.71,0.34,37.71,0.34c19.38,0,37.93-0.26,55.04-0.73v-49.15h-92.75V957.56z"/>
		<path class="st7" d="M336.77,956.99c55.38-1.73,94.16-5.73,94.16-10.38v-38.58h-94.16V956.99z"/>
	</g>
	<ellipse class="st8" cx="275.5" cy="907.61" rx="155.42" ry="11.29"/>
	<path class="st6" d="M403.49,907.61c0,4.32-57.3,7.83-127.99,7.83c-70.69,0-127.99-3.51-127.99-7.83c0-4.32,57.3-7.83,127.99-7.83
		C346.19,899.78,403.49,903.29,403.49,907.61z"/>
	<rect x="360.69" y="979.41" class="st1" width="272.28" height="99.1"/>
	<g>
		<rect x="360.69" y="993.85" class="st21" width="272.28" height="12.75"/>
		<rect x="360.69" y="1018.75" class="st21" width="272.28" height="12.75"/>
		<rect x="360.69" y="1043.65" class="st21" width="272.28" height="12.75"/>
		<rect x="360.69" y="1065.76" class="st21" width="272.28" height="12.75"/>
		<rect x="474.99" y="979.41" class="st14" width="56.63" height="99.1"/>
	</g>
	<rect x="322.88" y="979.41" class="st0" width="41.12" height="99.1"/>
	<g>
		<path class="st13" d="M645.41,797.04c-0.42,1.45-0.66,1.94-1.2,2.91c-3.46,6.3-11.5,15.29-11.5,15.29l-6.22-14
			c0,0,1.01-4.4,2.77-10.68C635.27,792.14,640.98,793.04,645.41,797.04z"/>
		<path class="st22" d="M609.78,784.9c0,0,34.66,14.93,35.78,14.64c0.72-0.18,14.22-22.77,14.36-44.01
			c0.07-9.81-10.12-21.61-21.49-19.28c-5.72,1.18-5.63,2.77-14.1,15.07C615.86,763.62,609.78,784.9,609.78,784.9z"/>
		<path class="st12" d="M580.19,1052.49c0,0,0.82,13.61,0.83,13.64c0.3,1.73,1.49,6,1.49,7.57c0,5.9-28.03-5.01-21.75-7.63
			c0.57-0.24,3.55-2.03,3.73-4.04c0.29-3.09,1.02-9.36,1.02-9.36L580.19,1052.49z"/>
		<path class="st8" d="M560.84,1066.02c0,0,6.58,1.81,9.95,2.26c3.37,0.45,7.81-3.35,10.2-2.32c2.62,1.13,2.52,11.3,2.52,11.3
			s-35.29,2.9-45.21-0.1C534.37,1075.97,547.39,1070.23,560.84,1066.02z"/>
		<path class="st12" d="M637.53,1052.49c0,0,0.82,13.61,0.83,13.64c0.3,1.73,1.49,6,1.49,7.57c0,5.9-28.03-5.01-21.75-7.63
			c0.57-0.24,4.43-3.36,4.62-5.37c0.29-3.09,0.14-8.02,0.14-8.02L637.53,1052.49z"/>
		<path class="st8" d="M618.17,1066.02c0,0,6.58,1.81,9.95,2.26c3.37,0.45,7.81-3.35,10.2-2.32c2.62,1.13,2.73,11.3,2.73,11.3
			s-35.45,3.38-45.42-0.1C591.76,1075.81,604.72,1070.23,618.17,1066.02z"/>
		<g>
			<path class="st12" d="M628.96,804.58L604.28,770c-0.1-0.3-0.33-0.92-0.67-1.87c-1.24-3.43-3.83-10.57-6.08-17.67l-0.02-0.08
				c-0.71-2.48-2.21-6.81-3.66-11c-1.61-4.66-3.62-10.44-3.69-11.42c0.06-0.17,0.18-0.47,0.33-0.87c0.9-2.35,2.13-7.94,2.56-10.38
				c0.28-1.55,0.55-5.31-1.29-5.31c-2.9,0-1.52,3.76-2.85,6.11c-0.49-1.57-1.48-4.68-2.01-7.84l-0.48-7.35
				c-0.09-0.55,0.5-4.61-1.53-4.61l-0.1,0c-1.82,0.13-1.78,4.45-2.54,11.74c-0.24-0.84-0.48-1.85-0.66-2.78
				c0.02-0.5-0.34-2.69-0.62-3.85c0.37-2.03,0.15-5.24-2.01-4.94c-1.08,0.15-1,4.62-1,4.62c0.01,0.61,0.08,5.34,0.04,6.28
				c-0.22-1.59-1.09-8.35-2.79-8.35c-1.41,0-1.52,1.82-1.49,3.26c0.02,0.85,0.9,8.19,0.95,9.04c-0.66-1.11-1.45-7.57-2.11-7.57
				c-2.75,0-1.75,9.19-0.74,11.58c0.09,0.24,0.2,0.73,0.31,1.28c0.34,1.64,0.92,4.38,2.35,6.84c1.72,2.95,4.1,7.64,4.46,8.36
				c0.27,1.46,1.09,6.73,2.13,13.36c0.44,2.83,0.93,5.94,1.44,9.16l0.03,0c0.09,0.7,0.61,2.91,2.56,11.23
				c2.67,11.38,2.95,11.87,3.07,12.08c1.16,2.05,27.77,38.2,28.91,39.73l0.67,0.91L628.96,804.58z"/>
			<path class="st16" d="M583.05,723.93c0,0,2-5.12,5.57-5.13c0,0-1.99-0.72-3.7,0.63C583.21,720.79,583.05,723.93,583.05,723.93z"
				/>
		</g>
		<g>
			<path class="st12" d="M634.93,714.04l3.18,20.1c0,0-12.11,9.72-19.17,7.67c-5.92-1.72-1.86-9.46-1.86-9.46s3.15-10.73,2.19-16.35
				C618.3,710.36,634.93,714.04,634.93,714.04z"/>
			<path class="st15" d="M632.64,720.11c-3.04,1.43-9.03,3.39-13.7,3.86c0.45-2.81,0.7-5.79,0.32-7.98
				c-0.45-2.6,2.86-3.21,6.54-3.12c4.82,0.41,9.12,1.17,9.12,1.17l0.61,3.86C634.62,718.86,633.65,719.63,632.64,720.11z"/>
			<path class="st12" d="M650.2,690.86c0.5,0-4.79,22.45-12.97,26.31c-8.18,3.86-20.38,1.85-22.67-4.2
				c-2.53-6.69,6.7-29.59,18.21-32.5C644.28,677.56,650.2,690.86,650.2,690.86z"/>
			<path class="st23" d="M640.74,670.23c6.53,3.77,9.53,9.36,10.54,11.65c3.07,1.46,6.78,4.6,8.56,13.08
				c2.19,10.43-5.6,18.47-13.85,20.88c-8.25,2.42-9.53,7.88-9.53,7.88l-0.94-5.88c0,0,1.84-5.12,4.6-7.68
				c2.76-2.56-1.31-6.3-1.67-9.34c-0.27-2.34,1.45-6.9,1.08-10.74c0,0-4.59-6.95-9.11-8.67
				C622.71,678.48,632.36,665.39,640.74,670.23z"/>
			<path class="st12" d="M637.26,704.73c-1.07,2.59-0.63,5.17,0.98,5.75c1.61,0.58,3.78-1.05,4.85-3.64
				c1.07-2.59,0.63-5.17-0.98-5.75C640.5,700.51,638.33,702.14,637.26,704.73z"/>
		</g>
		<path class="st13" d="M606.79,805.14l-47.61-7.76c0,0,5.42-13.64,7.35-13.64c1.94,0,36,14.87,36,14.87l2.71,5.44L606.79,805.14z"
			/>
		<path class="st8" d="M631.18,837.78c0,0,4.75,22.96,2.81,40.37c-1.94,17.41-2.09,79.26-2.09,79.26l7.39,98.96l-17.53,0.38
			c0,0-20.78-98.91-20.39-96.37c0.39,2.54-6.97-69.64-6.97-69.64l24.78-55.13L631.18,837.78z"/>
		<path class="st24" d="M626.54,836.7c0,0,3.1,20.68-0.77,29.74c-3.87,9.07-33.2,98.04-33.59,105.3
			c-0.39,7.25-10.14,87.44-10.14,87.44l-20.38-0.57l-4.41-89.15l9.23-112.05l8.96-28.33L626.54,836.7z"/>
		<path class="st12" d="M638.1,734.13c0,0-5.03,3.3-9.71,2.92c-4.69-0.38-11.31-4.71-11.31-4.71l0.92-3.12
			c0,0,12.12-1.77,12.43-1.58C630.73,727.83,638.1,734.13,638.1,734.13z"/>
		<path class="st13" d="M584.54,783.07c0,0-18.01,17-26.14,14.09c-8.13-2.9-11.49-12.82,8.34-27.33
			C584.5,756.84,584.54,783.07,584.54,783.07z"/>
		<path class="st5" d="M572.34,804.05c2.68-14.56,22.07-59.85,23.61-68.19c0.75-4.06,11.21-4.15,21.17-3.62
			c10.52,0.56,20.98,1.89,20.98,1.89s9.32,1.53,13.41,5.37c4.1,3.84,5.19,14.46-0.7,34.62c-4.65,15.92-10.42,24.65-13.27,36.25
			c-0.58,3.89-1.07,7.73-1.73,12.21c-1.05,17.33,0.01,40.23,0.01,40.23s-50.71,10.52-69.68-5.44
			C566.14,857.37,569.6,818.96,572.34,804.05z"/>
		<path class="st22" d="M559.41,772.75c0,0,19.9,16.43,21.06,16.43c0.75,0,28.4-20.34,34.78-37.05c3.53-9.24-3.87-19.57-12.33-19.54
			c-5.86,0.02-8.46,1.53-20.08,11.33C571.23,753.71,559.41,772.75,559.41,772.75z"/>
	</g>
	<path class="st17" d="M617.26,704.92c0,0-1.05,2.66,1.89,4.14c3.59,1.8,4.9-0.97,4.9-0.97L617.26,704.92z"/>
	<g>
		<path class="st12" d="M253.5,479.07c0,0-1.83,9-3.28,12.31c-0.76,1.74-4.13,8.45-4.13,8.45l-1.57,18.23l-13.78-1.83
			c0,0,4.66-13.14,3.08-17.08c-1.24-3.11-2.01-9.62-1.93-11.25C232.17,482.35,253.5,479.07,253.5,479.07z"/>
		<path class="st12" d="M81.71,490.19c0,0,13.97,9.02,16.65,11.46c1.41,1.28,7.23,6.07,7.23,6.07l8.89,16.04l11.85-7.2
			c0,0-9.63-10.14-9.8-14.38c-0.13-3.34-2.09-9.6-2.83-11.06C111.17,486.15,81.71,490.19,81.71,490.19z"/>
		<path class="st25" d="M193.14,545.93c0,0-7.18-7.5-12.95,1.62c0,0-4.45-2.47-7.57,1.93c0,0-8.04-2.4-9.99,9.51
			c0,0-4.13-0.77-4.68,4.1c-0.55,4.87,1.95,8.12,1.95,8.12s-2.32,1.73-1.27,6.2c0.9,3.81,4.08,4.39,4.08,4.39s0.86,6.42,3.67,8.35
			c2.81,1.93,6.63,1,6.63,1s1.01,3.48,4.29,3.17c3.28-0.31,7.33-3.4,11-2.01c3.67,1.39,13.18-0.08,13.18-0.08s10.69-4.71,7.49-15.54
			c0,0,5.62-5.02,0.7-11.05c0,0,3.59-9.43-3.51-14.99C199.07,545.08,193.14,545.93,193.14,545.93z"/>
		<path class="st12" d="M113.37,810.72c0,0-12.37-1.4-14.42-2.4c-2.05-1-12.44,8.83-10.38,13.76c1.16,2.78,4.83,2.42,4.83,2.42
			l2.97-2.87l15.7,3.24L113.37,810.72z"/>
		<path class="st12" d="M183.99,862.38c0,0-6.52,10.51-8.3,11.93c-1.78,1.42,2.81,14.9,8.19,15.14c3.03,0.13,4.26-3.31,4.26-3.31
			l-1.37-3.88l9.61-12.72L183.99,862.38z"/>
		<path class="st7" d="M176.09,873.9c0,0,3.74,4.73,5.79,6.61c2.64,2.43,6.01,4.8,6.01,4.8s3.82,6.88,4.87,9.28
			c2.33,5.34,4.94,11.29,4.56,14.28c-0.12,0.96-2.3,1.98-4.11,1.42c-7.55-2.3-26.86-19.8-29.3-24.5
			C161.09,880.38,176.09,873.9,176.09,873.9z"/>
		<path class="st14" d="M231.21,713.74c-0.7-1.94-1.37-3.74-2.02-5.44c-8.03,1.74-17.11,3.65-26.44,5.62l-1.14,33.89
			c0.01-2.62,7.02,54.06,7.02,54.06s-19.07,37.52-31.47,60.71c5.09,6.29,9,9.05,16.37,13.34c19.26-22.87,43.86-63.18,44.91-70.14
			C239.04,801.78,239.58,737.08,231.21,713.74z"/>
		<path class="st6" d="M159.51,723.54c2.18,23.5,5.79,59.06,6.45,71.03c-15.33,2.19-51.56,12.98-58.31,12.97
			c-2.55,5.67-3.97,12.56-2.2,18.22c0.35,1.12,71.46,3.36,89.82-8.24c4.79-3.03,6.26-35.48,6.34-69.7l1.14-33.89
			C187.2,717.21,172.9,720.43,159.51,723.54z"/>
		<path class="st1" d="M210.58,603.15l-17.45,2.61c0,0-13.15,0.2-16.66,0.24c-0.3,0-13.99,66.16-17.32,91.06
			c-3.33,24.9-0.75,29.31-0.75,29.31s23.21,5.17,40.38,3.66c17.86-1.57,37.94-11.12,37.94-11.12s-16.4-48.52-19.42-63.46
			C214.27,640.5,210.58,603.15,210.58,603.15z"/>
		<path class="st7" d="M246.46,510.84c0,0-1.53,61.29-3.41,65.06c-2.73,5.49-22.25,44.62-22.25,44.62s14.68,60.88,20.86,81.9
			c0.62,2.12,3.37,15.79,3.37,17.13c0,2.96-12.99,6.71-14.53,6.49c-1.38-0.2-12.71-58.11-19.95-86.45
			c-2.45-9.6-6.66-18.68-12.41-26.78l-5.03-7.08l29.82-35.76c0,0,6.46-56.59,6.46-60.12C229.38,508.92,244.58,507.36,246.46,510.84z
			"/>
		<path class="st7" d="M176.47,606l-29.88-44.64c0,0-19.39-46.9-19.87-48.63c-0.47-1.7-15.71,0.24-20.53-0.22
			c-1.55-0.15,20.3,49.24,22.61,57.47c2.72,9.73,17.31,47.77,17.31,47.77s10.08,22.78,8.51,40.39c-2.61,29.24-7.79,71.37-6.53,72.63
			c7.83,4.88,32.45,4.71,34.35,1.67C203.42,698.94,176.47,606,176.47,606z"/>
		<path class="st12" d="M191.92,596.83l1.3,9.55c0,0,2.91,13.76-0.83,16.41c-3.74,2.65-15.92-16.8-15.92-16.8l1.29-24.2
			L191.92,596.83z"/>
		<path class="st16" d="M177.34,589.63c3.09,8.25,10.46,13.33,15.69,15.3l-1.1-8.1l-14.17-15.04L177.34,589.63z"/>
		<path class="st25" d="M157.83,565.34c0,3.69,2.12,6.67,4.73,6.67c2.61,0,4.72-2.99,4.72-6.67c0-3.69-2.12-6.67-4.72-6.67
			C159.94,558.67,157.83,561.66,157.83,565.34z"/>
		<ellipse class="st25" cx="177.75" cy="551" rx="5.75" ry="3.84"/>
		<path class="st12" d="M186.41,556.37c7.6-2.59,15.7,2.41,16.86,10.17c0.5,3.37,0.96,7.61,1.05,12.25
			c0.2,11.15-5.62,22.01-10.74,22.01c-5.11,0-19.24-7.22-19.75-23.05C173.5,567.97,178.43,559.09,186.41,556.37z"/>
		<path class="st12" d="M177.59,578.99c0,2.46-1.65,4.46-3.68,4.46c-2.03,0-3.68-1.99-3.68-4.46c0-2.46,1.65-4.46,3.68-4.46
			C175.94,574.54,177.59,576.53,177.59,578.99z"/>
		<path class="st25" d="M208.55,550.82c5.28,4.14,7.13,10.44,4.13,14.07c-3,3.62-9.71,3.2-14.99-0.94
			c-5.28-4.14-7.13-10.44-4.13-14.07C196.56,546.25,203.27,546.67,208.55,550.82z"/>
		<ellipse class="st25" cx="189.84" cy="554.21" rx="4.9" ry="3.26"/>
		<path class="st25" d="M209.34,568.07c0,2.32-1.87,4.19-4.19,4.19c-2.31,0-4.19-1.88-4.19-4.19c0-2.32,1.87-4.19,4.19-4.19
			C207.46,563.88,209.34,565.76,209.34,568.07z"/>
		<path class="st7" d="M99.49,808.5c0,0-2.74,5.36-3.6,7.99c-1.11,3.39-1.85,7.43-1.85,7.43s-4.67,6.34-6.42,8.3
			c-3.9,4.35-8.68,9.49-11.57,10.42c-0.93,0.3-3.57-0.48-3.54-2.51c0.1-7.83,7.68-33.35,10.95-37.52
			C87.22,797.78,99.49,808.5,99.49,808.5z"/>
		<path class="st16" d="M93.38,495.45c0,0,3.62,4.06,7.98,4.68c4.36,0.62,8.19-3.85,8.19-3.85L93.38,495.45z"/>
		<path class="st16" d="M233.12,487.82l0.77,1.18c0,0,11.68,0.41,16.56-3.83L233.12,487.82z"/>
		<g>
			<path class="st0" d="M22.42,370.63c93.84,11.72,189.95,4.8,283.26-20.39c7.95,39.45,15.89,78.9,23.84,118.34
				C221.62,497.71,110.5,505.71,2,492.16C8.81,451.65,15.61,411.14,22.42,370.63z"/>
			<path class="st1" d="M303.87,374.15c4.76,24.67,9.52,49.35,14.28,74.02c-9.83,2.57-16.62,11.69-15.12,20.64
				c-90.74,21.62-183.43,28.29-274.6,19.77c1.24-9.14-5.8-17.27-15.68-18.42c4.05-25.31,8.1-50.62,12.15-75.92
				c9.09,1.06,17.49-5.68,18.72-14.82c80.06,7.48,161.46,1.62,241.14-17.36C286.26,370.99,294.83,376.51,303.87,374.15z"/>
			<g>
				<path class="st0" d="M114.69,439.51c1.28-23.2,20.83-41.99,43.69-43.48c22.86-1.43,42.64,14.85,44.22,37.87
					c1.58,22.98-17.95,44.3-43.67,45.92C133.22,481.48,113.41,462.67,114.69,439.51z"/>
				<path class="st0" d="M215.28,430.11c22.14-3.01,44.23-6.95,66.21-11.83c0.6,3.85,1.2,7.71,1.8,11.56
					c-22.28,4.94-44.68,8.94-67.13,11.99C215.86,437.93,215.57,434.02,215.28,430.11z"/>
				<path class="st0" d="M36.86,434.07c22.04,2.04,44.17,3.13,66.34,3.28c-0.23,3.94-0.47,7.89-0.7,11.83
					c-22.48-0.15-44.92-1.26-67.27-3.32C35.77,441.93,36.31,438,36.86,434.07z"/>
			</g>
		</g>
		<path class="st12" d="M107.25,499.09c0,0,3.36-2.94,3.58-7.45c0.03-0.56-1.53-5.6,0.43-5.94c3.25-0.57,4.66,14.5,4.66,14.5
			S111.37,498.59,107.25,499.09z"/>
		<path class="st12" d="M238.23,493.21c0,0,9.16-8.34,11.2-12.38c0.25-0.5,0.9-5.73,2.82-5.26c3.2,0.79-0.79,12.14-0.79,12.14
			S242.21,494.41,238.23,493.21z"/>
	</g>
	<path class="st8" d="M335.92,736.92c-3.52-8.47-7.1-16.95-16.23-21.24c-7.39-3.47-15.11-2.16-21.67,2.77
		c-18.6,13.99-2.39,29.4-23.56,55.92c-6.58,8.24-14.54,14.89-18.48,24.55c-5.52,13.52,1.05,20.01,11.59,26.48
		c50.39,30.98,76.81-32.62,75.86-47.17C342.72,767.41,338.19,742.38,335.92,736.92z"/>
	<path class="st12" d="M388.22,901.77c-2.12-0.34-7.28-4.03-9.11-4.37c-1.41-0.26-4.46-0.72-5.77-0.92
		c-1.59-5.95-9.69-38.4-10.59-47.91c-0.98-10.3-8.27-54.88-8.27-54.88l-18.87,3.43c0,0,7.84,34.29,10,50.92
		c1.86,14.28,17.53,46.39,19.52,49.78c0,0.08,0,0.16,0.01,0.25c0.3,5.04,2.73,3.36,2.73,3.36l3.95,1.01c0,0,13.96,1.34,14.87,1.68
		C387.61,904.46,390.34,902.1,388.22,901.77z"/>
	<path class="st0" d="M338.03,767.63c13.34,4.52,20.92,40.78,20.92,40.78s-20.93,5.84-26.29,2.78c0,0-6.09-26.97-8.27-26.03
		L338.03,767.63z"/>
	<path class="st12" d="M441.21,964.42c4.08,10.76,6.2,21.13,6.39,22.39c0.09,0.6-0.76,3.53-0.68,4.15
		c8.19,11.18,19.97,13.62,30.06,14.33c-5.14-5.02-12.7-9.78-13.06-11.37c-0.58-2.53-3.68-13.8-5.21-29.42
		C452.43,967.4,448.17,965.1,441.21,964.42z"/>
	<path class="st26" d="M325.13,844l-18.03,50.77c0,0,28.97,5.45,39.8,7.44c10.83,1.99,71.33,4.63,72.87,5.7
		c1.14,0.8,13.64,41.22,19.22,63.51c6.33,1.39,17.18-0.28,22.94-2.27c-3.12-31.89-14.37-82.42-17.98-87.92
		C438.08,872.27,325.13,844,325.13,844z"/>
	<path class="st12" d="M395.54,986.67c1.99,11.34,2.13,21.92,2.08,23.19c-0.02,0.61-1.41,3.32-1.45,3.95
		c5.95,12.51,17.06,17.12,26.84,19.71c-4.11-5.9-10.64-11.99-10.7-13.62c-0.09-2.6-1.03-14.25,0.39-29.88
		C406,991.7,402.25,988.64,395.54,986.67z"/>
	<path class="st27" d="M304.08,846.64l-6.99,11.94c-10.65,18.18-2.48,41.57,17.16,49.19c0.11,0.04,0.21,0.08,0.31,0.12
		c10.27,3.98,69.2,17.91,70.51,19.26c0.97,1,5.67,43.05,6.98,65.99c5.96,2.56,16.92,2.94,22.96,2.07
		c2.92-31.91,1.33-83.66-1.18-89.73C409.74,895.57,304.08,846.64,304.08,846.64z"/>
	<path class="st8" d="M398.53,1010.21c-1.57-1.73-7.33,7.8-8.77,9.84c-1.62,2.29-1.16,4.01-0.96,4.37
		c0.51,0.94,30.89,18.82,38.3,20.09c0.7,0.12,1.91-0.32,2.22-0.59c2.9-2.56-10.43-21.49-16.42-23.98
		C409.03,1018.34,405.59,1018.01,398.53,1010.21z"/>
	<path class="st8" d="M448.57,987.15c-1.87-1.41-5.74,9.04-6.77,11.31c-1.16,2.55-0.39,4.16-0.13,4.48
		c0.68,0.83,33.87,12.7,41.39,12.56c0.71-0.01,1.82-0.67,2.07-1c2.36-3.06-14.27-19.15-20.62-20.48
		C460.4,993.16,456.96,993.48,448.57,987.15z"/>
	<path class="st1" d="M325.38,767.53L325.38,767.53L325.38,767.53c0.35,0,0.84-0.12,1.35-0.28c2.48-0.44,7.89-1.09,12.11,0.69
		c5.12,2.16,13.07,22.37,12.59,43.11c-0.19,3.17-0.38,6.01-0.55,7.99c-1.29,15.67-5.79,45.06-6.03,45.22
		c-6.11,3.93-43-11.32-45.54-14.67c-2.54-3.35-4.03-44.07-5.26-46.1l-2.42-35.41C295.91,766.79,318.83,767.48,325.38,767.53z"/>
	<path class="st12" d="M310.43,754.49c0,0,2.38,12.28,1.9,17.13c-0.48,4.85,1.81,20.46,12.07,20.51c10.26,0.05,1.95-19.86,0.98-24.6
		c-0.97-4.75-1.19-19.45-1.19-19.45L310.43,754.49z"/>
	<path class="st16" d="M324.4,755.46c-0.16-4.02-0.21-7.38-0.21-7.38l-13.75,6.41c0,0,0.49,2.51,0.97,5.71
		C317.43,761.41,321.79,759.18,324.4,755.46z"/>
	<path class="st12" d="M305.41,720.58c0,0-5.3,2.94-7.24,9.31c-1.94,6.37,0.27,22.82,13.96,26.79c13.69,3.97,19.62-9.05,16.8-19.23
		C326.11,727.27,319.98,714.38,305.41,720.58z"/>
	<path class="st12" d="M330.64,733.5c-0.27,2.73-1.78,4.82-3.37,4.67c-1.59-0.16-2.67-2.5-2.4-5.23c0.27-2.73,1.78-4.82,3.37-4.67
		C329.84,728.43,330.91,730.77,330.64,733.5z"/>
	<path class="st8" d="M307.01,719.75c0,0-2.48,18.35-8.41,21.66c-5.93,3.31-3.45,11.45-3.45,11.45s-5.38-18.9-0.69-24.97
		C299.15,721.82,307.01,719.75,307.01,719.75z"/>
	<path class="st12" d="M302.11,744.04c1.61,2.39,1.6,5.21-0.01,6.3c-1.62,1.09-4.23,0.03-5.84-2.36c-1.61-2.39-1.6-5.21,0.01-6.3
		C297.89,740.6,300.5,741.65,302.11,744.04z"/>
	<path class="st17" d="M322.06,745.06l-9.65,2.43c0,0,1.16,3.67,5.43,2.72C323.06,749.06,322.06,745.06,322.06,745.06z"/>
	<path class="st12" d="M231.61,898.11c0.17-0.44,0.56-0.45,0.95-0.46c3.82-0.12,7.63-0.29,11.42-0.85c0.63-0.09,1.25-0.24,1.83-0.47
		c1.05-0.42,2.09-0.41,3.16-0.12c0.58,0.16,1.16,0.19,1.75,0.19c1.92-0.01,7.4-1.87,10.21-2.36c0.64-0.11,1.15-0.6,1.31-1.23
		c2.77-10.95,8.71-35.51,9.48-43.58c0.98-10.33,8.12-56.89,8.12-56.89l19.08,5.32c0,0-7.85,34.37-10.03,51.04
		c-1.68,12.87-14.54,40.18-18.57,48.03c-1.97,5.85-6.39,6.01-7.42,6.13c-0.59,0.07-1.13,0.36-1.51,0.81
		c-0.7,0.81-1.49,1.52-2.41,2.09c-0.68,0.43-1.2,0.98-1.64,1.63c-0.81,1.18-1.54,2.42-2.25,3.66c-0.48,0.82-0.97,1.08-1.68,0.89
		c-0.76-0.21-1.12-0.77-1.1-1.69c0.02-1.36,0.46-2.6,1.14-3.76c0.64-1.09,0.59-1.72-0.15-2.72c-0.43-0.58-0.87-1.13-1.43-1.59
		c-0.57-0.47-1.17-0.82-1.95-0.71c-1.37,0.34-2.76,0.62-4.16,0.78l-1.15,0.24c-0.04,0.01-0.63,0.13-0.63,0.13
		c-0.1,0.03-2.13,0.25-2.82,0.25c-0.56,0-1.46,0.04-2.23,0.07c-0.7,0.03-2.17-0.33-2.22-0.33c-0.68-0.02-1.28-0.26-1.78-0.71
		c-0.21-0.19-0.41-0.39-0.3-0.71c0.1-0.29,0.32-0.41,0.62-0.47c0.46-0.08,2.83-0.37,2.8-0.47c-0.7,0-2.91-0.05-3.61-0.07
		c-0.95-0.03-1.77-0.37-2.42-1.07C231.74,898.82,231.44,898.55,231.61,898.11z"/>
	<path class="st1" d="M291.4,767.99c-9.42-1.71-17.19,40.43-17.19,40.43s20.93,5.84,26.29,2.78c0,0,6.09-26.97,8.27-26.03
		L291.4,767.99z"/>
	<path class="st7" d="M877.17,448.88l-4.56-7.7l3.76-8.12c0.43-0.93-0.39-1.94-1.38-1.72l-8.74,1.96l-6.57-6.09
		c-0.75-0.69-1.97-0.23-2.06,0.79l-0.84,8.91l-7.82,4.36c-0.89,0.5-0.82,1.8,0.11,2.2l8.22,3.55l1.73,8.78
		c0.2,1,1.46,1.34,2.13,0.57l5.92-6.72l8.89,1.07C876.98,450.85,877.69,449.76,877.17,448.88z"/>
	<polygon class="st6" points="971.53,424.85 972.04,402.88 992.49,402 993.95,380.38 1013.39,377.13 1017.13,361.13 1025.23,363.02 
		1020.24,384.42 1001.8,387.5 1000.29,409.99 980.17,410.86 979.72,430.76 	"/>
	<polygon class="st4" points="1144.68,474.03 1136.32,489.65 1118.27,488.64 1110.14,506.82 1091.25,499.82 1081.15,519.96 
		1062.96,515.66 1050.07,533.45 1056.8,538.33 1066.44,525.03 1085.63,529.57 1095.35,510.2 1114.55,517.32 1123.53,497.27 
		1141.15,498.25 1148.9,483.78 1160.33,486.84 1162.49,478.81 	"/>
	<path class="st1" d="M793.5,323.13l7.17,1.42c0,0,10.48-4.89,11.27-7.25c0.8-2.36,0.43-7.79,1.97-8.13c1.53-0.34,4.6-0.21,5.77,3.4
		c0.85,2.62-2.11,10.86-1.4,11.61c0.45,0.47,4.54,1.4,7.55,2.03c1.98,0.42,3.55,1.91,4.09,3.89l0,0.01c0.37,1.33-0.24,2.75-1.45,3.4
		l-1.89,1.01l0.89,1.97c0.66,1.46,0.03,3.2-1.41,3.89l-1.47,0.7l0.64,1.19c0.83,1.53,0.17,3.46-1.42,4.14l-1.29,0.56l0.1,0.35
		c0.41,1.46-0.34,3.01-1.74,3.57l-1.29,0.51l-19.09-3.77c-1.79-0.35-3.48-1.08-4.98-2.12l-6.49-2.46c-0.7-0.26-1.1-1.01-0.94-1.75
		l3.63-16.96C791.91,323.5,792.7,322.97,793.5,323.13z"/>
	<path class="st17" d="M198.41,589.86l-9.95,0.23c0,0,0.32,3.83,4.7,3.86C198.49,593.99,198.41,589.86,198.41,589.86z"/>
</g>
</svg>
