<?xml version="1.0" encoding="utf-8"?>
<!-- Generator: Adobe Illustrator 23.0.2, SVG Export Plug-In . SVG Version: 6.00 Build 0)  -->
<svg version="1.1" id="Layer_1" xmlns="http://www.w3.org/2000/svg" xmlns:xlink="http://www.w3.org/1999/xlink" x="0px" y="0px"
	 viewBox="0 0 540 350" style="enable-background:new 0 0 540 350;" xml:space="preserve">
<style type="text/css">
	.st0{fill:#75E6A4;}
	.st1{opacity:0.7;fill:#FFFFFF;}
	.st2{fill:#FFFFFF;stroke:#233239;stroke-miterlimit:10;}
	.st3{fill:#75E6A4;stroke:#233239;stroke-miterlimit:10;}
	.st4{opacity:0.28;}
	.st5{fill:#FFFFFF;stroke:#233239;stroke-linecap:round;stroke-linejoin:round;stroke-miterlimit:10;}
	.st6{fill:#233239;stroke:#233239;stroke-linecap:round;stroke-linejoin:round;stroke-miterlimit:10;}
	.st7{fill:#75E6A4;stroke:#233239;stroke-linecap:round;stroke-linejoin:round;stroke-miterlimit:10;}
	.st8{fill:#D4D4D4;stroke:#233239;stroke-linecap:round;stroke-linejoin:round;stroke-miterlimit:10;}
	.st9{fill:#233239;stroke:#233239;stroke-miterlimit:10;}
	.st10{opacity:0.5;fill:#FFFFFF;}
	.st11{fill:#233239;}
	.st12{fill:none;stroke:#233239;stroke-miterlimit:10;}
	.st13{fill:#FFFFFF;stroke:#000000;stroke-width:0.25;stroke-miterlimit:10;}
</style>
<g>
	<g>
		<path class="st0" d="M383.55,353.32c0,0,82.74-57.7,102.01-147.5c19.28-89.8-61.14-107.73-108.38-138.06
			c-47.23-30.32-64.69-64.52-133-66.48C175.88-0.68,140.62,22.5,116.1,67.35c-24.52,44.84-37.54,90.86-45.15,135.77
			c-7.61,44.91-3.69,80.75,40.21,98.55c43.9,17.8,64.22,9.91,85.11,30.47C217.16,352.69,312.35,399.12,383.55,353.32z"/>
		<path class="st1" d="M382.38,353.48c0,0,83.49-57.81,103.13-148.05c19.65-90.24-61.31-108.48-108.81-139.1
			c-47.5-30.61-65-65.04-133.8-67.19c-68.8-2.15-104.37,21.07-129.19,66.1c-24.81,45.03-38.05,91.27-45.83,136.4
			c-7.78,45.13-3.92,81.19,40.25,99.2c44.17,18.01,64.66,10.13,85.65,30.85C214.78,352.42,310.55,399.35,382.38,353.48z"/>
	</g>
	<g>
		<rect x="94.35" y="118.19" class="st2" width="363.64" height="6.12"/>
		<rect x="100.01" y="124.38" class="st2" width="352.33" height="6.12"/>
		<rect x="104.28" y="130.64" class="st3" width="343.78" height="218.42"/>
		<rect x="104.28" y="153.32" class="st2" width="343.78" height="173.08"/>
		<rect x="161.51" y="121.52" class="st4" width="232.49" height="49.73"/>
		<g>
			<polygon class="st5" points="276.17,5.02 136,97.7 416.35,97.7 			"/>
			<polygon class="st5" points="276.17,18.21 166.02,89.94 386.32,89.94 			"/>
			<polygon class="st6" points="217.56,77.11 218.25,78.6 334.09,78.6 334.09,77.05 			"/>
			<polygon class="st7" points="276.17,39.34 218.25,77.05 334.09,77.05 			"/>
			<polygon class="st6" points="276.17,23.69 377.91,89.94 386.32,89.94 276.17,18.21 166.02,89.94 174.44,89.94 			"/>
			<rect x="143.71" y="98.29" class="st7" width="265.06" height="25.39"/>
			<g>
				<polygon class="st5" points="178.34,319.31 155.72,319.31 157.98,131.69 176.08,131.69 				"/>
				<polygon class="st8" points="176.29,148.95 176.08,131.69 157.98,131.69 157.77,148.95 				"/>
				<path class="st8" d="M181.37,128.87v-0.02H153c-3.81,0-6.89,3.08-6.89,6.89c0,3.81,3.08,6.89,6.89,6.89s6.89-3.08,6.89-6.89
					c0-0.43-0.04-0.85-0.12-1.26h14.51c-0.08,0.41-0.12,0.83-0.12,1.26c0,3.81,3.08,6.89,6.89,6.89s6.89-3.08,6.89-6.89
					C187.95,132.05,185.03,129.04,181.37,128.87z"/>
			</g>
			<g>
				<polygon class="st5" points="251.7,319.31 229.08,319.31 231.34,131.69 249.44,131.69 				"/>
				<polygon class="st8" points="249.65,148.95 249.44,131.69 231.34,131.69 231.13,148.95 				"/>
				<path class="st8" d="M254.73,128.87v-0.02h-28.37c-3.81,0-6.89,3.08-6.89,6.89c0,3.81,3.08,6.89,6.89,6.89
					c3.81,0,6.89-3.08,6.89-6.89c0-0.43-0.04-0.85-0.12-1.26h14.51c-0.08,0.41-0.12,0.83-0.12,1.26c0,3.81,3.08,6.89,6.89,6.89
					c3.81,0,6.89-3.08,6.89-6.89C261.31,132.05,258.39,129.04,254.73,128.87z"/>
			</g>
			<g>
				<polygon class="st5" points="325.07,319.31 302.44,319.31 304.7,131.69 322.8,131.69 				"/>
				<polygon class="st8" points="323.01,148.95 322.8,131.69 304.7,131.69 304.49,148.95 				"/>
				<path class="st8" d="M328.09,128.87v-0.02h-28.37c-3.81,0-6.89,3.08-6.89,6.89c0,3.81,3.08,6.89,6.89,6.89
					c3.81,0,6.89-3.08,6.89-6.89c0-0.43-0.04-0.85-0.12-1.26h14.51c-0.08,0.41-0.12,0.83-0.12,1.26c0,3.81,3.08,6.89,6.89,6.89
					s6.89-3.08,6.89-6.89C334.67,132.05,331.75,129.04,328.09,128.87z"/>
			</g>
			<g>
				<polygon class="st5" points="398.43,319.31 375.8,319.31 378.06,131.69 396.16,131.69 				"/>
				<polygon class="st8" points="396.37,148.95 396.16,131.69 378.06,131.69 377.85,148.95 				"/>
				<path class="st8" d="M401.46,128.87v-0.02h-28.37c-3.81,0-6.89,3.08-6.89,6.89c0,3.81,3.08,6.89,6.89,6.89
					c3.81,0,6.89-3.08,6.89-6.89c0-0.43-0.04-0.85-0.12-1.26h14.51c-0.08,0.41-0.12,0.83-0.12,1.26c0,3.81,3.08,6.89,6.89,6.89
					s6.89-3.08,6.89-6.89C408.03,132.05,405.11,129.04,401.46,128.87z"/>
			</g>
			<rect x="140.26" y="120.46" class="st5" width="271.83" height="8.97"/>
			<g>
				<rect x="166.95" y="313.76" class="st7" width="220.16" height="9.28"/>
				<rect x="166.95" y="322.45" class="st7" width="220.16" height="9.28"/>
				<rect x="166.95" y="331.15" class="st7" width="220.16" height="9.28"/>
				<rect x="166.95" y="339.85" class="st7" width="220.16" height="9.28"/>
			</g>
			<rect x="149.84" y="313.76" class="st5" width="34.38" height="35.56"/>
			<rect x="369.92" y="313.76" class="st5" width="34.38" height="35.56"/>
		</g>
		<g>
			<path class="st9" d="M199.24,190.37h-12.69v-20.7c0-3.5,2.84-6.35,6.35-6.35l0,0c3.5,0,6.35,2.84,6.35,6.35V190.37z"/>
			<path class="st9" d="M215.65,190.37h-12.69v-22.79c0-2.35,1.9-4.25,4.25-4.25h4.19c2.35,0,4.25,1.9,4.25,4.25V190.37z"/>
			<rect x="186.55" y="193.28" class="st9" width="12.69" height="27.04"/>
			<rect x="202.96" y="193.28" class="st9" width="12.69" height="27.04"/>
		</g>
		<g>
			<path class="st9" d="M273.19,190.37H260.5v-20.7c0-3.5,2.84-6.35,6.35-6.35l0,0c3.5,0,6.35,2.84,6.35,6.35V190.37z"/>
			<path class="st9" d="M289.6,190.37h-12.69v-20.7c0-3.5,2.84-6.35,6.35-6.35l0,0c3.5,0,6.35,2.84,6.35,6.35V190.37z"/>
			<rect x="260.5" y="193.28" class="st9" width="12.69" height="27.04"/>
			<rect x="276.91" y="193.28" class="st9" width="12.69" height="27.04"/>
		</g>
		<g>
			<path class="st9" d="M347.14,190.37h-12.69v-20.7c0-3.5,2.84-6.35,6.35-6.35l0,0c3.5,0,6.35,2.84,6.35,6.35V190.37z"/>
			<path class="st9" d="M363.55,190.37h-12.69v-22.79c0-2.35,1.9-4.25,4.25-4.25h4.19c2.35,0,4.25,1.9,4.25,4.25V190.37z"/>
			<rect x="334.44" y="193.28" class="st9" width="12.69" height="27.04"/>
			<rect x="350.86" y="193.28" class="st9" width="12.69" height="27.04"/>
		</g>
		<g>
			<path class="st9" d="M418.35,190.37h-12.69v-20.7c0-3.5,2.84-6.35,6.35-6.35l0,0c3.5,0,6.35,2.84,6.35,6.35V190.37z"/>
			<path class="st9" d="M434.77,190.37h-12.69v-20.7c0-3.5,2.84-6.35,6.35-6.35l0,0c3.5,0,6.35,2.84,6.35,6.35V190.37z"/>
			<rect x="405.66" y="193.28" class="st9" width="12.69" height="27.04"/>
			<rect x="422.08" y="193.28" class="st9" width="12.69" height="27.04"/>
		</g>
		<g>
			<path class="st9" d="M199.24,269.16h-12.69v-20.7c0-3.5,2.84-6.35,6.35-6.35l0,0c3.5,0,6.35,2.84,6.35,6.35V269.16z"/>
			<path class="st9" d="M215.65,269.16h-12.69v-22.79c0-2.35,1.9-4.25,4.25-4.25h4.19c2.35,0,4.25,1.9,4.25,4.25V269.16z"/>
			<rect x="186.55" y="272.07" class="st9" width="12.69" height="27.04"/>
			<rect x="202.96" y="272.07" class="st9" width="12.69" height="27.04"/>
		</g>
		<g>
			<path class="st9" d="M129.85,190.37h-12.69v-20.7c0-3.5,2.84-6.35,6.35-6.35l0,0c3.5,0,6.35,2.84,6.35,6.35V190.37z"/>
			<path class="st9" d="M146.26,190.37h-12.69v-20.7c0-3.5,2.84-6.35,6.35-6.35l0,0c3.5,0,6.35,2.84,6.35,6.35V190.37z"/>
			<rect x="117.15" y="193.28" class="st9" width="12.69" height="27.04"/>
			<rect x="133.57" y="193.28" class="st9" width="12.69" height="27.04"/>
		</g>
		<g>
			<path class="st9" d="M129.85,269.16h-12.69v-20.7c0-3.5,2.84-6.35,6.35-6.35l0,0c3.5,0,6.35,2.84,6.35,6.35V269.16z"/>
			<path class="st9" d="M146.26,269.16h-12.69v-20.7c0-3.5,2.84-6.35,6.35-6.35l0,0c3.5,0,6.35,2.84,6.35,6.35V269.16z"/>
			<rect x="117.15" y="272.07" class="st9" width="12.69" height="27.04"/>
			<rect x="133.57" y="272.07" class="st9" width="12.69" height="27.04"/>
		</g>
		<g>
			<path class="st9" d="M347.14,269.16h-12.69v-20.7c0-3.5,2.84-6.35,6.35-6.35l0,0c3.5,0,6.35,2.84,6.35,6.35V269.16z"/>
			<path class="st9" d="M363.55,269.16h-12.69v-22.79c0-2.35,1.9-4.25,4.25-4.25h4.19c2.35,0,4.25,1.9,4.25,4.25V269.16z"/>
			<rect x="334.44" y="272.07" class="st9" width="12.69" height="27.04"/>
			<rect x="350.86" y="272.07" class="st9" width="12.69" height="27.04"/>
		</g>
		<g>
			<path class="st9" d="M418.35,269.16h-12.69v-20.7c0-3.5,2.84-6.35,6.35-6.35l0,0c3.5,0,6.35,2.84,6.35,6.35V269.16z"/>
			<path class="st9" d="M434.77,269.16h-12.69v-20.7c0-3.5,2.84-6.35,6.35-6.35l0,0c3.5,0,6.35,2.84,6.35,6.35V269.16z"/>
			<rect x="405.66" y="272.07" class="st9" width="12.69" height="27.04"/>
			<rect x="422.08" y="272.07" class="st9" width="12.69" height="27.04"/>
		</g>
		<path class="st9" d="M279.26,241.61h-8.42c-4.72,0-8.54,3.82-8.54,8.54v63.88h25.5v-63.88
			C287.8,245.44,283.97,241.61,279.26,241.61z"/>
	</g>
	<g>
		<path class="st0" d="M428.26,240.31c-27.49,0-49.78,22.14-49.78,49.44c0,12.66,4.79,24.21,12.67,32.95
			c3.6-0.52,10.17-0.88,17.44,1.59c9.62,3.27,15.62,8.64,16.93,9.89h4.46c1.31-1.25,7.31-6.62,16.93-9.89
			c7.91-2.69,15-2.02,18.33-1.45c7.95-8.76,12.8-20.37,12.8-33.09C478.04,262.45,455.75,240.31,428.26,240.31z"/>
		<path class="st10" d="M428.26,240.31c-27.49,0-49.78,22.14-49.78,49.44c0,12.66,4.79,24.21,12.67,32.95
			c3.6-0.52,10.17-0.88,17.44,1.59c9.62,3.27,15.62,8.64,16.93,9.89h4.46c1.31-1.25,7.31-6.62,16.93-9.89
			c7.91-2.69,15-2.02,18.33-1.45c7.95-8.76,12.8-20.37,12.8-33.09C478.04,262.45,455.75,240.31,428.26,240.31z"/>
		<path class="st11" d="M451.43,309.58c-1.53,0.74-3.05,1.51-4.55,2.31c-1.5,0.82-2.97,1.71-4.35,2.68
			c-0.52,0.36-1.03,0.73-1.54,1.11l8.15-15.19l-11.19,17.52c-1.13,0.91-2.25,1.84-3.34,2.79c-1.81,1.57-3.56,3.18-5.29,4.83
			l-0.57-16.48l11.71-17.82l-11.79,15.33l-0.51-14.75l-0.84,16.5l0,0l0,0l-0.84,16.54c-1.5-1.41-3.02-2.8-4.58-4.16
			c-1.23-1.07-2.48-2.11-3.76-3.13l-10.59-18.08l7.77,15.95c-0.45-0.32-0.89-0.65-1.35-0.97c-1.38-0.97-2.85-1.86-4.35-2.68
			c-1.5-0.8-3.02-1.57-4.55-2.31c-3.07-1.47-6.19-2.85-9.42-3.99c3.14,1.33,6.14,2.88,9.08,4.53c1.47,0.83,2.91,1.68,4.34,2.56
			c1.4,0.89,2.75,1.83,4.03,2.86c2.58,2.04,4.99,4.27,7.31,6.57c2.03,2.01,4,4.09,5.88,6.21l-1.07,21h4.91l-0.69-20.14
			c2.1-2.41,4.34-4.78,6.64-7.06c2.32-2.3,4.73-4.53,7.31-6.57c1.28-1.04,2.63-1.97,4.03-2.86c1.42-0.88,2.87-1.73,4.34-2.56
			c2.94-1.64,5.94-3.2,9.08-4.53C457.62,306.73,454.5,308.11,451.43,309.58z"/>
	</g>
	<g>
		<path class="st0" d="M123.34,240.31c-27.49,0-49.78,22.14-49.78,49.44c0,12.66,4.79,24.21,12.67,32.95
			c3.6-0.52,10.17-0.88,17.44,1.59c9.62,3.27,15.62,8.64,16.93,9.89h4.46c1.31-1.25,7.31-6.62,16.93-9.89
			c7.91-2.69,14.99-2.02,18.33-1.45c7.95-8.76,12.8-20.37,12.8-33.09C173.11,262.45,150.83,240.31,123.34,240.31z"/>
		<path class="st10" d="M123.34,240.31c-27.49,0-49.78,22.14-49.78,49.44c0,12.66,4.79,24.21,12.67,32.95
			c3.6-0.52,10.17-0.88,17.44,1.59c9.62,3.27,15.62,8.64,16.93,9.89h4.46c1.31-1.25,7.31-6.62,16.93-9.89
			c7.91-2.69,14.99-2.02,18.33-1.45c7.95-8.76,12.8-20.37,12.8-33.09C173.11,262.45,150.83,240.31,123.34,240.31z"/>
		<path class="st11" d="M146.51,309.58c-1.53,0.74-3.05,1.51-4.55,2.31c-1.5,0.82-2.97,1.71-4.35,2.68
			c-0.52,0.36-1.03,0.73-1.54,1.11l8.15-15.19l-11.19,17.52c-1.13,0.91-2.25,1.84-3.34,2.79c-1.81,1.57-3.56,3.18-5.29,4.83
			l-0.57-16.48l11.71-17.82l-11.79,15.33l-0.51-14.75l-0.84,16.5l0,0l0,0l-0.84,16.54c-1.5-1.41-3.02-2.8-4.58-4.16
			c-1.23-1.07-2.48-2.11-3.76-3.13l-10.59-18.08l7.77,15.95c-0.45-0.32-0.89-0.65-1.35-0.97c-1.38-0.97-2.85-1.86-4.35-2.68
			c-1.5-0.8-3.02-1.57-4.55-2.31c-3.07-1.47-6.19-2.85-9.42-3.99c3.14,1.33,6.14,2.88,9.08,4.53c1.47,0.83,2.91,1.68,4.34,2.56
			c1.4,0.89,2.75,1.83,4.03,2.86c2.58,2.04,4.99,4.27,7.31,6.57c2.03,2.01,4,4.09,5.88,6.21l-1.07,21h4.91l-0.69-20.14
			c2.1-2.41,4.34-4.78,6.64-7.06c2.32-2.3,4.73-4.53,7.31-6.57c1.28-1.04,2.63-1.97,4.03-2.86c1.42-0.88,2.87-1.73,4.34-2.56
			c2.94-1.64,5.94-3.2,9.08-4.53C152.7,306.73,149.57,308.11,146.51,309.58z"/>
	</g>
</g>
<g>
	<path class="st13" d="M262.36,100.03v10.79c0,1.74-0.2,3.04-0.6,3.89s-1.13,1.55-2.2,2.09c-1.07,0.55-2.44,0.82-4.11,0.82
		s-2.99-0.25-3.98-0.74c-0.99-0.49-1.72-1.19-2.22-2.09s-0.74-2.23-0.74-3.97v-10.79h4.41v10.79c0,0.93,0.08,1.62,0.23,2.06
		c0.16,0.44,0.47,0.79,0.94,1.05c0.47,0.26,1.05,0.39,1.73,0.39c0.76,0,1.38-0.13,1.86-0.38c0.48-0.25,0.79-0.59,0.95-1.01
		c0.16-0.42,0.24-1.12,0.24-2.1v-10.79H262.36z"/>
	<path class="st13" d="M265.59,100.03h8.07c1.45,0,2.54,0.18,3.26,0.53c0.73,0.36,1.33,0.86,1.8,1.52c0.47,0.66,0.71,1.46,0.71,2.41
		c0,1.92-1.04,3.2-3.12,3.84c1.2,0.27,2.1,0.81,2.7,1.61c0.6,0.8,0.9,1.68,0.9,2.63c0,1.3-0.49,2.42-1.47,3.36
		c-0.98,0.94-2.58,1.42-4.79,1.42h-8.07V100.03z M269.64,103.09v3.8h3.07c1.13,0,1.83-0.22,2.13-0.67c0.29-0.44,0.44-0.87,0.44-1.28
		c0-0.44-0.12-0.82-0.36-1.14c-0.24-0.32-0.51-0.52-0.79-0.6c-0.29-0.08-0.85-0.12-1.7-0.12H269.64z M269.64,109.97v4.18h3.12
		c1.06,0,1.82-0.19,2.26-0.56s0.66-0.89,0.66-1.56c0-0.56-0.21-1.04-0.63-1.45s-1.12-0.61-2.1-0.61H269.64z"/>
	<path class="st13" d="M294.49,103.84l-3.45,1.16c-0.46-1.37-1.45-2.06-2.95-2.06c-1.61,0-2.41,0.52-2.41,1.56
		c0,0.41,0.15,0.77,0.45,1.05c0.3,0.29,0.98,0.54,2.04,0.75c1.77,0.36,3.06,0.72,3.88,1.08c0.82,0.36,1.51,0.95,2.07,1.76
		c0.56,0.81,0.84,1.71,0.84,2.71c0,1.57-0.6,2.92-1.81,4.06c-1.21,1.14-2.99,1.71-5.36,1.71c-1.78,0-3.29-0.4-4.54-1.21
		c-1.25-0.81-2.07-2.01-2.47-3.6l3.76-0.85c0.42,1.62,1.6,2.42,3.52,2.42c0.93,0,1.62-0.18,2.08-0.54c0.46-0.36,0.69-0.79,0.69-1.29
		c0-0.51-0.21-0.9-0.62-1.18s-1.21-0.54-2.4-0.79c-2.21-0.46-3.78-1.08-4.72-1.87c-0.94-0.79-1.41-1.95-1.41-3.47
		c0-1.54,0.56-2.84,1.68-3.9c1.12-1.06,2.64-1.59,4.56-1.59C291.34,99.76,293.52,101.12,294.49,103.84z"/>
	<path class="st13" d="M301.74,110.92v6.44h-4.13v-17.33h6.83c1.52,0,2.69,0.16,3.5,0.49c0.81,0.33,1.53,0.91,2.17,1.75
		s0.95,1.87,0.95,3.08c0,0.85-0.17,1.69-0.51,2.5c-0.34,0.81-0.82,1.45-1.43,1.92c-0.62,0.47-1.22,0.77-1.8,0.93
		s-1.49,0.23-2.72,0.23H301.74z M301.6,107.77h2.64c1.01,0,1.71-0.23,2.12-0.7s0.61-1,0.61-1.6c0-0.7-0.23-1.26-0.68-1.68
		c-0.45-0.41-1.14-0.62-2.06-0.62h-2.63V107.77z"/>
</g>
</svg>
