<?xml version="1.0" encoding="utf-8"?>
<!-- Generator: Adobe Illustrator 23.0.2, SVG Export Plug-In . SVG Version: 6.00 Build 0)  -->
<svg version="1.1" id="Layer_1" xmlns="http://www.w3.org/2000/svg" xmlns:xlink="http://www.w3.org/1999/xlink" x="0px" y="0px"
	 viewBox="0 0 540 350" style="enable-background:new 0 0 540 350;" xml:space="preserve">
<style type="text/css">
	.st0{fill:#95B78B;}
	.st1{fill:none;stroke:#000000;stroke-width:1.5;stroke-miterlimit:10;}
	.st2{fill:none;stroke:#608759;stroke-width:1.5;stroke-miterlimit:10;}
	.st3{fill:#FFACA9;}
	.st4{fill:none;stroke:#000000;stroke-miterlimit:10;}
	.st5{fill:#96BDFF;}
	.st6{fill:#FFD397;}
	.st7{fill:#FFA237;}
	.st8{clip-path:url(#SVGID_2_);fill:#EF8919;}
	.st9{fill:#FFD643;}
	.st10{fill:none;stroke:#9D5D1E;stroke-miterlimit:10;}
	.st11{clip-path:url(#SVGID_4_);fill:#EF8919;}
	.st12{clip-path:url(#SVGID_6_);fill:#EF8919;}
	.st13{clip-path:url(#SVGID_8_);fill:#EF8919;}
	.st14{fill:#FFAED0;}
	.st15{fill:#FF82AE;}
	.st16{fill:#FFC2D9;}
	.st17{fill:#FFA2C5;}
	.st18{fill:none;stroke:#000000;stroke-width:2;stroke-miterlimit:10;}
	.st19{clip-path:url(#SVGID_10_);}
	.st20{fill:none;stroke:#B3CEA9;stroke-linejoin:round;stroke-miterlimit:10;}
	.st21{fill:#799B61;}
	.st22{fill:none;stroke:#799B61;stroke-width:2;stroke-linejoin:round;stroke-miterlimit:10;}
	.st23{fill:#86AB75;}
	.st24{fill:#5D7D44;}
	.st25{fill:none;stroke:#000000;stroke-linejoin:round;stroke-miterlimit:10;}
	.st26{clip-path:url(#SVGID_12_);fill:#EF8919;}
	.st27{fill:#FFB5A1;}
	.st28{fill:#752C1D;}
	.st29{fill:#E08A44;}
	.st30{fill:none;stroke:#FAB76F;stroke-miterlimit:10;}
	.st31{fill:none;stroke:#000000;stroke-width:0.75;stroke-miterlimit:10;}
	.st32{fill:#4F3F36;}
	.st33{fill:none;stroke:#B3CEA9;stroke-width:0.75;stroke-linejoin:round;stroke-miterlimit:10;}
	.st34{fill:none;stroke:#799B61;stroke-width:0.75;stroke-linejoin:round;stroke-miterlimit:10;}
	.st35{fill:none;stroke:#000000;stroke-width:0.75;stroke-linejoin:round;stroke-miterlimit:10;}
	.st36{fill:#FFEAC4;}
	.st37{fill:#FFFFFF;}
	.st38{fill:#415EE3;}
	.st39{fill:#2D2A48;}
	.st40{fill:#FC5C3A;}
	.st41{fill:#FFB7B7;}
	.st42{fill:none;stroke:#4F3F36;stroke-miterlimit:10;}
	.st43{fill:#32315A;}
	.st44{fill:none;stroke:#5C5C90;stroke-miterlimit:10;}
	.st45{fill:#7A9969;}
	.st46{fill:#84A677;}
	.st47{fill:#E3ECFF;}
	.st48{fill:none;stroke:#46372F;stroke-miterlimit:10;}
	.st49{fill:#46372F;}
	.st50{fill:#9068BF;}
	.st51{fill:#F15A24;}
	.st52{fill:#2A2132;}
	.st53{fill:none;stroke:#685B74;stroke-miterlimit:10;}
	.st54{fill:none;stroke:#685B74;stroke-miterlimit:10;stroke-dasharray:2.3533,1.7649;}
	.st55{fill:none;stroke:#685B74;stroke-miterlimit:10;stroke-dasharray:4.2551,3.1913;}
	.st56{fill:#C1272D;}
	.st57{fill:none;stroke:#A8B6E9;stroke-width:1.5;stroke-linejoin:round;stroke-miterlimit:10;}
	.st58{opacity:0.55;fill:#FFF5D0;}
	.st59{opacity:0.55;fill:#FFEEE2;}
	.st60{opacity:0.55;fill:#FFE7E6;}
</style>
<g>
	<g>
		<g>
			<path class="st0" d="M407.69,325.96c-5.89,1.82-10.93,5.17-15.62,8.8c-1.2,0.93-2.37,1.88-3.53,2.85c1.27-1.9,2.5-3.83,3.66-5.8
				c4.84-8.22,13.49-21.13,10.42-31.63c-1.02-3.48-4.18-7.02-8.24-7.94c-5.44-1.23-11.85,3.15-15.38,5.65
				c-9.11,6.45-22.43,31.28-22.43,31.28s9.22-34.02,11.64-42.72c1.82-6.56,3.36-13.63,1.15-20.84c-0.38-1.26-0.95-2.6-2.05-3.44
				c-1.95-1.49-4.43-0.7-6.23,0.31c-10.9,6.08-17.83,16.82-23.61,27.79c-7.12,13.51-12.93,27.78-18.25,42.32
				c1-11.2,0.95-22.6-1.66-34.2c-0.75-3.31-2.13-7.15-5.34-8.74c-3.42-1.69-6.88,0.19-9.2,2.4c-4.28,4.07-7.23,9.34-9.78,14.75
				c-6.28,13.35-10.32,28.02-11.97,43.36h134.66c1.62-4.24,2.92-8.64,3.76-13.25c0.57-3.1,0.71-6.89-1.87-9.47
				C415.08,324.69,410.88,324.97,407.69,325.96z"/>
			<path class="st1" d="M319.58,331.91c-1.7,4.98-3.4,9.96-5.1,14.94"/>
			<path class="st1" d="M389.7,336.82c-4.15,3.72-8.02,7.75-11.57,12.04"/>
			<path class="st1" d="M356.91,328.72c-2.84,5.51-5.16,11.29-6.92,17.23"/>
			<path class="st2" d="M392.53,302.85c-9.28,14.01-29.05,47.31-29.05,47.31"/>
			<path class="st2" d="M392.16,350.57c4.85-4.78,10.08-9.17,15.63-13.11"/>
			<path class="st2" d="M329.97,350.28c5.99-25.09,27.55-72.41,27.55-72.41"/>
			<path class="st2" d="M307.29,299.88c-4.81,16.65-7.74,33.63-8.75,50.69"/>
		</g>
		<g>
			<path class="st0" d="M128.68,319.91c-4.15-11.56-6.73-24.77-16.31-32.26c-1.53-1.19-3.62-1.72-5.44-0.81
				c-2.65,1.32-3.64,4.93-4.07,8.06c-1.04,7.74-0.68,15.48,0.32,23.07c-1.57-5.01-3.2-10-4.89-14.95
				c-3.37-9.83-6.99-19.55-11.57-28.61c-2.39-4.74-5.08-9.34-8.64-12.93c-2.63-2.66-6.62-4.71-9.77-2.32
				c-2.65,2.01-3.28,6.1-3.51,9.64c-0.93,14.61,0.35,28.9,2.99,42.87c-7.46-10.78-16-20.57-26.28-28.31
				c-4.04-3.04-10.02-7.27-15.63-5.77c-4.19,1.11-7.11,5.42-7.77,9.67c-1.98,12.78,8.74,28.51,14.87,38.52
				c5.28,8.63,11.33,16.92,17.88,24.59h85.59C134.8,339.94,132.16,329.62,128.68,319.91z"/>
			<path class="st1" d="M67.63,311.01c3.8,7.67,7.95,15.17,12.43,22.46"/>
			<path class="st1" d="M103.32,319.39c2.09,10.6,4.42,20.47,6.98,30.97"/>
			<path class="st2" d="M34.53,294.11c12.35,16.75,27.6,37.31,36.21,56.25"/>
			<path class="st2" d="M76.76,284.49c7.84,21.54,14.41,43.56,19.67,65.87"/>
			<path class="st2" d="M114.96,307.83c3.42,15.76,6.04,26.5,7.86,42.52"/>
		</g>
	</g>
	<g>
		<g>
			<g>
				<path class="st3" d="M224.08,107.71c4.54-5.29,9.09-10.58,13.01-16.32c0.72-1.06,1.35,0.57,1.35,1.16
					c0.04,2.36-1.6,4.24-1.17,4.55c1.65-2.12,3.18-3.65,3.92-4.44c1.41-1.5,2.96-2.78,4.27-3.81c0.11-0.08,0.23-0.16,0.4-0.14
					c0.81,0.1,0.82,1.17,0.76,1.49c-0.57,3.03-2.52,3.55-4.05,6.43c0.99-1.27,2.33-2.47,3.52-3.59c0.69-0.65,3.75-3.08,4.81-2.86
					c0.69,0.14,0.51,1.19,0.39,1.59c-0.26,0.83-0.76,1.5-1.27,2.23c0,0,0.86-0.6,1.23-1.02c0.22-0.24,0.66-0.45,1.08-0.33
					c0.52,0.15,0.68,1.04,0.63,1.42c-0.2,1.53-3.54,5-3.54,5s3.03-1.76,3.67-1.12c0.64,0.64-0.05,1.51-0.76,2.27
					c-0.7,0.77-1.89,1.39-2.74,2.06c-2.11,1.67-3.24,3.62-4.97,5.66c-1.04,1.22-2.13,2.4-3.33,3.47c-1.15,1.03-2.52,1.8-3.58,2.91
					c-0.8,0.83-0.98,2.01-1.75,2.84"/>
				<path class="st4" d="M237.25,96.47c-0.39,0.78-0.41,1.74-0.49,2.65c-0.22,2.46-0.97,4.77-2.2,6.76"/>
				<path class="st4" d="M245.26,93.34c-1.77,1.85-3.46,3.79-5.06,5.79"/>
				<path class="st4" d="M250.26,93.98c-2.47,2.12-4.92,4.7-6.76,7.24"/>
				<path class="st4" d="M250.64,98.2c-2.05,1.38-3.88,3.05-5.43,4.94"/>
			</g>
			<path class="st5" d="M168.44,133.92c1.51-0.97,3.08-1.82,4.69-2.59c9.06-4.33,20.04-5.2,28.4-10.83
				c8.72-5.87,17.69-11.25,26.22-17.42l11.75,13.89c0,0-19.14,26.76-46.21,31.98"/>
		</g>
		<g>
			<g>
				<path class="st3" d="M304.54,107.71c-5.11-4.74-10.22-9.49-14.77-14.75c-0.84-0.97-1.27,0.71-1.22,1.3
					c0.23,2.35,2.06,4.04,1.67,4.39c-1.88-1.92-3.57-3.27-4.4-3.97c-1.57-1.33-3.25-2.43-4.67-3.3c-0.12-0.07-0.25-0.13-0.41-0.09
					c-0.79,0.19-0.68,1.26-0.59,1.56c0.9,2.94,2.91,3.24,4.75,5.93c-1.13-1.15-2.6-2.19-3.9-3.17c-0.76-0.57-4.07-2.64-5.1-2.3
					c-0.67,0.22-0.38,1.24-0.21,1.63c0.35,0.8,0.92,1.41,1.51,2.08c0,0-0.92-0.5-1.33-0.87c-0.24-0.22-0.71-0.37-1.11-0.21
					c-0.5,0.2-0.56,1.11-0.46,1.48c0.37,1.5,4.08,4.57,4.08,4.57s-3.21-1.41-3.77-0.7c-0.56,0.71,0.22,1.49,1.01,2.17
					c0.79,0.68,2.03,1.16,2.96,1.74c2.28,1.42,3.63,3.24,5.58,5.06c1.17,1.1,2.39,2.14,3.7,3.07c1.26,0.89,2.7,1.5,3.88,2.49
					c0.89,0.74,1.2,1.88,2.06,2.62"/>
				<path class="st4" d="M290.2,98.03c0.48,0.73,0.6,1.68,0.79,2.58c0.5,2.42,1.5,4.63,2.94,6.47"/>
				<path class="st4" d="M281.88,95.82c1.97,1.64,3.86,3.37,5.68,5.18"/>
				<path class="st4" d="M276.99,97.01c2.69,1.82,5.42,4.12,7.53,6.43"/>
				<path class="st4" d="M277.08,101.25c2.2,1.14,4.2,2.59,5.95,4.3"/>
			</g>
			<path class="st6" d="M356.87,125.35c-20.3-1.61-38.77-11.83-56.51-21.82l-10.12,15.12c0,0,22.03,24.44,49.51,26.58"/>
		</g>
		<g>
			<path class="st7" d="M378.14,33.43l-4.58-5.82l-41.05,32.36l4.58,5.82c5.36,6.8,18.9,5.08,30.24-3.86
				C378.66,53,383.5,40.24,378.14,33.43z"/>
			<g>
				<defs>
					<path id="SVGID_1_" d="M378.14,33.43l-4.58-5.82l-41.05,32.36l4.58,5.82c5.36,6.8,18.9,5.08,30.24-3.86
						C378.66,53,383.5,40.24,378.14,33.43z"/>
				</defs>
				<clipPath id="SVGID_2_">
					<use xlink:href="#SVGID_1_"  style="overflow:visible;"/>
				</clipPath>
				<path class="st8" d="M383.03,48.24l-11.26-14.28l2.07-1.63l11.26,14.28L383.03,48.24z M381.34,55.03l-11.26-14.28l-2.07,1.63
					l11.26,14.28L381.34,55.03z M377.59,63.45l-11.26-14.28l-2.07,1.63l11.26,14.28L377.59,63.45z M351.81,72.85l-11.26-14.28
					l-2.07,1.63l11.26,14.28L351.81,72.85z M360.88,71.17l-11.26-14.28l-2.07,1.63l11.26,14.28L360.88,71.17z M369.94,69.48
					L358.69,55.2l-2.07,1.63l11.26,14.28L369.94,69.48z"/>
			</g>
			
				<ellipse transform="matrix(0.7853 -0.6191 0.6191 0.7853 48.6259 228.0471)" class="st9" cx="353.12" cy="43.91" rx="26.13" ry="15.69"/>
			<path class="st10" d="M373.64,27.73c5.36,6.8,0.52,19.56-10.81,28.5c-11.33,8.94-24.87,10.66-30.24,3.86"/>
			
				<ellipse transform="matrix(0.7853 -0.6191 0.6191 0.7853 48.8575 227.6821)" class="st7" cx="352.71" cy="43.4" rx="20.27" ry="11.51"/>
			<path class="st10" d="M335.28,50.56c0.29-5.02,4.08-11.3,10.3-16.21c8.79-6.93,19.11-8.5,23.05-3.51"/>
			<path class="st10" d="M370.15,35.68c0.31,3.51-1.65,7.51-4.08,10.67"/>
		</g>
		<g>
			<path class="st7" d="M523.98,46.63l-1.68-8.58L471.47,48l1.68,8.58c1.96,10.04,14.94,15.94,28.97,13.2
				C516.16,67.03,525.94,56.67,523.98,46.63z"/>
			<g>
				<defs>
					<path id="SVGID_3_" d="M523.98,46.63l-1.68-8.58L471.47,48l1.68,8.58c1.96,10.04,14.94,15.94,28.97,13.2
						C516.16,67.03,525.94,56.67,523.98,46.63z"/>
				</defs>
				<clipPath id="SVGID_4_">
					<use xlink:href="#SVGID_3_"  style="overflow:visible;"/>
				</clipPath>
				<path class="st11" d="M522.12,64.62L518,43.57l2.56-0.5l4.12,21.06L522.12,64.62z M517.72,70.64l-4.12-21.06l-2.56,0.5
					l4.12,21.06L517.72,70.64z M510.76,77.16l-4.12-21.06l-2.56,0.5l4.12,21.06L510.76,77.16z M483.47,72.19l-4.12-21.06l-2.56,0.5
					l4.12,21.06L483.47,72.19z M492.37,75.6l-4.12-21.06l-2.56,0.5l4.12,21.06L492.37,75.6z M501.28,79.02l-4.12-21.06l-2.56,0.5
					l4.12,21.06L501.28,79.02z"/>
			</g>
			
				<ellipse transform="matrix(0.9814 -0.1921 0.1921 0.9814 0.668 96.3042)" class="st9" cx="497.08" cy="44.71" rx="26.13" ry="18.75"/>
			<path class="st10" d="M522.73,39.69c1.99,10.16-7.88,20.65-22.05,23.42c-14.16,2.77-27.26-3.22-29.25-13.38"/>
			
				<ellipse transform="matrix(0.9814 -0.1921 0.1921 0.9814 0.8133 96.2589)" class="st7" cx="496.93" cy="43.93" rx="20.27" ry="13.76"/>
			<path class="st10" d="M477.96,41.36c2.41-5.06,8.55-9.41,16.33-10.93c10.99-2.15,21.08,2.15,22.54,9.61"/>
			<path class="st10" d="M516.14,45.94c-1.22,3.83-4.72,6.86-8.28,8.75"/>
		</g>
		<g>
			<path class="st7" d="M166.09,17.43l3.76-6.77l50.28,23.09l-3.76,6.77c-4.4,7.92-19.23,9.18-33.11,2.8
				C169.38,36.95,161.69,25.35,166.09,17.43z"/>
			<g>
				<defs>
					<path id="SVGID_5_" d="M166.09,17.43l3.76-6.77l50.28,23.09l-3.76,6.77c-4.4,7.92-19.23,9.18-33.11,2.8
						C169.38,36.95,161.69,25.35,166.09,17.43z"/>
				</defs>
				<clipPath id="SVGID_6_">
					<use xlink:href="#SVGID_5_"  style="overflow:visible;"/>
				</clipPath>
				<path class="st12" d="M161.23,32.02l9.24-16.63l2.54,1.17l-9.24,16.63L161.23,32.02z M169.44,40.72l9.24-16.63l-2.54-1.17
					l-9.24,16.63L169.44,40.72z M175.11,48.24l9.24-16.63l-2.54-1.17l-9.24,16.63L175.11,48.24z M204.54,51.91l9.24-16.63
					l-2.54-1.17L202,50.75L204.54,51.91z M194.51,52.23l9.24-16.63l-2.54-1.17l-9.24,16.63L194.51,52.23z M184.48,52.55l9.24-16.63
					l-2.54-1.17l-9.24,16.63L184.48,52.55z"/>
			</g>
			
				<ellipse transform="matrix(0.3797 -0.9251 0.9251 0.3797 101.4898 193.8353)" class="st9" cx="195.29" cy="21.24" rx="16.34" ry="27.71"/>
			<path class="st10" d="M170.15,9.69c-4.4,7.92,3.28,19.52,17.17,25.89c13.88,6.38,28.71,5.12,33.11-2.8"/>
			
				<ellipse transform="matrix(0.3855 -0.9227 0.9227 0.3855 101.1732 193.184)" class="st7" cx="195.62" cy="20.63" rx="11.99" ry="21.49"/>
			<path class="st10" d="M215.68,23.92c-1.29-4.92-6.58-10.31-14.21-13.81c-10.77-4.95-22.12-4.24-25.35,1.57"/>
			<path class="st10" d="M175.45,16.81c0.36,3.55,3.25,7.09,6.46,9.69"/>
		</g>
		<g>
			<path class="st7" d="M28.11,48.81l9.26-5.53l32.74,43.6l-8.66,6.2c-10.13,7.25-25.81,3.22-35.02-9
				C17.23,71.85,17.98,56.06,28.11,48.81z"/>
			<g>
				<defs>
					<path id="SVGID_7_" d="M28.11,48.81l9.26-5.53l32.74,43.6l-8.66,6.2c-10.13,7.25-25.81,3.22-35.02-9
						C17.23,71.85,17.98,56.06,28.11,48.81z"/>
				</defs>
				<clipPath id="SVGID_8_">
					<use xlink:href="#SVGID_7_"  style="overflow:visible;"/>
				</clipPath>
				<path class="st13" d="M12.69,63.36l21.26-15.22l1.68,2.23L14.37,65.59L12.69,63.36z M14.56,76.09l21.26-15.22l-1.68-2.23
					L12.88,73.86L14.56,76.09z M14.76,86.59l21.26-15.22l-1.68-2.23L13.07,84.36L14.76,86.59z M41.41,101.48l21.26-15.22l-1.68-2.23
					L39.73,99.25L41.41,101.48z M31.19,98.16l21.26-15.22l-1.68-2.23L29.51,95.93L31.19,98.16z M20.97,94.84l21.26-15.22l-1.68-2.23
					L19.29,92.61L20.97,94.84z"/>
			</g>
			
				<ellipse transform="matrix(0.7692 -0.639 0.639 0.7692 -31.1952 47.8691)" class="st9" cx="50.67" cy="67.12" rx="22.54" ry="27.73"/>
			<path class="st10" d="M34,44.99c-10.13,7.25-10.88,23.04-1.67,35.26c9.21,12.22,24.89,16.25,35.02,9"/>
			
				<ellipse transform="matrix(0.777 -0.6295 0.6295 0.777 -30.4351 47.2312)" class="st7" cx="51.44" cy="66.57" rx="16.54" ry="21.51"/>
			<path class="st10" d="M69.04,77.6c2.28-5.97,0.92-13.95-4.14-20.66c-7.14-9.48-18.96-12.86-26.39-7.53"/>
			<path class="st10" d="M34.12,54.89c-2.21,4.1-1.91,9.12-0.59,13.2"/>
		</g>
		<g>
			<path class="st14" d="M293.54,146.34l-9.08,16.37c-0.51,0.92-1.54,1.36-2.46,1.04l-11.05-3.84c-0.73-0.25-1.23-0.94-1.3-1.77
				c-0.51-6.18-1.91-32.25,8.34-55.52"/>
			<path class="st14" d="M236.94,138.81l-12.39,11.75c-1.46,1.39-3.6,1.59-5.09,0.48l-6.79-5.03c-1.46-1.08-1.91-3.11-1.08-4.89
				l7.62-16.41"/>
			<path class="st15" d="M234.33,67.6c-0.02-0.15-0.05-0.29-0.1-0.43c-0.84-2.23-3.5-2.78-5.59-3.09c-2.55-0.38-5.27-0.95-7.83-1.1
				c-4.69-0.26-3.84,5.96-3.65,9.08c0.13,2.07,0.1,8.29,2.47,9.38c2.1,0.97,6.28-3.5,7.54-4.67
				C228.8,75.28,234.61,70.41,234.33,67.6z"/>
			<g>
				<path class="st15" d="M320.28,92.05c-3.53-0.46-6.87-2.31-9.06-5.06l1.68-1.33c1.96,2.46,5.16,4.12,8.36,4.33
					c1.75,0.11,4.22-0.15,6.4-1.93c-2.7-1.61-4.7-5.21-3.52-8.38c0.71-1.91,2.16-3.04,3.89-3.02c1.78,0.01,3.43,1.29,4.1,3.18
					c0.81,2.28,0.45,5-0.85,7.24c0.59,0.04,1.11-0.06,1.58-0.31c1.26-0.67,2.2-2.54,2.51-4.99l2.13,0.27
					c-0.4,3.19-1.73,5.6-3.63,6.61c-1.19,0.63-2.54,0.74-4.04,0.33c-0.05,0.05-0.09,0.09-0.14,0.14c-2.24,2.16-5.28,3.23-8.57,3.01
					C320.84,92.11,320.56,92.09,320.28,92.05z M328.21,78.81c-0.07-0.01-0.14-0.01-0.2-0.01c-0.81-0.01-1.47,0.57-1.86,1.63
					c-0.87,2.34,1.11,5.05,2.91,5.96c0.03,0.02,0.06,0.03,0.1,0.05c1.19-1.78,1.6-4.07,0.96-5.88
					C329.76,79.59,329.02,78.92,328.21,78.81z"/>
			</g>
			<path class="st16" d="M283.24,156.17l-52.47-12.58c-17.57-4.21-28.4-21.87-24.19-39.45l4.44-18.53
				c4.21-17.57,21.87-28.4,39.45-24.19L302.94,74c17.57,4.21,28.4,21.87,24.19,39.45l-4.44,18.53
				C318.48,149.55,300.82,160.39,283.24,156.17z"/>
			<g>
				<path class="st15" d="M222.86,86.2l-6.07-1.45l-6.87,28.66l6.07,1.45c7.1,1.7,14.39-3.33,16.29-11.25
					C234.17,95.7,229.96,87.9,222.86,86.2z"/>
				
					<ellipse transform="matrix(0.2331 -0.9725 0.9725 0.2331 67.5852 284.1187)" class="st16" cx="213.92" cy="99.21" rx="14.73" ry="13.22"/>
				<g>
					<path class="st17" d="M216.52,108.15l-1.13-0.27c-1.07-0.26-1.73-1.34-1.48-2.41l2.79-11.64c0.26-1.07,1.34-1.73,2.41-1.48
						l1.13,0.27c1.07,0.26,1.73,1.34,1.48,2.41l-2.79,11.64C218.67,107.74,217.6,108.4,216.52,108.15z"/>
					<path class="st15" d="M220.6,92.92L220.6,92.92c-0.27-0.2-0.58-0.35-0.93-0.43c-1.39-0.33-2.78,0.52-3.11,1.91l-2.52,10.51
						c-0.33,1.39,0.52,2.78,1.91,3.11c0.35,0.08,0.69,0.09,1.02,0.04c-0.81-0.6-1.23-1.64-0.98-2.68l2.52-10.51
						C218.77,93.82,219.61,93.08,220.6,92.92z"/>
				</g>
				<g>
					<path class="st17" d="M206.52,105.75l-1.13-0.27c-1.07-0.26-1.73-1.34-1.48-2.41l2.79-11.64c0.26-1.07,1.34-1.73,2.41-1.48
						l1.13,0.27c1.07,0.26,1.73,1.34,1.48,2.41l-2.79,11.64C208.67,105.34,207.59,106.01,206.52,105.75z"/>
					<path class="st15" d="M210.6,90.52L210.6,90.52c-0.27-0.2-0.58-0.35-0.93-0.43c-1.39-0.33-2.78,0.52-3.11,1.91l-2.52,10.51
						c-0.33,1.39,0.52,2.78,1.91,3.11c0.35,0.08,0.69,0.09,1.02,0.04c-0.81-0.6-1.23-1.64-0.98-2.68l2.52-10.51
						C208.76,91.42,209.61,90.68,210.6,90.52z"/>
				</g>
				<path class="st4" d="M211.73,84.89c0,0,2.56-1.12,7.03,0.33"/>
				<path class="st4" d="M207.28,112.26c0,0,6.09,4.16,13.05-0.57"/>
			</g>
			<path class="st14" d="M255.87,112.43c-2.87,3.55-9.09,4.23-13.9,1.51c-4.81-2.72-6.38-7.8-3.51-11.36
				c2.87-3.55,9.09-4.23,13.9-1.51C257.17,103.79,258.74,108.88,255.87,112.43z"/>
			<path class="st17" d="M295.54,94.89l15.79,3.78c-3.45-14.28-14.59-26.16-29.86-29.82l-15.79-3.78
				C280.95,68.73,292.09,80.61,295.54,94.89z"/>
			<path class="st15" d="M305.65,97.31l5.68,1.36c-3.45-14.28-14.59-26.16-29.86-29.82l-15.79-3.78c4.37,1.05,8.41,2.77,12.02,5.04
				C291.5,73.89,301.73,84.46,305.65,97.31z"/>
			<path class="st16" d="M237.41,139.17l2.57,16.93c0.3,2,1.98,3.49,4,3.57l9.16,0.35c1.97,0.07,3.72-1.23,4.22-3.13l4.63-17.56"/>
			<path class="st16" d="M295.92,148.66l7.36,15.97c0.43,0.97,1.49,1.49,2.52,1.25l12.74-1.72c0.82-0.19,1.46-0.84,1.65-1.66
				c1.39-6.14,13.67-37.43,5.74-61.6"/>
			<line class="st4" x1="238.75" y1="145.75" x2="237.38" y2="138.63"/>
			<line class="st4" x1="259.21" y1="150.35" x2="262.81" y2="138.49"/>
			<line class="st4" x1="298.75" y1="154.61" x2="293.63" y2="143.27"/>
			<g>
				<path class="st15" d="M250.93,71.38c-1.61,1.12,0.09,19.55,2.99,21.21c5.93,3.39,16.11-8.62,17.1-10.71
					c0.89-1.89,0.8-3.57-0.58-4.56C265.71,73.94,254.34,69.02,250.93,71.38z"/>
				<path class="st4" d="M253.1,91.35c2.35,3.98,12.06-7.49,13.47-9.14"/>
				<path class="st4" d="M267.56,81.04c0.8-0.93,2.07-2.27,1.77-3.62c-0.06-0.29-0.21-0.56-0.25-0.85"/>
			</g>
			<path class="st18" d="M233.71,85.2c0.85-2.1,3.25-3.12,5.35-2.27c2.1,0.85,3.12,3.25,2.27,5.35"/>
			<path class="st18" d="M216.67,80.87c0.61-2.18,2.68-3.52,4.62-2.97c1.94,0.54,3.01,2.75,2.4,4.94"/>
			<g>
				<defs>
					<path id="SVGID_9_" d="M295.54,94.89l15.79,3.78c31.59-31.19,55.66-65.81,41.91-82.38c-8.28-9.98-55.22-20.52-61.96-17.88
						c-17.93,7.01-25.6,66.66-25.6,66.66C280.95,68.73,292.09,80.61,295.54,94.89z"/>
				</defs>
				<clipPath id="SVGID_10_">
					<use xlink:href="#SVGID_9_"  style="overflow:visible;"/>
				</clipPath>
				<g class="st19">
					<g>
						<path class="st0" d="M316.04,20.49l29.43,25.12C333.04,64.5,316.9,81,298.22,93.96l-29.43-25.12
							C287.47,55.88,303.6,39.38,316.04,20.49z"/>
						<path class="st20" d="M300.12,89.35c15.52-11.34,29.51-25.62,40.48-41.3l0.71-1.01c0.37-0.53,0.28-1.25-0.22-1.68L317.69,25.4
							c-0.58-0.49-1.46-0.39-1.89,0.23l-0.89,1.25c-10.72,15.12-24.26,29.02-39.15,40.21l-1.36,1.03c-0.65,0.49-0.68,1.44-0.06,1.96
							l23.28,19.87c0.46,0.39,1.12,0.41,1.61,0.06L300.12,89.35z"/>
						<path class="st21" d="M298.52,87.23c15.36-11.22,29.02-25.16,39.87-40.68l-21.27-18.16c-10.95,15.44-24.52,29.37-39.73,40.8
							L298.52,87.23z"/>
						<path class="st0" d="M303.29,64.96c4.7,3.91,11.39,3.71,14.95-0.44s2.64-10.69-2.06-14.6c-4.7-3.91-11.39-3.71-14.95,0.44
							C297.67,54.51,298.6,61.05,303.29,64.96z"/>
						
							<ellipse transform="matrix(0.5957 -0.8032 0.8032 0.5957 79.0925 272.0103)" class="st22" cx="309.74" cy="57.44" rx="8.1" ry="9.06"/>
						<path class="st0" d="M319.29,47.24c2.29,1.9,5.55,1.81,7.28-0.21c1.73-2.02,1.28-5.21-1-7.11c-2.29-1.9-5.55-1.81-7.28,0.21
							C316.56,42.15,317,45.33,319.29,47.24z"/>
						<path class="st23" d="M320.2,46.18c1.63,1.35,3.94,1.29,5.17-0.15c1.23-1.44,0.91-3.7-0.71-5.05s-3.94-1.29-5.17,0.15
							C318.25,42.56,318.57,44.82,320.2,46.18z"/>
						
							<ellipse transform="matrix(0.5957 -0.8032 0.8032 0.5957 61.6723 266.5763)" class="st0" cx="295.63" cy="72.03" rx="4.82" ry="5.39"/>
						<path class="st23" d="M293.4,74.63c1.63,1.35,3.94,1.29,5.17-0.15c1.23-1.44,0.91-3.7-0.71-5.05s-3.94-1.29-5.17,0.15
							C291.45,71.02,291.77,73.28,293.4,74.63z"/>
						<g>
							<path class="st24" d="M313.85,60.98c-0.59,0.67-1.23,1.25-1.95,1.72c-0.71,0.47-1.37,0.77-1.97,0.9l-0.81-1.9
								c0.55-0.14,1.12-0.38,1.71-0.74c0.59-0.36,1.1-0.79,1.54-1.3c0.34-0.39,0.57-0.73,0.7-1.04c0.13-0.3,0.18-0.57,0.15-0.79
								c-0.03-0.22-0.12-0.41-0.29-0.56c-0.21-0.19-0.46-0.25-0.74-0.19c-0.28,0.06-0.58,0.21-0.92,0.43
								c-0.33,0.22-0.69,0.47-1.06,0.75c-0.37,0.28-0.76,0.55-1.17,0.81c-0.41,0.26-0.82,0.46-1.25,0.6
								c-0.42,0.14-0.85,0.17-1.28,0.1c-0.43-0.07-0.85-0.3-1.27-0.67c-0.45-0.41-0.76-0.91-0.91-1.5
								c-0.15-0.59-0.11-1.25,0.12-1.98c0.23-0.72,0.7-1.49,1.39-2.28c0.46-0.53,0.98-1,1.55-1.41c0.57-0.41,1.14-0.7,1.7-0.89
								l0.85,1.85c-0.53,0.19-1.02,0.45-1.48,0.76c-0.45,0.31-0.84,0.65-1.16,1.02c-0.33,0.39-0.56,0.73-0.69,1.03
								c-0.12,0.3-0.16,0.57-0.12,0.8c0.04,0.23,0.15,0.42,0.31,0.57c0.21,0.19,0.46,0.25,0.74,0.19c0.28-0.06,0.59-0.2,0.91-0.43
								c0.32-0.22,0.67-0.48,1.05-0.77c0.38-0.29,0.77-0.56,1.18-0.81c0.41-0.25,0.82-0.45,1.23-0.59c0.41-0.14,0.84-0.18,1.27-0.11
								c0.43,0.07,0.85,0.28,1.26,0.65c0.45,0.4,0.74,0.9,0.89,1.49c0.14,0.59,0.1,1.26-0.13,1.99
								C315.01,59.42,314.54,60.18,313.85,60.98z M314.69,62.52l-10.68-9.55l1.06-1.22l10.68,9.55L314.69,62.52z"/>
						</g>
					</g>
					<g>
						<path class="st0" d="M303.03,10.83l34.31,17.89c-7.89,21.19-19.91,40.89-35.22,57.7l-34.31-17.89
							C283.12,51.72,295.14,32.02,303.03,10.83z"/>
						<path class="st25" d="M334.39,36.16c-7.8,18.58-18.58,35.22-32.27,50.26L271.9,70.66"/>
						<path class="st20" d="M302.94,81.5c12.58-14.52,23.02-31.58,30.19-49.32l0.46-1.15c0.24-0.6-0.01-1.28-0.59-1.58l-27.27-14.21
							c-0.67-0.35-1.51-0.05-1.79,0.65l-0.58,1.42c-7.06,17.14-17.14,33.72-29.15,47.96l-1.1,1.3c-0.52,0.62-0.34,1.55,0.38,1.93
							l27.14,14.15c0.53,0.28,1.19,0.15,1.58-0.3L302.94,81.5z"/>
						<path class="st21" d="M300.91,79.79c12.45-14.38,22.64-31.02,29.74-48.57l-24.8-12.93c-7.21,17.5-17.31,34.12-29.58,48.66
							L300.91,79.79z"/>
						
							<ellipse transform="matrix(0.4006 -0.9163 0.9163 0.4006 138.716 308.5323)" class="st0" cx="305.16" cy="48.25" rx="9.9" ry="11.07"/>
						
							<ellipse transform="matrix(0.4005 -0.9163 0.9163 0.4005 138.7315 308.5421)" class="st22" cx="305.16" cy="48.25" rx="8.1" ry="9.06"/>
						<path class="st0" d="M312.19,36.16c2.66,1.34,5.81,0.52,7.05-1.84c1.24-2.36,0.09-5.36-2.57-6.71
							c-2.66-1.34-5.81-0.52-7.05,1.84C308.39,31.81,309.54,34.82,312.19,36.16z"/>
						<path class="st23" d="M312.84,34.92c1.89,0.96,4.13,0.37,5.01-1.31c0.88-1.68,0.06-3.81-1.83-4.77
							c-1.89-0.96-4.13-0.37-5.01,1.31C310.13,31.83,310.95,33.97,312.84,34.92z"/>
						<path class="st0" d="M292.45,69.9c2.66,1.34,5.81,0.52,7.05-1.84c1.24-2.36,0.09-5.36-2.57-6.71
							c-2.66-1.34-5.81-0.52-7.05,1.84C288.64,65.55,289.79,68.55,292.45,69.9z"/>
						<path class="st23" d="M293.09,68.66c1.89,0.96,4.13,0.37,5.01-1.31c0.88-1.68,0.06-3.81-1.83-4.77
							c-1.89-0.96-4.13-0.37-5.01,1.31C290.39,65.57,291.21,67.71,293.09,68.66z"/>
						<g>
							<path class="st24" d="M309.97,50.77c-0.42,0.79-0.92,1.49-1.51,2.11c-0.59,0.62-1.16,1.06-1.72,1.32l-1.22-1.67
								c0.5-0.26,1-0.62,1.5-1.11c0.49-0.48,0.9-1.02,1.21-1.61c0.24-0.45,0.39-0.84,0.45-1.17c0.06-0.32,0.05-0.59-0.03-0.81
								c-0.08-0.21-0.21-0.37-0.41-0.48c-0.25-0.14-0.5-0.14-0.76-0.02c-0.26,0.13-0.52,0.33-0.8,0.63
								c-0.28,0.29-0.56,0.62-0.86,0.97c-0.3,0.36-0.62,0.71-0.96,1.05c-0.34,0.34-0.7,0.63-1.08,0.86
								c-0.38,0.23-0.79,0.36-1.22,0.38c-0.43,0.02-0.89-0.1-1.38-0.37c-0.53-0.29-0.94-0.71-1.22-1.26
								c-0.28-0.54-0.39-1.19-0.32-1.95c0.06-0.76,0.35-1.6,0.84-2.53c0.33-0.62,0.73-1.19,1.19-1.72c0.46-0.53,0.95-0.94,1.46-1.24
								l1.25,1.62c-0.48,0.31-0.9,0.66-1.27,1.07c-0.37,0.4-0.67,0.82-0.9,1.25c-0.24,0.45-0.39,0.84-0.44,1.16
								c-0.05,0.32-0.03,0.59,0.06,0.81c0.09,0.21,0.24,0.38,0.43,0.48c0.25,0.14,0.51,0.14,0.77,0.02
								c0.26-0.12,0.52-0.33,0.79-0.62c0.26-0.29,0.55-0.62,0.85-0.99c0.3-0.37,0.63-0.72,0.97-1.05c0.34-0.33,0.69-0.62,1.07-0.85
								c0.37-0.23,0.78-0.37,1.21-0.4c0.44-0.03,0.9,0.08,1.38,0.35c0.53,0.29,0.92,0.71,1.2,1.25c0.27,0.55,0.38,1.2,0.32,1.97
								C310.74,48.99,310.47,49.84,309.97,50.77z M311.13,52.08l-12.55-6.92l0.76-1.42l12.55,6.92L311.13,52.08z"/>
						</g>
					</g>
					<g>
						<path class="st0" d="M290.4,7.8l36.95,11.5c-4,22.25-12.32,43.78-24.39,63.05l-36.95-11.5
							C278.08,51.58,286.41,30.06,290.4,7.8z"/>
						<path class="st25" d="M326.64,23.03c-4.23,20.93-12.29,41.13-23.68,59.31l-32.55-10.13"/>
						<path class="st20" d="M302.89,77.36c9.8-16.53,17.04-35.17,20.94-53.9l0.25-1.21c0.13-0.63-0.24-1.26-0.86-1.46l-29.36-9.14
							c-0.72-0.23-1.49,0.22-1.65,0.96l-0.32,1.5c-3.9,18.12-10.87,36.23-20.15,52.38l-0.85,1.48c-0.4,0.7-0.06,1.59,0.72,1.83
							l29.23,9.09c0.57,0.18,1.2-0.06,1.5-0.58L302.89,77.36z"/>
						<path class="st21" d="M300.58,76.04c9.7-16.36,16.76-34.55,20.62-53.09l-26.71-8.31c-3.98,18.5-10.97,36.66-20.45,53.14
							L300.58,76.04z"/>
						<path class="st0" d="M296.2,53.69c5.86,1.75,11.93-1.07,13.56-6.29c1.64-5.22-1.79-10.86-7.64-12.61
							c-5.86-1.75-11.93,1.07-13.56,6.29C286.92,46.3,290.34,51.95,296.2,53.69z"/>
						
							<ellipse transform="matrix(0.2312 -0.9729 0.9729 0.2312 186.9574 325.0741)" class="st22" cx="299.16" cy="44.25" rx="8.1" ry="9.06"/>
						<path class="st0" d="M303.92,31.1c2.85,0.85,5.81-0.52,6.61-3.06c0.8-2.54-0.87-5.29-3.72-6.14s-5.81,0.52-6.61,3.06
							C299.4,27.5,301.07,30.25,303.92,31.1z"/>
						<path class="st23" d="M304.34,29.77c2.03,0.6,4.13-0.37,4.7-2.18c0.57-1.81-0.62-3.76-2.65-4.37c-2.03-0.6-4.13,0.37-4.7,2.18
							C301.13,27.21,302.31,29.16,304.34,29.77z"/>
						<path class="st0" d="M290.49,67.81c2.85,0.85,5.81-0.52,6.61-3.06c0.8-2.54-0.87-5.29-3.72-6.14
							c-2.85-0.85-5.81,0.52-6.61,3.06C285.98,64.21,287.64,66.96,290.49,67.81z"/>
						<path class="st23" d="M290.91,66.48c2.03,0.6,4.13-0.37,4.7-2.18c0.57-1.81-0.62-3.76-2.65-4.36c-2.03-0.6-4.13,0.37-4.7,2.18
							C287.7,63.92,288.88,65.88,290.91,66.48z"/>
					</g>
				</g>
				<g class="st19">
					<path class="st7" d="M314.06,53.29l-5.11-3.98l-32.83,42.18l5.11,3.98c7.97,6.2,21.78,1.79,30.84-9.86
						C321.14,73.97,322.03,59.5,314.06,53.29z"/>
					<g>
						<defs>
							<path id="SVGID_11_" d="M314.06,53.29l-5.11-3.98l-32.83,42.18l5.11,3.98c7.97,6.2,21.78,1.79,30.84-9.86
								C321.14,73.97,322.03,59.5,314.06,53.29z"/>
						</defs>
						<clipPath id="SVGID_12_">
							<use xlink:href="#SVGID_11_"  style="overflow:visible;"/>
						</clipPath>
						<path class="st26" d="M324.2,68.09l-16.72-13.01l1.66-2.13l16.72,13.01L324.2,68.09z M324.67,75.61L307.95,62.6l-1.66,2.13
							l16.72,13.01L324.67,75.61z M323.49,85.27l-16.72-13.01l-1.66,2.13l16.72,13.01L323.49,85.27z M299.23,100.16l-16.72-13.01
							l-1.66,2.13l16.72,13.01L299.23,100.16z M308.3,96.64l-16.72-13.01l-1.66,2.13l16.72,13.01L308.3,96.64z M317.37,93.13
							l-16.72-13.01L299,82.24l16.72,13.01L317.37,93.13z"/>
					</g>
					
						<ellipse transform="matrix(0.6142 -0.7891 0.7891 0.6142 57.6233 256.4632)" class="st9" cx="291.11" cy="69.3" rx="26.72" ry="18.28"/>
					<path class="st10" d="M307.53,48.21c7.97,6.2,7.08,20.67-1.98,32.32c-9.06,11.65-22.87,16.06-30.84,9.86"/>
					
						<ellipse transform="matrix(0.6142 -0.7891 0.7891 0.6142 57.7622 255.8043)" class="st7" cx="290.51" cy="68.83" rx="20.73" ry="13.42"/>
					<path class="st10" d="M274.38,79.75c-1.37-5.38,0.57-12.77,5.54-19.17c7.03-9.03,17.47-12.67,23.32-8.12"/>
					<path class="st10" d="M306.47,57.31c1.5,3.67,0.75,8.29-0.78,12.1"/>
					<path class="st10" d="M281.23,95.47c7.97,6.2,21.78,1.79,30.84-9.86"/>
				</g>
			</g>
			<path class="st4" d="M309.09,91.83c0.76,1.77,1.58,4.06,2.24,6.84l-15.79-3.78c-3.45-14.28-14.59-26.16-29.86-29.82"/>
		</g>
	</g>
	<g>
		<g>
			<g>
				<g>
					<path class="st27" d="M131.61,319.78l2.44,17.09c0,0,26.91-2.37,27.11-2.39c0.21-0.02-3.12-18.21-3.12-18.21"/>
					<g>
						<path class="st28" d="M161.93,330.58l-28.9,2.55l-0.91,15.66l48.55-4.28C180.16,333.38,166,336.66,161.93,330.58z"/>
						<line class="st4" x1="132.28" y1="345.86" x2="180.11" y2="341.64"/>
						<line class="st4" x1="163.97" y1="332.48" x2="160.05" y2="336.34"/>
						<line class="st4" x1="166.69" y1="333.75" x2="162.77" y2="337.61"/>
					</g>
					<line class="st4" x1="137.08" y1="339" x2="140.66" y2="345.12"/>
					<line class="st4" x1="141.03" y1="338.74" x2="144.61" y2="344.86"/>
				</g>
				<g>
					<path class="st27" d="M60.73,237.68l-16.59-4.8c0,0-8.9,25.5-8.97,25.7c-0.07,0.2,17.88,4.65,17.88,4.65"/>
					<g>
						<path class="st28" d="M38.42,260.88l9.56-27.39l-13.9-7.27l-16.06,46.02C28.36,276.34,31.2,262.08,38.42,260.88z"/>
						<line class="st4" x1="36.68" y1="227.57" x2="20.86" y2="272.9"/>
						<line class="st4" x1="35.85" y1="261.96" x2="33.94" y2="256.79"/>
						<line class="st4" x1="33.57" y1="263.92" x2="31.66" y2="258.76"/>
					</g>
					<line class="st4" x1="40.96" y1="234.77" x2="33.91" y2="235.52"/>
					<line class="st4" x1="39.57" y1="238.47" x2="32.52" y2="239.22"/>
				</g>
				<path class="st29" d="M122.53,198.13c0,0,15.04,35.95,22.69,59.84c4.13,12.9,15.62,66.42,15.62,66.42l-33.88,3.57l-14.41-62.81
					c0,0-18.21-35.14-20.02-41.94c-1.81-6.8-3.12-21.58-3.12-21.58"/>
				<path class="st30" d="M96.11,212.67c3.63,11.55,8.08,22.84,13.31,33.76c2.8,5.86,5.83,11.62,8.29,17.63
					c2.52,6.17,4.42,12.57,6.31,18.96c3.75,12.62,10.65,44.95,10.65,44.95"/>
				<path class="st29" d="M69.74,207.68c0,0,0.24,7.23,1.95,13.01c1.71,5.78,7.22,20.48,7.22,20.48l-28.43-6.75l-8.29,30.6
					c0,0,32.23,8.43,40.37,10.84c8.14,2.41,37.4,5.06,32.76-20.96c-4.63-26.03-11.43-55.18-11.43-55.18"/>
				<path class="st4" d="M113.49,269.23c2.09-3.35,2.97-7.99,1.84-14.32c-4.63-26.03-7.19-38.22-7.19-38.22"/>
				<path class="st4" d="M139.55,263.93c-0.46,7.59-1.97,15.12-4.47,22.31"/>
				<path class="st4" d="M129.36,273.04c1.97-2.27,3.74-4.71,5.31-7.27"/>
				<path class="st30" d="M48.26,243.38c11.26,2.45,22.53,4.9,33.79,7.34c1.15,0.25,2.52,0.44,3.35-0.39
					c0.49-0.5,0.65-1.24,0.7-1.93c0.27-3.52-1.39-6.86-2.81-10.1c-4.3-9.83-6.71-20.48-7.03-31.2"/>
				<line class="st4" x1="78.91" y1="241.18" x2="85.73" y2="258.65"/>
				<path class="st30" d="M77.26,219.18c2.35-0.07,4.94-0.29,6.57-1.97c0.75-0.77,1.21-1.77,1.59-2.78c1-2.65,1.54-5.47,1.59-8.3"/>
				<path class="st30" d="M116.77,201.25c1.13,2,2.35,4,4.02,5.58c1.67,1.58,3.87,2.72,6.17,2.7"/>
			</g>
			<g>
				<path class="st27" d="M116.18,113.4l15.08-14.14l15.23-19.41l14.98,8.15c0,0-10.8,19.32-16.01,25.34
					c-9.82,11.34-21.96,21.52-21.51,21.41"/>
				<path class="st27" d="M142.69,85.83c2.48-3.41,3.73-7.44,4.99-11.42c0.49-1.54,0.99-3.06,1.51-4.59
					c0.34-1.01,0.7-2.51,1.49-3.27c0.17-0.16,0.38-0.39,0.63-0.23c0.92,0.6,1.13,1.86,1.08,2.96c-0.05,1.1-0.56,3.25,0.18,3.26
					c0.75,0.01,6.06-9.33,6.9-10.26c0.37-0.41,1.18-1.43,1.85-1.25c1.88,0.51-3.01,9.89-3.01,9.89s6.91-9.36,8.29-8.83
					c1.37,0.53-4.22,10.49-4.22,10.49s6.41-7.98,7.56-7.22c1.15,0.75-4.36,9.8-4.36,9.8s5.62-6.6,6.7-5.67
					c1.08,0.93-4.66,10-6.18,12.53c-2.89,4.83-6.55,9.63-11.53,12.74"/>
				<path class="st31" d="M152.84,74.55c0.3,2.12,0.13,4.31-0.5,6.36"/>
				<path class="st31" d="M145.84,79.59c-0.25,1.59-0.65,3.16-1.17,4.69"/>
				<path class="st31" d="M157.38,70.42c3.18,1.58,6.32,4.13,8.97,7.06"/>
				<path class="st32" d="M113.32,150.16c8.83-4.22,16.71-10.2,22.97-17.41l-16.88-22.75c-7.28,6.29-15.39,11.63-24.04,15.83"/>
				<path class="st32" d="M64.71,140.09c-6.18,23.2,3.1,71.2,3.1,71.2l58.5-7.35c0,0-8.01-27.65-7.38-35.28
					c0.21-2.52,0.64-5.02,0.7-7.55c0.21-9.16-4.46-17.64-9-25.6c0,0-9.96-7.77-10.88-7.6c-0.92,0.17-18.92,1.38-18.92,1.38
					L64.71,140.09z"/>
				<line class="st4" x1="116.83" y1="148.36" x2="115.2" y2="138.76"/>
				<line class="st4" x1="66.99" y1="206.73" x2="125.13" y2="199.73"/>
			</g>
			<g>
				<g>
					<g>
						<path class="st0" d="M118.24,135.38l14.98,15.48c-7.24,10.49-16.38,19.48-26.77,26.35l-14.98-15.48
							C101.86,154.87,111,145.87,118.24,135.38z"/>
						<path class="st33" d="M107.6,174.61c8.65-6.03,16.58-13.81,22.93-22.5l0.41-0.56c0.22-0.29,0.19-0.71-0.07-0.98l-11.9-12.3
							c-0.29-0.3-0.77-0.27-1.02,0.07l-0.51,0.69c-6.2,8.37-13.88,15.95-22.19,21.92l-0.76,0.55c-0.36,0.26-0.41,0.81-0.09,1.13
							l11.85,12.25c0.23,0.24,0.59,0.28,0.86,0.09L107.6,174.61z"/>
						<path class="st21" d="M106.81,173.33c8.56-5.97,16.3-13.56,22.59-22.16l-10.83-11.19c-6.33,8.55-14.03,16.15-22.51,22.24
							L106.81,173.33z"/>
						<path class="st0" d="M110.05,160.64c2.39,2.41,5.98,2.52,8.01,0.24c2.03-2.28,1.74-6.08-0.65-8.5
							c-2.39-2.41-5.98-2.52-8.01-0.24C107.36,154.42,107.65,158.22,110.05,160.64z"/>
						
							<ellipse transform="matrix(0.8532 -0.5216 0.5216 0.8532 -64.9362 82.2899)" class="st34" cx="113.73" cy="156.51" rx="4.48" ry="5.07"/>
						<path class="st0" d="M119.15,150.93c1.17,1.18,2.91,1.23,3.9,0.12s0.85-2.96-0.32-4.14c-1.17-1.18-2.91-1.23-3.9-0.12
							C117.85,147.9,117.99,149.76,119.15,150.93z"/>
						<path class="st23" d="M119.67,150.35c0.83,0.84,2.07,0.87,2.77,0.08s0.6-2.11-0.23-2.94c-0.83-0.84-2.07-0.87-2.77-0.08
							C118.74,148.2,118.84,149.52,119.67,150.35z"/>
						<path class="st0" d="M103.93,166.47c1.17,1.18,2.91,1.23,3.9,0.12c0.99-1.11,0.85-2.96-0.32-4.14
							c-1.17-1.18-2.91-1.23-3.9-0.12C102.63,163.44,102.77,165.3,103.93,166.47z"/>
						<path class="st23" d="M104.45,165.89c0.83,0.84,2.07,0.87,2.77,0.08s0.6-2.11-0.23-2.94c-0.83-0.84-2.07-0.87-2.77-0.08
							C103.52,163.74,103.62,165.06,104.45,165.89z"/>
						<g>
							<path class="st24" d="M115.82,158.69c-0.33,0.37-0.7,0.68-1.09,0.93c-0.4,0.25-0.76,0.4-1.08,0.46l-0.38-1.13
								c0.3-0.06,0.61-0.18,0.94-0.37c0.33-0.19,0.61-0.42,0.86-0.7c0.19-0.21,0.33-0.4,0.41-0.57c0.08-0.17,0.11-0.32,0.11-0.45
								c-0.01-0.13-0.05-0.24-0.14-0.33c-0.11-0.12-0.24-0.16-0.39-0.13c-0.15,0.03-0.32,0.1-0.51,0.22
								c-0.19,0.12-0.38,0.25-0.59,0.4c-0.21,0.15-0.42,0.29-0.65,0.43c-0.22,0.14-0.45,0.24-0.69,0.3
								c-0.23,0.07-0.46,0.07-0.69,0.01c-0.23-0.06-0.44-0.2-0.66-0.43c-0.23-0.25-0.38-0.55-0.44-0.9
								c-0.06-0.35-0.02-0.73,0.13-1.14c0.15-0.41,0.42-0.83,0.81-1.27c0.26-0.29,0.55-0.54,0.87-0.76
								c0.32-0.22,0.63-0.37,0.94-0.46l0.4,1.1c-0.29,0.09-0.56,0.22-0.81,0.39c-0.25,0.16-0.47,0.35-0.65,0.55
								c-0.19,0.21-0.32,0.4-0.4,0.57c-0.08,0.17-0.11,0.32-0.09,0.46c0.02,0.13,0.07,0.25,0.15,0.34c0.11,0.12,0.24,0.16,0.39,0.14
								c0.15-0.03,0.32-0.1,0.5-0.22c0.18-0.12,0.38-0.26,0.59-0.41c0.21-0.15,0.43-0.3,0.66-0.43c0.23-0.13,0.45-0.23,0.68-0.3
								c0.23-0.07,0.45-0.08,0.68-0.02c0.23,0.05,0.45,0.19,0.66,0.42c0.23,0.25,0.37,0.54,0.43,0.89c0.06,0.35,0.02,0.73-0.13,1.14
								C116.49,157.82,116.21,158.25,115.82,158.69z M116.22,159.6l-5.42-5.87l0.6-0.67l5.42,5.87L116.22,159.6z"/>
						</g>
					</g>
					<g>
						<path class="st0" d="M111.57,129.37l17.81,11.47c-4.87,11.97-11.92,22.95-20.62,32.15l-17.81-11.47
							C99.66,152.32,106.7,141.34,111.57,129.37z"/>
						<path class="st35" d="M127.58,145.04c-4.75,10.47-11.03,19.72-18.81,27.95"/>
						<path class="st33" d="M109.35,170.17c7.18-7.97,13.29-17.47,17.68-27.47l0.28-0.65c0.15-0.34,0.03-0.74-0.27-0.93L112.89,132
							c-0.35-0.22-0.81-0.08-0.98,0.31l-0.36,0.8c-4.31,9.66-10.21,18.9-17.08,26.73l-0.63,0.72c-0.3,0.34-0.23,0.89,0.14,1.13
							l14.09,9.07c0.28,0.18,0.63,0.13,0.85-0.12L109.35,170.17z"/>
						<path class="st21" d="M108.31,169.12c7.11-7.89,13.07-17.16,17.41-27.06l-12.88-8.29c-4.4,9.87-10.32,19.13-17.32,27.12
							L108.31,169.12z"/>
						<path class="st0" d="M108.83,155.96c2.83,1.77,6.35,1.01,7.86-1.7c1.51-2.71,0.43-6.35-2.4-8.12
							c-2.83-1.77-6.35-1.01-7.86,1.7C104.93,150.55,106,154.19,108.83,155.96z"/>
						<path class="st34" d="M109.33,155.07c2.32,1.45,5.2,0.83,6.43-1.39c1.23-2.22,0.35-5.2-1.96-6.65
							c-2.32-1.45-5.2-0.83-6.43,1.39C106.13,150.64,107.01,153.62,109.33,155.07z"/>
						<path class="st0" d="M115.69,144.3c1.38,0.86,3.09,0.49,3.83-0.83c0.73-1.32,0.21-3.09-1.17-3.96
							c-1.38-0.86-3.09-0.49-3.83,0.83C113.79,141.67,114.32,143.44,115.69,144.3z"/>
						<path class="st23" d="M116.08,143.61c0.98,0.61,2.2,0.35,2.72-0.59c0.52-0.94,0.15-2.2-0.83-2.81s-2.2-0.35-2.72,0.59
							C114.73,141.74,115.1,142.99,116.08,143.61z"/>
						
							<ellipse transform="matrix(0.7457 -0.6663 0.6663 0.7457 -80.2892 111.1271)" class="st0" cx="105.42" cy="160.73" rx="2.71" ry="2.97"/>
						<path class="st23" d="M104.47,162.43c0.98,0.61,2.2,0.35,2.72-0.59c0.52-0.94,0.15-2.2-0.83-2.81
							c-0.98-0.61-2.2-0.35-2.72,0.59C103.12,160.56,103.49,161.82,104.47,162.43z"/>
						<g>
							<path class="st24" d="M114.06,152.66c-0.25,0.44-0.54,0.83-0.87,1.17c-0.33,0.34-0.65,0.57-0.96,0.71l-0.6-1.01
								c0.28-0.13,0.56-0.33,0.83-0.59c0.28-0.26,0.51-0.56,0.7-0.89c0.14-0.25,0.23-0.47,0.28-0.66c0.04-0.19,0.04-0.34,0.01-0.47
								c-0.03-0.13-0.1-0.22-0.2-0.29c-0.13-0.09-0.26-0.1-0.41-0.04c-0.14,0.06-0.29,0.18-0.45,0.33
								c-0.16,0.16-0.32,0.34-0.49,0.53c-0.17,0.2-0.35,0.39-0.54,0.57c-0.19,0.19-0.39,0.34-0.61,0.46
								c-0.21,0.12-0.43,0.18-0.67,0.18c-0.23,0-0.48-0.09-0.73-0.26c-0.28-0.19-0.48-0.44-0.61-0.77c-0.13-0.32-0.17-0.7-0.11-1.14
								c0.06-0.44,0.23-0.91,0.53-1.43c0.2-0.35,0.43-0.66,0.69-0.95c0.26-0.29,0.54-0.51,0.82-0.67l0.62,0.97
								c-0.26,0.16-0.5,0.35-0.71,0.57c-0.21,0.22-0.38,0.45-0.52,0.69c-0.14,0.25-0.23,0.47-0.27,0.66
								c-0.04,0.19-0.04,0.34,0.01,0.47c0.04,0.13,0.12,0.23,0.22,0.29c0.13,0.09,0.27,0.1,0.41,0.04c0.14-0.06,0.29-0.17,0.44-0.33
								c0.15-0.16,0.31-0.34,0.49-0.54c0.17-0.2,0.36-0.39,0.55-0.58c0.19-0.18,0.39-0.33,0.6-0.46c0.21-0.12,0.43-0.19,0.66-0.19
								c0.24,0,0.48,0.08,0.73,0.25c0.27,0.18,0.47,0.44,0.6,0.76c0.13,0.32,0.17,0.71,0.11,1.15
								C114.53,151.66,114.35,152.14,114.06,152.66z M114.64,153.46l-6.5-4.41l0.45-0.8l6.5,4.41L114.64,153.46z"/>
						</g>
					</g>
					<g>
						<path class="st0" d="M104.91,127.2l19.42,7.87c-2.82,12.72-7.94,24.87-14.99,35.59l-19.42-7.87
							C96.97,152.07,102.08,139.92,104.91,127.2z"/>
						<path class="st35" d="M123.83,137.2c-2.91,11.94-7.84,23.34-14.5,33.46"/>
						<path class="st33" d="M109.45,167.78c5.75-9.22,10.2-19.74,12.86-30.43l0.17-0.69c0.09-0.36-0.09-0.74-0.42-0.87l-15.43-6.25
							c-0.38-0.15-0.81,0.08-0.91,0.5l-0.22,0.85c-2.64,10.33-6.93,20.56-12.4,29.58l-0.5,0.83c-0.24,0.39-0.08,0.92,0.33,1.08
							l15.36,6.22c0.3,0.12,0.64,0,0.82-0.28L109.45,167.78z"/>
						<path class="st21" d="M108.25,166.94c5.69-9.13,10.03-19.4,12.67-29.97l-14.04-5.68c-2.7,10.55-7,20.8-12.58,30.01
							L108.25,166.94z"/>
						<path class="st0" d="M106.6,153.89c3.08,1.2,6.42-0.22,7.45-3.18c1.04-2.96-0.62-6.33-3.7-7.53c-3.08-1.2-6.42,0.22-7.45,3.18
							C101.86,149.32,103.52,152.69,106.6,153.89z"/>
						<path class="st34" d="M106.94,152.92c2.52,0.98,5.25-0.18,6.1-2.6c0.85-2.42-0.51-5.18-3.03-6.17
							c-2.52-0.98-5.25,0.18-6.1,2.6C103.06,149.18,104.42,151.94,106.94,152.92z"/>
						<path class="st0" d="M111.43,141.11c1.5,0.59,3.13-0.11,3.63-1.55s-0.3-3.08-1.8-3.67c-1.5-0.59-3.13,0.11-3.63,1.55
							C109.12,138.88,109.93,140.52,111.43,141.11z"/>
						<path class="st23" d="M111.69,140.35c1.07,0.42,2.22-0.08,2.58-1.1c0.36-1.02-0.22-2.19-1.28-2.61
							c-1.07-0.42-2.22,0.08-2.58,1.1C110.05,138.77,110.62,139.93,111.69,140.35z"/>
						<path class="st0" d="M103.11,161.86c1.5,0.59,3.13-0.11,3.63-1.55c0.5-1.44-0.3-3.08-1.8-3.67c-1.5-0.59-3.13,0.11-3.63,1.55
							C100.8,159.63,101.61,161.27,103.11,161.86z"/>
						<path class="st23" d="M103.37,161.1c1.07,0.42,2.22-0.08,2.58-1.1c0.36-1.02-0.22-2.19-1.28-2.61
							c-1.07-0.42-2.22,0.08-2.58,1.1C101.73,159.52,102.31,160.69,103.37,161.1z"/>
					</g>
				</g>
				<path class="st27" d="M83.61,156.94l5.62,14.77l20.88-4.49l3.22,16.79c0,0-20.49,7.72-26.15,8.94
					c-5.66,1.22-15.56,0.15-20.3-13.6c-4.74-13.76-6.62-23.23-6.62-23.23"/>
				<path class="st32" d="M89.22,126.72c0,0-16,2.07-21.02,3.99c-5.02,1.93-10.4,6.91-10.76,15.09c-0.36,8.17,5.02,25.92,5.02,25.92
					l25.86-5.65l-8.12-21.87"/>
				<line class="st4" x1="88.32" y1="166.06" x2="80.2" y2="144.19"/>
				<g>
					<path class="st27" d="M101.7,170.21c2.32-0.83,4.54-1.95,6.6-3.31c0.88-0.58,1.66-1.34,2.51-1.98
						c0.94-0.71,2.28-1.88,2.91-2.88c1.03-1.62,1.78-4.84,2.42-4.61c0.64,0.23,0.8,1.07,0.92,1.74c0.23,1.24,0.12,2.53-0.3,3.72
						c-0.12,0.34-0.26,0.76-0.03,1.04c0.11,0.13,0.28,0.2,0.45,0.25c2.05,0.63,4.04,0.46,5.67-1.01c1.08-0.97,2.22-1.88,3.15-3
						c0.74,1.4-0.12,3.07-0.3,4.64c-0.18,1.51,0.29,3.08-0.13,4.54c-0.09,0.31-0.22,0.62-0.26,0.94c-0.05,0.39,0.04,0.78,0.05,1.18
						c0.03,1.12-0.54,2.16-1.09,3.14c-0.54,0.95-1.09,1.91-1.77,2.77c-0.8,1.02-1.78,1.88-2.8,2.68c-4.23,3.31-9.28,5.56-14.57,6.47
						"/>
					<path class="st31" d="M115.2,165.04c1.13-0.14,2.27-0.2,3.4-0.19"/>
					<path class="st31" d="M119.44,170.02c0.62-0.44,1.32-0.75,1.99-1.12c1.73-0.98,3.19-2.44,4.19-4.16"/>
					<path class="st31" d="M121.11,173.35c1.77-1.35,3.62-2.8,4.46-4.86"/>
					<path class="st31" d="M121.8,176.35c1.56-1.33,2.81-3.01,3.64-4.89"/>
					<path class="st31" d="M103.72,169.56c1.31-0.64,2.56-1.43,3.7-2.34"/>
				</g>
				<line class="st4" x1="85.84" y1="159.36" x2="60.24" y2="164.74"/>
			</g>
			<g>
				<path class="st36" d="M98.36,96.93c2.38,1.55,4.31,3.67,6,5.93c1.84,2.46,2.86,5.21,4.07,8.02c0.14,0.33,0.29,0.67,0.53,0.93
					c0.53,0.56,1.25,0.59,1.92,0.87c6.16,2.53,5.75,10.91,4.32,16.21l-22.94-2.75"/>
				<path class="st27" d="M78.69,113.55l2.16,15.73c0,0,5.2,6.22,12.48,4.35c5.73-1.47,6.43-5.72,6.43-5.72l-0.72-8.6"/>
				<path class="st27" d="M102.47,103.4c-0.91-2.42-2.45-4.57-4.69-5.92c-2.89-1.74-6.73-1.87-9.94-1.12
					c-5.28,1.23-7.16,7.07-7.15,11.9c0.01,3.71,0.53,6.73,2.8,9.76c3.7,4.92,11.59,9.13,17.33,5.52c3.2-2.01,4.48-5.72,3.94-9.23
					C104.22,110.8,103.78,106.87,102.47,103.4z"/>
				<path class="st31" d="M99.78,108.98c0.21,0.84,0.52,1.65,0.92,2.41c0.3,0.58,0.66,1.15,0.85,1.78c0.18,0.63-0.33,1.26-1.21,1.5"
					/>
				<path d="M94.58,108.94c0.03,0.72-0.39,1.33-0.94,1.35c-0.55,0.03-1.03-0.54-1.06-1.26s0.39-1.33,0.94-1.35
					C94.07,107.65,94.55,108.22,94.58,108.94z"/>
				<path d="M103.45,108.36c0.03,0.72-0.39,1.33-0.94,1.35c-0.55,0.03-1.03-0.54-1.06-1.26c-0.03-0.72,0.39-1.33,0.94-1.35
					C102.94,107.07,103.42,107.63,103.45,108.36z"/>
				<path class="st31" d="M94.46,104.86c-0.4-0.38-1-0.46-1.54-0.38c-1.19,0.18-2.21,1.02-2.85,2.03"/>
				<path class="st31" d="M100.92,105.09c0.73-0.85,1.93-0.72,2.8,0.39"/>
				<path class="st31" d="M88.06,121.58c2.61,2.67,7.46,3.48,11.4,2.82"/>
				<path class="st37" d="M97.9,114.78c0,0-0.63,2.36-0.02,3.27c1.06,1.61,2.61,0.09,3.04-1.54L97.9,114.78z"/>
				<path class="st36" d="M103.28,96.83c-2.17-3.84-6.18-4.15-9.91-5.62c-2.05-0.81-4.21-0.99-6.38-0.99
					c-2.21,0-4.35-0.06-6.48,0.67c-5.71,1.96-7.56,8.14-9.43,13.26c-0.22,0.59-0.46,1.21-0.94,1.63c-0.58,0.5-1.4,0.6-2.16,0.7
					c-2.61,0.35-5.54,1.18-6.67,3.56c-1.01,2.14-0.16,4.63,0.39,6.94c0.55,2.3,0.54,5.21-1.46,6.48l18.51,7.25
					c2.72-1.81,4.58-4.85,4.97-8.09c0.4-3.36-1.37-7.28-0.28-10.49c0.45-1.32,1.75-1.91,2.64-2.89c0.97-1.07,1.85-2.26,2.71-3.43
					c2.12-2.85,4.08-5.88,5.5-9.15c4.02,0.01,8.14,3.8,9.44,8.5C103.74,105.15,106.44,102.42,103.28,96.83z"/>
				<g>
					<path class="st27" d="M86.7,112.17c-0.49-1.84-3.43-2.73-5-1.77c-3.77,2.31-0.67,9.08,3.31,8.93c1.13-0.04,2.58-0.79,2.68-2.04
						"/>
					<line class="st31" x1="82.16" y1="113.62" x2="86.44" y2="115.93"/>
					<path class="st31" d="M84.9,110.36c0.76,0.31,1.43,0.86,1.87,1.55"/>
					<path class="st31" d="M83.61,119.06c0.77,0.34,1.62,0.58,2.45,0.44c0.83-0.14,1.62-0.74,1.79-1.57"/>
				</g>
			</g>
		</g>
		<g>
			<g>
				<g>
					<path class="st3" d="M247.6,296.92l11.33,12.3c0,0,18.54-18.5,18.68-18.65c0.14-0.14-12.53-12.72-12.53-12.72"/>
					<g>
						<path class="st38" d="M275.73,287.17l-19.91,19.87l9.14,12.3l33.44-33.39C291.06,277.94,282.57,289.2,275.73,287.17z"/>
						<line class="st4" x1="263.25" y1="317.04" x2="296.2" y2="284.16"/>
						<path class="st4" d="M259.28,311.7c0,0,5.53-4.95,11.83-2.5"/>
						<path class="st4" d="M286.86,284.62c0,0-1.94,4.41-0.1,8.95"/>
						<line class="st4" x1="278.44" y1="287.33" x2="277.94" y2="292.66"/>
						<line class="st4" x1="281.27" y1="286.59" x2="280.77" y2="291.92"/>
					</g>
				</g>
				<path class="st39" d="M160.35,206.02c-4.4,18.14,7.95,30.67,7.95,30.67l37.96,30.42l40.91,43.25l25.84-26.18
					c0,0-29.04-31.54-41.25-43.17c-8.33-7.94-20.96-18.44-28.16-24.32c-3.6-2.94-6.15-6.97-7.27-11.49l-1.64-6.62"/>
				<polyline class="st4" points="250.67,306.84 209.76,263.58 171.8,233.17 				"/>
				<line class="st4" x1="237.26" y1="299.26" x2="263.25" y2="273.91"/>
				<g>
					<path class="st3" d="M191.45,321.48l3.98,16.64c0,0,25.99-7.35,26.19-7.41c0.2-0.06-4.85-17.62-4.85-17.62"/>
					<g>
						<path class="st38" d="M221.65,326.74l-27.92,7.89l2.02,15.56l46.9-13.26C240.09,326.09,226.78,331.96,221.65,326.74z"/>
						<line class="st4" x1="195.38" y1="347.28" x2="241.58" y2="334.22"/>
						<path class="st4" d="M194.5,340.52c0,0,7.46-1.69,11.9,3.64"/>
						<path class="st4" d="M232.95,330c0,0-3.97,2.98-4.6,7.96"/>
						<line class="st4" x1="224.01" y1="328.22" x2="220.88" y2="332.75"/>
						<line class="st4" x1="226.93" y1="328.97" x2="223.8" y2="333.49"/>
					</g>
				</g>
				<path class="st39" d="M139.89,205.45c0,0-0.61,14.67,1.71,22.25c2.32,7.57,6.41,13.73,6.41,13.73s12.07,16.73,19.21,33.63
					c7.1,16.81,11.29,34.93,17.13,57.08l36.5-8.99c-5.25-19.57-10.67-44.03-18.94-61.42c-9.66-20.3-25.21-44.72-25.21-44.72
					l-2.76-16.54"/>
				<path class="st4" d="M146.28,203.45c0,0-0.61,14.67,1.71,22.25c2.32,7.57,6.41,13.73,6.41,13.73s12.07,16.73,19.21,33.63
					c7.1,16.81,11.29,34.93,17.13,57.08"/>
				<path class="st4" d="M203.26,264.7c0,0-13.5-33.79-21.53-42.83"/>
				<line class="st4" x1="181.01" y1="319.34" x2="217.51" y2="310.36"/>
				<path class="st4" d="M192,261.27c-0.11,6.28-0.78,12.56-2,18.72"/>
				<path class="st4" d="M196.26,268.39c-0.04,2.55,0.15,5.1,0.54,7.61"/>
				<path class="st4" d="M223.25,244.21c1.11,4.03,2.22,8.06,3.32,12.09"/>
				<path class="st4" d="M228.38,246.21c1.29,2.1,2.26,4.39,2.87,6.77"/>
				<path class="st4" d="M147.33,222.99c0,0,15.56-8.93,16.51-16.97"/>
				<path class="st4" d="M190.37,210.5c0,0,4.52,6.89,13.24,6.13"/>
			</g>
			<g>
				<path class="st5" d="M187.5,134.41c4.52,9.59,6.48,20.19,7.63,30.73s5.44,44.17,5.44,44.17l-64.81,0.5
					c0,0,4.96-55.31,6.62-63.62c1.66-8.31,10.23-14.44,18.75-16.18C169.66,128.28,187.5,134.41,187.5,134.41z"/>
				<path class="st4" d="M190.37,141.15c1.19,3.02,1.76,6.28,1.66,9.52"/>
				<g>
					<g>
						<path class="st3" d="M230.94,131.13c1.44-0.67,2.55-1.86,3.57-3.02c1.73-1.95,3.97-3.29,6.36-4.33
							c1.55-0.67,3.73-2.06,5.28-2.74c0.18-0.08,0.38-0.16,0.58-0.13c0.6,0.11,0.44,1.4,0.17,1.93c-0.33,0.67-1.41,1.91-1.99,2.41
							c1.99,0.1,3.94-0.39,5.77-1.08c1.83-0.69,3.56-1.57,5.38-2.3c0.42-0.17,0.87-0.33,1.33-0.28c0.46,0.05,0.93,0.38,0.95,0.81
							c0.02,0.41-0.34,0.73-0.66,0.99c0.46-0.37,3.47-1.35,3.78-0.7c0.08,0.17,0.08,0.37,0.07,0.55c-0.08,1.14-0.66,2.26-1.27,3.21
							c0.46-0.25,0.95-0.46,1.46-0.61c0.11-0.03,0.24-0.07,0.34-0.01c0.1,0.06,0.14,0.18,0.16,0.29c0.28,1.65-0.77,3.63-1.78,4.88
							c0.3,0.04,0.58-0.14,0.85-0.28c0.52-0.25,1.09-0.08,0.91,0.55c-0.19,0.67-0.63,1.24-1.08,1.78c-1.08,1.26-2.36,2.37-3.68,3.41
							c-5.74,4.55-12.55,7.96-19.34,10.93c-1.21,0.53-2.47,0.95-3.54,1.71"/>
						<path class="st4" d="M240.84,125.43c1.77,0,3.53-0.21,5.23-0.62"/>
						<path class="st4" d="M246.16,128.75c4.66-1.11,9.03-3.17,12.75-5.99"/>
						<path class="st4" d="M249.78,133.24c4.13-1.63,7.88-4.06,10.95-7.1"/>
						<path class="st4" d="M252.74,136.86c3.47-1.47,6.51-3.79,8.76-6.66"/>
					</g>
					<path class="st5" d="M162.61,140.23c23.46,1.04,47.5-1.77,69.4-10.52l8.37,20.89c0,0-17.58,11.07-38.33,14.04
						c-20.75,2.97-35.41,1.09-35.41,1.09"/>
					<path class="st4" d="M218.85,134.12c-9.34,2.29-18.73,4.42-28.26,5.75c-8.98,1.25-19.07,2.56-27.98,0.36"/>
					<path class="st4" d="M158.32,165.38c0,0,18.26,3.08,36.88,0.53"/>
					<line class="st4" x1="231.97" y1="155.13" x2="224.57" y2="132.85"/>
				</g>
				<path class="st4" d="M156.47,132.78c4.35,5.67,12.16,8.04,18.94,5.83"/>
				<path class="st4" d="M177.38,137.77c0.59-0.11,1.14-0.44,1.64-0.82c0.79-0.6,1.49-1.35,1.99-2.26s0.78-1.98,0.72-3.04"/>
				<line class="st4" x1="200.57" y1="203.74" x2="136.25" y2="204.48"/>
			</g>
			<g>
				<path class="st3" d="M183.75,115.07c-1.31-3.58-3.7-7.01-5.58-9.3c-1.59-1.94-3.66-3.43-6.11-3.94
					c-3.16-0.66-6.65,0.48-9.3,2.23c-4.36,2.88-4.19,8.91-2.63,13.39c1.19,3.44,2.91,6.58,5.92,8.64c4.89,3.35,13.05,4.14,17.06-1.1
					C185.29,122.14,185.02,118.53,183.75,115.07z"/>
				<path class="st3" d="M158.62,113.58l1.03,12.59l-0.81,4.62c0,0,5.79,5.27,11.95,5.33c7.41,0.07,8.1-3.47,8.1-3.47l-0.48-9.96"/>
				<path class="st40" d="M177.71,99.5c-0.51-0.73-1.13-1.38-1.83-1.92c-2.93-2.26-6.33-2.43-9.83-2.26
					c-5.67,0.28-11.72,2.37-15.17,7.31c-0.4,0.57-0.74,1.17-1.03,1.81c-0.46,1-0.8,2.06-1.02,3.14c-1.35,6.75,1.1,13.46,6.29,17.52
					c2.77,2.17,4.36,3.04,4.36,3.04s2.26-8.46,2.26-8.46c0.06-0.22,0.67-0.63,0.83-0.83c0.28-0.34,0.52-0.71,0.73-1.09
					c0.45-0.82,0.73-1.7,0.95-2.61c0.46-1.93-0.9-3.43-1.6-5.14c-0.29-0.71-0.44-1.59,0.02-2.21c0.37-0.5,1.03-0.69,1.65-0.73
					c1.19-0.08,2.36,0.24,3.5,0.6c1.14,0.35,2.28,0.75,3.47,0.81c1.19,0.06,2.46-0.26,3.26-1.14c0.76-0.83,0.99-2.11,0.57-3.15
					c0.68-0.29,1.46,0.15,1.97,0.69c0.51,0.54,0.91,1.22,1.55,1.58c0.2-0.23,0.31-0.53,0.38-0.83
					C179.57,103.52,178.97,101.29,177.71,99.5z"/>
				<g>
					<path class="st3" d="M165.48,117.7c-0.99-1.76-4.18-1.84-5.49-0.41c-3.13,3.45,1.82,9.55,5.76,8.27
						c1.11-0.36,2.36-1.54,2.11-2.87"/>
					<line class="st31" x1="161.35" y1="120.48" x2="166.25" y2="121.65"/>
					<path class="st31" d="M162.6,116.42c1.07,0.04,2.12,0.43,2.97,1.08"/>
					<path class="st31" d="M160.8,124.1c1.28,1.19,3.12,2.18,4.87,1.58c1.21-0.42,2.24-1.59,2.08-2.98"/>
				</g>
				<path class="st31" d="M168.89,114.38c0.09-1.86,2.44-2.9,3.78-2.81"/>
				<path class="st31" d="M177.89,108.71c0.17-0.59,0.54-1.14,1.04-1.48c0.5-0.34,1.15-0.47,1.73-0.31"/>
				<path d="M174.11,115c0.31,0.55,0.23,1.2-0.18,1.44c-0.41,0.24-0.99-0.01-1.3-0.56c-0.31-0.55-0.23-1.2,0.18-1.44
					C173.22,114.19,173.8,114.44,174.11,115z"/>
				<path d="M180.88,109.93c0.31,0.55,0.23,1.2-0.18,1.44c-0.41,0.24-0.99-0.01-1.3-0.56c-0.31-0.55-0.23-1.2,0.18-1.44
					C179.99,109.12,180.57,109.37,180.88,109.93z"/>
				<path class="st31" d="M177.15,111.53c0.88,1.18,2.23,2.06,3.33,3.01c0.26,0.22,0.52,0.45,0.68,0.75
					c0.26,0.49-0.93,2.06-0.93,2.06"/>
				<path class="st37" d="M181.34,118.87l-3.53-0.33c0,0-0.43,3.39,1.21,3.51C181.16,122.22,181.34,118.87,181.34,118.87z"/>
				<path class="st31" d="M170.15,128.14c0,0,3.87,1.52,8.47,0.22"/>
			</g>
		</g>
		<g>
			<g>
				<path class="st41" d="M521.75,312l3,18.23c0,0-27.44,5.14-27.65,5.18c-0.21,0.04-3.42-20.2-3.42-20.2"/>
				<path d="M496.35,329.98c0.09-0.23,2.29-0.44,2.53-0.48c1.73-0.33,3.49-0.92,5.27-0.74c0.43,0.05,0.89,0.14,1.21,0.44
					c0.21,0.2,0.34,0.47,0.54,0.68c0.57,0.59,1.52,0.51,2.34,0.37c3.03-0.49,15.03-2.9,15.75-3.06c0.76-0.17,1.28-0.55,1.69,0.17
					c0.4,0.7,2.68,12.85,2.83,13.57l-10.39,1.98l-1.03-2.73c0,0-6.21,0.84-7.08,1.08c-0.88,0.24-5.33,4.21-8.63,4.84l-20.05,3.81
					C480.02,337.93,493.34,337.62,496.35,329.98z"/>
				<line class="st42" x1="507.98" y1="341.75" x2="481.27" y2="347.35"/>
				<line class="st42" x1="517.03" y1="340.32" x2="527.81" y2="338.1"/>
			</g>
			<g>
				<path class="st41" d="M452.3,320.5l-3.83,18.07c0,0-27.43-5.18-27.64-5.22c-0.21-0.04,4.16-20.06,4.16-20.06"/>
				<path d="M422.11,328.03c0.17-0.18,2.29,0.43,2.53,0.47c1.74,0.32,3.58,0.41,5.17,1.23c0.39,0.2,0.78,0.46,0.97,0.85
					c0.12,0.26,0.14,0.56,0.26,0.83c0.32,0.76,1.24,1.02,2.04,1.2c3.01,0.64,15.06,2.76,15.79,2.87c0.77,0.11,1.39-0.05,1.51,0.77
					c0.12,0.8-2.17,12.95-2.29,13.67l-10.4-1.93l0.03-2.92c0,0-6.09-1.47-6.99-1.56s-6.49,1.98-9.8,1.37l-20.07-3.73
					C404.01,329.5,416.53,334.05,422.11,328.03z"/>
				<line class="st42" x1="428.67" y1="343.22" x2="401.75" y2="338.73"/>
				<line class="st42" x1="437.61" y1="345.17" x2="448.46" y2="347.02"/>
			</g>
			<g>
				<path class="st43" d="M439.27,179.28l-1.23,21.29l-19.88,122.72l34.67,7.74l20.8-117.99c0,0,7.43-15.57,3.42-34.52"/>
				<path class="st44" d="M426.5,324.9c0,0,18.67-122.27,19.08-125.33c0.41-3.07-0.38-18.64-0.38-18.64"/>
				<path class="st4" d="M433.48,263.92c1.17,4.87,2.94,9.6,5.25,14.05"/>
				<line class="st4" x1="446.42" y1="329.58" x2="468.01" y2="204.9"/>
				<path class="st43" d="M460.85,201.82l25.05,128.23l39.54-6.14l-24.73-112.43c0,0,1.01-14.37-5.76-27.28"/>
				<path class="st4" d="M519.05,324.9c-4.31-20.17-8.63-40.34-12.94-60.51c-3.45-16.13-6.9-32.27-10.36-48.4
					c-2.35-10.93-1.24-21.28-6.53-31.69"/>
				<line class="st4" x1="468.54" y1="241.18" x2="463.55" y2="209.94"/>
				<path class="st44" d="M498.33,326.89c0.81-0.54-20.79-118.8-21.45-124.2c-0.66-5.39-3.41-20.74-3.41-20.74"/>
				<path class="st4" d="M479.6,262.14c5.01,9.07,11.18,17.51,18.32,25.03"/>
				<path class="st4" d="M487.07,267.88c2.56,2.39,5.13,4.77,7.69,7.16"/>
				<path class="st44" d="M461.45,185.56l-0.07,16.2c0,0-1.97-0.73-2.76-1.43c-0.6-0.53-0.71-1.4-0.77-2.2
					c-0.39-4.86-0.57-9.73-0.54-14.61"/>
			</g>
			<g>
				<path class="st41" d="M473.02,94.7l7.22,3.41l-0.64,4.42l0.97,7.18l1.2,2.47c0,0-12.4,10.02-16.43,11.09
					c-5.21,1.37-9.49-9.18-9.49-9.18l4.08-3.26l0.07-5.65"/>
				<path class="st41" d="M454.81,96.66c0.74-3.78,1.41-8.87,2.47-11.71c0.9-2.4,2.55-5.92,4.78-7.26c2.87-1.73,6.54-0.48,9.73,0.25
					c5.24,1.21,7.12,7,7.11,11.79c-0.01,3.68-0.62,7.27-2.87,10.27c-3.66,4.89-12.11,8.29-17.76,4.64
					C455.57,102.91,453.99,100.85,454.81,96.66z"/>
				<path class="st32" d="M475.04,89.97c-2.48,1.23-4.65,3.2-6.23,5.63c-0.13,0.21-0.28,0.43-0.49,0.51
					c-0.16,0.07-0.34,0.04-0.51,0.02c-3.96-0.52-12.48-2.29-12.48-2.29s-0.51,2.5-0.63,3.4c-0.26,1.97-1.04,5.3-0.28,7.15
					c1.09,2.68,6.01,3.73,8.94,3.72c3.52-0.01,5.46-0.34,8.11-2.51c2.62-2.14,8-7.81,8-7.81"/>
				<path d="M464.55,91.08c-0.19,0.61,0.03,1.23,0.5,1.38c0.47,0.15,1.01-0.23,1.2-0.85c0.19-0.61-0.03-1.23-0.5-1.38
					C465.28,90.09,464.74,90.47,464.55,91.08z"/>
				<path d="M456.86,89.16c-0.19,0.61,0.03,1.23,0.5,1.38c0.47,0.15,1.01-0.23,1.2-0.85s-0.03-1.23-0.5-1.38
					C457.59,88.17,457.05,88.55,456.86,89.16z"/>
				<path class="st4" d="M461.05,87.94c-0.41,0.94-0.87,1.86-1.37,2.75c-0.44,0.78-1.1,1.55-1.27,2.45
					c-0.22,1.24,1.54,1.47,2.38,1.7"/>
				<path class="st32" d="M479.59,102.69c0,0-4.24-3.09-4.86-4.85c-1.16-3.31-0.91-7.62-0.56-11.05c-2.02,0.57-4.25,0.21-6.1-0.78
					c-1.54-0.83-2.83-2.07-3.83-3.49c-0.84-1.19-1.59-2.63-3.34-2.06c-1.01,0.33-1.75,1.2-2.32,2.11c-0.89,1.4-1.52,2.97-1.83,4.6
					c-0.55-2.12-0.94-4.43-0.11-6.46c0.55-1.34,1.58-2.42,2.58-3.46c2.9-3.01,6.27-5.15,10.56-5.36c5.04-0.25,9.52,2.34,13.02,5.76
					c3.57,3.49,4.26,7.65,3.73,12.46c-0.24,2.2-1.11,3.94-2.08,5.87C483.21,98.42,481.54,100.77,479.59,102.69z"/>
				<path class="st4" d="M469.27,89.08c-0.45-0.53-0.93-1.08-1.63-1.47c-1.03-0.57-2.05-0.48-3.04-0.15"/>
				<path class="st4" d="M460.07,86.35c-0.17-0.3-0.45-0.62-0.81-0.83c-0.97-0.59-1.85,0-2.35,0.52"/>
				<g>
					<path class="st41" d="M476.76,93.49c-0.67-0.73-1.81-0.9-2.74-0.71c-1.08,0.22-1.61,0.92-2.05,1.88c-0.46,1-1.21,2.13-1.44,3.2
						c-0.25,1.15,0.52,2.09,1.6,2.42C475.31,101.27,479.29,96.24,476.76,93.49z"/>
					<line class="st4" x1="475.68" y1="96.09" x2="471.73" y2="97.11"/>
				</g>
				<path class="st37" d="M459.66,97.75c0.23,0.92,0.85,1.69,1.41,1.87c1.8,0.59,2.8-1.21,2.13-2.97L459.66,97.75z"/>
			</g>
			<g>
				<g>
					<g>
						<path class="st41" d="M391.57,94.71c-5.51-6.38-12.17-15.42-13.82-23.68c-0.1-0.48-0.05-1.16,0.43-1.24
							c0.36-0.06,0.63,0.29,0.83,0.59c1.32,2.08,2.64,4.15,3.97,6.23c-1.49-3.82-2.67-7.79-3.08-11.87
							c-0.06-0.62,0.13-1.49,0.75-1.43c0.58,0.06,0.71,0.94,1.25,1.16c-0.35-1.04-0.37-2.19-0.05-3.24
							c0.06-0.19,0.14-0.39,0.32-0.48c0.3-0.14,0.62,0.15,0.83,0.41c0.69,0.87,1.38,1.73,2.07,2.6c-0.13-0.49-0.25-1.01-0.12-1.49
							c0.13-0.49,0.63-0.92,1.12-0.79c0.29,0.08,0.49,0.31,0.68,0.54c1.54,1.87,2.81,3.97,3.77,6.19c0.63,1.46,1.08,2.46,2.57,3.28
							c-0.68-1.51-1.38-3.21-0.83-4.77c0.09-0.25,0.3-0.53,0.55-0.45c0.11,0.03,0.19,0.13,0.26,0.23c1.44,1.93,2.88,3.87,4.32,5.8
							c3.47,4.66,5.74,11.11,6.15,16.88"/>
						<path class="st31" d="M382.88,76.31c0.6,0.83,1.25,1.63,2.06,2.25c1.05,0.8,2.34,1.25,3.4,2.03c1.38,1.01,2.31,2.51,3.21,3.97
							"/>
						<path class="st31" d="M381.9,64.91c0.96,1.33,1.36,2.98,1.95,4.51c0.74,1.92,1.82,3.72,3.17,5.28"/>
						<path class="st31" d="M384.82,63.31c1.34,3.25,2.94,6.4,4.78,9.4"/>
						<g>
							<path class="st45" d="M383.49,51.91l14.89,4.51l1.98,3.51c-5.11,11.13-12.28,21.63-21.01,30.77l-16.87-8.02
								C371.21,73.54,378.38,63.04,383.49,51.91z"/>
							<polygon class="st46" points="360.5,79.17 376.83,85.59 379.36,90.69 362.48,82.68 							"/>
							<path class="st0" d="M381.51,48.4l16.87,8.02c-5.11,11.13-12.28,21.63-21.01,30.77l-16.87-8.02
								C369.23,70.04,376.4,59.53,381.51,48.4z"/>
							<path class="st35" d="M397.5,58.28c-5.04,10.44-11.89,20.28-20.13,28.9l-16.87-8.02"/>
							<path class="st35" d="M398.76,59.86c-5.04,10.44-11.89,20.28-20.13,28.9l-15.32-7.21"/>
							<path class="st33" d="M378.03,84.64c7.21-7.87,13.43-16.96,18-26.3l0.3-0.6c0.15-0.32,0.06-0.66-0.23-0.79l-13.41-6.37
								c-0.33-0.16-0.78,0.03-0.96,0.39l-0.37,0.75c-4.48,9.02-10.5,17.86-17.4,25.57l-0.63,0.71c-0.3,0.34-0.25,0.81,0.1,0.98
								l13.35,6.34c0.26,0.12,0.61,0.04,0.83-0.21L378.03,84.64z"/>
							<path class="st21" d="M377.06,83.83c7.14-7.79,13.21-16.66,17.73-25.9l-12.2-5.79c-4.58,9.21-10.61,18.08-17.65,25.94
								L377.06,83.83z"/>
							<path class="st0" d="M377.99,72.17c2.69,1.23,6.12,0.15,7.66-2.42c1.55-2.57,0.62-5.65-2.06-6.88
								c-2.69-1.23-6.12-0.15-7.66,2.42S375.31,70.94,377.99,72.17z"/>
							<path class="st34" d="M378.5,71.32c2.2,1.01,5.01,0.12,6.27-1.98c1.27-2.1,0.51-4.62-1.69-5.63
								c-2.2-1.01-5.01-0.12-6.27,1.98C375.55,67.8,376.3,70.32,378.5,71.32z"/>
							<path class="st0" d="M385.01,61.08c1.31,0.6,2.98,0.07,3.73-1.18c0.75-1.25,0.3-2.75-1-3.35c-1.31-0.6-2.98-0.07-3.73,1.18
								C383.26,58.98,383.71,60.48,385.01,61.08z"/>
							<path class="st23" d="M385.41,60.43c0.93,0.43,2.12,0.05,2.65-0.84c0.54-0.89,0.22-1.96-0.71-2.38
								c-0.93-0.43-2.12-0.05-2.65,0.84C384.16,58.94,384.48,60,385.41,60.43z"/>
							<path class="st0" d="M373.17,79.04c1.31,0.6,2.98,0.07,3.73-1.18c0.75-1.25,0.3-2.75-1-3.35c-1.31-0.6-2.98-0.07-3.73,1.18
								C371.41,76.94,371.86,78.44,373.17,79.04z"/>
							<path class="st23" d="M373.56,78.39c0.93,0.43,2.12,0.05,2.65-0.84c0.54-0.89,0.22-1.96-0.71-2.38
								c-0.93-0.43-2.12-0.05-2.65,0.84C372.32,76.9,372.63,77.96,373.56,78.39z"/>
						</g>
						<path class="st41" d="M398.59,74.66c-1.83-3.45-3.99-6.72-6.44-9.76c-0.07-0.09-0.16-0.19-0.27-0.23
							c-0.37-0.14-0.61,0.4-0.64,0.8c-0.06,0.96-0.03,1.93,0.1,2.88c0.47,3.55,2.21,6.86,2.55,10.43"/>
						<path class="st31" d="M392.54,73.88c-0.25,0.57-0.2,1.21-0.13,1.83c0.23,2.08,0.68,4.14,1.33,6.14"/>
					</g>
					<path class="st47" d="M458.66,112.87c0,0-9.4,0.01-14.56-1.53c-5.16-1.54-21.77-8.66-23.02-8.99
						c-1.25-0.33-17.78-20.39-17.78-20.39l-14.85,13.22c0,0,12.36,21.91,20.39,27.99c12.42,9.4,38.75,21.79,38.75,21.79"/>
					<path d="M397.86,91.52c0.18,0.73-0.26,1.46-0.99,1.64c-0.73,0.18-1.46-0.26-1.64-0.99c-0.18-0.73,0.26-1.46,0.99-1.64
						C396.94,90.35,397.68,90.79,397.86,91.52z"/>
					<line class="st4" x1="391.84" y1="100.91" x2="407.82" y2="87.41"/>
					<line class="st4" x1="391.42" y1="92.53" x2="399.39" y2="104.23"/>
				</g>
				<g>
					<path d="M513.09,238.52l-48.79-4.45c-1.5-0.14-2.54-1.55-2.23-3.03l6.04-28.35c0.34-1.57,1.79-2.64,3.39-2.5l44.36,4.04
						l-0.05,31.8C515.8,237.51,514.55,238.65,513.09,238.52z"/>
					<line class="st48" x1="507.73" y1="235.78" x2="512.93" y2="210.2"/>
					<polyline class="st48" points="464.42,220.03 506.23,223.84 515.86,204.24 					"/>
					<polygon class="st49" points="487.57,219 481.64,218.46 482.3,215.93 488.23,216.47 					"/>
					<path class="st18" d="M481.76,204.15l1.8-6.88c0.2-0.75,0.91-1.25,1.69-1.18l15.93,1.45c0.98,0.09,1.65,1.04,1.4,1.99
						l-1.66,6.36"/>
				</g>
				<path class="st47" d="M441.46,144.58l-1.25,43.75l54.3,0.81l9.31-53.1l-3.14-19.01l-7.04-5.52c0,0-17.74,1.75-18.04,1.76
					c-0.31,0.01-10.21,3.45-10.21,3.45l-8.51-4.37"/>
				<path class="st4" d="M441.93,126.17c1.01,6.61,0.3,14.89,0.09,20.99"/>
				<path class="st50" d="M457.71,111.5c0,0,3.41,13.04,6.26,13.67c2.84,0.63,21.58-13.49,21.58-13.49l8.49-0.17
					c0,0-8.38,22.8-3.28,31.6c5.1,8.79,12.15,3.24,12.15,3.24l-4.39,46.34l-61.05,1.25l0.32-5.55c0,0-2.02-2.9-1.57-4.94
					c3.35-15.23,4.43-36.88,5.6-44.23c2.07-12.95,8.56-27.31,8.56-27.31L457.71,111.5z"/>
				<path class="st4" d="M455.81,112.36c0,0,1.84,15.39,8.22,15.62c6.37,0.23,21.53-16.31,21.53-16.31"/>
				<line class="st4" x1="437.79" y1="188.38" x2="499.05" y2="187.12"/>
				<polygon class="st47" points="482.7,105.28 465.4,116.72 471.03,128.64 488.22,110.89 				"/>
				<polygon class="st47" points="458.55,108.95 465.4,116.72 458.66,126.84 454.11,114.48 				"/>
				<line class="st4" x1="465.4" y1="116.72" x2="471.03" y2="128.64"/>
				<line class="st4" x1="465.4" y1="116.72" x2="458.66" y2="126.84"/>
				<g>
					<path class="st41" d="M491.68,179.17c-2.08,2.42-3.87,5.11-5,8.09c-1.13,2.98-1.55,6.27-0.9,9.39
						c0.15,0.73,0.39,1.49,0.98,1.94c0.59,0.45,1.61,0.39,1.91-0.29c0.74,1.21,2.52,1.62,3.72,0.87c0.61,1.13,2.49,1.23,3.21,0.16
						c0.62,0.7,1.69,0.86,2.6,0.63c0.91-0.23,2.56-1.68,2.56-1.68l-1.34-0.54c0,0,0.9-2.05,1.29-2.62
						c2.37-3.43,4.01-7.35,4.81-11.44"/>
					<path class="st31" d="M495.77,199.4c-0.3-2.22-0.07-4.51,0.64-6.63"/>
					<path class="st31" d="M499.16,198.07c0.05-0.63,0.23-1.25,0.54-1.81"/>
					<path class="st31" d="M492.29,199.08c-0.75-2.63-0.61-5.16,0.5-7.66"/>
					<path class="st31" d="M488.63,198.52c-0.64-2.3-0.72-4.76-0.23-7.1"/>
				</g>
				<path class="st47" d="M492.72,141.34l11.67,14.87l-14.74,24.97l16.11,9.96c0,0,22.78-22.5,25.73-31.07
					c2.98-8.63-5.16-19.01-10.96-26.36c-5.8-7.35-8.48-14.96-18.31-21.02c-2.36-1.45-8.1-0.82-8.1-0.82"/>
				<line class="st4" x1="491.71" y1="140.04" x2="504.39" y2="156.21"/>
				<path class="st4" d="M504.04,156.54c-0.17,0-0.08-0.27,0.05-0.37c2.31-1.73,4.7-3.34,7.16-4.83"/>
				<line class="st4" x1="492.79" y1="175.87" x2="509.95" y2="186.9"/>
				<line class="st4" x1="501.77" y1="188.67" x2="510.76" y2="179.67"/>
				<path d="M503.04,184.71c0.02,0.75-0.58,1.37-1.33,1.38c-0.75,0.02-1.37-0.58-1.38-1.33c-0.02-0.75,0.58-1.37,1.33-1.38
					C502.41,183.37,503.03,183.97,503.04,184.71z"/>
				<path class="st4" d="M447.62,171.06c9.64-3.5,18.84-8.19,27.33-13.95"/>
				<path class="st4" d="M452.52,161.27c3.43-0.29,6.83-0.93,10.13-1.93"/>
			</g>
		</g>
		<g>
			<g>
				<g>
					<g>
						<path class="st3" d="M409.8,231.45l15.71-4.72c0,0,7.26,24.17,7.32,24.36c0.06,0.19-17.53,5.27-17.53,5.27"/>
						<g>
							<path class="st51" d="M429.44,253.31l-7.35-26.29l14.36-5.17l13.59,45.24C438.89,269.26,436.93,255.58,429.44,253.31z"/>
							<line class="st4" x1="433.63" y1="222.7" x2="447.01" y2="267.26"/>
							<path class="st4" d="M438.52,261.62c0,0,0.53-4.58,4.66-7.11"/>
							<line class="st4" x1="432.06" y1="254.72" x2="434.43" y2="250.24"/>
							<line class="st4" x1="434.31" y1="256.91" x2="436.68" y2="252.42"/>
							<path class="st4" d="M430.39,234.1c1.48-0.44,2.32-2,1.87-3.48c-0.44-1.48-2-2.32-3.48-1.87c-1.48,0.44-2.32,2-1.87,3.48
								C427.35,233.71,428.91,234.55,430.39,234.1z"/>
						</g>
					</g>
					<path class="st52" d="M369.85,185.57c-0.31,5.36-2.76,13.66-4.55,18.72c-3.28,9.28-5.65,19.35-7.15,29.11
						c-0.92,5.94-1.7,12.21-0.84,18.2c0.56,3.87,2.03,7.72,4.8,10.47c6.78,6.75,22.47,5.24,30.84,3.24
						c11.2-2.68,22.33-5.55,33.42-8.68l-6.54-28.79l-29.35,4.69c0,0,1.59-11.08,1.7-11.85c1.15-8.22,5.92-15.95,5.42-26.38
						c-0.18-3.65-0.17-5.56-1.85-8.81"/>
					<path class="st53" d="M371.1,196.71c0,0-12.11,42.4-9.67,50.17c2.44,7.77,7.4,13.33,20.76,11.61
						c13.35-1.72,42.72-8.33,42.72-8.33"/>
					<g>
						<path class="st53" d="M394.64,210.61c-1.27-0.16-7.68-3.36-7.63-4.53c0.05-1.18,0.55-8.13,0.55-8.13l10.06-0.86"/>
						<g>
							<g>
								<line class="st53" x1="387.38" y1="200.63" x2="389.37" y2="200.51"/>
								<line class="st54" x1="391.13" y1="200.41" x2="394.36" y2="200.23"/>
								<line class="st53" x1="395.25" y1="200.18" x2="397.24" y2="200.06"/>
							</g>
						</g>
					</g>
					<line class="st4" x1="390.49" y1="232.54" x2="387.02" y2="246.21"/>
				</g>
				<g>
					<g>
						<path class="st3" d="M391.74,304.51l7.22,14.73c0,0-22.67,11.1-22.84,11.19c-0.17,0.09-8.06-16.43-8.06-16.43"/>
						<g>
							<path class="st51" d="M373.37,327.46l24.74-11.54l7.44,13.33l-42.42,20.78C359.18,339.38,372.36,335.21,373.37,327.46z"/>
							<line class="st4" x1="404.26" y1="326.59" x2="362.48" y2="347.06"/>
							<path class="st4" d="M366.66,337.76c0,0,4.6-0.23,7.78,3.44"/>
							<line class="st4" x1="372.41" y1="330.27" x2="377.22" y2="331.87"/>
							<line class="st4" x1="370.62" y1="332.85" x2="375.43" y2="334.46"/>
							<path class="st4" d="M392.48,325.26c0.68,1.39,2.36,1.96,3.74,1.28c1.39-0.68,1.96-2.36,1.28-3.74
								c-0.68-1.39-2.36-1.96-3.74-1.28C392.38,322.19,391.8,323.87,392.48,325.26z"/>
						</g>
					</g>
					<path class="st52" d="M339.99,193.24c0,0,2.32,12.64,2.27,15.04c-0.05,2.41-2.45,46.82,0,58.13
						c3.57,16.44,23.09,59.52,23.09,59.52l32.01-11.82l-22.78-54.28c0,0,2.14-41.96,2.96-45.68c0.82-3.71,7.11-15.35,0-25.01"/>
					<polyline class="st4" points="376.65,266.8 374.58,259.84 377.54,214.16 380.45,204.24 					"/>
					<path class="st53" d="M371.15,323.79c0,0-23.08-48.56-23.4-61.9c-0.32-13.34,1.73-52.47,1.5-55.2
						c-0.23-2.73-1.73-11.6-1.73-11.6"/>
					<g>
						<path class="st53" d="M360.04,201.56l14.54-3.14c0,0,0.53,8.62,0,9.5c-0.53,0.88-4.63,5.29-5.91,5.29
							c-1.28,0-8.04-2.35-8.14-3.53C360.43,208.51,360.04,201.56,360.04,201.56z"/>
						<g>
							<g>
								<line class="st53" x1="360.2" y1="204.24" x2="362.16" y2="203.87"/>
								<line class="st55" x1="365.3" y1="203.29" x2="371.05" y2="202.21"/>
								<line class="st53" x1="372.62" y1="201.92" x2="374.58" y2="201.55"/>
							</g>
						</g>
					</g>
					<path class="st4" d="M347.62,272.87c3.34,3.8,7.45,6.91,12.01,9.1"/>
					<path class="st4" d="M356.96,272.27c2.46,2.26,5.4,4,8.57,5.06"/>
				</g>
			</g>
			<path class="st56" d="M346.07,123.47c-2.8,3.24-5.61,6.51-7.78,10.2c-4.1,6.96-5.15,13.12-4.91,21.2
				c0.57,19.62,5.8,48.49,5.8,48.49l58.19-16.33c0,0-18.66-46.66-23.31-51.86c-4.65-5.2-14.22-12.39-14.22-12.39"/>
			<line class="st4" x1="393.75" y1="179.17" x2="337.79" y2="195.09"/>
			<g>
				<path class="st3" d="M340.61,105.31c1.94-3.28,4.9-6.23,7.16-8.14c1.91-1.62,4.21-2.71,6.72-2.78c3.22-0.08,6.45,1.67,8.75,3.87
					c3.77,3.62,2.51,9.52,0.17,13.64c-1.79,3.17-4.05,5.95-7.38,7.43c-5.42,2.41-13.58,1.72-16.58-4.15
					C337.83,111.99,338.74,108.49,340.61,105.31z"/>
				<path class="st3" d="M365.39,109.51l-3.4,8.16l0.85,8.78c0,0-6.7,5.11-12.77,4.06c-7.3-1.27-6.66-5.09-6.66-5.09l0.87-10.52"/>
				<path d="M349.38,91.3c1.1-1.55,2.46-2.88,4.21-3.57c3.14-1.23,7.1,0.25,8.66,3.24c0.08,0.16,2.57,0.33,2.9,0.41
					c1.06,0.26,3.12,0.62,4.12,1.07c2.78,1.26,5.56,2.72,7.51,5.12c1.88,2.31,3.21,5.13,3.93,8.01c0.65,2.6,0.71,5.48,2.33,7.61
					c2.7,3.55,8.71,3.68,10.67,7.68c1.44,2.92,0.12,6.98,2.41,9.29c1.25,1.26,3.15,1.51,4.87,1.95c2.29,0.59,4.56,1.71,5.93,3.64
					c1.61,2.28,1.72,5.25,1.77,8.04c0.01,0.43,0,0.89-0.25,1.23c-0.26,0.35-0.71,0.48-1.13,0.59c-9.61,2.53-19.27,4.83-28.98,6.91
					c0.33-1.35,0.66-2.78,0.24-4.1c-1.27-4.06-7.2-4.23-9.51-7.55c-1.1-1.58-0.33-2.79,0.12-4.39c0.48-1.7-0.09-3.32-1.26-4.6
					c-1.09-1.21-2.52-2.07-3.72-3.18c-2.26-2.07-3.69-5.01-3.94-8.06c-0.11-1.38,0.01-2.77-0.04-4.16c-0.1-2.39-0.99-4.59-1.31-6.94
					c-0.39-2.84-0.77-5.49-0.76-8.37c0.01-1.23,0.04-2.54,0.72-3.56c-4.16-0.53-8.4-0.36-12.5,0.53c0.42-0.09,0.45-1.8,0.52-2.1
					c0.22-0.87,0.63-1.68,1.05-2.45C348.39,92.81,348.86,92.03,349.38,91.3z"/>
				<g>
					<path class="st3" d="M358.1,111.2c1.29-1.55,4.45-1.06,5.47,0.59c2.46,3.96-3.51,9.07-7.16,7.1c-1.03-0.56-2.04-1.94-1.56-3.2"
						/>
					<line class="st31" x1="361.67" y1="114.68" x2="356.63" y2="114.94"/>
					<path class="st31" d="M361.17,110.46c-1.06-0.15-2.16,0.04-3.12,0.53"/>
					<path class="st31" d="M361.56,118.33c-1.47,0.94-3.46,1.58-5.08,0.67c-1.12-0.63-1.91-1.97-1.51-3.3"/>
				</g>
				<path class="st31" d="M355.35,107.32c0.24-1.85-1.88-3.29-3.21-3.44"/>
				<path class="st31" d="M347.52,100.11c-0.06-0.62-0.32-1.21-0.75-1.64c-0.43-0.43-1.04-0.67-1.64-0.62"/>
				<path d="M350.11,106.98c-0.4,0.49-0.44,1.14-0.08,1.45c0.36,0.31,0.98,0.17,1.38-0.32c0.4-0.49,0.44-1.14,0.08-1.45
					C351.13,106.35,350.51,106.49,350.11,106.98z"/>
				<path d="M344.36,100.77c-0.4,0.49-0.44,1.14-0.08,1.45c0.36,0.31,0.98,0.17,1.38-0.32c0.4-0.49,0.44-1.14,0.08-1.45
					C345.38,100.14,344.76,100.28,344.36,100.77z"/>
				<path class="st31" d="M347.74,103.02c-1.08,1-2.56,1.63-3.81,2.36c-0.29,0.17-0.59,0.35-0.81,0.62c-0.35,0.43,0.54,2.2,0.54,2.2
					"/>
				<path class="st37" d="M342.3,109.49l3.53,0.31c0,0-0.19,3.41-1.83,3.24C341.87,112.82,342.3,109.49,342.3,109.49z"/>
				<path class="st31" d="M351.63,120.62c0,0-3.47,0.65-7.75-0.78"/>
			</g>
			<g>
				<g>
					<path class="st3" d="M290.47,119.85c-1.31-0.58-2.33-1.61-3.26-2.61c-1.58-1.68-3.62-2.84-5.81-3.75
						c-1.42-0.59-3.41-1.79-4.83-2.38c-0.17-0.07-0.35-0.14-0.53-0.11c-0.55,0.09-0.41,1.19-0.17,1.65c0.3,0.57,1.28,1.65,1.81,2.08
						c-1.83,0.07-3.62-0.36-5.29-0.97c-1.68-0.6-3.26-1.37-4.92-2.01c-0.39-0.15-0.8-0.29-1.22-0.25c-0.42,0.04-0.86,0.32-0.88,0.69
						c-0.02,0.35,0.3,0.63,0.6,0.85c-0.42-0.32-3.18-1.18-3.47-0.63c-0.08,0.15-0.08,0.31-0.07,0.47c0.07,0.97,0.58,1.94,1.14,2.76
						c-0.42-0.22-0.87-0.4-1.33-0.54c-0.1-0.03-0.22-0.06-0.31-0.01c-0.09,0.05-0.13,0.15-0.15,0.24c-0.27,1.41,0.67,3.12,1.59,4.19
						c-0.28,0.03-0.53-0.13-0.77-0.24c-0.47-0.22-1-0.07-0.84,0.46c0.17,0.57,0.56,1.07,0.98,1.53c0.99,1.09,2.15,2.04,3.35,2.95
						c5.24,3.93,11.47,6.91,17.69,9.5c1.11,0.46,2.26,0.83,3.24,1.49"/>
					<path class="st4" d="M281.42,114.9c-1.62-0.01-3.24-0.2-4.8-0.57"/>
					<path class="st4" d="M276.5,117.7c-4.27-0.99-8.28-2.78-11.67-5.22"/>
					<path class="st4" d="M273.14,121.52c-3.78-1.42-7.21-3.53-10.01-6.16"/>
					<path class="st4" d="M270.39,124.59c-3.17-1.29-5.95-3.29-8-5.77"/>
				</g>
				<path class="st56" d="M362.37,127.17c-2.11-0.79-4.51-1.56-6.77-1.6c-1.84-0.04-3.68,0.03-5.52,0.14
					c-3.99,0.25-7.97,0.72-11.93,1.29c-5.34,0.77-10.67,1.69-15.94,2.84c0,0-21.61-7.38-32.56-11.15l-6.3,18.41
					c0,0,17.6,14.37,38.29,17.69c15.39,2.47,35.04-3.28,35.04-3.28"/>
				<line class="st4" x1="295.92" y1="120.85" x2="290.31" y2="142.01"/>
				<path class="st4" d="M332.86,155.57c7.19-0.76,14.34-1.95,21.39-3.55"/>
				<path class="st4" d="M356.9,125.72c2.65-0.11,5.06,1.41,7.28,2.88"/>
				<path class="st4" d="M318.57,130.09c1.58,0.1,3.18-0.04,4.73-0.4"/>
			</g>
		</g>
	</g>
	<g>
		<circle class="st57" cx="72.74" cy="35.03" r="2.91"/>
		<path class="st57" d="M313.83,206.13c0,1.61,1.3,2.91,2.91,2.91c1.61,0,2.91-1.3,2.91-2.91c0-1.61-1.3-2.91-2.91-2.91
			C315.14,203.22,313.83,204.52,313.83,206.13z"/>
		<path class="st57" d="M269.98,242.96c0,1.61,1.3,2.91,2.91,2.91s2.91-1.3,2.91-2.91c0-1.61-1.3-2.91-2.91-2.91
			S269.98,241.35,269.98,242.96z"/>
		<path class="st57" d="M191.41,95.28c0,1.61,1.3,2.91,2.91,2.91c1.61,0,2.91-1.3,2.91-2.91c0-1.61-1.3-2.91-2.91-2.91
			C192.72,92.36,191.41,93.67,191.41,95.28z"/>
		<path class="st57" d="M13.47,163.55c0,1.61,1.3,2.91,2.91,2.91c1.61,0,2.91-1.3,2.91-2.91c0-1.61-1.3-2.91-2.91-2.91
			C14.77,160.64,13.47,161.94,13.47,163.55z"/>
		<path class="st57" d="M25.85,321.23c0,1.61,1.3,2.91,2.91,2.91c1.61,0,2.91-1.3,2.91-2.91c0-1.61-1.3-2.91-2.91-2.91
			C27.16,318.31,25.85,319.62,25.85,321.23z"/>
		<path class="st57" d="M418.4,73.88c0,1.61,1.3,2.91,2.91,2.91c1.61,0,2.91-1.3,2.91-2.91c0-1.61-1.3-2.91-2.91-2.91
			C419.7,70.96,418.4,72.27,418.4,73.88z"/>
		<g>
			<line class="st57" x1="22.72" y1="117.52" x2="22.72" y2="123.75"/>
			<line class="st57" x1="19.6" y1="120.64" x2="25.83" y2="120.64"/>
		</g>
		<g>
			<line class="st57" x1="419.22" y1="14.44" x2="419.22" y2="20.67"/>
			<line class="st57" x1="416.11" y1="17.56" x2="422.34" y2="17.56"/>
		</g>
		<g>
			<line class="st57" x1="421.31" y1="180.67" x2="421.31" y2="186.9"/>
			<line class="st57" x1="418.2" y1="183.79" x2="424.43" y2="183.79"/>
		</g>
		<g>
			<line class="st57" x1="257.12" y1="28.8" x2="257.12" y2="35.03"/>
			<line class="st57" x1="254" y1="31.91" x2="260.23" y2="31.91"/>
		</g>
		<g>
			<line class="st57" x1="296.95" y1="183.79" x2="296.95" y2="190.02"/>
			<line class="st57" x1="293.84" y1="186.9" x2="300.07" y2="186.9"/>
		</g>
		<g>
			<line class="st57" x1="117.02" y1="60.49" x2="117.02" y2="66.72"/>
			<line class="st57" x1="113.91" y1="63.61" x2="120.14" y2="63.61"/>
		</g>
		<g>
			<line class="st57" x1="536.4" y1="194.05" x2="536.4" y2="200.28"/>
			<line class="st57" x1="533.29" y1="197.16" x2="539.52" y2="197.16"/>
		</g>
		<polygon class="st57" points="110.67,26.55 103.9,46.84 89.89,39.25 		"/>
		<polygon class="st58" points="222.12,189.67 252.39,199.78 234.02,214.65 		"/>
		<polygon class="st58" points="499.43,77.57 519.01,79.43 507.88,101.29 		"/>
		<polygon class="st57" points="248.65,188.69 277.08,210.81 241.17,221.09 		"/>
		<polygon class="st57" points="528.38,230.36 537.7,249.63 515.36,251.76 		"/>
		<path class="st57" d="M437.37,45.32l7.98,1.22c1.79,0.27,3.46-0.95,3.73-2.74l1.22-7.98c0.27-1.79-0.95-3.46-2.74-3.73l-7.98-1.22
			c-1.79-0.27-3.46,0.95-3.73,2.74l-1.22,7.98C434.35,43.38,435.58,45.05,437.37,45.32z"/>
		<path class="st59" d="M39.9,184.95l8.15-5.32c2.38-1.55,3.05-4.74,1.5-7.13l-5.32-8.15c-1.55-2.38-4.74-3.05-7.13-1.5l-8.15,5.32
			c-2.38,1.55-3.05,4.74-1.5,7.13l5.32,8.15C34.33,185.84,37.52,186.51,39.9,184.95z"/>
		<path class="st59" d="M444.88,37.56l12.84,8.29c1.52,0.98,3.55,0.54,4.53-0.98l8.29-12.84c0.98-1.52,0.54-3.55-0.98-4.53
			l-12.85-8.29c-1.52-0.98-3.55-0.54-4.53,0.98l-8.29,12.84C442.92,34.56,443.36,36.58,444.88,37.56z"/>
		<path class="st60" d="M15.74,220.74l12.92-3.56c5.13-1.41,8.14-6.71,6.72-11.84l-3.56-12.92c-1.41-5.13-6.71-8.14-11.84-6.72
			l-12.92,3.56c-5.13,1.41-8.14,6.71-6.72,11.84l3.56,12.92C5.32,219.14,10.62,222.15,15.74,220.74z"/>
	</g>
</g>
</svg>
