<?xml version="1.0" encoding="utf-8"?>
<!-- Generator: Adobe Illustrator 23.0.2, SVG Export Plug-In . SVG Version: 6.00 Build 0)  -->
<svg version="1.1" id="Layer_1" xmlns="http://www.w3.org/2000/svg" xmlns:xlink="http://www.w3.org/1999/xlink" x="0px" y="0px"
	 viewBox="0 0 540 350" style="enable-background:new 0 0 540 350;" xml:space="preserve">
<style type="text/css">
	.st0{fill:none;stroke:#A8B6E9;stroke-width:1.5;stroke-linejoin:round;stroke-miterlimit:10;}
	.st1{opacity:0.55;fill:#FFF5D0;}
	.st2{opacity:0.55;fill:#FFEEE2;}
	.st3{opacity:0.55;fill:#FFE7E6;}
	.st4{fill:#95B78B;}
	.st5{fill:none;stroke:#000000;stroke-width:1.5;stroke-miterlimit:10;}
	.st6{fill:none;stroke:#608759;stroke-width:1.5;stroke-miterlimit:10;}
	.st7{fill:#FFC3AA;}
	.st8{fill:#DBE8FF;}
	.st9{fill:none;stroke:#8E95AE;stroke-miterlimit:10;}
	.st10{fill:#2A2132;}
	.st11{fill:none;stroke:#685B74;stroke-miterlimit:10;}
	.st12{fill:#9068BF;}
	.st13{fill:#BD5C44;}
	.st14{fill:#4F3F36;}
	.st15{fill:none;stroke:#000000;stroke-miterlimit:10;}
	.st16{fill:#96BDFF;}
	.st17{fill:#9C4230;}
	.st18{fill:#FFE683;}
	.st19{fill:none;stroke:#E08A44;stroke-width:1.5;stroke-miterlimit:10;}
	.st20{fill:none;stroke:#FF884E;stroke-miterlimit:10;}
	.st21{fill:#FFA237;}
	.st22{fill:#EF8919;}
	.st23{fill:none;stroke:#9D5D1E;stroke-width:1.5;stroke-miterlimit:10;}
	.st24{clip-path:url(#SVGID_2_);fill:#EF8919;}
	.st25{fill:#FFD643;}
	.st26{fill:#FFC3C0;}
	.st27{fill:#F1716E;}
	.st28{fill:#FF8C8C;}
	.st29{fill:#FFB0A9;}
	.st30{clip-path:url(#SVGID_4_);}
	.st31{clip-path:url(#SVGID_6_);fill:#EF8919;}
	.st32{clip-path:url(#SVGID_8_);fill:#EF8919;}
	.st33{fill:#FFB5A1;}
	.st34{fill:#FFEAC4;}
	.st35{fill:#DFB278;}
	.st36{fill:#FFCBA3;}
	.st37{fill:#121118;}
	.st38{fill:none;stroke:#70524D;stroke-miterlimit:10;}
	.st39{fill:none;stroke:#70524D;stroke-linejoin:round;stroke-miterlimit:10;}
	.st40{fill:none;stroke:#75635A;stroke-miterlimit:10;}
	.st41{fill:#FFB182;}
	.st42{fill:#FC5C3A;}
	.st43{fill:none;stroke:#FF8351;stroke-miterlimit:10;}
	.st44{fill:#231F38;}
	.st45{fill:#FFFFFF;}
	.st46{fill:none;stroke:#FFE3A3;stroke-miterlimit:10;}
	.st47{fill:#FF8351;}
	.st48{fill:#FFB248;}
</style>
<g>
	<g>
		<path class="st0" d="M428.21,6.17c0,1.68-1.37,3.05-3.05,3.05c-1.68,0-3.05-1.37-3.05-3.05c0-1.68,1.37-3.05,3.05-3.05
			C426.84,3.12,428.21,4.48,428.21,6.17z"/>
		<path class="st0" d="M169.59,217.83c0,1.68-1.37,3.05-3.05,3.05c-1.68,0-3.05-1.37-3.05-3.05c0-1.68,1.37-3.05,3.05-3.05
			C168.22,214.78,169.59,216.15,169.59,217.83z"/>
		<path class="st0" d="M339.31,79.96c0,1.68-1.37,3.05-3.05,3.05c-1.68,0-3.05-1.37-3.05-3.05c0-1.68,1.37-3.05,3.05-3.05
			C337.95,76.91,339.31,78.28,339.31,79.96z"/>
		<path class="st0" d="M533.52,164.82c0,1.68-1.37,3.05-3.05,3.05s-3.05-1.37-3.05-3.05c0-1.68,1.37-3.05,3.05-3.05
			S533.52,163.14,533.52,164.82z"/>
		<circle class="st0" cx="504.92" cy="244.4" r="3.05"/>
		<path class="st0" d="M14.69,183.71c0,1.68-1.37,3.05-3.05,3.05c-1.68,0-3.05-1.37-3.05-3.05s1.37-3.05,3.05-3.05
			C13.32,180.66,14.69,182.03,14.69,183.71z"/>
		<g>
			<line class="st0" x1="520.58" y1="97.64" x2="520.58" y2="104.16"/>
			<line class="st0" x1="523.84" y1="100.9" x2="517.32" y2="100.9"/>
		</g>
		<g>
			<line class="st0" x1="108.85" y1="8.76" x2="108.85" y2="15.28"/>
			<line class="st0" x1="112.11" y1="12.02" x2="105.59" y2="12.02"/>
		</g>
		<g>
			<line class="st0" x1="308.52" y1="48.89" x2="308.52" y2="55.41"/>
			<line class="st0" x1="311.78" y1="52.15" x2="305.26" y2="52.15"/>
		</g>
		<g>
			<line class="st0" x1="150.54" y1="186.9" x2="150.54" y2="193.42"/>
			<line class="st0" x1="153.8" y1="190.16" x2="147.28" y2="190.16"/>
		</g>
		<polygon class="st0" points="516.76,217.83 523.84,239.08 538.5,231.13 		"/>
		<polygon class="st1" points="33.29,128.43 1.61,139.01 20.84,154.57 		"/>
		<polygon class="st0" points="499,56.7 461.53,60.82 487.9,89.67 		"/>
		<polygon class="st0" points="29.86,212.79 12.02,232.79 38.19,243.01 		"/>
		<path class="st0" d="M169.43,25.61l-6.39-1.54c-1.76-0.42-2.84-2.19-2.42-3.95l1.54-6.39c0.42-1.76,2.19-2.84,3.95-2.42l6.39,1.54
			c1.76,0.42,2.84,2.19,2.42,3.95l-1.54,6.39C172.95,24.95,171.19,26.03,169.43,25.61z"/>
		<path class="st2" d="M359.93,35.95l-6.39-1.54c-1.76-0.42-2.84-2.19-2.42-3.95l1.54-6.39c0.42-1.76,2.19-2.84,3.95-2.42l6.39,1.54
			c1.76,0.42,2.84,2.19,2.42,3.95l-1.54,6.39C363.46,35.29,361.69,36.37,359.93,35.95z"/>
		<path class="st2" d="M165.09,18.33l-12.83,2.39c-1.78,0.33-3.49-0.84-3.82-2.62l-2.39-12.83c-0.33-1.78,0.84-3.49,2.62-3.82
			l12.83-2.39c1.78-0.33,3.49,0.84,3.82,2.62l2.39,12.83C168.05,16.28,166.87,17.99,165.09,18.33z"/>
		<path class="st3" d="M472.64,65.02l-13.01,7.51c-4.6,2.66-10.49,1.08-13.15-3.52L438.97,56c-2.66-4.6-1.08-10.49,3.52-13.15
			l13.01-7.51c4.6-2.66,10.49-1.08,13.15,3.52l7.51,13.01C478.82,56.47,477.24,62.36,472.64,65.02z"/>
	</g>
	<g>
		<g>
			<path class="st4" d="M226.34,349.07c-5.99-7.42-12.13-14.1-18.43-19.52c-13.71-11.8-28.41-17.17-39.11-9.99
				c-2.13,1.43-4.15,3.55-5.18,6.96c-7.46-11.02-17.77-21.18-26.73-30.99c-5.33-5.84-40.22-36.1-44.27-17.58
				c-0.35,1.58-0.46,3.35-0.39,5.23c-11.28-15.63-23.26-29.26-35.43-40.45c-8.15-7.5-16.71-14.11-24.46-14.62
				c-7.75-0.51-14.47,6.47-14.73,19.82c-0.11,5.46,0.83,11.53,2.04,17.5c3.44,17.02,9.01,33.69,15.8,49.41
				c-5.44-5.3-11.03-9.45-16.22-10.03c-14.35-1.61-3.48,24.86,6.09,44.26H226.34z"/>
			<path class="st5" d="M34.79,313.49c6.57,7.38,12.22,15.58,16.78,24.35"/>
			<path class="st5" d="M92.19,283.11c16.62,18.96,31.72,38.9,45.14,59.65"/>
			<path class="st5" d="M163.69,326.96c4.03,6.03,8.07,12.07,12.1,18.1"/>
			<path class="st6" d="M25.11,314.9c8.24,10.97,15.79,22.46,22.59,34.37"/>
			<path class="st6" d="M36.4,252.59c22.8,30.86,42.73,63.22,59.57,96.69"/>
			<path class="st6" d="M181.21,326.51c6.06,7.58,12,15.26,17.84,23.05"/>
		</g>
		<g>
			<path class="st4" d="M508.77,316.4c-14.41-17.58-35.9-33.61-48.9-25.47c-2.58,1.62-7.6,9.12-1.22,32.47
				c-6.44-11.24-12.99-23.24-20.59-33.6c-8.26-11.26-16.96-23.53-27.17-33c-11.78-10.92-32.9-33.29-53.36-20.73
				c-5.98,3.67-8.92,11.03-10.41,17.68c-1.71,7.58-1.31,15.44-0.17,22.78c1.54,9.93,19.66,52.74,28.17,72.47h155.35
				C530.47,349,514.45,323.33,508.77,316.4z"/>
			<path class="st6" d="M363.59,248.06c24.28,32.29,44.92,66.15,61.68,101.17"/>
			<path class="st6" d="M478.61,323.41c5.97,8.6,11.81,17.32,17.5,26.15"/>
		</g>
	</g>
	<g>
		<g>
			<path class="st7" d="M204.47,314.08l3.41,21.33c0,0,27.28,0,27.49,0s-3.99-22.79-3.99-22.79"/>
			<g>
				<path class="st8" d="M235.65,330.64h-29.3L204.04,350h50.45C254.96,336.12,239.2,338.65,235.65,330.64z"/>
				<line class="st9" x1="204.47" y1="346.38" x2="254.18" y2="346.38"/>
				<path class="st9" d="M205.47,337.97c0,0,7.72,0.51,10.56,8.41"/>
				<path class="st9" d="M245.73,338.38c0,0-4.68,2.23-6.65,7.99"/>
				<line class="st9" x1="237.53" y1="333.22" x2="233.24" y2="337.59"/>
				<line class="st9" x1="240.16" y1="335.11" x2="235.88" y2="339.48"/>
			</g>
		</g>
		<g>
			<path class="st7" d="M264.46,314.08l3.41,21.33c0,0,27.28,0,27.49,0c0.21,0-3.99-22.79-3.99-22.79"/>
			<g>
				<path class="st8" d="M295.64,330.64h-29.3L264.03,350h50.45C314.96,336.12,299.2,338.65,295.64,330.64z"/>
				<line class="st9" x1="264.46" y1="346.38" x2="314.17" y2="346.38"/>
				<path class="st9" d="M265.47,337.97c0,0,7.72,0.51,10.56,8.41"/>
				<path class="st9" d="M305.73,338.38c0,0-4.68,2.23-6.65,7.99"/>
				<line class="st9" x1="297.53" y1="333.22" x2="293.24" y2="337.59"/>
				<line class="st9" x1="300.16" y1="335.11" x2="295.87" y2="339.48"/>
			</g>
		</g>
		<path class="st10" d="M185.76,141.3c-2.62,10.9-6.61,21.62-7.08,32.92c-0.49,11.78,3.44,23.34,5.62,34.8
			c3.03,15.9,16.95,117.96,16.95,117.96h44.19l-21.54-152.45l4.29-23.23"/>
		<path class="st10" d="M255.86,152.05c0,0,0.28,19.83,0,19.76c-0.28-0.07,44.33,155.16,44.33,155.16h-45.14
			c0,0-48.37-144.08-48.14-152.45c0.24-8.37,3.4-20.01,7.43-28.81"/>
		<line class="st5" x1="238.78" y1="276.32" x2="225.54" y2="187.13"/>
		<path class="st11" d="M188.91,154.84c-0.87,0.44-1.25,1.47-1.54,2.41c-1.37,4.57-2.26,9.29-2.62,14.05
			c5.28-0.24,10.6-1.35,15.22-3.94c4.61-2.58,8.47-6.73,10.04-11.78"/>
		<path class="st12" d="M278.9,96.58c-10.46,24.1-17.89,49.52-22.05,75.46l-77.95-18.36c7.4-26.92,21.17-52.07,39.86-72.81
			L250,73.78l23.73,13.47"/>
	</g>
	<g>
		<g>
			<g>
				<path class="st13" d="M509.53,284.61l9.45,20.23c0,0-31.88,16.8-32.12,16.93c-0.24,0.13-9.29-22.04-9.29-22.04"/>
				<g>
					<path class="st14" d="M482.29,315.35l34.95-16.53l9.89,20.92l-54.37,29.17c-6.39-14.02,6.76-14.81,9.64-28.17
						C483.07,317.65,482.29,315.35,482.29,315.35z"/>
					<line class="st15" x1="525.34" y1="316.4" x2="471.54" y2="345.76"/>
					<path class="st15" d="M474.67,334.53c0,0,6.09-1.34,10.66,3.49"/>
					<line class="st15" x1="481.77" y1="321.86" x2="488.32" y2="323.58"/>
					<line class="st15" x1="482.35" y1="318.32" x2="489.06" y2="319.17"/>
					<line class="st15" x1="479.89" y1="326.79" x2="485.7" y2="328.13"/>
					<path class="st15" d="M517.3,311.62c0.71,2-0.19,4.4-2.01,5.36c-1.82,0.96-3.87,0.11-4.58-1.89c-0.71-2,0.19-4.4,2.01-5.36
						C514.54,308.77,516.59,309.62,517.3,311.62z"/>
				</g>
			</g>
			<g>
				<path class="st13" d="M429.29,305.56l0.41,22.32c0,0-35.95,2.39-36.23,2.41c-0.28,0.02,0.47-23.91,0.47-23.91"/>
				<g>
					<path class="st14" d="M391.9,322.58l38.65-0.9l0.53,23.14l-61.53,4.55c-0.14-15.41,12.19-10.78,20.26-21.82
						C391.67,325,391.9,322.58,391.9,322.58z"/>
					<line class="st15" x1="430.81" y1="341.04" x2="369.71" y2="346"/>
					<path class="st15" d="M377.14,337.01c0,0,6.11,1.25,8.32,7.52"/>
					<line class="st15" x1="388.78" y1="328.32" x2="394.07" y2="332.55"/>
					<line class="st15" x1="390.75" y1="325.32" x2="396.53" y2="328.82"/>
					<line class="st15" x1="385.06" y1="332.06" x2="389.82" y2="335.64"/>
					<path class="st15" d="M425.4,333.4c-0.17,2.12-1.96,3.94-4.01,4.08c-2.05,0.14-3.58-1.47-3.41-3.58
						c0.17-2.12,1.96-3.94,4.01-4.08C424.04,329.67,425.57,331.28,425.4,333.4z"/>
				</g>
			</g>
			<path class="st16" d="M419.54,163.57c0,0-18.95,25.44-28.76,49.11c-4.14,10.01-6.89,31.1-8.76,48.5
				c-1.3,12.09-3.7,50.26-3.7,50.26l53.58,1.17l1.19-78.56c0,0,19.62-34.23,21.93-39.96c2.31-5.72,11.68-18.2,4.6-34.61"/>
			<path class="st15" d="M423.26,312.62c0,0,3.03-68.6,4.65-74.6s29.03-48.6,29.03-48.6"/>
			<path class="st16" d="M445.58,180.76c0,0-5.63,44.49-4.33,55.29c1.35,11.25,3.92,21.17,8.99,34.3
				c7.33,18.97,19.83,44.65,19.83,44.65l46.69-19.28l-29.96-58.41c0,0,4.94-52.42,2.98-68.98c-1.6-13.44-4.34-17.81-11.22-27.2"/>
			<path class="st15" d="M507.42,299.63l-25.39-49.5c-2.96-5.77-4.25-12.24-3.71-18.71c1.32-15.99,3.56-47.11,2.12-59.18
				c-1.6-13.44-4.34-17.81-11.22-27.2"/>
			<line class="st15" x1="441.64" y1="218.99" x2="444.05" y2="186.68"/>
			<path class="st15" d="M456.55,174.94c0,0,5.4,6.62,8.41,6.62c3.01,0,15.82,0,15.82,0"/>
			<path class="st15" d="M453.83,253.8c5.29,3.51,10.41,7.27,15.34,11.28"/>
			<path class="st15" d="M461.95,252.85c2.02,1.07,4.22,1.78,6.48,2.08"/>
			<path class="st15" d="M390.25,237.85c1.3,4.15,2.61,8.29,3.91,12.44"/>
			<path class="st15" d="M394.11,235.71c1.26,2.42,2.81,4.68,4.62,6.73"/>
			<path class="st15" d="M405.48,184.6c4.05-0.1,6.95-0.43,10.93-1.07c0.62-0.1,1.25-0.21,1.8-0.48c0.71-0.35,1.23-0.93,1.73-1.49
				c2.24-2.54,4.47-5.08,6.71-7.62"/>
			<line class="st15" x1="463.03" y1="300.06" x2="509.62" y2="281.81"/>
			<line class="st15" x1="432.14" y1="296.68" x2="379.47" y2="293.94"/>
		</g>
		<g>
			<path class="st17" d="M370.57,130.21l-1.82,5.73l-32-8.08l-4.27,22.81c0,0,24.16,16.22,35.51,19.74
				c11.35,3.52,23.62,2.47,27.13-14.66c3.51-17.12,5.57-28.88,5.57-28.88"/>
			<path class="st18" d="M394.4,95.07c0,0-15.17,0.56-19.5,8.63s-8.37,29.14-8.37,29.14l33.76,7.78l3.01-21.21"/>
			<path class="st18" d="M392.87,98.24c0,0,4.66,4.51,11.46,0.94c6.8-3.57,8.19-13.57,8.19-13.57s9.34-3.47,18.47-2.37
				c13,1.57,19.89,9.09,27.08,19c11.06,15.26,32.54,57.25,32.54,57.25s-11.81,22.78-44.46,26.94c-28.9,3.68-36.61-8.47-36.61-8.47
				l-23.12-65.86L392.87,98.24z"/>
			<line class="st15" x1="397.55" y1="137.98" x2="388.83" y2="118.13"/>
			<g>
				<path class="st19" d="M396.5,107.91c3.79,1.13,8.22,0.47,11.88-1.65c6.68-3.87,11.66-13.5,9.86-21.91"/>
				<path class="st19" d="M388.5,99.26c0.85,3.24,2.54,5.56,4.69,7.07"/>
			</g>
		</g>
		<g>
			<path class="st13" d="M400.47,74.38l9.51,2.21l0.38,3.06l2.67,5.79c0,0,1.07,11.52-9.59,15.99c-6.22,2.61-10.47-1.81-10.47-1.81
				l-4.14-9.69"/>
			<path class="st13" d="M379.51,87.35c-1.95-4.3-2.81-9.43-3.13-13.12c-0.27-3.12-0.3-7.88,1.45-10.54
				c2.25-3.42,6.96-3.98,10.88-4.85c6.42-1.43,11.55,3.98,14.07,9.27c1.93,4.07,3.15,8.35,2.25,12.86
				c-1.46,7.32-8.08,15.37-16.26,14.43C384.32,94.89,381.4,91.51,379.51,87.35z"/>
			<path d="M388.07,76.06c0.14,0.77,0.74,1.31,1.33,1.2c0.59-0.11,0.95-0.83,0.81-1.6c-0.14-0.77-0.74-1.31-1.33-1.2
				C388.28,74.57,387.92,75.28,388.07,76.06z"/>
			<path d="M377.73,78.65c0.14,0.77,0.74,1.31,1.33,1.2c0.59-0.11,0.95-0.83,0.81-1.6s-0.74-1.31-1.33-1.2
				C377.95,77.16,377.58,77.88,377.73,78.65z"/>
			<path class="st15" d="M382.3,76.23c0,0,0.16,3.7-0.07,5.01c-0.17,0.97-0.63,2.53,0.7,2.88c0.83,0.22,2.71-0.13,2.71-0.13"/>
			<path d="M415.19,64.88c0.29,3.09-0.24,6.23-1.49,9.02c-0.23,0.51-3.34,5.74-3.34,5.74l-7.96-9.22c0,0-3.38-1.71-3.88-1.69
				c-1.55,0.07-3.1-0.55-4.33-1.5c-1.52-1.17-2.62-2.8-3.53-4.49c-0.1,1.27-1.44,2.03-2.68,2.22c-2.36,0.36-4.48-0.63-6.2-2.23
				c-0.43,3.18-4.15,6.74-7.36,6.75c-3.73,0.01-7.7-1.58-9.38-5.22c-1.34-2.9-1.12-6.27,0.15-9.02c1.14-2.48,3.52-3.61,6-4.68
				c2.48-1.06,5.86-1.22,7.93-0.62c0.44-1.65,1.9-2.81,3.44-3.48c4.44-1.94,10.15-0.44,13.21,3.47c0.18,0.23,0.37,0.49,0.64,0.59
				c0.29,0.11,0.61,0.03,0.91-0.04c3.33-0.78,7.23-0.64,10.38,0.92C412.43,53.75,414.72,59.93,415.19,64.88z"/>
			<path class="st15" d="M400.35,90.28c-0.15,0.14-3.33,4.92-10.05,5.39"/>
			<path class="st15" d="M386.98,86.72c0.53,0.28,1.06,0.57,1.65,0.68c0.59,0.12,1.24,0.04,1.7-0.33c0.27-0.22,0.46-0.53,0.61-0.85
				c0.49-1.08,0.51-2.36,0.07-3.46"/>
			<g>
				<path class="st20" d="M393.76,74.82c0.02,2.5-1.99,4.54-4.49,4.57c-2.5,0.02-4.54-1.99-4.57-4.49c-0.02-2.5,1.99-4.54,4.49-4.57
					C391.69,70.31,393.74,72.32,393.76,74.82z"/>
				<path class="st20" d="M381.09,77.92c0.02,2.5-1.82,4.54-4.12,4.56c-2.3,0.02-4.17-1.99-4.2-4.49c-0.02-2.5,1.82-4.54,4.12-4.56
					C379.19,73.41,381.07,75.42,381.09,77.92z"/>
				<line class="st20" x1="393.14" y1="72.57" x2="403.98" y2="72.19"/>
				<line class="st20" x1="384.7" y1="74.35" x2="380.22" y2="75.19"/>
			</g>
			<g>
				<path class="st13" d="M398.69,75.38c-0.19-2.32,2.76-4.45,4.89-3.92c5.12,1.28,4.35,10.29-0.16,11.61
					c-1.27,0.37-3.19,0.05-3.8-1.38"/>
				<line class="st15" x1="404.33" y1="75.37" x2="400.47" y2="79.65"/>
				<path class="st15" d="M400.59,72.31c-0.97,0.73-1.71,1.77-2.1,2.94"/>
				<path class="st15" d="M407.14,78.48c-0.45,1.96-1.54,4.09-3.57,4.64c-1.4,0.38-3.1-0.08-3.84-1.5"/>
			</g>
		</g>
		<g>
			<path class="st13" d="M421.97,123.8l1.43,10.02l-29.67-0.65l0.13,24.49c0,0,38.73,7.86,50.26,5.38
				c9.56-2.06,16.94-8.97,14.33-23.73c-3.12-17.68-6.5-29.41-6.5-29.41"/>
			<polyline class="st18" points="416.71,100.05 422.2,128.93 458.55,126.11 454.55,102.87 			"/>
			<line class="st19" x1="420.41" y1="119.5" x2="456.94" y2="116.75"/>
			<line class="st15" x1="458.55" y1="126.11" x2="454.55" y2="102.87"/>
			<line class="st15" x1="416.71" y1="100.05" x2="422.2" y2="128.93"/>
			<path class="st15" d="M423.4,133.82c0,0,15.28-0.66,20.65,1.45"/>
		</g>
	</g>
	<g>
		<g>
			<rect x="159.98" y="333.81" class="st21" width="73.09" height="15.26"/>
			<g>
				<rect x="168.15" y="333.81" class="st22" width="4.26" height="15.26"/>
				<rect x="181.8" y="333.81" class="st22" width="4.26" height="15.26"/>
				<rect x="195.45" y="333.81" class="st22" width="4.26" height="15.26"/>
				<rect x="209.1" y="333.81" class="st22" width="4.26" height="15.26"/>
				<rect x="222.76" y="333.81" class="st22" width="4.26" height="15.26"/>
			</g>
		</g>
		<g>
			<rect x="169.24" y="288.16" class="st21" width="73.09" height="15.26"/>
			<g>
				<rect x="177.4" y="288.16" class="st22" width="4.26" height="15.26"/>
				<rect x="191.05" y="288.16" class="st22" width="4.26" height="15.26"/>
				<rect x="204.71" y="288.16" class="st22" width="4.26" height="15.26"/>
				<rect x="218.36" y="288.16" class="st22" width="4.26" height="15.26"/>
				<rect x="232.01" y="288.16" class="st22" width="4.26" height="15.26"/>
			</g>
		</g>
		<g>
			<rect x="158.31" y="303.42" class="st21" width="73.09" height="15.26"/>
			<g>
				<rect x="166.48" y="303.42" class="st22" width="4.26" height="15.26"/>
				<rect x="180.13" y="303.42" class="st22" width="4.26" height="15.26"/>
				<rect x="193.79" y="303.42" class="st22" width="4.26" height="15.26"/>
				<rect x="207.44" y="303.42" class="st22" width="4.26" height="15.26"/>
				<rect x="221.09" y="303.42" class="st22" width="4.26" height="15.26"/>
			</g>
		</g>
		<g>
			<rect x="154.01" y="318.55" class="st21" width="73.09" height="15.26"/>
			<g>
				<rect x="162.18" y="318.55" class="st22" width="4.26" height="15.26"/>
				<rect x="175.83" y="318.55" class="st22" width="4.26" height="15.26"/>
				<rect x="189.48" y="318.55" class="st22" width="4.26" height="15.26"/>
				<rect x="203.13" y="318.55" class="st22" width="4.26" height="15.26"/>
				<rect x="216.79" y="318.55" class="st22" width="4.26" height="15.26"/>
			</g>
		</g>
		<line class="st23" x1="159.98" y1="333.81" x2="227.1" y2="333.81"/>
		<line class="st23" x1="158.31" y1="317.91" x2="227.1" y2="317.91"/>
		<line class="st23" x1="168.61" y1="303.42" x2="231.4" y2="303.42"/>
		<g>
			<path class="st21" d="M167.58,285.29l-10.59-7.5l-42.35,59.82l10.59,7.5c12.39,8.77,31.91,2.49,43.61-14.03
				C180.54,314.56,179.97,294.06,167.58,285.29z"/>
			<g>
				<defs>
					<path id="SVGID_1_" d="M167.58,285.29l-10.59-7.5l-42.35,59.82l10.59,7.5c12.39,8.77,31.91,2.49,43.61-14.03
						C180.54,314.56,179.97,294.06,167.58,285.29z"/>
				</defs>
				<clipPath id="SVGID_2_">
					<use xlink:href="#SVGID_1_"  style="overflow:visible;"/>
				</clipPath>
				<path class="st24" d="M184.23,306.23l-26-18.4l2.14-3.02l26,18.4L184.23,306.23z M185.88,316.89l-26-18.4l-2.14,3.02l26,18.4
					L185.88,316.89z M185.41,330.57l-26-18.4l-2.14,3.02l26,18.4L185.41,330.57z M152.02,351.71l-26-18.4l-2.14,3.02l26,18.4
					L152.02,351.71z M164.77,346.72l-26-18.4l-2.14,3.02l26,18.4L164.77,346.72z M177.51,341.72l-26-18.4l-2.14,3.02l26,18.4
					L177.51,341.72z"/>
			</g>
			
				<ellipse transform="matrix(0.5778 -0.8162 0.8162 0.5778 -193.8285 240.9994)" class="st25" cx="136.03" cy="307.85" rx="36.65" ry="27.49"/>
			<path class="st5" d="M157.21,277.94c12.39,8.77,12.95,29.27,1.26,45.79c-11.69,16.52-31.22,22.8-43.61,14.03"/>
			
				<ellipse transform="matrix(0.5778 -0.8162 0.8162 0.5778 -193.6821 239.9501)" class="st21" cx="135.09" cy="307.18" rx="28.43" ry="20.17"/>
			<path class="st5" d="M113.02,322.7c-2.68-7.63-0.82-18.1,5.61-27.17c9.07-12.81,23.8-17.99,32.89-11.55"/>
			<path class="st5" d="M156.83,290.84c2.65,5.19,2.15,11.75,0.42,17.15"/>
			<path class="st5" d="M162.18,338.68c2.4-2.21,4.65-4.76,6.66-7.6c8.74-12.34,10.63-26.9,5.87-37.14"/>
		</g>
	</g>
	<g>
		<path class="st26" d="M364.41,308.98l-6.44,37.02c-0.36,2.09-2.03,3.6-3.97,3.6h-23.49c-1.55,0-2.96-0.97-3.64-2.5
			c-5.04-11.38-24.86-59.89-20.77-110.74"/>
		<path class="st26" d="M263.77,308.98l-5.93,33.76c-0.7,3.98-3.91,6.86-7.64,6.86h-16.96c-3.64,0-6.8-2.74-7.59-6.6l-7.33-35.57"/>
		<path class="st27" d="M221.72,179.21c-0.1-0.28-0.23-0.55-0.39-0.79c-2.68-3.97-8.13-3.8-12.35-3.43
			c-5.15,0.45-10.74,0.6-15.79,1.52c-9.28,1.68-4.7,13.43-2.87,19.44c1.21,3.99,4.08,16.14,9.21,17.16
			c4.55,0.9,10.62-9.77,12.53-12.64C214.53,196.78,223.59,184.55,221.72,179.21z"/>
		<g>
			<path class="st27" d="M414.2,203.65c-5.13,0-10.25-2.03-13.88-5.56l2.15-2.22c3.26,3.16,8.14,4.94,12.75,4.65
				c2.52-0.16,6-0.99,8.79-3.94c-4.15-1.81-7.68-6.58-6.57-11.33c0.66-2.86,2.53-4.74,5-5.04c2.55-0.31,5.14,1.21,6.45,3.79
				c1.58,3.11,1.56,7.06,0.13,10.5c0.85-0.05,1.58-0.29,2.2-0.73c1.68-1.19,2.68-4.03,2.68-7.59l3.09-0.01
				c0.01,4.63-1.44,8.32-3.98,10.12c-1.59,1.12-3.5,1.53-5.71,1.21c-0.06,0.07-0.11,0.15-0.17,0.22c-2.8,3.5-6.95,5.59-11.7,5.88
				C415.01,203.64,414.61,203.65,414.2,203.65z M423.11,183.26c-0.1,0-0.2,0.01-0.3,0.02c-1.16,0.14-2,1.09-2.36,2.67
				c-0.82,3.51,2.51,7.02,5.26,7.98c0.05,0.02,0.1,0.03,0.15,0.05c1.38-2.76,1.54-6.11,0.28-8.59
				C425.46,184.09,424.28,183.26,423.11,183.26z"/>
		</g>
		<path class="st26" d="M354.31,329.2h-99.66c-38.66,0-69.99-31.34-69.99-69.99V229.6c0-38.66,31.34-69.99,69.99-69.99h99.66
			c38.66,0,69.99,31.34,69.99,69.99v29.61C424.3,297.86,392.96,329.2,354.31,329.2z"/>
		<g>
			<path class="st27" d="M208.04,220.88h-12.52v59.14h12.52c14.65,0,26.53-13.24,26.53-29.57S222.69,220.88,208.04,220.88z"/>
			<ellipse class="st26" cx="196.69" cy="250.45" rx="26.53" ry="29.57"/>
			<g>
				<path class="st28" d="M204.77,266.67L204.77,266.67c-2.86,0-5.18-2.32-5.18-5.18v-21.69c0-2.86,2.32-5.18,5.18-5.18l0,0
					c2.86,0,5.18,2.32,5.18,5.18v21.69C209.95,264.35,207.63,266.67,204.77,266.67z"/>
				<path class="st27" d="M206.78,235.04L206.78,235.04c-0.62-0.26-1.3-0.41-2.01-0.41c-2.86,0-5.18,2.32-5.18,5.18v21.69
					c0,2.86,2.32,5.18,5.18,5.18c0.71,0,1.39-0.14,2.01-0.41c-1.86-0.79-3.17-2.63-3.17-4.77v-21.69
					C203.62,237.66,204.92,235.82,206.78,235.04z"/>
				<path class="st5" d="M204.77,234.63c2.86,0,5.18,2.32,5.18,5.18v21.69"/>
			</g>
			<g>
				<path class="st28" d="M184.13,266.67L184.13,266.67c-2.86,0-5.18-2.32-5.18-5.18v-21.69c0-2.86,2.32-5.18,5.18-5.18l0,0
					c2.86,0,5.18,2.32,5.18,5.18v21.69C189.31,264.35,186.99,266.67,184.13,266.67z"/>
				<path class="st27" d="M186.14,235.04L186.14,235.04c-0.62-0.26-1.3-0.41-2.01-0.41c-2.86,0-5.18,2.32-5.18,5.18v21.69
					c0,2.86,2.32,5.18,5.18,5.18c0.71,0,1.39-0.14,2.01-0.41c-1.86-0.79-3.17-2.63-3.17-4.77v-21.69
					C182.97,237.66,184.28,235.82,186.14,235.04z"/>
				<path class="st5" d="M184.13,234.63c2.86,0,5.18,2.32,5.18,5.18v12.53"/>
			</g>
			<path class="st5" d="M185.71,223.52c0,0,4.48-3.39,13.88-2.65"/>
			<path class="st5" d="M189.83,279.02c0,0,13.83,5.28,25.21-7.23"/>
		</g>
		<ellipse cx="239.07" cy="209.97" rx="3.9" ry="6.14"/>
		<ellipse cx="206.05" cy="209.97" rx="3.9" ry="6.14"/>
		
			<ellipse transform="matrix(0.9262 -0.3769 0.3769 0.9262 -78.2665 120.7809)" class="st29" cx="269.47" cy="260.37" rx="20.58" ry="20.58"/>
		<path class="st28" d="M353.96,203.84h32.59c-13.41-26.25-40.72-44.23-72.23-44.23h-32.59
			C313.24,159.61,340.55,177.58,353.96,203.84z"/>
		<path class="st27" d="M374.83,203.84h11.72c-13.41-26.25-40.72-44.23-72.23-44.23h-32.59c9.03,0,17.71,1.48,25.82,4.21
			C336.25,164.74,361.17,180.58,374.83,203.84z"/>
		<g>
			<defs>
				<path id="SVGID_3_" d="M353.96,203.84h32.59c12.98-85.01-26.26-94.13-46.73-94.45c-32.12-0.5-58.08,50.22-58.08,50.22
					C313.24,159.61,340.55,177.58,353.96,203.84z"/>
			</defs>
			<clipPath id="SVGID_4_">
				<use xlink:href="#SVGID_3_"  style="overflow:visible;"/>
			</clipPath>
			<g class="st30">
				<path class="st21" d="M356.97,120.63l-12.61-3.04l-17.2,71.25l12.61,3.04c14.76,3.56,30.57-9.5,35.32-29.17
					C379.84,143.03,371.72,124.19,356.97,120.63z"/>
				<g>
					<defs>
						<path id="SVGID_5_" d="M356.97,120.63l-12.61-3.04l-17.2,71.25l12.61,3.04c14.76,3.56,30.57-9.5,35.32-29.17
							C379.84,143.03,371.72,124.19,356.97,120.63z"/>
					</defs>
					<clipPath id="SVGID_6_">
						<use xlink:href="#SVGID_5_"  style="overflow:visible;"/>
					</clipPath>
					<path class="st31" d="M380.18,133.92l-30.96-7.47l0.87-3.59l30.96,7.47L380.18,133.92z M385.66,143.21l-30.96-7.47l-0.87,3.59
						l30.96,7.47L385.66,143.21z M390.28,156.1l-30.96-7.47l-0.87,3.59l30.96,7.47L390.28,156.1z M367.1,188.1l-30.96-7.47
						l-0.87,3.59l30.96,7.47L367.1,188.1z M377.09,178.73l-30.96-7.47l-0.87,3.59l30.96,7.47L377.09,178.73z M387.08,169.37
						l-30.96-7.47l-0.87,3.59l30.96,7.47L387.08,169.37z"/>
				</g>
				
					<ellipse transform="matrix(0.2347 -0.9721 0.9721 0.2347 108.167 443.9216)" class="st25" cx="336.01" cy="153.27" rx="36.65" ry="27.49"/>
				<path class="st5" d="M344.61,117.64c14.76,3.56,22.87,22.4,18.12,42.07c-4.75,19.67-20.56,32.74-35.32,29.17"/>
				
					<ellipse transform="matrix(0.2347 -0.9721 0.9721 0.2347 107.5705 442.6234)" class="st21" cx="334.88" cy="153" rx="28.43" ry="20.17"/>
				<path class="st5" d="M320.13,175.58c-5.32-6.09-7.46-16.51-4.85-27.32c3.68-15.26,15.45-25.52,26.28-22.9"/>
				<path class="st5" d="M349.03,129.77c4.38,3.84,6.35,10.12,6.74,15.77"/>
			</g>
		</g>
		<g>
			<path class="st13" d="M402.97,137.42c-7.31-4.31-15.51-6.73-24.02-7.12c-6.43-0.29-14.44,2.4-17.08,8.93
				c-0.8,1.98-0.97,4.32-0.9,6.43c0.03,0.97,0.66,6.97,2.39,4.86c0.5-0.61,1.57-4.2,1.57-4.2c-0.8,2.26-0.93,4.76-0.35,6.86
				c0.3,1.1,1.08,2.22,2.04,1.76c0.24,1.9,1.63,3.29,3.23,3.23c0.17-0.01,0.34-0.03,0.49,0.04c0.26,0.11,0.39,0.46,0.5,0.77
				c1.01,2.75,3.09,7.78,4.67,6.9c2.2-1.23,0.81-6.97,0.06-8.66c1.3-1.16,2.82-1.89,4.32-2.09c4.31-0.55,7.73,3.23,11.94,3.62
				c2.23,0.21,7.56-1.84,7.56-1.84"/>
			<path class="st15" d="M402.32,156.39c-2,0.47-4,0.93-6.01,1.4"/>
			<path class="st15" d="M370.42,136.6c-1.07,1.03-2.06,2.22-2.92,3.52c-1.24,1.87-2.24,4.02-2.62,6.28"/>
			<path class="st15" d="M365.38,140.37c0.1,1.11,0.14,2.24,0.12,3.38"/>
			<path class="st15" d="M372.83,142.67c-1.16,1.33-2.31,2.69-3.43,4.07c-0.49,0.61-0.98,1.23-1.32,1.97
				c-0.24,0.51-0.39,1.06-0.53,1.61c-0.37,1.42-0.68,2.86-0.93,4.3"/>
			<path class="st15" d="M375.5,147.62c-1.62,1.45-3.11,3.15-4.41,5.04c-0.38,0.56-0.76,1.15-0.93,1.82
				c-0.18,0.71-0.12,1.44-0.01,2.12c0.09,0.53,0.21,1.05,0.36,1.55"/>
			<path class="st15" d="M375.47,157.25c-0.43,0.4-0.81,0.89-1.11,1.44"/>
			<path class="st15" d="M393.52,133.34c2.38,0.92,7.37,2,7.37,2"/>
		</g>
		<path class="st5" d="M372.17,183.88c0,0,7.46,6.26,14.38,19.96h-32.59c-13.41-26.25-40.72-44.23-72.23-44.23"/>
		<path class="st5" d="M219.88,315.01c0,0,14.24,14.19,40.34,14.19c26.1,0,75.21,0,85.76,0s28.74-3.3,38.3-11.3"/>
		<path class="st26" d="M263.59,308.98l6.43,33.76c0.76,3.98,4.24,6.86,8.29,6.86h18.4c3.95,0,7.37-2.74,8.23-6.6l7.95-35.57"/>
		<path class="st26" d="M360.29,308.98l7.05,37.02c0.4,2.09,2.22,3.6,4.35,3.6h25.74c1.7,0,3.24-0.97,3.99-2.5
			c5.52-11.38,27.25-59.89,22.76-110.74"/>
		<line class="st5" x1="266.92" y1="329.66" x2="264.33" y2="312.88"/>
		<line class="st5" x1="308.52" y1="329.86" x2="313.75" y2="303.85"/>
		<line class="st5" x1="364.41" y1="329.96" x2="359.05" y2="297.48"/>
		<g>
			<path class="st27" d="M255.9,178.81c-2.63,2.93,9.32,38.11,15.76,39.99c13.16,3.83,27.42-24.37,28.37-28.9
				c0.86-4.1-0.12-7.35-3.26-8.62C285.95,176.89,261.45,172.62,255.9,178.81z"/>
			<path class="st5" d="M269.47,216.78c6.45,6.67,20.03-20.25,22.01-24.15"/>
			<path class="st5" d="M292.87,189.89c1.13-2.18,2.97-5.41,1.76-7.89c-0.26-0.54-0.67-0.99-0.9-1.55"/>
		</g>
		<g>
			<path class="st13" d="M323.93,114.85c-0.87,0.42-1.34,1.66-1.54,2.82c-0.54-0.91-2.02-0.75-2.73,0.04
				c-0.71,0.79-0.85,1.92-0.96,2.97c-0.9-0.65-2.27-0.23-2.93,0.67c-0.66,0.9-0.73,2.1-0.56,3.2c-0.54-0.23-1.19,0.05-1.55,0.51
				c-0.36,0.46-0.49,1.06-0.56,1.64c-0.49,3.77,0.96,7.75,3.77,10.32c0.27,0.24,0.59,0.49,0.95,0.46c0.68-0.06,0.86-0.96,0.86-1.65
				c0.31,0.68,0.75,1.31,1.28,1.83c0.15,0.14,0.32,0.29,0.52,0.32c0.51,0.08,0.84-0.54,0.87-1.05c0.02-0.51,0.26-0.99,0.18-1.51
				c0.69,0.77,1.45,1.58,2.46,1.77c1.61,0.31,1.81-3.23,1.97-4.21c-0.04,0.75,0.95,1.21,1.65,0.93c0.7-0.28,1.11-1.01,1.37-1.71
				c1.09-2.97,0.54-6.26-0.03-9.36c-0.23-1.26-0.48-2.7-0.48-2.7s1.23-0.81,2.38-1.28C328.7,113.97,325.28,114.18,323.93,114.85z"/>
			<path class="st15" d="M322.35,117.85c0.16,1.19,0.33,2.38,0.49,3.57c0.54,3.93,1.12,7.96,2.99,11.46"/>
			<path class="st15" d="M318.7,120.68c0.07,2.54,0.12,5.12,0.65,7.61c0.54,2.51,1.32,4.96,2.31,7.33"/>
			<path class="st15" d="M315.13,124.57c0.54,3.98,1.74,7.83,3.53,11.26"/>
			<line class="st15" x1="328.44" y1="120.15" x2="328.44" y2="117.36"/>
		</g>
	</g>
	<g>
		<g>
			<path class="st21" d="M405.68,249.7l12.95-0.7L426.4,322l-12.95,0.7c-15.16,0.81-29.18-14.87-31.33-35.02
				S390.53,250.51,405.68,249.7z"/>
			<g>
				<defs>
					<path id="SVGID_7_" d="M405.68,249.7l12.95-0.7L426.4,322l-12.95,0.7c-15.16,0.81-29.18-14.87-31.33-35.02
						S390.53,250.51,405.68,249.7z"/>
				</defs>
				<clipPath id="SVGID_8_">
					<use xlink:href="#SVGID_7_"  style="overflow:visible;"/>
				</clipPath>
				<path class="st32" d="M380.44,254.84l31.8-1.71l0.39,3.68l-31.8,1.71L380.44,254.84z M374.55,270.32l31.8-1.71l-0.39-3.68
					l-31.8,1.71L374.55,270.32z M368.26,282.12l31.8-1.71l-0.39-3.68l-31.8,1.71L368.26,282.12z M387.13,317.71l31.8-1.71
					l-0.39-3.68l-31.8,1.71L387.13,317.71z M378.42,306.71l31.8-1.71l-0.39-3.68l-31.8,1.71L378.42,306.71z M369.7,295.72l31.8-1.71
					l-0.39-3.68l-31.8,1.71L369.7,295.72z"/>
			</g>
			
				<ellipse transform="matrix(0.9853 -0.171 0.171 0.9853 -42.6097 76.4267)" class="st25" cx="422.26" cy="285.51" rx="27.4" ry="36.77"/>
			<path class="st5" d="M418.38,249.02c-15.16,0.81-25.7,17.81-23.56,37.97c2.14,20.16,16.17,35.84,31.33,35.02"/>
			
				<ellipse transform="matrix(0.9875 -0.1575 0.1575 0.9875 -39.6724 70.2473)" class="st21" cx="423.41" cy="285.45" rx="20.11" ry="28.51"/>
			<path class="st5" d="M435.14,310.28c6.09-5.01,9.59-14.84,8.41-25.91c-1.66-15.64-12.03-27.83-23.15-27.23"/>
			<path class="st5" d="M412.38,260.1c-4.86,2.97-7.65,8.77-8.78,14.24"/>
		</g>
		<g>
			<rect x="384.29" y="335.6" class="st21" width="73.09" height="13.92"/>
			<g>
				<rect x="392.45" y="335.6" class="st22" width="4.26" height="13.92"/>
				<rect x="406.1" y="335.6" class="st22" width="4.26" height="13.92"/>
				<rect x="419.76" y="335.6" class="st22" width="4.26" height="13.92"/>
				<rect x="433.41" y="335.6" class="st22" width="4.26" height="13.92"/>
				<rect x="447.06" y="335.6" class="st22" width="4.26" height="13.92"/>
			</g>
		</g>
		<g>
			<rect x="378.31" y="321.68" class="st21" width="73.09" height="13.92"/>
			<g>
				<rect x="386.48" y="321.68" class="st22" width="4.26" height="13.92"/>
				<rect x="400.13" y="321.68" class="st22" width="4.26" height="13.92"/>
				<rect x="413.79" y="321.68" class="st22" width="4.26" height="13.92"/>
				<rect x="427.44" y="321.68" class="st22" width="4.26" height="13.92"/>
				<rect x="441.09" y="321.68" class="st22" width="4.26" height="13.92"/>
			</g>
		</g>
		<line class="st5" x1="384.29" y1="335.6" x2="451.4" y2="335.6"/>
		<line class="st5" x1="391.23" y1="321.86" x2="430.58" y2="321.86"/>
	</g>
	<g>
		<g>
			<path class="st33" d="M216.93,68.77c-8.59,4.65-16.28,10.81-22.96,17.92c-5.47,5.81-11.1,12.74-14.5,20.02
				c-10.85,23.27,14.55,41.58,30.18,54.66c1.27,1.06,2.55,2.12,3.84,3.16l19.13-18.17l-22.67-28.73l15.69-24.88"/>
			<path class="st12" d="M231.48,93.41l-15.87,21.75l-27.7-23.22c0,0,17.19-18.43,24.74-22.79c8.2-4.72,14.26-4.87,21.34-2.14
				c7.46,2.88,15.34,7.08,15.34,7.08"/>
			<g>
				<path class="st33" d="M206.16,157.44c3.55,4.78,7.91,8.98,12.82,12.35c1.13,0.78,2.31,1.52,3.62,1.92
					c1.26,0.39,2.6,0.46,3.92,0.46c3.32,0,6.63-0.41,9.95-0.18c1.48,0.1,3.4,0.22,4.74,0.93c0.55,0.29,1.01,0.8,1.56,1.14
					c0.71,0.45,1.46,0.85,2.22,1.2c0.74,0.34,1.52,0.64,2.34,0.66c1.12,0.03,2.24-0.51,2.92-1.4c1.23,0.8,3.18,0.58,4.5-0.04
					c0.59,0.56,1.78,0.6,2.46,0.15c0.68-0.46,0.59-0.98,0.88-1.74c0.08-0.22,0.16-0.44,0.17-0.67c0.01-0.3-0.08-0.6-0.13-0.9
					c-0.09-0.59,0.14-0.95,0.26-1.48c0.12-0.51-0.13-1.06-0.33-1.53c-2.04-4.77-3.56-10.8-8.06-14.01
					c-2.67-1.91-5.74-3.22-8.76-4.45c-4.6-1.87-9.76-3.19-12.98-6.97"/>
				<path class="st15" d="M236.14,165.63c2.65,0.62,5.27,1.4,7.7,2.62c2.43,1.22,4.8,4.07,6.41,6.27"/>
				<path class="st15" d="M243.07,161.27c2.55,1.4,4.86,3.24,6.8,5.41c2.1,2.36,4.89,7.81,4.89,7.81"/>
				<path class="st15" d="M247.37,157.6c2.54,1.37,4.65,3.55,6.38,6c1.73,2.44,3.39,4.95,4.48,8.45"/>
			</g>
			<line class="st15" x1="215.61" y1="115.16" x2="229.67" y2="95.89"/>
			<line class="st15" x1="221.37" y1="107.26" x2="194.51" y2="85.11"/>
			<path class="st15" d="M201.21,113.94c3.37,0.92,6.61,2.43,9.55,4.47"/>
			<path class="st15" d="M222.73,172.04c2.32,0.34,4.66,0.46,7,0.45c2.25-0.02,4.51-0.31,6.76-0.24c2.14,0.07,4.27,0.65,6.23,1.67
				c1.25,0.66,2.45,1.51,3.8,1.84c1.35,0.33,2.93,0.01,3.74-1.28c0.88,0.83,2.49,0.7,3.53,0.15c0.2-0.11,0.41-0.24,0.63-0.25
				c0.25,0,0.47,0.15,0.69,0.27c0.83,0.43,2.06,0.36,2.76-0.32c0.7-0.68,0.52-1.6,0.31-2.62"/>
			<path class="st15" d="M258.23,172c0.68-2.6-0.16-5.35-1.34-7.76c-0.6-1.23-1.87-3.93-1.87-3.93"/>
		</g>
		<g>
			<path class="st12" d="M257.9,79.98c4.67-0.25,9.35-0.76,14.02-0.49c6.87,0.39,14.75,2.6,17.49,9.43
				c2.94,7.32,3.41,15.35,3.83,28.51l-27.84-2.21l-0.47-17.79"/>
			<line class="st15" x1="265.19" y1="107.26" x2="292.94" y2="109.71"/>
		</g>
		<g>
			<path class="st33" d="M251.35,53.11l-10.65,17.87c0,0,0.24,10.62,9.23,14.66c7.07,3.17,13.15-1.11,13.15-1.11l4.41-8.89"/>
			<path class="st34" d="M286.96,52.47c0,0,6.5,15.91,6.5,25.12l-26.78-2.25l-0.79-22.3"/>
			<path class="st33" d="M283.95,60.85c0.86-3.27,0.84-6.74-0.54-9.88c-1.77-4.05-5.78-7.1-9.78-8.73
				c-6.58-2.68-13.01,2.14-16.65,7.32c-2.8,3.98-4.54,7.6-4.4,12.55c0.23,8.06,5.49,18.54,14.36,19.03
				c4.94,0.27,9.12-2.73,11.2-6.89C280.21,70.09,282.72,65.56,283.95,60.85z"/>
			<path class="st15" d="M277,63.79c-0.17,1.12-0.21,2.25-0.12,3.38c0.07,0.86,0.21,1.73,0.11,2.58c-0.11,0.86-1.04,1.35-2.23,1.19"
				/>
			<path d="M270.08,62.67c-0.33,0.89-1.15,1.4-1.83,1.15c-0.68-0.25-0.96-1.18-0.63-2.07s1.15-1.4,1.83-1.15
				C270.13,60.85,270.42,61.78,270.08,62.67z"/>
			<path d="M281.75,64.93c-0.33,0.89-1.15,1.4-1.83,1.15c-0.68-0.25-0.96-1.18-0.63-2.07c0.33-0.89,1.15-1.4,1.83-1.15
				C281.79,63.11,282.08,64.04,281.75,64.93z"/>
			<path class="st15" d="M272.82,57.09c-0.29-0.66-0.97-1.06-1.67-1.24c-1.53-0.4-3.18,0.1-4.48,0.99"/>
			<path class="st15" d="M280.35,58.56c1.31-0.65,2.7,0.12,3.18,1.91"/>
			<path class="st15" d="M253.23,67.88c0.78,7.01,5.68,11.37,11.69,13.49"/>
			<path class="st15" d="M271.71,70.35c-0.54,1.24-1.09,3.69,0.88,3.89c0.8,0.08,1.63-0.23,2.17-0.81"/>
			<path class="st34" d="M289.04,53.95c0.58-5.66-2.33-8.65-5.52-11.66c-2.99-7.55-6.51-10.84-13.78-12.07
				c-6.07-1.02-17.21,2.17-23.48,9.19c-12.21,13.68-13.23,24.38-13.23,24.38l24.67,10.46c0,0,0.67-18.56-0.13-19.2
				c0,0,12.83-2.54,21.99-8.1c4.29,3.06,5.82,10.23,3.66,16.24C283.23,63.2,288.19,62.31,289.04,53.95z"/>
			<g>
				<path class="st33" d="M260.71,57.71c0.29-2.48-2.88-4.98-5.25-4.55c-5.7,1.01-5.17,10.75-0.24,12.48
					c1.39,0.49,3.52,0.28,4.24-1.21"/>
				<line class="st15" x1="254.48" y1="57.3" x2="258.59" y2="62.17"/>
				<path class="st15" d="M259.38,54.64c0.78,0.74,1.33,1.73,1.53,2.79"/>
				<path class="st15" d="M253.63,64.63c0.77,0.79,1.7,1.48,2.78,1.71c1.08,0.22,2.33-0.13,2.93-1.06"/>
			</g>
			<path class="st35" d="M243.24,37.63c15.23,8.45,30.9,17.05,48.26,19.68c0,0-1.23-4.3-1.23-6.87c0-2.57-1.45-11.5-2.82-13.48
				c-3.51-5.08-16.3-11.4-22.31-10.91c-6.01,0.49-12.67,6.25-15.22,7.97C247,35.98,243.24,37.63,243.24,37.63z"/>
			<path class="st15" d="M249.28,34.56c6.59,4.25,13.92,7.18,21.2,10.09c1.65,0.66,3.29,1.32,4.94,1.97"/>
			<path class="st15" d="M279.51,48.31c3.55,1.2,7.51,2.37,10.87,2.86"/>
		</g>
		<g>
			<path class="st33" d="M292.09,117.36l-6.23-0.71c-3.18-8.65-6.58-17.21-10.19-25.69l-16.09,9.66c1.48,7.08,1.74,15.63,3.22,22.71
				c1.38,6.62,5.59,22.07,15.32,22.39c6.01,0.2,9.69-3.61,12.09-8.74C293.16,130.67,292.01,124.05,292.09,117.36z"/>
			<g>
				<path class="st33" d="M279.56,100.62c-1.43-4.02-2.58-8.14-4.28-12.05c-1.2-2.76-2.78-5.37-4.72-7.67
					c-1.92-2.27-4.31-4.59-7.07-5.78c-1.8-0.78-3.7-0.09-5.39,0.63c-1,0.42-1.99,0.85-2.99,1.27c-0.19,0.08-0.4,0.18-0.5,0.36
					c-0.21,0.39,0.18,0.82,0.56,1.06c0.58,0.36,1,0.26,1.66,0.44c-0.61,0.13-1.19,0.6-1.52,0.97c-0.48,0.54-0.5,0.82-0.37,1.55
					c-0.7-0.07-1.36,0.27-1.74,0.86c-0.37,0.58-0.46,1.3-0.39,1.99c0.02,0.18,0.04,0.37-0.04,0.53c-0.1,0.2-0.32,0.29-0.51,0.4
					c-3.86,2.16-0.42,7.49,1.79,9.53c0.15,0.14,0.32,0.29,0.52,0.34c0.37,0.09,0.75-0.15,0.94-0.48c0.19-0.33,0.23-0.72,0.26-1.09
					c2.47,5.18,0.85,9.92,5.08,13.8"/>
				<path class="st15" d="M270.56,80.9c-1.92-2.27-4.31-4.59-7.07-5.78c-1.8-0.78-2.54-0.33-2.54-0.33"/>
				<path class="st15" d="M256.48,78.89c1.86-0.4,2.6-0.67,4.5-0.41c1.9,0.27,4.06,1.65,5.28,3.06"/>
				<path class="st15" d="M254.94,81.39c0,0,2.16-0.02,4.69,1.15c1.48,0.69,3.24,2.21,3.24,2.21"/>
				<path class="st15" d="M252.77,84.77c1.36,0.17,2.69,0.55,3.89,1.22c1.13,0.62,2.02,1.55,2.93,2.45"/>
				<line class="st15" x1="255.77" y1="93.47" x2="252.92" y2="88.59"/>
			</g>
			<line class="st15" x1="285.86" y1="116.65" x2="289.31" y2="128.05"/>
			<path class="st15" d="M261.06,107.26c0.73,1.63,1.46,3.26,2.19,4.89"/>
		</g>
	</g>
	<g>
		<g>
			<path class="st36" d="M63.38,198.56c0,0-3.08,16.95-0.77,26.98c2.64,11.47,17.27,43.89,17.27,43.89l-20.09,44.01l26.68,11.36
				c0,0,23.37-39.67,25.42-46.62c2.06-6.95,2.05-19.85-4.9-36.56c-6.38-15.35-17.15-36.51-17.15-36.51"/>
			<g>
				<path class="st37" d="M89.95,321.27l-29.52-11.44l-9.54,19.54l50.23,20.3C103.84,335.59,86.31,332.33,89.95,321.27z"/>
				<line class="st38" x1="52.45" y1="326.1" x2="101.4" y2="345.83"/>
				<path class="st38" d="M95.69,334.78c0,0-4.91,0.47-7.77,5.62"/>
				<line class="st38" x1="89.2" y1="327.05" x2="84.32" y2="329.87"/>
				<line class="st38" x1="91.45" y1="330.02" x2="86.57" y2="332.84"/>
				<path class="st39" d="M97.1,325.94c0.24,0.21,0.48,0.46,0.57,0.8c0.16,0.59-0.18,1.31-0.65,1.71c-0.47,0.4-1.06,0.57-1.62,0.69
					c-1.45,0.33-6.26-2.12-6.26-2.12S95.33,324.42,97.1,325.94z"/>
				<path class="st39" d="M94.14,319.24c0.32-0.11,0.66-0.2,0.96-0.1c0.53,0.16,0.79,0.84,0.74,1.49c-0.05,0.64-0.34,1.26-0.64,1.84
					c-0.78,1.49-5.83,4.61-5.83,4.61S91.85,320.06,94.14,319.24z"/>
				<line class="st38" x1="68.67" y1="332.64" x2="64.24" y2="320.91"/>
				<line class="st38" x1="62.81" y1="330.28" x2="59.78" y2="322.25"/>
			</g>
			<path class="st36" d="M132.64,193.76c0,0,13.86,24.42,16.65,29.76c2.79,5.34,11.63,19.91,16.75,33.86
				c5.12,13.95,17.08,57.62,17.08,57.62l-30.45,6.82l-19-61.1c0,0-25.54-32.07-33.11-46.22c-5.18-9.67-4.78-28.19-4.23-32.78"/>
			<g>
				<path class="st37" d="M182.18,311.56l-30.55,8.31l3.92,21.39l52.47-13.47C201.86,314.84,185.81,322.62,182.18,311.56z"/>
				<line class="st38" x1="154.86" y1="337.71" x2="205.97" y2="324.52"/>
				<path class="st38" d="M194.81,319.02c0,0-3.68,3.29-2.92,9.13"/>
				<line class="st38" x1="185.01" y1="316.66" x2="182.75" y2="321.82"/>
				<line class="st38" x1="188.58" y1="317.71" x2="186.33" y2="322.87"/>
				<path class="st39" d="M190.71,311.08c0.32,0.03,0.66,0.09,0.94,0.31c0.48,0.38,0.63,1.16,0.49,1.77
					c-0.14,0.61-0.51,1.08-0.89,1.52c-0.97,1.12-6.29,2.01-6.29,2.01S188.38,310.89,190.71,311.08z"/>
				<path class="st39" d="M184.35,307.44c0.19-0.28,0.41-0.55,0.71-0.65c0.52-0.18,1.14,0.21,1.48,0.76
					c0.34,0.55,0.47,1.22,0.57,1.86c0.26,1.66-1.96,7.17-1.96,7.17S182.99,309.46,184.35,307.44z"/>
				<line class="st38" x1="171.8" y1="333.34" x2="161.28" y2="326.53"/>
				<line class="st38" x1="165.68" y1="334.92" x2="158.48" y2="330.25"/>
			</g>
			<line class="st15" x1="79.87" y1="269.42" x2="82.42" y2="274.85"/>
		</g>
		<g>
			<path class="st14" d="M121.01,170.86l-23.24-8.83l-34.45,2.71l-4.94,6.11c0,0-8.06,11.83-3.92,32.56
				c4.15,20.73,10.8,40.31,10.8,40.31l88.92-19.58L121.01,170.86z"/>
			<path class="st40" d="M67.21,168.79c0,0-8.06,11.83-3.92,32.56c4.15,20.73,10.8,40.31,10.8,40.31"/>
			<path class="st40" d="M64.63,207.66l8.02-1.54c6.87-1.32,11.78-7.42,11.59-14.42l-0.53-19.03"/>
			<path class="st40" d="M109.33,169.52l7.27,15.45c3.07,7.32,10.82,11.52,18.63,10.1l0.64-0.12"/>
			<path class="st15" d="M98.55,221.46c7.97-4.35,15.07-10.28,20.78-17.34"/>
			<path class="st15" d="M94.61,209.7c5.15-2.15,10.3-4.29,15.45-6.44"/>
		</g>
		<g>
			<path class="st41" d="M113.88,133.73c0,0,16.89,21.9,31.42,18.63c13.3-2.99,35.17-39.39,35.17-39.39l-21.25-14.35l-19.62,22.23
				l-12.35-10.3"/>
			<path class="st42" d="M104.36,95.76c4.74,0.43,8.12,0.85,12.02,3.62c7.62,5.41,21.94,17.26,21.94,17.26l-19.2,25.07l-24.83-21.66
				"/>
			<path class="st43" d="M134.5,113.51c-0.35-0.29-17.51,23.86-17.51,23.86"/>
			<path class="st43" d="M131.4,110.98c-0.35-0.29-17.51,23.86-17.51,23.86"/>
			<path class="st43" d="M129.76,109c-0.35-0.29-17.51,23.86-17.51,23.86"/>
			<path class="st42" d="M100.94,93.08l17.61,15.66c0,0,5.06,11.14,5.07,21.1c0.01,9.96-0.97,14.51-0.97,17.77
				c0,3.27,4.38,23.25,4.38,23.25H58.37c0,0-3.39-30.82,0.26-47.1c4.61-20.56,23.29-30.05,23.29-30.05"/>
			<line class="st15" x1="98.56" y1="102.05" x2="103.28" y2="122.91"/>
			<path class="st15" d="M120.16,113.06c4.39,11.29,3.64,21.79,2.79,30.19"/>
			<path d="M101.37,121.23c0,0.74-0.6,1.33-1.33,1.33s-1.33-0.6-1.33-1.33c0-0.74,0.6-1.33,1.33-1.33S101.37,120.49,101.37,121.23z"
				/>
			<circle cx="98.14" cy="112.48" r="1.33"/>
		</g>
		<path class="st36" d="M85.83,79.61c-0.15,0.1-7.51,15.96-7.51,15.96s6.85,9.48,20.04,6.45c4.04-0.93,4.92-4.1,4.92-4.1l0.63-9.74"
			/>
		<g>
			<path class="st44" d="M106.9,75.94c2.14,2.19,5.65,2.22,7.84,0.08c2.19-2.14,2.22-5.65,0.08-7.84c-2.14-2.19-5.65-2.22-7.84-0.08
				C104.8,70.24,104.76,73.75,106.9,75.94z"/>
			<path class="st44" d="M116.41,72.63c1.66,1.7,4.39,1.73,6.09,0.06c1.7-1.66,1.73-4.39,0.06-6.09c-1.66-1.7-4.39-1.73-6.09-0.06
				C114.78,68.21,114.75,70.93,116.41,72.63z"/>
			<path class="st44" d="M124.52,67.2c1.36,1.39,3.58,1.41,4.97,0.05s1.41-3.58,0.05-4.97c-1.36-1.39-3.58-1.41-4.97-0.05
				C123.19,63.59,123.17,65.81,124.52,67.2z"/>
			<path class="st44" d="M130.67,60.42c1.15,1.17,3.03,1.19,4.21,0.04c1.17-1.15,1.19-3.03,0.04-4.21
				c-1.15-1.17-3.03-1.19-4.21-0.04C129.54,57.37,129.52,59.25,130.67,60.42z"/>
			<path class="st44" d="M128.64,43.01c1.55-1.6,5.47-3.91,10.41-2.14c1.67,0.6,5.14,2.96,4.76,5.27c-0.47,2.85-2.65,5.24-4.55,7.29
				c-0.65,0.7-1.48,1.3-2.43,1.36c-0.52,0.03-1.03-0.1-1.54-0.23c-0.61-0.16-1.22-0.32-1.82-0.48c-0.97-0.26-1.24-4.71-1.55-5.74
				C131.3,46.33,130.34,44.32,128.64,43.01z"/>
			<path class="st36" d="M99.84,60.08c-2.54-2.02-5.58-3.35-8.88-3.36c-4.24-0.01-8.47,2.32-11.46,5.2
				c-4.91,4.73-3.17,12.25-0.04,17.45c2.4,4,4.91,6.93,9.31,8.73c7.16,2.93,18.4,2.38,22.27-5.22c2.16-4.23,1.14-9.06-1.7-12.5
				C106.5,66.94,103.49,62.99,99.84,60.08z"/>
			<path class="st15" d="M99.6,67.87c0.83,0.7,1.74,1.3,2.71,1.78c0.74,0.37,1.52,0.69,2.17,1.2c0.65,0.51,0.59,1.52-0.13,2.42"/>
			<path d="M95.58,72.39c0.56,0.71,0.58,1.64,0.03,2.07c-0.55,0.43-1.45,0.2-2.01-0.51c-0.56-0.71-0.58-1.64-0.03-2.07
				C94.12,71.45,95.02,71.68,95.58,72.39z"/>
			<path d="M104.27,65.25c0.56,0.71,0.58,1.64,0.03,2.07c-0.55,0.43-1.45,0.2-2.01-0.51c-0.56-0.71-0.58-1.64-0.03-2.07
				C102.81,64.31,103.71,64.53,104.27,65.25z"/>
			<path class="st45" d="M105.74,75.62L105.74,75.62c-0.89-0.08-1.61,0.78-1.32,1.63c0.15,0.43,0.42,0.79,0.91,0.87
				c0.64,0.11,1.06-0.16,1.34-0.56C107.23,76.79,106.69,75.71,105.74,75.62z"/>
			<path class="st15" d="M92.38,67.36c-0.68-0.09-1.36,0.27-1.85,0.75c-1.09,1.05-1.51,2.66-1.42,4.17"/>
			<path class="st15" d="M98.36,63.22c0.12-1.4,1.44-2.15,3.15-1.65"/>
			<path class="st44" d="M96.95,48.83c-4.84-2.53-9.52-1.76-13.11,1.14C76.07,49.66,67,55.9,64.66,61.59
				c-1.62,3.94-1.8,8.44-0.81,12.56c1.3,5.42,4,10.82,9.32,12.86c3.55,1.36,6.61,1.75,10.27,0.84c0,0-2.16-7.72-3.03-7.26
				c0,0,6.86-11.87,5.53-22.06c4.35-2.58,11.23-1.14,15.67,3.09C101.62,61.62,105.97,53.55,96.95,48.83z"/>
			<g>
				<path class="st36" d="M84.44,79.89C82.78,78.16,79,79,77.87,81.02c-2.71,4.85,4.84,10.38,9.12,7.76
					c1.21-0.74,2.34-2.45,1.68-3.89"/>
				<line class="st15" x1="80.35" y1="84.26" x2="86.46" y2="84.17"/>
				<path class="st15" d="M81.35,79.01c1.03-0.13,2.09,0.07,3,0.55"/>
				<path class="st15" d="M85.28,89.34c1.06-0.09,2.14-0.36,2.96-1.03c0.82-0.67,1.32-1.81,0.99-2.82"/>
			</g>
			<path class="st15" d="M94.09,89.76c3.58,0.77,7.45,0.3,10.78-1.32"/>
			<line class="st46" x1="83.84" y1="72.93" x2="77.29" y2="70.57"/>
			<line class="st46" x1="85.18" y1="68.48" x2="78.67" y2="66.03"/>
			<line class="st46" x1="97.77" y1="58.92" x2="98.36" y2="53.59"/>
			<circle class="st44" cx="69.84" cy="90.06" r="5.54"/>
			<circle class="st44" cx="61.97" cy="94.36" r="4.31"/>
			<path class="st44" d="M56.95,96.41c0,1.94-1.57,3.51-3.51,3.51c-1.94,0-3.51-1.57-3.51-3.51c0-1.94,1.57-3.51,3.51-3.51
				C55.37,92.9,56.95,94.47,56.95,96.41z"/>
			<path class="st44" d="M47.81,95.87c0,1.64-1.33,2.97-2.97,2.97c-1.64,0-2.97-1.33-2.97-2.97c0-1.64,1.33-2.97,2.97-2.97
				C46.48,92.9,47.81,94.23,47.81,95.87z"/>
			<path class="st44" d="M37.08,82.01c-2.22-0.06-6.65,1.03-8.93,5.75c-0.77,1.6-1.6,5.71,0.28,7.09c2.33,1.71,5.56,1.89,8.35,2.03
				c0.95,0.05,1.97-0.1,2.69-0.72c0.39-0.34,0.67-0.79,0.93-1.24c0.32-0.54,0.64-1.08,0.97-1.62c0.52-0.87-2.41-4.23-2.91-5.19
				C37.51,86.25,36.79,84.14,37.08,82.01z"/>
		</g>
		<path class="st47" d="M98.36,102.02c-9.59,1.96-18.88-8.94-18.88-8.94l-4.56,3.53c0,0,1.83,13.01,12.99,14.61
			C100.27,112.99,98.36,102.02,98.36,102.02z"/>
		<path class="st47" d="M98.56,102.05c4.72-2.6,4.92-7.17,4.92-7.17s13.24,3.27,6.65,9.64C103.11,111.31,98.56,102.05,98.56,102.05z
			"/>
		<g>
			<g>
				
					<rect x="109.36" y="123.01" transform="matrix(0.9831 -0.183 0.183 0.9831 -21.3244 28.9016)" class="st21" width="73.09" height="13.92"/>
				<g>
					
						<rect x="117.97" y="127.82" transform="matrix(0.9831 -0.183 0.183 0.9831 -22.6387 24.2583)" class="st22" width="4.26" height="13.92"/>
					
						<rect x="131.4" y="125.32" transform="matrix(0.9831 -0.183 0.183 0.9831 -21.9551 26.6732)" class="st22" width="4.26" height="13.92"/>
					
						<rect x="144.82" y="122.82" transform="matrix(0.9831 -0.183 0.183 0.9831 -21.2726 29.0901)" class="st22" width="4.26" height="13.92"/>
					
						<rect x="158.24" y="120.32" transform="matrix(0.9831 -0.183 0.183 0.9831 -20.5884 31.5046)" class="st22" width="4.26" height="13.92"/>
					
						<rect x="171.66" y="117.82" transform="matrix(0.9831 -0.183 0.183 0.9831 -19.9025 33.9155)" class="st22" width="4.26" height="13.92"/>
				</g>
			</g>
			<g>
				
					<rect x="112.96" y="79.98" transform="matrix(0.9831 -0.183 0.183 0.9831 -13.3877 28.8317)" class="st25" width="73.09" height="13.92"/>
				<g>
					
						<rect x="121.57" y="84.79" transform="matrix(0.9831 -0.183 0.183 0.9831 -14.7024 24.1887)" class="st48" width="4.26" height="13.92"/>
					
						<rect x="134.99" y="82.29" transform="matrix(0.9831 -0.183 0.183 0.9831 -14.0184 26.603)" class="st48" width="4.26" height="13.92"/>
					
						<rect x="148.41" y="79.79" transform="matrix(0.9831 -0.183 0.183 0.9831 -13.3343 29.0173)" class="st48" width="4.26" height="13.92"/>
					
						<rect x="161.83" y="77.29" transform="matrix(0.9831 -0.183 0.183 0.9831 -12.6513 31.4349)" class="st48" width="4.26" height="13.92"/>
					
						<rect x="175.25" y="74.79" transform="matrix(0.9831 -0.183 0.183 0.9831 -11.9672 33.8494)" class="st48" width="4.26" height="13.92"/>
				</g>
			</g>
			<g>
				
					<rect x="106.41" y="95.36" transform="matrix(0.9831 -0.183 0.183 0.9831 -16.3133 27.8927)" class="st25" width="73.09" height="13.92"/>
				<g>
					
						<rect x="115.02" y="100.17" transform="matrix(0.9831 -0.183 0.183 0.9831 -17.6296 23.2523)" class="st48" width="4.26" height="13.92"/>
					
						<rect x="128.44" y="97.67" transform="matrix(0.9831 -0.183 0.183 0.9831 -16.9439 25.664)" class="st48" width="4.26" height="13.92"/>
					
						<rect x="141.86" y="95.17" transform="matrix(0.9831 -0.183 0.183 0.9831 -16.2599 28.0783)" class="st48" width="4.26" height="13.92"/>
					
						<rect x="155.28" y="92.67" transform="matrix(0.9831 -0.183 0.183 0.9831 -15.5758 30.4926)" class="st48" width="4.26" height="13.92"/>
					
						<rect x="168.7" y="90.17" transform="matrix(0.9831 -0.183 0.183 0.9831 -14.893 32.9104)" class="st48" width="4.26" height="13.92"/>
				</g>
			</g>
			<g>
				
					<rect x="114.86" y="107.83" transform="matrix(0.9831 -0.183 0.183 0.9831 -18.4524 29.6505)" class="st21" width="73.09" height="13.92"/>
				<g>
					
						<rect x="123.47" y="112.63" transform="matrix(0.9831 -0.183 0.183 0.9831 -19.767 25.0074)" class="st22" width="4.26" height="13.92"/>
					
						<rect x="136.89" y="110.14" transform="matrix(0.9831 -0.183 0.183 0.9831 -19.0829 27.4217)" class="st22" width="4.26" height="13.92"/>
					
						<rect x="150.31" y="107.64" transform="matrix(0.9831 -0.183 0.183 0.9831 -18.4005 29.8393)" class="st22" width="4.26" height="13.92"/>
					
						<rect x="163.73" y="105.14" transform="matrix(0.9831 -0.183 0.183 0.9831 -17.7148 32.2503)" class="st22" width="4.26" height="13.92"/>
					
						<rect x="177.16" y="102.64" transform="matrix(0.9831 -0.183 0.183 0.9831 -17.0308 34.6646)" class="st22" width="4.26" height="13.92"/>
				</g>
			</g>
			<line class="st5" x1="116.74" y1="128.33" x2="180.56" y2="116.44"/>
			<line class="st5" x1="114.1" y1="114.06" x2="180" y2="101.79"/>
			<line class="st5" x1="114.23" y1="100.59" x2="177.6" y2="88.79"/>
		</g>
		<g>
			<path class="st36" d="M74.39,104.2c-6.28-0.13-5.87-5.91-11.01-2.3c-5.23,3.66-7.63,10.08-9.65,16.14
				c-4.82,14.45-8.72,30.4-7.91,45.73c0.23,4.26,0.92,8.67,3.34,12.18c4.39,6.38,12.88,5.42,19.49,3.84
				c8.76-2.09,17.06-5.89,25.24-9.53c7.79-3.47,23.1-10.97,23.1-10.97l-10.92-21.77c-6.02,4.14-30.84,11.85-30.69,11.34l2.68-28.73"
				/>
			<line class="st15" x1="75.39" y1="148.85" x2="62.11" y2="153.11"/>
			<path class="st42" d="M74.92,96.91c0,0-5.25,1.59-11.68,4.53c-6.43,2.94-10.93,11.57-12.42,18.47s-4.55,26.07-4.55,26.07
				l34.08,0.78v-25.82"/>
			<g>
				<path class="st36" d="M100.04,141.31c2.63-0.76,8.65-6.6,16.1-10.21c2.06-1,4.34-2.47,6.41-3.46c2.12-1.01,1.7,1.05,1.07,2.2
					c-1,1.86-2.28,3.51-3.96,4.82c0.74,0.54,1.76,0.44,2.66,0.26c2.93-0.61,5.68-1.88,8.5-2.88c2.82-1,5.86-1.72,8.8-1.16
					c0.38,0.07,0.82,0.23,0.91,0.6c0.05,0.22-0.03,0.49,0.12,0.67c0.13,0.16,0.38,0.14,0.58,0.18c0.54,0.12,0.81,0.77,0.72,1.32
					c-0.09,0.55-0.44,1.01-0.76,1.45c-1.7,2.3-3.16,4.77-4.35,7.37c-0.39,0.85-0.75,1.72-1.25,2.51c-0.65,1.06-3.65,3.98-4.52,4.86
					c-7.59,7.61-14.85,9.82-25.38,14.9"/>
				<path class="st15" d="M119.64,134.71c-2.77,0.41-5.52,0.97-8.24,1.67"/>
				<path class="st15" d="M140.48,132.08c-2.09,2.2-4.85,3.66-7.62,4.9c-1.78,0.79-3.59,1.52-5.43,2.16"/>
				<path class="st15" d="M139.74,137.37c-3.54,2.69-7.48,4.85-11.65,6.38"/>
				<path class="st15" d="M136.97,142.52c-1.95,1.58-3.95,3.11-5.99,4.57c-0.54,0.39-1.12,0.78-1.78,0.83"/>
			</g>
			<line class="st43" x1="47.05" y1="141.21" x2="80.35" y2="141.97"/>
			<line class="st43" x1="47.47" y1="138.39" x2="80.35" y2="139.14"/>
			<line class="st43" x1="48.08" y1="135.17" x2="80.35" y2="135.93"/>
			<line class="st15" x1="80.35" y1="146.75" x2="80.35" y2="120.93"/>
		</g>
	</g>
</g>
</svg>
