<?xml version="1.0" encoding="utf-8"?>
<!-- Generator: Adobe Illustrator 23.0.2, SVG Export Plug-In . SVG Version: 6.00 Build 0)  -->
<svg version="1.1" id="Layer_1" xmlns="http://www.w3.org/2000/svg" xmlns:xlink="http://www.w3.org/1999/xlink" x="0px" y="0px"
	 viewBox="0 0 540 350" style="enable-background:new 0 0 540 350;" xml:space="preserve">
<style type="text/css">
	.st0{fill:url(#SVGID_1_);}
	.st1{fill:#91B3FA;}
	.st2{fill:#DCE5FE;}
	.st3{fill:#BDD0FB;}
	.st4{fill:url(#SVGID_2_);}
	.st5{fill:url(#SVGID_3_);}
	.st6{fill:url(#SVGID_4_);}
	.st7{fill:url(#SVGID_5_);}
	.st8{fill:url(#SVGID_6_);}
	.st9{fill:#7D97F4;}
	.st10{fill:url(#SVGID_7_);}
	.st11{fill:url(#SVGID_8_);}
	.st12{filter:url(#Adobe_OpacityMaskFilter);}
	.st13{filter:url(#Adobe_OpacityMaskFilter_1_);}
	.st14{mask:url(#SVGID_9_);fill:url(#SVGID_10_);}
	.st15{opacity:0.78;fill:url(#SVGID_11_);}
	.st16{opacity:0.78;fill:url(#SVGID_12_);}
	.st17{opacity:0.78;fill:url(#SVGID_13_);}
	.st18{opacity:0.78;fill:url(#SVGID_14_);}
	.st19{opacity:0.78;fill:url(#SVGID_15_);}
	.st20{opacity:0.78;fill:url(#SVGID_16_);}
	.st21{opacity:0.78;fill:url(#SVGID_17_);}
	.st22{opacity:0.78;fill:url(#SVGID_18_);}
	.st23{opacity:0.78;fill:url(#SVGID_19_);}
	.st24{fill:url(#SVGID_20_);}
	.st25{fill:url(#SVGID_21_);}
	.st26{fill:url(#SVGID_22_);}
	.st27{fill:url(#SVGID_23_);}
	.st28{fill:url(#SVGID_24_);}
	.st29{fill:url(#SVGID_25_);}
	.st30{fill:url(#SVGID_26_);}
	.st31{fill:url(#SVGID_27_);}
	.st32{fill:url(#SVGID_28_);}
	.st33{fill:url(#SVGID_29_);}
	.st34{fill:url(#SVGID_30_);}
	.st35{fill:url(#SVGID_31_);}
	.st36{fill:url(#SVGID_32_);}
	.st37{fill:url(#SVGID_33_);}
	.st38{fill:url(#SVGID_34_);}
	.st39{fill:url(#SVGID_35_);}
	.st40{fill:url(#SVGID_36_);}
	.st41{fill:url(#SVGID_37_);}
	.st42{fill:url(#SVGID_38_);}
	.st43{fill:url(#SVGID_39_);}
	.st44{fill:url(#SVGID_40_);}
	.st45{fill:url(#SVGID_41_);}
	.st46{fill:url(#SVGID_42_);}
	.st47{fill:url(#SVGID_43_);}
	.st48{fill:url(#SVGID_44_);}
	.st49{fill:url(#SVGID_45_);}
	.st50{fill:url(#SVGID_46_);}
	.st51{fill:url(#SVGID_47_);}
	.st52{fill:url(#SVGID_48_);}
	.st53{fill:url(#SVGID_49_);}
	.st54{fill:url(#SVGID_50_);}
	.st55{fill:url(#SVGID_51_);}
	.st56{fill:url(#SVGID_52_);}
	.st57{fill:url(#SVGID_53_);}
	.st58{fill:url(#SVGID_54_);}
	.st59{fill:url(#SVGID_55_);}
	.st60{fill:url(#SVGID_56_);}
	.st61{fill:url(#SVGID_57_);}
	.st62{fill:url(#SVGID_58_);}
	.st63{fill:url(#SVGID_59_);}
	.st64{fill:url(#SVGID_60_);}
	.st65{fill:url(#SVGID_61_);}
	.st66{fill:url(#SVGID_62_);}
	.st67{fill:url(#SVGID_63_);}
	.st68{fill:url(#SVGID_64_);}
	.st69{fill:url(#SVGID_65_);}
	.st70{fill:url(#SVGID_66_);}
	.st71{fill:url(#SVGID_67_);}
	.st72{fill:url(#SVGID_68_);}
	.st73{fill:url(#SVGID_69_);}
	.st74{fill:url(#SVGID_70_);}
	.st75{fill:url(#SVGID_71_);}
	.st76{fill:url(#SVGID_72_);}
	.st77{fill:url(#SVGID_73_);}
	.st78{fill:url(#SVGID_74_);}
	.st79{fill:url(#SVGID_75_);}
	.st80{opacity:0.79;}
	.st81{fill:#FFFFFF;}
	.st82{opacity:0.79;fill:#FFFFFF;}
	.st83{fill:url(#SVGID_76_);}
	.st84{fill:url(#SVGID_77_);}
	.st85{fill:url(#SVGID_78_);}
	.st86{fill:url(#SVGID_79_);}
	.st87{fill:url(#SVGID_80_);}
	.st88{fill:url(#SVGID_81_);}
	.st89{fill:url(#SVGID_82_);}
	.st90{fill:url(#SVGID_83_);}
	.st91{fill:url(#SVGID_84_);}
	.st92{fill:url(#SVGID_85_);}
	.st93{fill:url(#SVGID_86_);}
	.st94{fill:url(#SVGID_87_);}
	.st95{fill:url(#SVGID_88_);}
	.st96{opacity:0.5;fill:#FFFFFF;}
	.st97{fill:url(#SVGID_89_);}
	.st98{fill:url(#SVGID_90_);}
	.st99{fill:url(#SVGID_91_);}
	.st100{fill:url(#SVGID_92_);}
	.st101{fill:url(#SVGID_93_);}
	.st102{fill:url(#SVGID_94_);}
	.st103{fill:url(#SVGID_95_);}
	.st104{fill:url(#SVGID_96_);}
	.st105{opacity:0.7;fill:#FFFFFF;}
	.st106{fill:url(#SVGID_97_);}
	.st107{fill:url(#SVGID_98_);}
	.st108{fill:url(#SVGID_99_);}
	.st109{fill:url(#SVGID_100_);}
	.st110{fill:url(#SVGID_101_);}
	.st111{fill:url(#SVGID_102_);}
</style>
<g>
	<linearGradient id="SVGID_1_" gradientUnits="userSpaceOnUse" x1="197.98" y1="-29.4781" x2="349.2614" y2="399.3081">
		<stop  offset="0" style="stop-color:#DAE3FE"/>
		<stop  offset="1" style="stop-color:#E9EFFD"/>
	</linearGradient>
	<path class="st0" d="M508.97,77.75c-12.65-25.06-40.44-43.9-67.48-38.12c-16.19,3.46-32.28,15.07-47.81,9.24
		c-11.19-4.2-17.51-16.12-26.91-23.59c-14.48-11.51-35.03-11.37-52.67-6.22c-17.64,5.16-33.79,14.64-51.22,20.5
		c-29.71,9.99-62.86,8.91-91.88-3.01c-12.74-5.23-24.66-12.44-37.63-17.05c-12.97-4.6-27.68-6.39-40.19-0.63
		c-12.52,5.76-21.5,20.82-17.16,34.1c0.87,2.65,2.22,5.26,2.05,8.05c-0.28,4.47-4.52,7.74-8.8,8.74c-4.28,0.99-8.74,0.34-13.13,0.46
		c-19.7,0.51-37.3,18.84-37.39,38.94c-0.08,16.67,10,31.31,18.61,45.47c8.61,14.16,16.36,31.15,11.22,46.98
		c-3.04,9.38-10.18,16.72-14.86,25.38c-12.12,22.44-5.64,52.15,11.29,71.07c16.93,18.93,42.28,28.19,67.31,30.39
		c25.02,2.2,50.12-1.93,74.91-6.03c24.79-4.09,49.91-8.16,74.92-5.82c0,0,98.63,14.53,148.55,7.93
		c10.45-1.38,22.45-4.35,26.86-14.11c3.73-8.24,0.38-17.9,1.15-26.94c1.11-13.03,10.69-23.7,21.14-31.28
		c10.45-7.58,22.31-13.21,31.72-22.09c18.42-17.36,24.67-44.24,27.42-69.67C522.01,132.43,521.62,102.81,508.97,77.75z"/>
	<g>
		<path class="st1" d="M0.23,121.99c-0.56-0.58,0.09-1.6,0.8-1.23c10.98,5.87,54.11,24.37,77.75,73.32
			c21.85,45.23,28.35,81.06,30.54,94.36c0.43,2.63-2.13,4.75-4.63,3.84c-14.84-5.4-55.6-22.71-66.73-53.13
			C24.66,202.8,26.75,149.46,0.23,121.99z"/>
		<path class="st2" d="M30.9,152.57c0,0,36.19,25.34,75.12,135.42C106.02,287.99,61.04,179.44,30.9,152.57z"/>
	</g>
	<g>
		<path class="st3" d="M5.58,183.39c0.6,19.12,8.67,130.26,114.32,141.43c0,0,13.53-74.53-111.93-142.91
			C6.87,181.32,5.54,182.14,5.58,183.39z"/>
		<path class="st2" d="M18.17,198.17c2.44,5.79,5.11,11.49,7.87,17.15c2.77,5.65,5.66,11.24,8.67,16.76c3,5.53,6.14,10.98,9.4,16.36
			c3.27,5.37,6.63,10.69,10.18,15.87c7.07,10.39,14.72,20.39,23.17,29.67c1.03,1.18,2.15,2.29,3.22,3.43l1.62,1.7
			c0.54,0.57,1.11,1.1,1.67,1.66c1.12,1.09,2.22,2.21,3.37,3.28l3.47,3.16c4.7,4.13,9.62,8,14.81,11.47l0.01,0.01
			c0.48,0.32,0.6,0.96,0.29,1.44c-0.32,0.48-0.96,0.6-1.44,0.29l-0.01,0c-5.26-3.57-10.23-7.54-14.95-11.77l-3.49-3.23
			c-1.15-1.09-2.25-2.23-3.38-3.34c-0.56-0.56-1.13-1.11-1.67-1.69l-1.62-1.73c-1.07-1.16-2.19-2.29-3.22-3.49
			c-8.45-9.42-16.06-19.54-23.08-30.04c-3.53-5.24-6.86-10.6-10.09-16.02c-3.23-5.42-6.33-10.91-9.3-16.48
			c-2.97-5.56-5.83-11.19-8.56-16.87c-2.72-5.69-5.35-11.42-7.76-17.26c-0.09-0.22,0.01-0.48,0.24-0.57
			C17.82,197.84,18.08,197.94,18.17,198.17L18.17,198.17z"/>
	</g>
	<g>
		<path class="st3" d="M66.98,28.21c-11.26,27.9-70.13,192.9,74.78,275.97c0,0,66.73-98.65-70.41-276.58
			C70.15,26.04,67.71,26.39,66.98,28.21z"/>
		<path class="st2" d="M75.38,58.17c-0.3,10.09-0.17,20.21,0.16,30.31c0.33,10.1,0.91,20.2,1.74,30.27
			c1.67,20.14,4.29,40.22,8.21,60.04c3.95,19.81,9.17,39.39,16.47,58.21c1.81,4.71,3.8,9.34,5.9,13.92
			c2.1,4.58,4.37,9.08,6.81,13.49c4.84,8.83,10.45,17.23,16.83,25l0.01,0.01c0.33,0.4,0.27,1-0.13,1.33c-0.4,0.33-1,0.27-1.33-0.13
			l0,0c-6.43-7.9-12.06-16.43-16.91-25.36c-2.44-4.46-4.71-9-6.8-13.63c-2.1-4.62-4.08-9.3-5.88-14.04
			c-7.26-18.96-12.41-38.65-16.28-58.53c-3.85-19.9-6.38-40.03-7.96-60.22c-0.79-10.1-1.32-20.21-1.61-30.33
			c-0.28-10.12-0.36-20.24-0.02-30.38c0.01-0.22,0.19-0.4,0.41-0.39C75.21,57.76,75.38,57.95,75.38,58.17L75.38,58.17z"/>
	</g>
	<g>
		<path class="st3" d="M539.97,188.87c-3.53,20.42-28.73,138.28-138.66,130.56c0,0-2.5-82.57,136.44-132.59
			C538.97,186.4,540.2,187.54,539.97,188.87z"/>
		<path class="st2" d="M525.42,202.82c-3.47,6-7.15,11.8-10.91,17.53c-3.77,5.72-7.65,11.33-11.64,16.83
			c-7.96,11.01-16.38,21.55-25.24,31.52c-4.45,4.96-9.01,9.77-13.7,14.41c-4.71,4.6-9.55,9-14.52,13.19
			c-5.01,4.12-10.15,8.01-15.44,11.56c-5.33,3.49-10.81,6.64-16.44,9.35c-0.31,0.15-0.67-0.03-0.79-0.41
			c-0.12-0.38,0.04-0.81,0.35-0.96l0,0l0.01,0c5.59-2.65,11.03-5.75,16.33-9.18c5.27-3.5,10.4-7.34,15.39-11.4
			c4.96-4.13,9.8-8.49,14.51-13.04c4.68-4.6,9.25-9.36,13.71-14.28c8.87-9.9,17.31-20.36,25.31-31.3c4-5.47,7.9-11.05,11.68-16.73
			c3.77-5.7,7.47-11.48,10.95-17.43l0-0.01c0.08-0.14,0.24-0.18,0.36-0.08C525.47,202.49,525.5,202.68,525.42,202.82z"/>
	</g>
	<g>
		<path class="st3" d="M497.7,8.22c4.91,29.3,25.78,200.59-149.32,240.84c0,0-46-110.71,144.82-242.57
			C494.88,5.34,497.38,6.31,497.7,8.22z"/>
		<path class="st2" d="M482.08,33.77c-1.11,4.92-2.37,9.79-3.69,14.66c-1.32,4.86-2.72,9.7-4.19,14.52
			c-2.93,9.64-6.13,19.19-9.59,28.65c-6.93,18.91-14.89,37.46-24.18,55.33c-9.3,17.85-19.92,35.06-32.44,50.81
			c-6.25,7.87-13,15.35-20.28,22.25c-3.66,3.43-7.41,6.76-11.34,9.87c-3.93,3.1-7.99,6.04-12.18,8.77
			c-0.39,0.25-0.89,0.14-1.13-0.25c-0.24-0.39-0.12-0.91,0.26-1.16l0,0l0.01,0c4.15-2.68,8.18-5.57,12.08-8.62
			c3.9-3.06,7.64-6.34,11.27-9.73c7.25-6.81,13.98-14.21,20.22-22.01c12.5-15.6,23.15-32.7,32.49-50.46
			c9.33-17.78,17.34-36.26,24.34-55.1c3.49-9.43,6.72-18.95,9.68-28.56c1.48-4.8,2.9-9.63,4.24-14.48c1.33-4.85,2.61-9.71,3.73-14.6
			l0-0.01c0.04-0.19,0.23-0.31,0.42-0.27C482.01,33.39,482.12,33.58,482.08,33.77z"/>
	</g>
	<g>
		
			<linearGradient id="SVGID_2_" gradientUnits="userSpaceOnUse" x1="441.3342" y1="-93.7474" x2="403.4348" y2="13.0113" gradientTransform="matrix(0.9506 -0.3105 0.3105 0.9506 -219.0502 168.0158)">
			<stop  offset="0" style="stop-color:#E1473D"/>
			<stop  offset="1" style="stop-color:#E9605A"/>
		</linearGradient>
		<path class="st4" d="M126.71,28.26c3.05-4.1,12.15-4.29,19.34-9.64c0.53-0.4,1.11-0.74,1.71-1.02
			c12.84-6.06,25.84-4.04,35.41,1.95c0.03,0.02,0.06,0.04,0.09,0.06c7.14,5.8,15.89-2.71,28.26,4.91c0.27,0.17,0.51,0.37,0.33,0.63
			c-7.22,10.82-17.67,22.85-36.32,32.51c-0.28,0.14-0.61,0.13-0.88-0.02l-47.67-28.06C126.5,29.31,126.38,28.69,126.71,28.26z"/>
		
			<linearGradient id="SVGID_3_" gradientUnits="userSpaceOnUse" x1="519.8573" y1="17.5629" x2="197.4428" y2="442.8167" gradientTransform="matrix(0.9357 -0.3057 0.2857 0.8747 -224.5056 166.4565)">
			<stop  offset="0" style="stop-color:#FE7062"/>
			<stop  offset="1" style="stop-color:#FF928E"/>
		</linearGradient>
		<path class="st5" d="M149.37,68.67C93.17,99.45,49.02,209.33,57.5,299.98c-8.02,51.1,293.99,77.02,240.21-65.71
			c-26.98-60.01-54.9-133.63-110.66-165.72L149.37,68.67z"/>
		
			<linearGradient id="SVGID_4_" gradientUnits="userSpaceOnUse" x1="431.2542" y1="318.4438" x2="353.8288" y2="420.5652" gradientTransform="matrix(0.9506 -0.3105 0.2312 0.7079 -302.544 -87.1379)">
			<stop  offset="0" style="stop-color:#FE7062"/>
			<stop  offset="1" style="stop-color:#FF928E"/>
		</linearGradient>
		<path class="st6" d="M147.18,67.55c-6.61-13.94-12.3-25.02-20.74-37.97c-0.09-0.16,0.06-0.35,0.24-0.3
			c8.58,2.65,17.48,1.07,31.44-2.88c0.02-0.01,0.04-0.01,0.06-0.02c7.89-5.08,16.91-3.36,26.31,0.65c0.01,0.01,0.03,0.01,0.04,0.01
			c10.15,2.02,13.6,3.76,27.12-2.24c0.18-0.08,0.36,0.12,0.26,0.29c-10.26,12.72-18.69,26.53-25.39,41.37
			c-0.04,0.06-0.03,0.13-0.02,0.19C187.71,73.91,148.04,75.47,147.18,67.55z"/>
		<linearGradient id="SVGID_5_" gradientUnits="userSpaceOnUse" x1="142.5758" y1="71.034" x2="191.0192" y2="71.034">
			<stop  offset="0" style="stop-color:#E1473D"/>
			<stop  offset="1" style="stop-color:#E9605A"/>
		</linearGradient>
		<path class="st7" d="M165.34,76.85c-4.9,0-13.7-0.45-18.88-3.41c-3.94-2.24-4.06-5.06-3.79-6.54c0.2-1.1,1.38-1.84,2.63-1.66
			c1.25,0.18,2.09,1.21,1.89,2.31c-0.08,0.41-0.25,1.37,1.76,2.52c3.28,1.87,10.17,2.92,17.98,2.75c7.62-0.17,14.65-1.5,17.91-3.38
			c1.17-0.67,1.71-1.31,1.6-1.88c-0.21-1.09,0.63-2.13,1.88-2.32c1.24-0.18,2.43,0.55,2.64,1.65c0.25,1.29,0.11,3.77-3.59,5.91
			c-4.05,2.33-11.64,3.84-20.3,4.04C166.55,76.85,165.98,76.85,165.34,76.85z"/>
	</g>
	<g>
		<linearGradient id="SVGID_6_" gradientUnits="userSpaceOnUse" x1="559.326" y1="171.6535" x2="471.53" y2="241.6161">
			<stop  offset="0" style="stop-color:#4042E2"/>
			<stop  offset="1" style="stop-color:#4F52FF"/>
		</linearGradient>
		<path class="st8" d="M472.86,242.14c1.15,0.89,32.71-1.4,45.97,1.35c0,0,10.28-44.84-19.23-46.6
			c-29.51-1.76-39.74,16.45-39.74,16.45L472.86,242.14z"/>
		<path class="st9" d="M441.69,194.78l57.9,2.11c0,0-21.1,0.29-18.76,26.97c2.34,26.68,14.23,104.6-15.97,104.68
			c-30.19,0.08-30.68-13.71-30.68-13.71L441.69,194.78z"/>
		<linearGradient id="SVGID_7_" gradientUnits="userSpaceOnUse" x1="689.1161" y1="78.5925" x2="321.7249" y2="339.087">
			<stop  offset="0" style="stop-color:#4042E2"/>
			<stop  offset="1" style="stop-color:#4F52FF"/>
		</linearGradient>
		<path class="st10" d="M414.65,182.26l22.38-5.21c0,0,14.96-1.35,16.99,11.96c2.02,13.3,1.44,92.1,0.8,108.35
			c-0.63,16.25,0.89,28.75,10.04,31.19l-66.53,1.15L414.65,182.26z"/>
		<path class="st1" d="M369.15,183.34c0,0,40.75,2.24,67.88-6.29c0,0-18.03-1.24-18.03,40.4c0,31.83,4.72,92.6,0.6,104.13
			c-4.12,11.53-19.54,27.04-41.63,13.71C355.87,321.97,369.15,183.34,369.15,183.34z"/>
		<path class="st9" d="M358.32,120.91c0,0,44.96,4.9,50.76-2.72c0,0-4.61-13.72-18.29-12.8C377.1,106.3,358.32,120.91,358.32,120.91
			z"/>
		<linearGradient id="SVGID_8_" gradientUnits="userSpaceOnUse" x1="211.9826" y1="223.5622" x2="409.0738" y2="223.5622">
			<stop  offset="0" style="stop-color:#4042E2"/>
			<stop  offset="1" style="stop-color:#4F52FF"/>
		</linearGradient>
		<path class="st11" d="M212.08,136.35c3.92,44.06,12.16,137.27,15.74,182.67c0.8,10.12,8.91,18.12,19.04,18.77
			c36.09,2.32,117.32,6.81,148.49,2.63h0c-7.14-3.52-11.64-10.82-11.57-18.78l1.66-203.73c0.06-7.2,7.23-12.37,13.97-9.85
			c4.25,1.59,7.46,4.98,9.67,10.13c-2.94-8.58-7.57-14.85-18.29-12.8c0,0-104.84,1.05-155.72,4.2
			C221.24,110.45,210.85,122.55,212.08,136.35z"/>
		<defs>
			<filter id="Adobe_OpacityMaskFilter" filterUnits="userSpaceOnUse" x="216.09" y="110" width="169.43" height="229.06">
				<feFlood  style="flood-color:white;flood-opacity:1" result="back"/>
				<feBlend  in="SourceGraphic" in2="back" mode="normal"/>
			</filter>
		</defs>
		<mask maskUnits="userSpaceOnUse" x="216.09" y="110" width="169.43" height="229.06" id="SVGID_9_">
			<g class="st12">
				<defs>
					<filter id="Adobe_OpacityMaskFilter_1_" filterUnits="userSpaceOnUse" x="216.09" y="110" width="169.43" height="229.06">
						<feFlood  style="flood-color:white;flood-opacity:1" result="back"/>
						<feBlend  in="SourceGraphic" in2="back" mode="normal"/>
					</filter>
				</defs>
				<mask maskUnits="userSpaceOnUse" x="216.09" y="110" width="169.43" height="229.06" id="SVGID_9_">
				</mask>
				<linearGradient id="SVGID_10_" gradientUnits="userSpaceOnUse" x1="364.4954" y1="153.2041" x2="147.5667" y2="430.8062">
					<stop  offset="0" style="stop-color:#FFFFFF"/>
					<stop  offset="1" style="stop-color:#000000"/>
				</linearGradient>
				<path class="st14" d="M238.02,115.42L378.89,110c-5.81,43.02-3.36,130.62-1.14,216.95c0.13,5.12,3.13,9.72,7.76,11.91l0,0
					c0,0-93.96,1.08-134.34-1.78c-9.51-0.67-17.26-7.87-18.67-17.29c-5.54-36.99-18.8-132.54-16.04-183.13
					C217.09,125.07,226.42,115.87,238.02,115.42z"/>
			</g>
		</mask>
		<path class="st1" d="M238.02,115.42L378.89,110c-5.81,43.02-3.36,130.62-1.14,216.95c0.13,5.12,3.13,9.72,7.76,11.91l0,0
			c0,0-93.96,1.08-134.34-1.78c-9.51-0.67-17.26-7.87-18.67-17.29c-5.54-36.99-18.8-132.54-16.04-183.13
			C217.09,125.07,226.42,115.87,238.02,115.42z"/>
		<g>
			<linearGradient id="SVGID_11_" gradientUnits="userSpaceOnUse" x1="236.4349" y1="183.8118" x2="258.9568" y2="183.8118">
				<stop  offset="0" style="stop-color:#DAE3FE"/>
				<stop  offset="1" style="stop-color:#E9EFFD"/>
			</linearGradient>
			<path class="st15" d="M236.47,176.8l1.64,15.78c0.3,2.89,2.68,5.12,5.59,5.23l9.19,0.35c3.31,0.13,6.07-2.52,6.07-5.84V175.3
				c0-3.42-2.92-6.11-6.32-5.83l-10.83,0.89C238.53,170.63,236.13,173.54,236.47,176.8z"/>
			<linearGradient id="SVGID_12_" gradientUnits="userSpaceOnUse" x1="265.5688" y1="174.0233" x2="361.0018" y2="174.0233">
				<stop  offset="0" style="stop-color:#DAE3FE"/>
				<stop  offset="1" style="stop-color:#E9EFFD"/>
			</linearGradient>
			<path class="st16" d="M268.77,171.93c15.29-0.48,73.99-2.38,88.81-2.87c1.87-0.06,3.42,1.44,3.42,3.31l0,0
				c0,1.78-1.41,3.24-3.19,3.31l-88.76,3.3c-1.71,0.06-3.19-1.19-3.41-2.88l-0.06-0.43C265.35,173.73,266.82,171.99,268.77,171.93z"
				/>
			<linearGradient id="SVGID_13_" gradientUnits="userSpaceOnUse" x1="267.3184" y1="189.3435" x2="331.3754" y2="189.3435">
				<stop  offset="0" style="stop-color:#DAE3FE"/>
				<stop  offset="1" style="stop-color:#E9EFFD"/>
			</linearGradient>
			<path class="st17" d="M267.81,192.74L267.81,192.74c0.26,0.44,0.73,0.7,1.24,0.69L330,192.1c0.77-0.02,1.38-0.64,1.38-1.41v-4.02
				c0-0.8-0.66-1.44-1.46-1.41l-59.24,2.22C268.03,187.58,266.46,190.47,267.81,192.74z"/>
		</g>
		<g>
			<linearGradient id="SVGID_14_" gradientUnits="userSpaceOnUse" x1="236.4349" y1="227.6069" x2="258.9568" y2="227.6069">
				<stop  offset="0" style="stop-color:#DAE3FE"/>
				<stop  offset="1" style="stop-color:#E9EFFD"/>
			</linearGradient>
			<path class="st18" d="M236.47,220.59l1.64,15.78c0.3,2.89,2.68,5.12,5.59,5.23l9.19,0.35c3.31,0.13,6.07-2.52,6.07-5.84V219.1
				c0-3.42-2.92-6.11-6.32-5.83l-10.83,0.89C238.53,214.43,236.13,217.33,236.47,220.59z"/>
			<linearGradient id="SVGID_15_" gradientUnits="userSpaceOnUse" x1="265.5688" y1="217.8184" x2="361.0018" y2="217.8184">
				<stop  offset="0" style="stop-color:#DAE3FE"/>
				<stop  offset="1" style="stop-color:#E9EFFD"/>
			</linearGradient>
			<path class="st19" d="M268.77,215.73c15.29-0.48,73.99-2.38,88.81-2.87c1.87-0.06,3.42,1.44,3.42,3.31v0
				c0,1.78-1.41,3.24-3.19,3.31l-88.76,3.3c-1.71,0.06-3.19-1.19-3.41-2.88l-0.06-0.43C265.35,217.52,266.82,215.79,268.77,215.73z"
				/>
			<linearGradient id="SVGID_16_" gradientUnits="userSpaceOnUse" x1="267.3184" y1="233.1385" x2="331.3754" y2="233.1385">
				<stop  offset="0" style="stop-color:#DAE3FE"/>
				<stop  offset="1" style="stop-color:#E9EFFD"/>
			</linearGradient>
			<path class="st20" d="M267.81,236.53L267.81,236.53c0.26,0.44,0.73,0.7,1.24,0.69l60.94-1.32c0.77-0.02,1.38-0.64,1.38-1.41
				v-4.02c0-0.8-0.66-1.44-1.46-1.41l-59.24,2.22C268.03,231.37,266.46,234.26,267.81,236.53z"/>
		</g>
		<g>
			<linearGradient id="SVGID_17_" gradientUnits="userSpaceOnUse" x1="236.4349" y1="271.4019" x2="258.9568" y2="271.4019">
				<stop  offset="0" style="stop-color:#DAE3FE"/>
				<stop  offset="1" style="stop-color:#E9EFFD"/>
			</linearGradient>
			<path class="st21" d="M236.47,264.39l1.64,15.78c0.3,2.89,2.68,5.12,5.59,5.23l9.19,0.35c3.31,0.13,6.07-2.52,6.07-5.84v-17.02
				c0-3.42-2.92-6.11-6.32-5.83l-10.83,0.89C238.53,258.22,236.13,261.13,236.47,264.39z"/>
			<linearGradient id="SVGID_18_" gradientUnits="userSpaceOnUse" x1="265.5688" y1="261.6134" x2="361.0018" y2="261.6134">
				<stop  offset="0" style="stop-color:#DAE3FE"/>
				<stop  offset="1" style="stop-color:#E9EFFD"/>
			</linearGradient>
			<path class="st22" d="M268.77,259.52c15.29-0.48,73.99-2.38,88.81-2.87c1.87-0.06,3.42,1.44,3.42,3.31l0,0
				c0,1.78-1.41,3.24-3.19,3.31l-88.76,3.3c-1.71,0.06-3.19-1.19-3.41-2.88l-0.06-0.43C265.35,261.32,266.82,259.58,268.77,259.52z"
				/>
			<linearGradient id="SVGID_19_" gradientUnits="userSpaceOnUse" x1="267.3184" y1="276.9336" x2="331.3754" y2="276.9336">
				<stop  offset="0" style="stop-color:#DAE3FE"/>
				<stop  offset="1" style="stop-color:#E9EFFD"/>
			</linearGradient>
			<path class="st23" d="M267.81,280.33L267.81,280.33c0.26,0.44,0.73,0.7,1.24,0.69l60.94-1.32c0.77-0.02,1.38-0.64,1.38-1.41
				v-4.02c0-0.8-0.66-1.44-1.46-1.41l-59.24,2.22C268.03,275.17,266.46,278.06,267.81,280.33z"/>
		</g>
		<linearGradient id="SVGID_20_" gradientUnits="userSpaceOnUse" x1="412.7701" y1="268.8744" x2="414.3919" y2="268.8744">
			<stop  offset="0" style="stop-color:#DAE3FE"/>
			<stop  offset="1" style="stop-color:#E9EFFD"/>
		</linearGradient>
		<path class="st24" d="M413.71,274.36c-0.37,0-0.68-0.3-0.69-0.67c0-0.02-0.04-2.18-0.25-9.59c-0.01-0.38,0.29-0.69,0.67-0.7
			c0.37-0.02,0.69,0.29,0.7,0.67c0.21,7.41,0.25,9.58,0.25,9.6c0.01,0.38-0.29,0.69-0.67,0.7
			C413.71,274.36,413.71,274.36,413.71,274.36z"/>
		<path class="st3" d="M413.21,256.28c-0.37,0-0.67-0.29-0.69-0.66c-0.15-4.82-0.38-10.15-0.62-15.79
			c-0.33-7.62-0.67-15.5-0.85-23.1c-0.47-20.04,2.83-27.73,5.69-30.66c1.55-1.59,2.85-1.64,3-1.64c0.38,0,0.69,0.31,0.69,0.69
			c0,0.37-0.3,0.68-0.67,0.69c-0.16,0.01-8.04,0.88-7.33,30.89c0.18,7.58,0.52,15.45,0.85,23.07c0.24,5.65,0.47,10.98,0.62,15.81
			c0.01,0.38-0.29,0.69-0.66,0.71C413.22,256.28,413.21,256.28,413.21,256.28z"/>
		<path class="st3" d="M478.44,254.04c-0.36,0-0.66-0.28-0.68-0.64c-0.01-0.18-1.1-18.25-3.06-33.28
			c-2.03-15.6,6.51-18.89,6.87-19.02c0.36-0.13,0.75,0.05,0.88,0.41c0.13,0.36-0.05,0.75-0.41,0.88l0,0
			c-0.32,0.12-7.86,3.11-5.98,17.56c1.96,15.08,3.06,33.19,3.07,33.37c0.02,0.38-0.27,0.7-0.64,0.73
			C478.47,254.04,478.45,254.04,478.44,254.04z"/>
		<linearGradient id="SVGID_21_" gradientUnits="userSpaceOnUse" x1="128.8281" y1="653.9162" x2="4.9485" y2="870.8846">
			<stop  offset="0" style="stop-color:#09005D"/>
			<stop  offset="1" style="stop-color:#1A0F91"/>
		</linearGradient>
		<path class="st25" d="M313.82,330.07c-0.66,0-1.33-0.32-2.05-0.97c-2.74-2.52-3.4-6.44-3.56-10.13c-1.31,1.47-2.65,2.9-3.98,4.31
			l-0.52-0.49c1.49-1.59,3-3.2,4.46-4.87c-0.12-4.98,0.11-10.01,0.68-14.96c0.35-3.02,0.85-6.21,2.16-9.12
			c0.41-0.92,1.1-2.24,2.27-3.05c1.21-0.84,2.78-0.94,3.84-0.23c1.19,0.8,1.51,2.33,1.65,3.41c0.83,6.46-1.69,12.39-3.96,16.23
			c-1.69,2.86-3.74,5.49-5.91,7.98c0.11,3.75,0.62,7.87,3.36,10.39c0.59,0.54,1.12,0.8,1.61,0.78c0.81-0.03,1.45-0.79,1.97-1.53
			c2.29-3.27,4.06-6.83,5.31-10.59c0.14-1.12,0.45-2.22,0.93-3.24l0.67,0.24c-0.26,1.07-0.56,2.13-0.9,3.17
			c-0.13,1.08-0.09,2.18,0.12,3.25c0.12,0.58,0.6,2.48,2.04,2.76c1.08,0.21,2.15-0.56,3.37-2.4l4.42-6.72l-0.45,1.95
			c-0.22,0.95-0.59,3.22,0.78,3.79c0.78,0.32,1.62-0.15,2.5-0.65c0.87-0.49,1.77-1,2.78-0.87l0.37,0.05l-0.06,0.37
			c-0.23,1.31-0.12,2.93,0.94,3.17c0.69,0.15,1.26-0.38,1.92-0.99c0.57-0.53,1.16-1.07,1.91-1.25l0.17,0.7
			c-0.58,0.14-1.1,0.62-1.6,1.08c-0.74,0.69-1.51,1.39-2.56,1.16c-1.42-0.31-1.74-1.99-1.55-3.58c-0.65,0.04-1.29,0.41-1.97,0.79
			c-0.99,0.56-2.02,1.14-3.13,0.68c-1-0.41-1.5-1.47-1.44-3l-2.44,3.71c-0.88,1.33-2.26,3.06-4.1,2.71
			c-1.26-0.24-2.24-1.48-2.61-3.32c-0.08-0.42-0.14-0.85-0.18-1.27c-1.2,3.08-2.76,6-4.66,8.73c-0.62,0.89-1.4,1.8-2.53,1.84
			C313.87,330.07,313.84,330.07,313.82,330.07z M315.47,290.8c-0.6,0-1.23,0.2-1.78,0.58c-1.02,0.72-1.65,1.92-2.02,2.76
			c-1.27,2.82-1.76,5.95-2.1,8.91c-0.54,4.65-0.77,9.38-0.69,14.07c1.96-2.29,3.79-4.69,5.32-7.28c2.21-3.74,4.67-9.51,3.86-15.77
			c-0.19-1.5-0.62-2.42-1.34-2.91C316.36,290.91,315.93,290.8,315.47,290.8z"/>
	</g>
	<g>
		<g>
			<g>
				
					<linearGradient id="SVGID_22_" gradientUnits="userSpaceOnUse" x1="114.5837" y1="338.18" x2="127.3668" y2="338.18" gradientTransform="matrix(-1 0 0 1 538.0585 0)">
					<stop  offset="0" style="stop-color:#4042E2"/>
					<stop  offset="1" style="stop-color:#4F52FF"/>
				</linearGradient>
				<path class="st26" d="M411.05,337.56c2.19,0.19,5.99,0.5,8.99,0.63c1.8,0.08,2.84-0.1,3.44-0.34c0,0.07,0,0.13-0.01,0.19
					c-0.01,0.32-0.27,0.57-0.59,0.59c-5.66,0.32-10.16,0.11-11.77,0.01c-0.33-0.02-0.53-0.38-0.36-0.66
					C410.84,337.84,410.94,337.7,411.05,337.56z"/>
				
					<linearGradient id="SVGID_23_" gradientUnits="userSpaceOnUse" x1="114.5829" y1="335.6747" x2="127.0058" y2="335.6747" gradientTransform="matrix(-1 0 0 1 538.0585 0)">
					<stop  offset="0" style="stop-color:#09005D"/>
					<stop  offset="1" style="stop-color:#1A0F91"/>
				</linearGradient>
				<path class="st27" d="M420.04,338.19c-3-0.13-6.8-0.44-8.99-0.63c2.15-2.64,8.99-4.42,8.99-4.42h1.93
					c1.33,1.91,1.52,3.74,1.51,4.71C422.88,338.09,421.84,338.27,420.04,338.19z"/>
				
					<linearGradient id="SVGID_24_" gradientUnits="userSpaceOnUse" x1="115.7639" y1="332.1769" x2="119.3646" y2="332.1769" gradientTransform="matrix(-1 0 0 1 538.0585 0)">
					<stop  offset="0" style="stop-color:#FF928E"/>
					<stop  offset="1" style="stop-color:#FEB3B1"/>
				</linearGradient>
				<path class="st28" d="M422.29,329.99l-0.18,3.57c-0.02,0.39-0.31,0.71-0.7,0.77c-0.39,0.06-0.9,0.06-1.45-0.12
					c-0.34-0.11-0.59-0.4-0.65-0.74l-0.62-3.48H422.29z"/>
			</g>
			<g>
				<g>
					
						<linearGradient id="SVGID_25_" gradientUnits="userSpaceOnUse" x1="89.0971" y1="337.9064" x2="93.9982" y2="337.9064" gradientTransform="matrix(-1 0 0 1 538.0585 0)">
						<stop  offset="0" style="stop-color:#4042E2"/>
						<stop  offset="1" style="stop-color:#4F52FF"/>
					</linearGradient>
					<path class="st29" d="M447.36,338.16c0.95-0.13,1.38-0.63,1.56-1.15c0,0,0,0.01,0,0.01c0.14,0.56-0.15,1.25-0.83,1.41
						c-1.64,0.39-1.64,0.39-2.3,0.36c-0.71-0.03-1.37-0.32-1.73-0.8l-0.01-0.01C444.78,338.34,445.78,338.38,447.36,338.16z"/>
					
						<linearGradient id="SVGID_26_" gradientUnits="userSpaceOnUse" x1="89.1351" y1="334.1324" x2="96.3254" y2="334.1324" gradientTransform="matrix(-1 0 0 1 538.0585 0)">
						<stop  offset="0" style="stop-color:#09005D"/>
						<stop  offset="1" style="stop-color:#1A0F91"/>
					</linearGradient>
					<path class="st30" d="M442.89,329.97h1.59c2.42-0.05,3.95,5.06,4.45,7.04c-0.18,0.53-0.61,1.02-1.56,1.15
						c-1.58,0.22-2.59,0.18-3.3-0.17c-1.31-1.72-1.96-4.25-2.27-5.72C441.43,330.59,442.89,329.97,442.89,329.97z"/>
				</g>
				
					<linearGradient id="SVGID_27_" gradientUnits="userSpaceOnUse" x1="92.8725" y1="329.1752" x2="97.1758" y2="329.1752" gradientTransform="matrix(-1 0 0 1 538.0585 0)">
					<stop  offset="0" style="stop-color:#FF928E"/>
					<stop  offset="1" style="stop-color:#FEB3B1"/>
				</linearGradient>
				<path class="st31" d="M444.27,326.65l0.88,3.52c0.11,0.43-0.1,0.88-0.5,1.08c-0.49,0.25-1.19,0.52-1.83,0.44
					c-0.3-0.04-0.55-0.25-0.65-0.53l-1.3-3.7L444.27,326.65z"/>
			</g>
			
				<linearGradient id="SVGID_28_" gradientUnits="userSpaceOnUse" x1="126.1462" y1="289.5266" x2="78.5119" y2="358.947" gradientTransform="matrix(-1 0 0 1 538.0585 0)">
				<stop  offset="0" style="stop-color:#09005D"/>
				<stop  offset="1" style="stop-color:#1A0F91"/>
			</linearGradient>
			<path class="st32" d="M445.33,327.66c-1.1,0.98-4.68,1.1-4.68,1.1c-12.88-30.92-18.15-35.32-18.15-35.32
				c1.86,11.67,0.3,37.51,0.3,37.51c-2.13,0.94-4.87,0-4.87,0c-0.17-19.11-3.11-35.77-6.58-48.91c8.71-0.2,13.34-3.18,14.85-4.37
				C433.46,289.39,445.33,327.66,445.33,327.66z"/>
			
				<linearGradient id="SVGID_29_" gradientUnits="userSpaceOnUse" x1="146.9893" y1="239.3445" x2="48.3388" y2="325.1454" gradientTransform="matrix(-1 0 0 1 538.0585 0)">
				<stop  offset="0" style="stop-color:#FE7062"/>
				<stop  offset="1" style="stop-color:#FF928E"/>
			</linearGradient>
			<path class="st33" d="M423.99,242.12c1.65,8.22,1.06,22.94,0.67,29.65c-0.11,1.89,1.21,4.5,2.27,6.29
				c0.17,0.28,0.06,0.64-0.23,0.79c-1.78,0.92-7.82,3.75-14.82,4.11c-0.47,0.02-0.88-0.29-1-0.75
				c-5.19-19.38-11.22-31.76-11.22-31.76C406.32,239.81,423.99,242.12,423.99,242.12z"/>
			<linearGradient id="SVGID_30_" gradientUnits="userSpaceOnUse" x1="416.2693" y1="290.1692" x2="422.0299" y2="290.1692">
				<stop  offset="0" style="stop-color:#4042E2"/>
				<stop  offset="1" style="stop-color:#4F52FF"/>
			</linearGradient>
			<path class="st34" d="M421.62,292.72c0.07,0,0.15-0.02,0.21-0.06c0.19-0.12,0.26-0.37,0.14-0.57c-0.07-0.11-1.74-2.81-5.11-4.43
				c-0.2-0.1-0.45-0.01-0.55,0.19c-0.1,0.21-0.01,0.45,0.19,0.55c3.14,1.52,4.75,4.1,4.76,4.12
				C421.34,292.65,421.48,292.72,421.62,292.72z"/>
			<g>
				
					<linearGradient id="SVGID_31_" gradientUnits="userSpaceOnUse" x1="112.5877" y1="266.4498" x2="97.2689" y2="280.015" gradientTransform="matrix(-1 0 0 1 538.0585 0)">
					<stop  offset="0" style="stop-color:#F9B776"/>
					<stop  offset="1" style="stop-color:#F47960"/>
				</linearGradient>
				<path class="st35" d="M434.33,265.72c-0.53,3.83-2.09,8.01-5.22,12.45l-1.19-0.97c0,0,1.37-5.57,0.59-11.89
					C430.44,264.92,432.72,265.31,434.33,265.72z"/>
				
					<linearGradient id="SVGID_32_" gradientUnits="userSpaceOnUse" x1="138.765" y1="230.2521" x2="40.5596" y2="315.6659" gradientTransform="matrix(-1 0 0 1 538.0585 0)">
					<stop  offset="0" style="stop-color:#FE7062"/>
					<stop  offset="1" style="stop-color:#FF928E"/>
				</linearGradient>
				<path class="st36" d="M422.15,252.27l1.84-10.14c0,0,12.3,9.4,10.34,23.6c-1.61-0.41-3.89-0.8-5.82-0.42
					C427.95,260.74,426.27,255.8,422.15,252.27z"/>
			</g>
			<g>
				
					<linearGradient id="SVGID_33_" gradientUnits="userSpaceOnUse" x1="265.249" y1="143.4049" x2="167.0386" y2="228.823" gradientTransform="matrix(-0.9695 0.2449 0.2449 0.9695 605.5863 48.039)">
					<stop  offset="0" style="stop-color:#FE7062"/>
					<stop  offset="1" style="stop-color:#FF928E"/>
				</linearGradient>
				<path class="st37" d="M399.47,250.52l7.11,8.75c0.77,6.17-1.79,9.57-5.01,11.44c-0.91-2.67-2.15-4.7-3.18-6.07
					C401.67,258.96,399.47,250.52,399.47,250.52z"/>
				<linearGradient id="SVGID_34_" gradientUnits="userSpaceOnUse" x1="395.9791" y1="258.843" x2="394.5471" y2="285.4542">
					<stop  offset="0" style="stop-color:#FF928E"/>
					<stop  offset="1" style="stop-color:#FEB3B1"/>
				</linearGradient>
				<path class="st38" d="M398.39,264.65c1.03,1.36,2.27,3.39,3.18,6.07c-8.34,5.93-12.52,2.26-12.52,2.26v-1.17
					c0-1.04,0.69-1.96,1.69-2.22C394.1,268.7,397.2,266.73,398.39,264.65z"/>
			</g>
			
				<linearGradient id="SVGID_35_" gradientUnits="userSpaceOnUse" x1="129.5779" y1="235.493" x2="129.4461" y2="258.022" gradientTransform="matrix(-1 0 0 1 538.0585 0)">
				<stop  offset="0" style="stop-color:#FF928E"/>
				<stop  offset="1" style="stop-color:#FEB3B1"/>
			</linearGradient>
			<path class="st39" d="M404.04,237.82l2.29,8.43c0.26,0.95,1.28,1.45,2.19,1.09c0.98-0.39,2.23-0.93,3.3-1.51
				c1.15-0.62,1.5-2.09,0.78-3.17l-4.77-7.11L404.04,237.82z"/>
		</g>
		<g>
			<linearGradient id="SVGID_36_" gradientUnits="userSpaceOnUse" x1="411.0354" y1="228.356" x2="399.9374" y2="238.2607">
				<stop  offset="0" style="stop-color:#FF928E"/>
				<stop  offset="1" style="stop-color:#FEB3B1"/>
			</linearGradient>
			<path class="st40" d="M399.47,231.41c-0.02,0.14,1.91,9.62,1.91,9.62l5.38-1.22l-0.5-9.25
				C406.27,230.56,399.82,228.99,399.47,231.41z"/>
			
				<linearGradient id="SVGID_37_" gradientUnits="userSpaceOnUse" x1="-236.0372" y1="1947.4352" x2="-222.7903" y2="1947.4352" gradientTransform="matrix(-0.9897 -0.1428 -0.1428 0.9897 453.5347 -1724.5822)">
				<stop  offset="0" style="stop-color:#09005D"/>
				<stop  offset="1" style="stop-color:#1A0F91"/>
			</linearGradient>
			<path class="st41" d="M404.61,232.62l0.64,4.85c0.01,0.06,0.01,0.12,0,0.19c-0.05,0.38-0.34,1.67-1.64,1.3
				c-1.19-0.34-2.27-0.62-3.02-0.39c-0.34,0.1-0.54,0.44-0.47,0.79c0.18,0.86,0.61,2.79,1.24,4.41c0.13,0.33,0.49,0.5,0.83,0.4
				c1.02-0.3,3.16-0.99,4.75-1.94c0.22-0.13,0.34-0.36,0.33-0.61c-0.05-1.22-0.19-4.94-0.07-5.99c0.11-0.98,1.31-1.57,1.84-1.78
				c0.17-0.07,0.31-0.2,0.37-0.38c0.24-0.61,0.57-2.01-1.19-2.58c-0.37-0.12-0.56-0.52-0.43-0.88c0.26-0.73,0.37-1.84-0.99-2.45
				c-1.39-0.62-2.43,0.12-2.99,0.72c-0.23,0.24-0.59,0.28-0.87,0.1c-0.16-0.1-0.37-0.13-0.62,0.02c-0.34,0.21-0.78,0.07-0.95-0.29
				c-0.33-0.68-1.01-1.41-2.37-1.18c-2.41,0.41-2.69,3.09-2.05,4.65c0.64,1.57,3.23,0.97,4.53,0.18c0.99-0.6,2.27,0.03,2.83,0.37
				C404.47,232.24,404.59,232.42,404.61,232.62z"/>
			
				<linearGradient id="SVGID_38_" gradientUnits="userSpaceOnUse" x1="-243.81" y1="1955.5143" x2="-234.9151" y2="1946.3884" gradientTransform="matrix(-0.9897 -0.1428 -0.1428 0.9897 453.5347 -1724.5822)">
				<stop  offset="0" style="stop-color:#FF928E"/>
				<stop  offset="1" style="stop-color:#FEB3B1"/>
			</linearGradient>
			<path class="st42" d="M407.41,237.4c0,0-0.99-2.78,0.03-3.46c1.02-0.68,2.53-0.33,2.2,1.69
				C409.22,238.13,407.41,237.4,407.41,237.4z"/>
		</g>
		<g>
			<g>
				
					<linearGradient id="SVGID_39_" gradientUnits="userSpaceOnUse" x1="347.9784" y1="-90.9442" x2="206.7559" y2="12.0752" gradientTransform="matrix(-0.7907 0.6122 0.6122 0.7907 684.9066 134.3056)">
					<stop  offset="0" style="stop-color:#09005D"/>
					<stop  offset="1" style="stop-color:#1A0F91"/>
				</linearGradient>
				<path class="st43" d="M460.77,250.45l-98.19,32.22l4.69,14.47l98.75-31.44c2.1-0.67,3.41-2.74,3.12-4.93
					c-0.3-2.24-1.31-5.32-4.05-8.98C464.09,250.47,462.35,249.93,460.77,250.45z"/>
				<g>
					
						<linearGradient id="SVGID_40_" gradientUnits="userSpaceOnUse" x1="352.9282" y1="-68.0199" x2="371.5298" y2="-84.189" gradientTransform="matrix(-0.7907 0.6122 0.6122 0.7907 684.9066 134.3056)">
						<stop  offset="0" style="stop-color:#09005D"/>
						<stop  offset="1" style="stop-color:#1A0F91"/>
					</linearGradient>
					<path class="st44" d="M336.5,298.19l11.65-6.93c1.12,1.47,2.11,3.74,2.17,7.17l-13.42,1.02
						C336.18,299.5,335.89,298.55,336.5,298.19z"/>
					
						<linearGradient id="SVGID_41_" gradientUnits="userSpaceOnUse" x1="369.1918" y1="-91.7508" x2="300.3189" y2="-20.9701" gradientTransform="matrix(-0.7907 0.6122 0.6122 0.7907 684.9066 134.3056)">
						<stop  offset="0" style="stop-color:#FE7062"/>
						<stop  offset="1" style="stop-color:#FF928E"/>
					</linearGradient>
					<path class="st45" d="M362.58,282.67c5.98,6.71,4.69,14.47,4.69,14.47l-16.95,1.29c-0.06-3.43-1.05-5.69-2.17-7.17
						L362.58,282.67z"/>
				</g>
			</g>
			<path class="st9" d="M462.5,254.66c0.09-0.07,0.14-0.2,0.1-0.32c-0.05-0.15-0.21-0.23-0.36-0.18l-93.81,30.99
				c-0.15,0.05-0.23,0.21-0.18,0.36c0.05,0.15,0.21,0.23,0.36,0.18l93.81-30.99C462.44,254.69,462.47,254.68,462.5,254.66z"/>
			<path class="st9" d="M464.66,260.08c0.09-0.07,0.14-0.2,0.1-0.32c-0.05-0.15-0.21-0.23-0.36-0.18l-93.81,30.99
				c-0.15,0.05-0.23,0.21-0.18,0.36c0.05,0.15,0.21,0.23,0.36,0.18l93.81-30.99C464.61,260.12,464.64,260.1,464.66,260.08z"/>
		</g>
		
			<linearGradient id="SVGID_42_" gradientUnits="userSpaceOnUse" x1="118.6371" y1="273.2813" x2="103.3183" y2="286.8464" gradientTransform="matrix(-1 0 0 1 538.0585 0)">
			<stop  offset="0" style="stop-color:#FF928E"/>
			<stop  offset="1" style="stop-color:#FEB3B1"/>
		</linearGradient>
		<path class="st46" d="M428.41,277.02l-5.55-0.45l-2.4,2.22c0,0,0.57,0.79,2.35,0.33c1.78-0.45,4.21-0.56,4.21-0.56
			s2.46,1.11,2.49-0.96L428.41,277.02z"/>
		
			<linearGradient id="SVGID_43_" gradientUnits="userSpaceOnUse" x1="4.7212" y1="2.645" x2="19.9959" y2="31.7623" gradientTransform="matrix(-1 0 0 1 538.0585 0)">
			<stop  offset="0" style="stop-color:#FF928E"/>
			<stop  offset="1" style="stop-color:#FEB3B1"/>
		</linearGradient>
		<path class="st47" d="M392.75,275.3c-0.48,0.38-2.13-0.41-3.13-0.95c-0.49-0.26-0.73-0.84-0.56-1.37
			c0.24-0.76,0.65-1.75,1.14-1.87C391.02,270.9,394.73,273.75,392.75,275.3z"/>
	</g>
	<g>
		<linearGradient id="SVGID_44_" gradientUnits="userSpaceOnUse" x1="249.7449" y1="332.6688" x2="206.5737" y2="379.627">
			<stop  offset="0" style="stop-color:#4042E2"/>
			<stop  offset="1" style="stop-color:#4F52FF"/>
		</linearGradient>
		<path class="st48" d="M236.1,336.17c0,0-0.45,2.53-0.67,5.04c-0.09,0.98,0.67,1.83,1.65,1.87c3.34,0.14,10.47,0.41,13.03,0.29
			c0.39-0.02,0.64-0.41,0.49-0.77l0,0c-0.12-0.3-0.35-0.54-0.64-0.68l-11.79-5.42L236.1,336.17z"/>
		<linearGradient id="SVGID_45_" gradientUnits="userSpaceOnUse" x1="235.7321" y1="336.1565" x2="239.5668" y2="336.1565">
			<stop  offset="0" style="stop-color:#FF928E"/>
			<stop  offset="1" style="stop-color:#FEB3B1"/>
		</linearGradient>
		<path class="st49" d="M235.73,334.68l0.36,3.03c0,0,2.07,0.96,3.48-0.12l-0.86-3.37L235.73,334.68z"/>
		<linearGradient id="SVGID_46_" gradientUnits="userSpaceOnUse" x1="226.6392" y1="306.8352" x2="239.3186" y2="306.8352">
			<stop  offset="0" style="stop-color:#09005D"/>
			<stop  offset="1" style="stop-color:#1A0F91"/>
		</linearGradient>
		<path class="st50" d="M236,277.76c-0.16,0.79-0.83,39.45,3.3,56.78c0.07,0.28-0.08,0.57-0.34,0.68c-0.63,0.26-1.88,0.63-3.37,0.68
			c-0.46,0.02-0.87-0.28-1-0.73c-1.18-4.02-6.84-24.16-7.58-43.4c-0.83-21.5,0-0.73,0-0.73l0.48-13.29L236,277.76z"/>
		<linearGradient id="SVGID_47_" gradientUnits="userSpaceOnUse" x1="240.0602" y1="323.7651" x2="196.8888" y2="370.7234">
			<stop  offset="0" style="stop-color:#4042E2"/>
			<stop  offset="1" style="stop-color:#4F52FF"/>
		</linearGradient>
		<path class="st51" d="M222.54,337.49c0,0-0.71,1.28-1.4,4.67c-0.12,0.61,0.3,1.2,0.93,1.26c1.1,0.11,2.8,0.25,4.16,0.24
			c0.63,0,1.12-0.55,1.04-1.17c-0.15-1.24-0.62-3.27-2.07-4.86L222.54,337.49z"/>
		<linearGradient id="SVGID_48_" gradientUnits="userSpaceOnUse" x1="221.912" y1="335.9598" x2="225.2229" y2="335.9598">
			<stop  offset="0" style="stop-color:#FF928E"/>
			<stop  offset="1" style="stop-color:#FEB3B1"/>
		</linearGradient>
		<path class="st52" d="M221.91,333.59l0.84,4.58c0,0,0.83,0.62,2.47,0.17l-0.4-4.93L221.91,333.59z"/>
		<linearGradient id="SVGID_49_" gradientUnits="userSpaceOnUse" x1="218.3433" y1="306.4203" x2="236.344" y2="306.4203">
			<stop  offset="0" style="stop-color:#09005D"/>
			<stop  offset="1" style="stop-color:#1A0F91"/>
		</linearGradient>
		<path class="st53" d="M219.64,278.95c-3.38,20.4,0.73,50.42,2.12,56.29c0.08,0.36,0.38,0.64,0.74,0.7
			c0.62,0.1,1.64,0.19,2.64-0.11c0.35-0.1,0.59-0.41,0.6-0.77c0.19-4.75-0.15-33.91,3-45.44c0.16-0.58,0.52-1.09,1.01-1.44
			l6.11-4.35l0.47-7.02L219.64,278.95z"/>
		<g>
			<linearGradient id="SVGID_50_" gradientUnits="userSpaceOnUse" x1="246.334" y1="201.5462" x2="239.1744" y2="238.4181">
				<stop  offset="0" style="stop-color:#09005D"/>
				<stop  offset="1" style="stop-color:#1A0F91"/>
			</linearGradient>
			<path class="st54" d="M241.18,240.3c-10.13-0.17-21.31,2.66-21.31,2.66c-3.02,17.62-0.53,37.94-0.53,37.94
				c7.84,2.06,16.69-1.26,16.69-1.26c1.3-7.36,7.38-28.09,7.38-28.09c4.95-0.61,9.03-2.04,12.38-3.93
				c-2.56-2.97-3.77-6.75-4.29-8.98C247.93,239.75,244.31,240.35,241.18,240.3z"/>
			<linearGradient id="SVGID_51_" gradientUnits="userSpaceOnUse" x1="279.4641" y1="210.8565" x2="246.2101" y2="255.0892">
				<stop  offset="0" style="stop-color:#FF928E"/>
				<stop  offset="1" style="stop-color:#FEB3B1"/>
			</linearGradient>
			<path class="st55" d="M271.1,225.38c-1-1.2-2.25-0.63-2.25-0.63c-1.49,6.3-9.31,11.4-17.34,13.9c0.52,2.23,1.73,6.01,4.29,8.98
				C269.13,240.13,271.1,225.38,271.1,225.38z"/>
		</g>
		<g>
			
				<linearGradient id="SVGID_52_" gradientUnits="userSpaceOnUse" x1="6104.7871" y1="1418.3832" x2="6071.5332" y2="1462.6156" gradientTransform="matrix(-1 0 0 1 7277.7783 0)">
				<stop  offset="0" style="stop-color:#FF928E"/>
				<stop  offset="1" style="stop-color:#FEB3B1"/>
			</linearGradient>
			<path class="st56" d="M270.86,225.68c0.1,0.33-1.1,0.84-1.81-0.52c-0.02-0.65-0.42-3.43-0.03-3.96c2.06-2.82,6.07-6.34,6.07-6.34
				c0.68,0.67,0.12,1.32,0.12,1.32l-1.94,2.02c0.41,0.73,0.9,1.35,1.13,2.24c0.18,0.67,0.07,1.39-0.27,2
				c-0.34,0.61-0.81,1.41-1.25,2.04C272.05,225.67,270.86,225.68,270.86,225.68z"/>
			<linearGradient id="SVGID_53_" gradientUnits="userSpaceOnUse" x1="279.3842" y1="218.3579" x2="262.2003" y2="226.6316">
				<stop  offset="0" style="stop-color:#FF928E"/>
				<stop  offset="1" style="stop-color:#FEB3B1"/>
			</linearGradient>
			<path class="st57" d="M272.41,219.52l-1.77,1.5l-0.56,1.49l1.58,1.75c0,0,0.53-2.96,0.92-3.61
				C272.99,220.02,272.78,219.71,272.41,219.52z"/>
		</g>
		<linearGradient id="SVGID_54_" gradientUnits="userSpaceOnUse" x1="227.4315" y1="197.8758" x2="220.2719" y2="234.7477">
			<stop  offset="0" style="stop-color:#09005D"/>
			<stop  offset="1" style="stop-color:#1A0F91"/>
		</linearGradient>
		<path class="st58" d="M223.76,252.76l-3.89-9.81c0,0-9.46,6.43-11.02,14.58c1.79,0.13,5.04,0.6,8.22,2.2
			C217.78,255.89,223.76,252.76,223.76,252.76z"/>
		<linearGradient id="SVGID_55_" gradientUnits="userSpaceOnUse" x1="211.6076" y1="272.7034" x2="228.3141" y2="252.3374">
			<stop  offset="0" style="stop-color:#FF928E"/>
			<stop  offset="1" style="stop-color:#FEB3B1"/>
		</linearGradient>
		<path class="st59" d="M232.03,261.99c0,0-10.62,6-14.21,0.88c-0.74-1.06-0.92-2.12-0.74-3.13c-3.18-1.61-6.44-2.07-8.22-2.2
			c-0.47,2.46-0.22,5.07,1.22,7.71c6.28,11.48,23.35-0.63,23.35-0.63L232.03,261.99z"/>
		<g>
			<linearGradient id="SVGID_56_" gradientUnits="userSpaceOnUse" x1="230.7302" y1="259.0647" x2="257.291" y2="259.0647">
				<stop  offset="0" style="stop-color:#DAE3FE"/>
				<stop  offset="1" style="stop-color:#E9EFFD"/>
			</linearGradient>
			<path class="st60" d="M230.75,269.59l5.8-20.25c0.07-0.23,0.26-0.4,0.5-0.43c1.05-0.12,4.09-0.47,7.61-0.76
				c4.23-0.36,9.15-0.65,12.09-0.4c0.42,0.04,0.67,0.48,0.48,0.85c-1.67,3.38-8.54,17.13-11.98,21.63
				c-0.11,0.15-0.29,0.24-0.48,0.23l-13.45-0.13C230.93,270.34,230.65,269.96,230.75,269.59z"/>
			<path class="st9" d="M245.26,246.4l4.2-0.7c0.22-0.04,0.41,0.18,0.34,0.39l-0.42,1.26c-0.04,0.11-0.13,0.19-0.25,0.2l-4.04,0.54
				c-0.21,0.03-0.38-0.16-0.33-0.37l0.26-1.1C245.04,246.51,245.14,246.42,245.26,246.4z"/>
			<path class="st9" d="M242.11,249.96l0.35-1.8c0.03-0.18,0.18-0.32,0.37-0.34l8.49-0.86c0.29-0.03,0.51,0.23,0.45,0.51l-0.54,2.25
				c-0.04,0.18-0.2,0.31-0.38,0.32l-8.3,0.42C242.27,250.47,242.06,250.22,242.11,249.96z"/>
			<linearGradient id="SVGID_57_" gradientUnits="userSpaceOnUse" x1="222.3754" y1="265.8634" x2="237.3317" y2="259.6581">
				<stop  offset="0" style="stop-color:#FF928E"/>
				<stop  offset="1" style="stop-color:#FEB3B1"/>
			</linearGradient>
			<path class="st61" d="M232.15,264.7c0,0-0.81-3.32-0.48-4.5c0.33-1.18,0.96-2.69,3.06-2.36c2.1,0.34,4.59,1.22,4.59,1.22
				s-0.13,1.53-1.72,1.04l0.99,0.77c0,0-0.14,1.23-1.49,0.57l0.92,1.02c0,0-0.58,1.01-1.57,0.36
				C235.45,262.18,234.97,265.1,232.15,264.7z"/>
		</g>
		<linearGradient id="SVGID_58_" gradientUnits="userSpaceOnUse" x1="237.9527" y1="225.7314" x2="226.4967" y2="253.7348">
			<stop  offset="0" style="stop-color:#FF928E"/>
			<stop  offset="1" style="stop-color:#FEB3B1"/>
		</linearGradient>
		<path class="st62" d="M230.92,232.07l-3.22,9.32c-0.05,0.15,0.01,0.33,0.15,0.4c0.88,0.49,4.04,1.89,7.86-0.53
			c0.4-0.25,0.67-0.66,0.73-1.13l1.04-8.07H230.92z"/>
		<g>
			
				<linearGradient id="SVGID_59_" gradientUnits="userSpaceOnUse" x1="-5511.3672" y1="-2169.7102" x2="-5524.0962" y2="-2158.2542" gradientTransform="matrix(0.746 -0.6659 0.6659 0.746 5842.4575 -2285.3442)">
				<stop  offset="0" style="stop-color:#FF928E"/>
				<stop  offset="1" style="stop-color:#FEB3B1"/>
			</linearGradient>
			<path class="st63" d="M237.93,223.44c0,0,3.54,6.66,3.09,9.35c-0.45,2.69-4.84,2.5-8.67,0.31l-2.68-7.19L237.93,223.44z"/>
			
				<linearGradient id="SVGID_60_" gradientUnits="userSpaceOnUse" x1="-5858.9512" y1="-1874.6785" x2="-5855.8872" y2="-1857.2024" gradientTransform="matrix(0.746 -0.6659 0.6659 0.746 5842.4575 -2285.3442)">
				<stop  offset="0" style="stop-color:#09005D"/>
				<stop  offset="1" style="stop-color:#1A0F91"/>
			</linearGradient>
			<path class="st64" d="M232.52,229.57c0.16-0.07,0.21-0.26,0.12-0.4c-0.28-0.43-0.82-1.32-0.98-2.09c0,0-0.64-0.41,1.62-0.95
				c2.26-0.54,5.62-1.38,6.33-3.3c0.69-1.87-1.12-6.58-4.01-2.83c-0.11,0.14-0.33,0.15-0.44,0c-0.47-0.62-1.72-1.9-3.45-1.12
				c-1.62,0.73-1.8,1.91-1.78,2.51c0.01,0.18-0.15,0.31-0.32,0.28c-0.82-0.16-2.78-0.29-3.7,1.72c-0.75,1.66-0.26,2.6,0.18,3.06
				c0.14,0.15,0.08,0.39-0.12,0.45c-0.54,0.16-1.23,0.62-1.16,1.88c0.1,1.74,2.04,1.59,2.6,1.51c0.09-0.01,0.18,0.02,0.24,0.09
				c0.48,0.53,2.62,2.76,4.93,3.03c0.2,0.02,0.36-0.17,0.29-0.37l-1-2.92c-0.05-0.14,0.02-0.28,0.15-0.34L232.52,229.57z"/>
			
				<linearGradient id="SVGID_61_" gradientUnits="userSpaceOnUse" x1="-5513.5356" y1="-2172.1223" x2="-5526.2646" y2="-2160.6665" gradientTransform="matrix(0.746 -0.6659 0.6659 0.746 5842.4575 -2285.3442)">
				<stop  offset="0" style="stop-color:#FF928E"/>
				<stop  offset="1" style="stop-color:#FEB3B1"/>
			</linearGradient>
			<path class="st65" d="M232.92,229.99c0,0-2.52-1.73-2.7-0.27c-0.18,1.46,2.27,2.11,3.48,1.57L232.92,229.99z"/>
		</g>
	</g>
	<g>
		<linearGradient id="SVGID_62_" gradientUnits="userSpaceOnUse" x1="384.3603" y1="48.6138" x2="376.6286" y2="111.1702">
			<stop  offset="0" style="stop-color:#E1473D"/>
			<stop  offset="1" style="stop-color:#E9605A"/>
		</linearGradient>
		<path class="st66" d="M404.44,131.44h-49.93c-9.25,0-16.76-7.5-16.76-16.76V60.57h83.45v54.11
			C421.2,123.93,413.69,131.44,404.44,131.44z"/>
		<linearGradient id="SVGID_63_" gradientUnits="userSpaceOnUse" x1="419.8403" y1="5.9" x2="382.3428" y2="79.5314">
			<stop  offset="0" style="stop-color:#FE7062"/>
			<stop  offset="1" style="stop-color:#FF928E"/>
		</linearGradient>
		<path class="st67" d="M404.44,122.68h-49.93c-9.25,0-16.76-7.5-16.76-16.76V60.38h83.45v45.54
			C421.2,115.17,413.69,122.68,404.44,122.68z"/>
		<g>
			<linearGradient id="SVGID_64_" gradientUnits="userSpaceOnUse" x1="462.6075" y1="28.8563" x2="349.2422" y2="63.9227">
				<stop  offset="0" style="stop-color:#E1473D"/>
				<stop  offset="1" style="stop-color:#E9605A"/>
			</linearGradient>
			<rect x="342.56" y="63.1" class="st68" width="2.87" height="4.88"/>
			<linearGradient id="SVGID_65_" gradientUnits="userSpaceOnUse" x1="463.1713" y1="30.6814" x2="349.8066" y2="65.7476">
				<stop  offset="0" style="stop-color:#E1473D"/>
				<stop  offset="1" style="stop-color:#E9605A"/>
			</linearGradient>
			<rect x="349.02" y="63.1" class="st69" width="2.87" height="4.88"/>
			<linearGradient id="SVGID_66_" gradientUnits="userSpaceOnUse" x1="463.6697" y1="32.2934" x2="350.3051" y2="67.3596">
				<stop  offset="0" style="stop-color:#E1473D"/>
				<stop  offset="1" style="stop-color:#E9605A"/>
			</linearGradient>
			<rect x="354.73" y="63.1" class="st70" width="2.87" height="4.88"/>
			<linearGradient id="SVGID_67_" gradientUnits="userSpaceOnUse" x1="464.2347" y1="34.1181" x2="350.8694" y2="69.1845">
				<stop  offset="0" style="stop-color:#E1473D"/>
				<stop  offset="1" style="stop-color:#E9605A"/>
			</linearGradient>
			<rect x="361.19" y="63.1" class="st71" width="2.87" height="4.88"/>
			<linearGradient id="SVGID_68_" gradientUnits="userSpaceOnUse" x1="464.733" y1="35.7302" x2="351.3684" y2="70.7964">
				<stop  offset="0" style="stop-color:#E1473D"/>
				<stop  offset="1" style="stop-color:#E9605A"/>
			</linearGradient>
			<rect x="366.9" y="63.1" class="st72" width="2.87" height="4.88"/>
			<linearGradient id="SVGID_69_" gradientUnits="userSpaceOnUse" x1="465.2975" y1="37.5551" x2="351.9328" y2="72.6213">
				<stop  offset="0" style="stop-color:#E1473D"/>
				<stop  offset="1" style="stop-color:#E9605A"/>
			</linearGradient>
			<rect x="373.37" y="63.1" class="st73" width="2.87" height="4.88"/>
			<linearGradient id="SVGID_70_" gradientUnits="userSpaceOnUse" x1="465.7959" y1="39.1671" x2="352.4312" y2="74.2333">
				<stop  offset="0" style="stop-color:#E1473D"/>
				<stop  offset="1" style="stop-color:#E9605A"/>
			</linearGradient>
			<rect x="379.08" y="63.1" class="st74" width="2.87" height="4.88"/>
			<linearGradient id="SVGID_71_" gradientUnits="userSpaceOnUse" x1="466.3608" y1="40.9919" x2="352.9955" y2="76.0583">
				<stop  offset="0" style="stop-color:#E1473D"/>
				<stop  offset="1" style="stop-color:#E9605A"/>
			</linearGradient>
			<rect x="385.54" y="63.1" class="st75" width="2.87" height="4.88"/>
			<linearGradient id="SVGID_72_" gradientUnits="userSpaceOnUse" x1="466.8592" y1="42.6039" x2="353.4945" y2="77.6701">
				<stop  offset="0" style="stop-color:#E1473D"/>
				<stop  offset="1" style="stop-color:#E9605A"/>
			</linearGradient>
			<rect x="391.25" y="63.1" class="st76" width="2.87" height="4.88"/>
			<linearGradient id="SVGID_73_" gradientUnits="userSpaceOnUse" x1="467.4236" y1="44.4288" x2="354.059" y2="79.495">
				<stop  offset="0" style="stop-color:#E1473D"/>
				<stop  offset="1" style="stop-color:#E9605A"/>
			</linearGradient>
			<rect x="397.72" y="63.1" class="st77" width="2.87" height="4.88"/>
			<linearGradient id="SVGID_74_" gradientUnits="userSpaceOnUse" x1="467.9221" y1="46.0408" x2="354.5574" y2="81.107">
				<stop  offset="0" style="stop-color:#E1473D"/>
				<stop  offset="1" style="stop-color:#E9605A"/>
			</linearGradient>
			<rect x="403.42" y="63.1" class="st78" width="2.87" height="4.88"/>
			<linearGradient id="SVGID_75_" gradientUnits="userSpaceOnUse" x1="468.4868" y1="47.8656" x2="355.1216" y2="82.932">
				<stop  offset="0" style="stop-color:#E1473D"/>
				<stop  offset="1" style="stop-color:#E9605A"/>
			</linearGradient>
			<rect x="409.89" y="63.1" class="st79" width="2.87" height="4.88"/>
		</g>
		<g>
			<g class="st80">
				<rect x="374.89" y="70.52" class="st81" width="8.67" height="8.67"/>
				<rect x="385.43" y="70.52" class="st81" width="8.67" height="8.67"/>
				<rect x="395.86" y="70.52" class="st81" width="8.67" height="8.67"/>
				<rect x="406.2" y="70.52" class="st81" width="8.67" height="8.67"/>
			</g>
			<g class="st80">
				<rect x="343.59" y="81.42" class="st81" width="8.67" height="8.67"/>
				<rect x="354.02" y="81.42" class="st81" width="8.67" height="8.67"/>
				<rect x="364.36" y="81.42" class="st81" width="8.67" height="8.67"/>
				<rect x="374.88" y="81.42" class="st81" width="8.67" height="8.67"/>
				<rect x="385.42" y="81.42" class="st81" width="8.67" height="8.67"/>
				<rect x="395.85" y="81.42" class="st81" width="8.67" height="8.67"/>
				<rect x="406.19" y="81.42" class="st81" width="8.67" height="8.67"/>
			</g>
			<g>
				<rect x="343.84" y="91.81" class="st82" width="8.67" height="8.67"/>
				<rect x="354.27" y="91.81" class="st82" width="8.67" height="8.67"/>
				<linearGradient id="SVGID_76_" gradientUnits="userSpaceOnUse" x1="364.6194" y1="96.1434" x2="373.2907" y2="96.1434">
					<stop  offset="0" style="stop-color:#E1473D"/>
					<stop  offset="1" style="stop-color:#E9605A"/>
				</linearGradient>
				<rect x="364.62" y="91.81" class="st83" width="8.67" height="8.67"/>
				<rect x="375.14" y="91.81" class="st82" width="8.67" height="8.67"/>
				<rect x="385.68" y="91.81" class="st82" width="8.67" height="8.67"/>
				<rect x="396.11" y="91.81" class="st82" width="8.67" height="8.67"/>
				<rect x="406.45" y="91.81" class="st82" width="8.67" height="8.67"/>
			</g>
			<g class="st80">
				<rect x="344.1" y="102.07" class="st81" width="8.67" height="8.67"/>
				<rect x="354.53" y="102.07" class="st81" width="8.67" height="8.67"/>
				<rect x="364.88" y="102.07" class="st81" width="8.67" height="8.67"/>
				<rect x="375.39" y="102.07" class="st81" width="8.67" height="8.67"/>
				<rect x="385.93" y="102.07" class="st81" width="8.67" height="8.67"/>
				<rect x="396.36" y="102.07" class="st81" width="8.67" height="8.67"/>
				<rect x="406.71" y="102.07" class="st81" width="8.67" height="8.67"/>
			</g>
			<g class="st80">
				<rect x="344.1" y="112.3" class="st81" width="8.67" height="8.67"/>
				<rect x="354.53" y="112.3" class="st81" width="8.67" height="8.67"/>
				<rect x="364.88" y="112.3" class="st81" width="8.67" height="8.67"/>
			</g>
		</g>
		<g>
			<linearGradient id="SVGID_77_" gradientUnits="userSpaceOnUse" x1="342.9946" y1="61.7051" x2="349.7433" y2="61.7051">
				<stop  offset="0" style="stop-color:#E1473D"/>
				<stop  offset="1" style="stop-color:#E9605A"/>
			</linearGradient>
			<path class="st84" d="M348.23,59.22h-3.69c-0.85,0-1.54,0.69-1.54,1.54v3.43h1.12v-2.23c0-0.85,0.69-1.54,1.54-1.54h3.69
				c0.14,0,0.27,0.02,0.4,0.05C349.61,59.76,348.98,59.22,348.23,59.22z"/>
			<linearGradient id="SVGID_78_" gradientUnits="userSpaceOnUse" x1="350.1606" y1="61.7051" x2="356.9094" y2="61.7051">
				<stop  offset="0" style="stop-color:#E1473D"/>
				<stop  offset="1" style="stop-color:#E9605A"/>
			</linearGradient>
			<path class="st85" d="M355.39,59.22h-3.69c-0.85,0-1.54,0.69-1.54,1.54v3.43h1.12v-2.23c0-0.85,0.69-1.54,1.54-1.54h3.69
				c0.14,0,0.27,0.02,0.4,0.05C356.77,59.76,356.14,59.22,355.39,59.22z"/>
			<linearGradient id="SVGID_79_" gradientUnits="userSpaceOnUse" x1="356.1167" y1="61.7051" x2="362.8654" y2="61.7051">
				<stop  offset="0" style="stop-color:#E1473D"/>
				<stop  offset="1" style="stop-color:#E9605A"/>
			</linearGradient>
			<path class="st86" d="M361.35,59.22h-3.69c-0.85,0-1.54,0.69-1.54,1.54v3.43h1.12v-2.23c0-0.85,0.69-1.54,1.54-1.54h3.69
				c0.14,0,0.27,0.02,0.4,0.05C362.73,59.76,362.1,59.22,361.35,59.22z"/>
			<linearGradient id="SVGID_80_" gradientUnits="userSpaceOnUse" x1="362.2525" y1="61.7051" x2="369.0013" y2="61.7051">
				<stop  offset="0" style="stop-color:#E1473D"/>
				<stop  offset="1" style="stop-color:#E9605A"/>
			</linearGradient>
			<path class="st87" d="M367.49,59.22h-3.69c-0.85,0-1.54,0.69-1.54,1.54v3.43h1.12v-2.23c0-0.85,0.69-1.54,1.54-1.54h3.69
				c0.14,0,0.27,0.02,0.4,0.05C368.87,59.76,368.24,59.22,367.49,59.22z"/>
			<linearGradient id="SVGID_81_" gradientUnits="userSpaceOnUse" x1="367.9248" y1="61.7051" x2="374.6735" y2="61.7051">
				<stop  offset="0" style="stop-color:#E1473D"/>
				<stop  offset="1" style="stop-color:#E9605A"/>
			</linearGradient>
			<path class="st88" d="M373.16,59.22h-3.69c-0.85,0-1.54,0.69-1.54,1.54v3.43h1.12v-2.23c0-0.85,0.69-1.54,1.54-1.54h3.69
				c0.14,0,0.27,0.02,0.4,0.05C374.54,59.76,373.91,59.22,373.16,59.22z"/>
			<linearGradient id="SVGID_82_" gradientUnits="userSpaceOnUse" x1="374.0607" y1="61.7051" x2="380.8094" y2="61.7051">
				<stop  offset="0" style="stop-color:#E1473D"/>
				<stop  offset="1" style="stop-color:#E9605A"/>
			</linearGradient>
			<path class="st89" d="M379.29,59.22h-3.69c-0.85,0-1.54,0.69-1.54,1.54v3.43h1.12v-2.23c0-0.85,0.69-1.54,1.54-1.54h3.69
				c0.14,0,0.27,0.02,0.4,0.05C380.67,59.76,380.04,59.22,379.29,59.22z"/>
			<linearGradient id="SVGID_83_" gradientUnits="userSpaceOnUse" x1="380.0167" y1="61.7051" x2="386.7654" y2="61.7051">
				<stop  offset="0" style="stop-color:#E1473D"/>
				<stop  offset="1" style="stop-color:#E9605A"/>
			</linearGradient>
			<path class="st90" d="M385.25,59.22h-3.69c-0.85,0-1.54,0.69-1.54,1.54v3.43h1.12v-2.23c0-0.85,0.69-1.54,1.54-1.54h3.69
				c0.14,0,0.27,0.02,0.4,0.05C386.63,59.76,386,59.22,385.25,59.22z"/>
			<linearGradient id="SVGID_84_" gradientUnits="userSpaceOnUse" x1="386.6677" y1="61.7051" x2="393.4164" y2="61.7051">
				<stop  offset="0" style="stop-color:#E1473D"/>
				<stop  offset="1" style="stop-color:#E9605A"/>
			</linearGradient>
			<path class="st91" d="M391.9,59.22h-3.69c-0.85,0-1.54,0.69-1.54,1.54v3.43h1.12v-2.23c0-0.85,0.69-1.54,1.54-1.54h3.69
				c0.14,0,0.27,0.02,0.4,0.05C393.28,59.76,392.65,59.22,391.9,59.22z"/>
			<linearGradient id="SVGID_85_" gradientUnits="userSpaceOnUse" x1="392.4027" y1="61.6501" x2="399.1515" y2="61.6501">
				<stop  offset="0" style="stop-color:#E1473D"/>
				<stop  offset="1" style="stop-color:#E9605A"/>
			</linearGradient>
			<path class="st92" d="M397.64,59.16h-3.69c-0.85,0-1.54,0.69-1.54,1.54v3.43h1.12v-2.23c0-0.85,0.69-1.54,1.54-1.54h3.69
				c0.14,0,0.27,0.02,0.4,0.05C399.02,59.71,398.39,59.16,397.64,59.16z"/>
			<linearGradient id="SVGID_86_" gradientUnits="userSpaceOnUse" x1="398.3588" y1="61.6501" x2="405.1075" y2="61.6501">
				<stop  offset="0" style="stop-color:#E1473D"/>
				<stop  offset="1" style="stop-color:#E9605A"/>
			</linearGradient>
			<path class="st93" d="M403.59,59.16h-3.69c-0.85,0-1.54,0.69-1.54,1.54v3.43h1.12v-2.23c0-0.85,0.69-1.54,1.54-1.54h3.69
				c0.14,0,0.27,0.02,0.4,0.05C404.97,59.71,404.34,59.16,403.59,59.16z"/>
			<linearGradient id="SVGID_87_" gradientUnits="userSpaceOnUse" x1="410.1545" y1="61.7895" x2="416.9033" y2="61.7895">
				<stop  offset="0" style="stop-color:#E1473D"/>
				<stop  offset="1" style="stop-color:#E9605A"/>
			</linearGradient>
			<path class="st94" d="M415.39,59.3h-3.69c-0.85,0-1.54,0.69-1.54,1.54v3.43h1.12v-2.23c0-0.85,0.69-1.54,1.54-1.54h3.69
				c0.14,0,0.27,0.02,0.4,0.05C416.77,59.85,416.14,59.3,415.39,59.3z"/>
			<linearGradient id="SVGID_88_" gradientUnits="userSpaceOnUse" x1="405.0098" y1="61.6501" x2="411.7585" y2="61.6501">
				<stop  offset="0" style="stop-color:#E1473D"/>
				<stop  offset="1" style="stop-color:#E9605A"/>
			</linearGradient>
			<path class="st95" d="M410.24,59.16h-3.69c-0.85,0-1.54,0.69-1.54,1.54v3.43h1.12v-2.23c0-0.85,0.69-1.54,1.54-1.54h3.69
				c0.14,0,0.27,0.02,0.4,0.05C411.62,59.71,410.99,59.16,410.24,59.16z"/>
		</g>
	</g>
	<g>
		<g>
			<g>
				<g>
					
						<rect x="385.7" y="115.4" transform="matrix(0.36 -0.933 0.933 0.36 147.6491 484.4821)" class="st9" width="82.48" height="38.46"/>
					<path class="st96" d="M429.77,96.4l20.53,7.92c-0.64,1.65,0.34,3.62,2.17,4.33c0.06,0.02,0.2,0.07,0.2,0.07l-23.96,62.11
						c0,0-0.14-0.06-0.19-0.08c-1.83-0.71-3.84,0.06-4.49,1.74c-0.01,0.02-0.03,0.05-0.03,0.05l-20.07-7.74
						c1.09-2.83-0.69-3.82-2.51-4.53c-0.06-0.02-0.08,0-0.08,0l23.96-62.11c0,0,0.01,0.01,0.07,0.03
						C427.18,98.89,429.13,98.05,429.77,96.4z"/>
					<g>
						
							<linearGradient id="SVGID_89_" gradientUnits="userSpaceOnUse" x1="1760.6971" y1="3178.6484" x2="1752.4063" y2="3285.3252" gradientTransform="matrix(0.36 -0.933 0.933 0.36 -3180.4019 629.2771)">
							<stop  offset="0" style="stop-color:#50E7B7"/>
							<stop  offset="0.9964" style="stop-color:#323992"/>
						</linearGradient>
						<circle class="st97" cx="426.85" cy="134.55" r="12.1"/>
						<g>
							<path class="st81" d="M434.03,138.63l-1.19-0.46c-0.53,1.22-1.3,2.34-2.02,3.07c-0.26,0.26-0.67,0.28-0.96,0.07l-0.99-0.73
								c-0.36-0.27-0.4-0.79-0.09-1.12c0.7-0.73,1.4-1.69,1.84-2.84c0.46-1.2,0.4-2.25-0.43-2.57c-0.75-0.29-1.46,0.23-2.55,1.72
								c-1.57,2.13-3.26,3.43-5.35,2.62c-1.89-0.73-2.8-2.67-2.26-5.21l-1.19-0.46c-0.38-0.15-0.58-0.58-0.43-0.96l0.27-0.7
								c0.15-0.38,0.58-0.58,0.96-0.43l1.07,0.41c0.49-1.13,1.01-1.9,1.5-2.47c0.25-0.29,0.69-0.34,1-0.11l0.92,0.68
								c0.35,0.26,0.41,0.77,0.12,1.1c-0.47,0.52-1.04,1.3-1.48,2.42c-0.55,1.42-0.12,2.06,0.41,2.26c0.65,0.25,1.43-0.43,2.71-2.06
								c1.81-2.33,3.33-3.01,5.3-2.25c1.81,0.7,2.92,2.66,2.32,5.42l1.34,0.52c0.38,0.15,0.58,0.58,0.43,0.96l-0.27,0.7
								C434.84,138.59,434.41,138.78,434.03,138.63z"/>
						</g>
					</g>
				</g>
				<linearGradient id="SVGID_90_" gradientUnits="userSpaceOnUse" x1="397.0059" y1="156.8361" x2="404.6663" y2="156.8361">
					<stop  offset="0" style="stop-color:#DAE3FE"/>
					<stop  offset="1" style="stop-color:#E9EFFD"/>
				</linearGradient>
				<path class="st98" d="M403.9,167.8c-0.02,0-0.04,0-0.06-0.01l-6.73-2.6c-0.08-0.03-0.13-0.13-0.09-0.21l7.33-19
					c0.03-0.08,0.13-0.13,0.21-0.09c0.08,0.03,0.13,0.13,0.09,0.21l-7.27,18.85l6.57,2.54c0.08,0.03,0.13,0.13,0.09,0.21
					C404.03,167.76,403.96,167.8,403.9,167.8z"/>
				<path class="st81" d="M449.61,123.47c-0.02,0-0.04,0-0.06-0.01c-0.08-0.03-0.13-0.13-0.09-0.21l7.18-18.61l-7.05-2.72
					c-0.08-0.03-0.13-0.13-0.09-0.21c0.03-0.08,0.13-0.13,0.21-0.09l7.2,2.78c0.04,0.02,0.07,0.05,0.09,0.09
					c0.02,0.04,0.02,0.09,0,0.13l-7.24,18.76C449.74,123.43,449.67,123.47,449.61,123.47z"/>
			</g>
			<g>
				<g>
					
						<rect x="383.99" y="111.63" transform="matrix(0.36 -0.933 0.933 0.36 149.9527 480.5525)" class="st1" width="82.48" height="38.71"/>
					<path class="st96" d="M428.01,92.74l20.53,7.92c-0.64,1.65,0.42,3.65,2.25,4.35c0.06,0.02,0.05,0,0.29,0.09l-23.96,62.11
						c-0.23-0.09-0.22-0.09-0.28-0.11c-1.83-0.71-3.89,0.05-4.54,1.73c-0.01,0.02-0.08,0.04-0.08,0.04l-20.07-7.74
						c1.09-2.83-0.72-3.85-2.55-4.55c-0.06-0.02-0.11-0.03-0.11-0.02l23.96-62.11c0,0,0.04,0.03,0.1,0.06
						C425.39,95.21,427.37,94.39,428.01,92.74z"/>
					<g>
						
							<linearGradient id="SVGID_91_" gradientUnits="userSpaceOnUse" x1="1763.5007" y1="3175.689" x2="1755.2098" y2="3282.3657" gradientTransform="matrix(0.36 -0.933 0.933 0.36 -3180.4019 629.2771)">
							<stop  offset="0" style="stop-color:#50E7B7"/>
							<stop  offset="0.9964" style="stop-color:#323992"/>
						</linearGradient>
						<circle class="st99" cx="425.1" cy="130.87" r="12.1"/>
						<g>
							<path class="st81" d="M432.28,134.95l-1.19-0.46c-0.53,1.22-1.3,2.34-2.02,3.07c-0.26,0.26-0.67,0.28-0.96,0.07l-0.99-0.73
								c-0.36-0.27-0.4-0.79-0.09-1.12c0.7-0.73,1.4-1.69,1.84-2.84c0.46-1.2,0.4-2.25-0.43-2.57c-0.75-0.29-1.46,0.23-2.55,1.72
								c-1.57,2.13-3.26,3.43-5.35,2.62c-1.89-0.73-2.8-2.67-2.26-5.21l-1.19-0.46c-0.38-0.15-0.58-0.58-0.43-0.96l0.27-0.7
								c0.15-0.38,0.58-0.58,0.96-0.43l1.07,0.41c0.49-1.13,1.01-1.9,1.5-2.47c0.25-0.29,0.69-0.34,1-0.11l0.92,0.68
								c0.35,0.26,0.41,0.77,0.12,1.1c-0.47,0.52-1.04,1.3-1.48,2.42c-0.55,1.42-0.12,2.06,0.41,2.26c0.65,0.25,1.43-0.43,2.71-2.06
								c1.81-2.33,3.33-3.01,5.3-2.25c1.81,0.7,2.92,2.66,2.32,5.42l1.34,0.52c0.38,0.15,0.58,0.58,0.43,0.96l-0.27,0.7
								C433.09,134.91,432.66,135.1,432.28,134.95z"/>
						</g>
					</g>
				</g>
				<linearGradient id="SVGID_92_" gradientUnits="userSpaceOnUse" x1="395.2664" y1="153.0743" x2="402.8356" y2="153.0743">
					<stop  offset="0" style="stop-color:#DAE3FE"/>
					<stop  offset="1" style="stop-color:#E9EFFD"/>
				</linearGradient>
				<path class="st100" d="M402.39,163.96c-0.02,0-0.04,0-0.06-0.01l-6.96-2.69c-0.08-0.03-0.13-0.13-0.09-0.21l7.24-18.76
					c0.03-0.08,0.13-0.13,0.21-0.09c0.08,0.03,0.13,0.13,0.09,0.21l-7.18,18.61l6.81,2.63c0.08,0.03,0.13,0.13,0.09,0.21
					C402.52,163.92,402.46,163.96,402.39,163.96z"/>
				<path class="st81" d="M447.78,119.78c-0.02,0-0.04,0-0.06-0.01c-0.08-0.03-0.13-0.13-0.09-0.21l7.18-18.61L448,98.32
					c-0.08-0.03-0.13-0.13-0.09-0.21c0.03-0.08,0.13-0.13,0.21-0.09l6.96,2.69c0.04,0.02,0.07,0.05,0.09,0.09
					c0.02,0.04,0.02,0.09,0,0.13l-7.24,18.76C447.91,119.74,447.84,119.78,447.78,119.78z"/>
			</g>
			<g>
				<g>
					<g>
						
							<rect x="382.54" y="108.36" transform="matrix(0.6245 -0.781 0.781 0.6245 59.371 378.9211)" class="st9" width="82.48" height="38.71"/>
						<path class="st3" d="M437.99,92.11l17.18,13.74c-1.11,1.38-0.72,3.61,0.81,4.83c0.05,0.04,0.02,0.02,0.22,0.18l-41.58,51.99
							c-0.2-0.16-0.17-0.14-0.22-0.18c-1.53-1.22-3.7-1.13-4.83,0.27c-0.02,0.02-0.07,0.01-0.07,0.01l-16.8-13.43
							c1.9-2.37,0.45-3.88-1.08-5.1c-0.05-0.04-0.12-0.05-0.13-0.05l41.58-51.99c0,0,0.06,0.04,0.1,0.08
							C434.72,93.68,436.88,93.49,437.99,92.11z"/>
						<g>
							
								<ellipse transform="matrix(0.967 -0.2549 0.2549 0.967 -18.5343 112.1999)" class="st1" cx="423.7" cy="127.62" rx="12.1" ry="12.1"/>
						</g>
					</g>
					<linearGradient id="SVGID_93_" gradientUnits="userSpaceOnUse" x1="385.9606" y1="142.0318" x2="399.009" y2="142.0318">
						<stop  offset="0" style="stop-color:#DAE3FE"/>
						<stop  offset="1" style="stop-color:#E9EFFD"/>
					</linearGradient>
					<path class="st101" d="M391.95,152.48c-0.04,0-0.07-0.01-0.1-0.04l-5.83-4.66c-0.07-0.06-0.08-0.16-0.03-0.23l12.72-15.91
						c0.06-0.07,0.16-0.08,0.23-0.03c0.07,0.06,0.08,0.16,0.03,0.23l-12.62,15.78l5.7,4.56c0.07,0.06,0.08,0.16,0.03,0.23
						C392.05,152.46,392,152.48,391.95,152.48z"/>
					<linearGradient id="SVGID_94_" gradientUnits="userSpaceOnUse" x1="448.5411" y1="113.4929" x2="461.4315" y2="113.4929">
						<stop  offset="0" style="stop-color:#DAE3FE"/>
						<stop  offset="1" style="stop-color:#E9EFFD"/>
					</linearGradient>
					<path class="st102" d="M448.71,123.84c-0.04,0-0.07-0.01-0.1-0.04c-0.07-0.06-0.08-0.16-0.03-0.23l12.46-15.58l-5.7-4.56
						c-0.07-0.06-0.08-0.16-0.03-0.23c0.06-0.07,0.16-0.08,0.23-0.03l5.83,4.66c0.03,0.03,0.06,0.07,0.06,0.11
						c0,0.04-0.01,0.09-0.03,0.12l-12.56,15.71C448.8,123.82,448.75,123.84,448.71,123.84z"/>
				</g>
				<g>
					<path class="st1" d="M411.28,144.94c1.48,1.18,1.72,3.34,0.54,4.82c-1.18,1.48-3.34,1.72-4.82,0.54
						c-1.48-1.18-1.72-3.34-0.54-4.82C407.65,144,409.8,143.76,411.28,144.94z"/>
					<path class="st1" d="M443.48,104.67c1.48,1.18,1.72,3.34,0.54,4.82c-1.18,1.48-3.34,1.72-4.82,0.54
						c-1.48-1.18-1.72-3.34-0.54-4.82C439.85,103.73,442,103.49,443.48,104.67z"/>
				</g>
			</g>
		</g>
		<g>
			<g>
				
					<linearGradient id="SVGID_95_" gradientUnits="userSpaceOnUse" x1="1028.8685" y1="761.4507" x2="1042.6971" y2="745.3997" gradientTransform="matrix(0.9651 -0.2618 0.2618 0.9651 -779.0228 -287.4334)">
					<stop  offset="0" style="stop-color:#E1473D"/>
					<stop  offset="1" style="stop-color:#E9605A"/>
				</linearGradient>
				<circle class="st103" cx="422.61" cy="158.59" r="10.31"/>
				
					<linearGradient id="SVGID_96_" gradientUnits="userSpaceOnUse" x1="1050.5112" y1="733.6926" x2="1009.6196" y2="795.4682" gradientTransform="matrix(0.9651 -0.2618 0.2618 0.9651 -779.0228 -287.4334)">
					<stop  offset="0" style="stop-color:#FE7062"/>
					<stop  offset="1" style="stop-color:#FF928E"/>
				</linearGradient>
				<circle class="st104" cx="422.61" cy="158.59" r="9.97"/>
				<path class="st105" d="M413.69,157.07c-0.05,0.01-0.1,0.02-0.15,0c-0.18-0.04-0.3-0.21-0.26-0.39c0.73-3.55,3.35-6.34,6.85-7.29
					c0.56-0.15,1.13-0.25,1.7-0.3c0.18-0.02,0.34,0.12,0.36,0.3c0.02,0.18-0.12,0.35-0.3,0.36c-0.53,0.05-1.06,0.14-1.58,0.28
					c-3.25,0.88-5.69,3.48-6.37,6.78C413.9,156.94,413.8,157.03,413.69,157.07z"/>
				<circle class="st105" cx="422.88" cy="158.74" r="8.44"/>
			</g>
			<g>
				
					<linearGradient id="SVGID_97_" gradientUnits="userSpaceOnUse" x1="1047.7637" y1="761.3555" x2="1071.8369" y2="733.4134" gradientTransform="matrix(0.9651 -0.2618 0.2618 0.9651 -779.0228 -287.4334)">
					<stop  offset="0" style="stop-color:#E1473D"/>
					<stop  offset="1" style="stop-color:#E9605A"/>
				</linearGradient>
				<circle class="st106" cx="447.74" cy="139.1" r="17.95"/>
				
					<linearGradient id="SVGID_98_" gradientUnits="userSpaceOnUse" x1="1085.4399" y1="713.0334" x2="1014.2546" y2="820.574" gradientTransform="matrix(0.9651 -0.2618 0.2618 0.9651 -779.0228 -287.4334)">
					<stop  offset="0" style="stop-color:#FE7062"/>
					<stop  offset="1" style="stop-color:#FF928E"/>
				</linearGradient>
				<circle class="st107" cx="447.74" cy="139.1" r="17.35"/>
				<path class="st105" d="M432.13,136.22c-0.05,0.01-0.1,0.02-0.15,0c-0.18-0.04-0.3-0.21-0.26-0.39
					c1.25-6.09,5.75-10.88,11.74-12.5c0.96-0.26,1.94-0.43,2.92-0.52c0.18-0.02,0.34,0.12,0.36,0.3c0.02,0.18-0.12,0.35-0.3,0.36
					c-0.94,0.08-1.88,0.25-2.8,0.5c-5.75,1.56-10.06,6.15-11.26,11.99C432.34,136.09,432.25,136.18,432.13,136.22z"/>
				<circle class="st105" cx="448.2" cy="139.37" r="14.68"/>
			</g>
			<g>
				
					<linearGradient id="SVGID_99_" gradientUnits="userSpaceOnUse" x1="1059.4299" y1="802.2684" x2="1084.201" y2="773.5163" gradientTransform="matrix(0.9651 -0.2618 0.2618 0.9651 -779.0228 -287.4334)">
					<stop  offset="0" style="stop-color:#E1473D"/>
					<stop  offset="1" style="stop-color:#E9605A"/>
				</linearGradient>
				<circle class="st108" cx="470.18" cy="174.55" r="18.47"/>
				
					<linearGradient id="SVGID_100_" gradientUnits="userSpaceOnUse" x1="1098.1984" y1="752.5455" x2="1024.9496" y2="863.2034" gradientTransform="matrix(0.9651 -0.2618 0.2618 0.9651 -779.0228 -287.4334)">
					<stop  offset="0" style="stop-color:#FE7062"/>
					<stop  offset="1" style="stop-color:#FF928E"/>
				</linearGradient>
				<circle class="st109" cx="470.18" cy="174.55" r="17.85"/>
				<path class="st105" d="M454.11,171.57c-0.05,0.01-0.1,0.02-0.15,0c-0.18-0.04-0.3-0.21-0.26-0.39
					c1.29-6.26,5.91-11.19,12.07-12.86c0.98-0.27,1.99-0.45,3-0.53c0.18-0.02,0.34,0.12,0.36,0.3c0.02,0.18-0.12,0.35-0.3,0.36
					c-0.97,0.08-1.94,0.25-2.88,0.51c-5.92,1.61-10.36,6.34-11.6,12.35C454.33,171.44,454.23,171.54,454.11,171.57z"/>
				
					<ellipse transform="matrix(0.9255 -0.3787 0.3787 0.9255 -31.152 191.2531)" class="st105" cx="470.65" cy="174.83" rx="15.11" ry="15.11"/>
			</g>
			<g>
				
					<linearGradient id="SVGID_101_" gradientUnits="userSpaceOnUse" x1="1089.8766" y1="769.2705" x2="1108.0261" y2="748.204" gradientTransform="matrix(0.9651 -0.2618 0.2618 0.9651 -779.0228 -287.4334)">
					<stop  offset="0" style="stop-color:#E1473D"/>
					<stop  offset="1" style="stop-color:#E9605A"/>
				</linearGradient>
				<circle class="st110" cx="486.46" cy="144.07" r="13.53"/>
				
					<linearGradient id="SVGID_102_" gradientUnits="userSpaceOnUse" x1="1118.2819" y1="732.839" x2="1064.613" y2="813.9172" gradientTransform="matrix(0.9651 -0.2618 0.2618 0.9651 -779.0228 -287.4334)">
					<stop  offset="0" style="stop-color:#FE7062"/>
					<stop  offset="1" style="stop-color:#FF928E"/>
				</linearGradient>
				<circle class="st111" cx="486.46" cy="144.07" r="13.08"/>
				<path class="st105" d="M474.71,141.97c-0.05,0.01-0.1,0.02-0.15,0c-0.18-0.04-0.3-0.21-0.26-0.39c0.95-4.62,4.36-8.25,8.91-9.49
					c0.72-0.2,1.47-0.33,2.21-0.39c0.18-0.02,0.34,0.12,0.36,0.3c0.02,0.18-0.12,0.35-0.3,0.36c-0.7,0.06-1.41,0.18-2.09,0.37
					c-4.3,1.17-7.53,4.61-8.43,8.98C474.92,141.84,474.83,141.94,474.71,141.97z"/>
				
					<ellipse transform="matrix(0.727 -0.6866 0.6866 0.727 33.8394 373.6513)" class="st105" cx="486.81" cy="144.27" rx="11.07" ry="11.07"/>
			</g>
		</g>
	</g>
	<g>
		<g>
			<path class="st81" d="M469.33,69.59c-1.9,6.04-5.45,8.26-8.34,7.35c-2.95-0.93-4.39-4.77-2.69-10.29
				c1.7-5.42,5.13-8.27,8.38-7.25C470.03,60.46,470.95,64.44,469.33,69.59z M457.27,89l21.55-25.77l2.27,0.71l-21.55,25.77
				L457.27,89z M461.41,67.44c-1.07,3.3-0.96,6,0.63,6.5c1.59,0.5,3.09-1.55,4.19-5.03c1-3.17,1.15-5.93-0.57-6.48
				C464.04,61.92,462.42,64.22,461.41,67.44z M480.13,86.07c-1.88,5.99-5.42,8.27-8.34,7.35c-2.92-0.92-4.39-4.77-2.64-10.32
				c1.69-5.38,5.13-8.27,8.35-7.26C480.84,76.89,481.75,80.91,480.13,86.07z M472.21,83.92c-1.06,3.25-0.96,6,0.63,6.5
				c1.62,0.51,3.09-1.55,4.19-5.03c1.01-3.22,1.15-5.93-0.57-6.48C474.84,78.4,473.22,80.7,472.21,83.92z"/>
		</g>
		<g>
			<path class="st81" d="M446.96,77h-3.59v-2.93h3.59v-5.28h2.79v5.28h3.59V77h-3.59v5.21h-2.79V77z"/>
		</g>
	</g>
	<g>
		<path class="st1" d="M294.86,63.33c-0.19,0-0.38-0.09-0.5-0.24c-0.15-0.2-0.18-0.46-0.06-0.68c0.06-0.12,6.26-11.89,11.73-22.2
			c0.16-0.31,0.54-0.42,0.85-0.26c6.52,3.44,11.26,9.54,13,16.72c0.04,0.16,0.01,0.33-0.07,0.48c-0.09,0.14-0.23,0.24-0.39,0.28
			L295,63.31C294.95,63.32,294.9,63.33,294.86,63.33z M306.84,41.36c-4.35,8.21-9.08,17.18-10.78,20.4l22.43-5.41
			C316.78,49.99,312.58,44.58,306.84,41.36z"/>
		<path class="st1" d="M288.28,93.5c-1.6,0-3.22-0.15-4.84-0.46c-13.93-2.66-23.1-16.17-20.44-30.1
			c1.29-6.75,5.13-12.59,10.82-16.45c5.69-3.86,12.53-5.28,19.28-3.99c2.52,0.48,4.94,1.33,7.19,2.52c0.15,0.08,0.26,0.21,0.31,0.37
			c0.05,0.16,0.03,0.33-0.05,0.48c-4.43,8.35-9.34,17.67-11.07,20.97l23.05-5.56c0.34-0.08,0.68,0.13,0.76,0.46
			c0.86,3.57,0.95,7.23,0.25,10.86C311.19,84.91,300.38,93.5,288.28,93.5z M288.22,43.3c-4.85,0-9.59,1.45-13.69,4.23
			c-5.41,3.67-9.06,9.23-10.29,15.65c-2.53,13.25,6.19,26.1,19.44,28.63c13.25,2.53,26.1-6.19,28.63-19.44
			c0.62-3.25,0.59-6.52-0.1-9.72l-23.79,5.73c-0.24,0.06-0.49-0.03-0.64-0.23c-0.15-0.2-0.18-0.46-0.06-0.68
			c0.06-0.12,6.04-11.47,11.43-21.64c-1.98-0.98-4.09-1.69-6.27-2.11C291.32,43.44,289.77,43.3,288.22,43.3z"/>
		<path class="st1" d="M297.4,60.59c-0.02,0-0.04,0-0.05-0.01c-0.08-0.03-0.12-0.11-0.09-0.19c0.08-0.23,8.07-14.2,9.67-16.99
			c0.02-0.04,0.06-0.06,0.1-0.07c0.04-0.01,0.08,0,0.12,0.02c0.05,0.03,5.21,3.24,7.98,8.19c0.04,0.08,0.02,0.17-0.06,0.21
			c-0.08,0.04-0.17,0.02-0.21-0.06c-2.47-4.43-6.9-7.45-7.73-7.99c-3.3,5.76-9.42,16.48-9.57,16.8
			C297.52,60.55,297.46,60.59,297.4,60.59z"/>
	</g>
</g>
<g>
	<g>
		<path class="st81" d="M124.13,180.9h16.68c9.94,0,18.12,3.46,18.12,14.62c0,10.78-8.18,15.42-18.12,15.42h-6.04v16.88h-10.64
			V180.9z M139.95,202.52c5.58,0,8.57-2.4,8.57-7c0-4.63-2.99-6.19-8.57-6.19h-5.18v13.19H139.95z M146.21,201.34l14.97,26.48H149.3
			l-10.44-19.68L146.21,201.34z"/>
		<path class="st81" d="M167.52,192.11h8.64l0.76,3.63h0.27c2.88-2.63,6.81-4.5,10.64-4.5c8.91,0,14.32,7.14,14.32,18.17
			c0,12.24-7.49,19.28-15.5,19.28c-3.14,0-6.23-1.4-8.78-3.86h-0.25l0.5,5.79v10.46h-10.6V192.11z M191.3,209.51
			c0-6.41-2.1-9.6-6.59-9.6c-2.27,0-4.36,0.96-6.59,3.31v14.41c1.99,1.76,4.26,2.37,6.12,2.37
			C188.14,220.02,191.3,216.91,191.3,209.51z"/>
	</g>
</g>
</svg>
