<?xml version="1.0" encoding="utf-8"?>
<!-- Generator: Adobe Illustrator 23.0.2, SVG Export Plug-In . SVG Version: 6.00 Build 0)  -->
<svg version="1.1" id="Layer_1" xmlns="http://www.w3.org/2000/svg" xmlns:xlink="http://www.w3.org/1999/xlink" x="0px" y="0px"
	 viewBox="0 0 540 350" style="enable-background:new 0 0 540 350;" xml:space="preserve">
<style type="text/css">
	.st0{fill:#F4F7FA;}
	.st1{fill:url(#SVGID_1_);}
	.st2{opacity:0.8;}
	.st3{fill:#FFFFFF;}
	.st4{fill:url(#SVGID_2_);}
	.st5{opacity:0.7;fill:#D8DEE8;}
	.st6{fill:url(#SVGID_3_);}
	.st7{fill:url(#SVGID_4_);}
	.st8{fill:url(#SVGID_5_);}
	.st9{fill:url(#SVGID_6_);}
	.st10{fill:url(#SVGID_7_);}
	.st11{opacity:0.3;fill:url(#SVGID_8_);}
	.st12{fill:url(#SVGID_9_);}
	.st13{fill:url(#SVGID_10_);}
	.st14{fill:url(#SVGID_11_);}
	.st15{opacity:0.3;fill:url(#SVGID_12_);}
	.st16{fill:url(#SVGID_13_);}
	.st17{fill:url(#SVGID_14_);}
	.st18{fill:url(#SVGID_15_);}
	.st19{fill:url(#SVGID_16_);}
	.st20{fill:url(#SVGID_17_);}
	.st21{opacity:0.3;fill:url(#SVGID_18_);}
	.st22{fill:url(#SVGID_19_);}
	.st23{fill:url(#SVGID_20_);}
	.st24{fill:url(#SVGID_21_);}
	.st25{fill:url(#SVGID_22_);}
	.st26{fill:#26264F;}
	.st27{fill:#D8DEE8;}
	.st28{opacity:0.3;}
	.st29{fill:url(#SVGID_23_);}
	.st30{fill:url(#SVGID_24_);}
	.st31{fill:url(#SVGID_25_);}
	.st32{fill:url(#SVGID_26_);}
	.st33{fill:url(#SVGID_27_);}
	.st34{fill:url(#SVGID_28_);}
	.st35{opacity:0.2;fill:url(#SVGID_29_);}
	.st36{fill:url(#SVGID_30_);}
	.st37{fill:url(#SVGID_31_);}
	.st38{opacity:0.7;}
	.st39{fill:url(#SVGID_32_);}
	.st40{fill:url(#SVGID_33_);}
	.st41{fill:url(#SVGID_34_);}
	.st42{fill:url(#SVGID_35_);}
	.st43{fill:url(#SVGID_36_);}
	.st44{fill:#FEC045;}
	.st45{fill:url(#SVGID_37_);}
	.st46{opacity:0.15;fill:url(#SVGID_38_);}
	.st47{opacity:0.42;}
	.st48{fill:url(#SVGID_39_);}
	.st49{fill:url(#SVGID_40_);}
	.st50{opacity:0.26;fill:url(#SVGID_41_);}
	.st51{opacity:0.53;}
	.st52{fill:url(#SVGID_42_);}
	.st53{fill:url(#SVGID_43_);}
	.st54{fill:url(#SVGID_44_);}
	.st55{fill:url(#SVGID_45_);}
	.st56{fill:url(#SVGID_46_);}
	.st57{opacity:0.3;fill:url(#SVGID_47_);}
	.st58{fill:url(#SVGID_48_);}
	.st59{fill:url(#SVGID_49_);}
	.st60{fill:url(#SVGID_50_);}
	.st61{fill:url(#SVGID_51_);}
	.st62{fill:url(#SVGID_52_);}
	.st63{opacity:0.3;fill:url(#SVGID_53_);}
	.st64{fill:url(#SVGID_54_);}
	.st65{opacity:0.2;fill:url(#SVGID_55_);}
	.st66{fill:url(#SVGID_56_);}
	.st67{fill:url(#SVGID_57_);}
</style>
<g>
	<path class="st0" d="M238.95,346.22C148.66,332.55,75.28,247.18,88.61,152.3C99.99,71.38,170.93,8.41,256.01,2.46
		c6.16-0.43,12.39-0.57,18.68-0.38c47.46,1.37,89.63,20.35,120.82,49.08c31.04,28.59,51.21,66.83,54.88,106.94
		C460.17,264.84,351.25,363.23,238.95,346.22z"/>
	<g>
		<g>
			
				<linearGradient id="SVGID_1_" gradientUnits="userSpaceOnUse" x1="-2322.2271" y1="164.0834" x2="-2376.592" y2="584.9711" gradientTransform="matrix(-1 0 0 1 -2193.9478 0)">
				<stop  offset="0" style="stop-color:#FF9085"/>
				<stop  offset="1" style="stop-color:#FB6FBB"/>
			</linearGradient>
			<path class="st1" d="M154.21,341.32c-21.11-2.71-47.88-9.84-58.64-29.94c-2.56-4.78-5.12-14.07,1.33-17.57
				c5.9-3.2,13.53,0.18,17.92,4.34c3.22,3.06,5.74,9.89,9.36,12.05c5.3,3.16,8.16-5.46,8.05-9.02
				c-0.25-7.96-10.04-11.21-16.54-12.94c-10.8-2.87-23.37-5.33-22.69-17.49c0.68-12.17,12.54-19.46,21.66-14.14
				c7.52,4.39,6.46,13.75,11.6,19.36c4.56,4.99,6.15-3.11,5.85-7.08c-0.66-8.62-8.25-14.86-13.82-20.64
				c-6.31-6.53-13.28-19.68-6.55-28.32c3.87-4.97,13.7-6.14,19.51-5.3c28.44,4.11,9.58,40.91,14.75,45.02
				c5.17,4.11,10.06-3.08,10.05-14.01c-0.01-10.93,1.66-18.99,13.07-15.49c11.41,3.5,13.58,32.05,0.55,43.02
				c-13.02,10.97,0.82,22.94,4.31,15.08c2.52-5.68,4.74-20.54,12.04-22.18c12.16-2.71,11.98,22.11,8.48,27.89
				c-4.9,8.1-15.99,9.86-22.19,16.84c-1.8,2.03-5.86,7.06-4.28,10.02c2.2,4.14,8.34-0.29,10.6-2.21
				c5.07-4.31,12.09-18.96,19.23-9.23C206.68,321.39,191.93,339.2,154.21,341.32z"/>
			<g class="st2">
				<path class="st3" d="M151.17,339.53c0.5,0,0.9-0.57,0.91-1.07c0.01-0.43,0.6-43.8-18.31-95.27c-0.17-0.47-0.7-0.76-1.17-0.58
					c-0.47,0.17-0.72,0.68-0.54,1.15c18.78,51.16,18.2,94.26,18.19,94.68c-0.01,0.5,0.39,1.09,0.89,1.09
					C151.16,339.53,151.17,339.53,151.17,339.53z"/>
			</g>
		</g>
		
			<linearGradient id="SVGID_2_" gradientUnits="userSpaceOnUse" x1="1705.9038" y1="-376.0461" x2="1670.8094" y2="-104.3491" gradientTransform="matrix(-0.7599 0.65 0.65 0.7599 1629.6248 -568.8735)">
			<stop  offset="0" style="stop-color:#AA80F9"/>
			<stop  offset="0.9964" style="stop-color:#6165D7"/>
		</linearGradient>
		<path class="st4" d="M137.41,337.75c0.71-4.44,9.19-5.7,12.61-6.35c1.98-0.37,4.81-0.76,5.82-2.81c1.07-2.15-0.56-3.82-2.64-4.2
			c-3.74-0.68-7.75,1.69-11.22,2.77c-3.73,1.16-7.6,1.71-11.3,0.1c-2.95-1.28-5.97-4.31-6.61-7.5c-1.78-8.84,7.08-8.33,12.85-7.09
			c2.8,0.6,8.3,1.06,8.8-2.9c0.53-4.21-4.83-6.33-8.14-6.46c-4.32-0.16-8.57,0.79-12.86,1.1c-3.87,0.28-8.45-0.14-9.52-4.59
			c-0.83-3.44,1.11-7.39,3.9-9.43c6.46-4.72,14.98,3.33,21.88,3.31c2.44-0.01,6.46-1.8,7.14-4.41c0.68-2.67-2.78-4.46-4.68-5.44
			c-5.63-2.88-31.5-6.58-22.23-17.74c2.33-2.81,6.84-5.17,10.47-5.27c6.86-0.19,14.57,4.47,19.86,8.49
			c8.31,6.32,15.59,15.01,20.31,24.33c10.44,20.59,5.38,34.4,5.38,34.4c-3.03,4.99-7.71,10.18-12.87,12.99
			c-6.06,3.3-15.45,4.76-22.05,2.19C140.18,342.4,136.97,340.5,137.41,337.75z"/>
	</g>
	<path class="st5" d="M419.74,215.04l-8.76,0.59c-1.01-3.91-2.33-7.69-3.97-11.29l7.27-4.88c1.98-1.33,2.49-4.02,1.14-6.02
		l-8.48-12.48c-1.36-2-4.07-2.54-6.06-1.21l-7.37,4.92c-2.8-2.87-5.84-5.5-9.09-7.85l3.88-7.98c1.05-2.15,0.13-4.76-2.05-5.84
		l-13.65-6.72c-2.19-1.08-4.81-0.2-5.87,1.95l-3.91,8c-3.83-1.11-7.79-1.89-11.84-2.34l-0.68-8.97c-0.18-2.41-2.3-4.25-4.74-4.1
		l-15.26,0.9c-2.45,0.14-4.28,2.22-4.1,4.64l0.68,9c-3.97,0.94-7.81,2.2-11.48,3.77l-5.15-7.5c-1.39-2.02-4.16-2.58-6.2-1.24
		l-12.77,8.39c-2.05,1.34-2.58,4.08-1.18,6.1l5.16,7.51c-2.93,2.77-5.61,5.79-8.01,9.03l-8.26-3.99c-2.24-1.08-4.93-0.19-6.01,2
		l-6.76,13.68c-1.08,2.19-0.14,4.84,2.1,5.91l8.2,3.94c-1.12,3.84-1.89,7.82-2.31,11.9l-9.08,0.61c-2.49,0.17-4.35,2.28-4.17,4.72
		l1.16,15.24c0.18,2.44,2.35,4.27,4.84,4.1l9.01-0.63c1.02,4,2.37,7.85,4.04,11.53l-7.41,4.95c-2.06,1.37-2.59,4.12-1.19,6.14
		l8.76,12.61c1.4,2.01,4.2,2.53,6.25,1.15l7.35-4.93c2.89,2.92,6.03,5.58,9.38,7.96l-3.84,7.86c-1.07,2.2-0.14,4.83,2.09,5.88
		l13.9,6.55c2.22,1.05,4.88,0.11,5.95-2.08l3.79-7.79c3.92,1.09,7.98,1.82,12.12,2.21l0.65,8.61c0.18,2.42,2.31,4.22,4.75,4.03
		l15.24-1.2c2.43-0.19,4.25-2.3,4.07-4.71l-0.65-8.58c4.01-1.02,7.87-2.36,11.55-4.02l4.86,7.07c1.37,1.99,4.1,2.49,6.1,1.13
		l12.5-8.52c1.99-1.36,2.51-4.07,1.15-6.06l-4.88-7.11c2.89-2.82,5.53-5.88,7.87-9.15l7.8,3.74c2.17,1.04,4.77,0.13,5.81-2.03
		l6.51-13.51c1.04-2.16,0.13-4.75-2.04-5.8l-7.81-3.77c1.06-3.81,1.79-7.75,2.17-11.78l8.69-0.61c2.39-0.17,4.18-2.24,4-4.63
		l-1.13-14.94C424.21,216.68,422.13,214.87,419.74,215.04z M340.75,188.19c24.56-1.56,45.85,16.83,47.69,41.06
		c1.84,24.23-16.45,45.35-40.99,47.17c-24.69,1.84-46.32-16.53-48.18-41.03C297.41,210.9,316.04,189.76,340.75,188.19z"/>
	<path class="st5" d="M392.04,82.5l-4.82,0.33c-0.55-2.15-1.28-4.23-2.18-6.21l4-2.68c1.09-0.73,1.37-2.21,0.63-3.31l-4.66-6.86
		c-0.75-1.1-2.24-1.4-3.33-0.67l-4.05,2.7c-1.54-1.58-3.21-3.02-5-4.32l2.14-4.39c0.58-1.18,0.07-2.62-1.13-3.21l-7.51-3.69
		c-1.2-0.59-2.65-0.11-3.23,1.07l-2.15,4.4c-2.1-0.61-4.28-1.04-6.51-1.29l-0.37-4.93c-0.1-1.32-1.27-2.33-2.61-2.26l-8.39,0.49
		c-1.34,0.08-2.35,1.22-2.25,2.55l0.38,4.95c-2.18,0.52-4.3,1.21-6.31,2.08l-2.83-4.13c-0.76-1.11-2.29-1.42-3.41-0.68l-7.02,4.61
		c-1.12,0.74-1.42,2.24-0.65,3.36l2.84,4.13c-1.61,1.52-3.09,3.19-4.41,4.96l-4.54-2.19c-1.23-0.59-2.71-0.1-3.3,1.1l-3.72,7.52
		c-0.6,1.2-0.08,2.66,1.16,3.25l4.51,2.16c-0.62,2.11-1.04,4.3-1.27,6.54l-4.99,0.34c-1.37,0.09-2.39,1.25-2.29,2.59l0.64,8.38
		c0.1,1.34,1.29,2.35,2.66,2.25l4.95-0.35c0.56,2.2,1.3,4.32,2.22,6.34l-4.07,2.72c-1.13,0.75-1.42,2.27-0.65,3.38l4.81,6.93
		c0.77,1.11,2.31,1.39,3.43,0.63l4.04-2.71c1.59,1.61,3.31,3.07,5.16,4.38l-2.11,4.32c-0.59,1.21-0.08,2.65,1.15,3.23l7.64,3.6
		c1.22,0.57,2.68,0.06,3.27-1.14l2.08-4.28c2.16,0.6,4.39,1,6.67,1.22l0.36,4.73c0.1,1.33,1.27,2.32,2.61,2.21l8.38-0.66
		c1.34-0.11,2.34-1.26,2.24-2.59l-0.36-4.72c2.2-0.56,4.33-1.3,6.35-2.21l2.67,3.89c0.75,1.09,2.25,1.37,3.35,0.62l6.87-4.68
		c1.1-0.75,1.38-2.24,0.63-3.33l-2.68-3.91c1.59-1.55,3.04-3.23,4.33-5.03l4.29,2.06c1.19,0.57,2.62,0.07,3.2-1.12l3.58-7.43
		c0.57-1.19,0.07-2.61-1.12-3.19l-4.29-2.07c0.58-2.09,0.98-4.26,1.19-6.47l4.78-0.34c1.31-0.09,2.3-1.23,2.2-2.55l-0.62-8.21
		C394.51,83.4,393.36,82.41,392.04,82.5z M348.62,67.74c13.5-0.86,25.21,9.25,26.22,22.57c1.01,13.32-9.05,24.93-22.54,25.94
		c-13.57,1.01-25.46-9.09-26.49-22.56C324.79,80.23,335.04,68.6,348.62,67.74z"/>
	<g>
		
			<linearGradient id="SVGID_3_" gradientUnits="userSpaceOnUse" x1="-848.0096" y1="364.7895" x2="-833.2065" y2="364.7895" gradientTransform="matrix(0.9989 0.0464 -0.0464 0.9989 1251.7813 13.2323)">
			<stop  offset="0" style="stop-color:#444B8C"/>
			<stop  offset="0.9964" style="stop-color:#26264F"/>
		</linearGradient>
		<path class="st6" d="M400.02,331.2c2.63,2.13,2.78,3.64,2.7,4.38c-0.14,1.19-1.03,1.65-3.18,3.89c-2.9,3.03-2.46,3.44-3.93,4.54
			c-3.26,2.42-7.87,2.26-8.15,1.44c-0.2-0.58,1.89-1.05,4.26-3.8c2.19-2.53,2.93-5.05,3.13-5.78c0.36-1.34,0.45-2.5,0.47-3.3
			L400.02,331.2z"/>
		
			<linearGradient id="SVGID_4_" gradientUnits="userSpaceOnUse" x1="-836.5042" y1="347.0854" x2="-843.9401" y2="360.6876" gradientTransform="matrix(0.9989 0.0464 -0.0464 0.9989 1251.7813 13.2323)">
			<stop  offset="0" style="stop-color:#FFC444"/>
			<stop  offset="0.9964" style="stop-color:#F36F56"/>
		</linearGradient>
		<path class="st7" d="M391.2,324.71l5.19,9.04c1.25,0.55,2.44,0.27,3.55-1.34l-2.02-10.99L391.2,324.71z"/>
		
			<linearGradient id="SVGID_5_" gradientUnits="userSpaceOnUse" x1="-864.2454" y1="362.9223" x2="-838.0671" y2="248.7402" gradientTransform="matrix(0.9989 0.0464 -0.0464 0.9989 1251.7813 13.2323)">
			<stop  offset="0" style="stop-color:#AA80F9"/>
			<stop  offset="0.9964" style="stop-color:#6165D7"/>
		</linearGradient>
		<path class="st8" d="M384.91,208.8c-5.05,8.53-13.25,24.99-14.91,47.25c-1.64,21.97,3.91,38.72,6.23,44.96
			c4.35,11.7,11.91,23.99,16.31,29.84c2.96-1.24,4.71-3.18,7.67-4.42c-0.45-1.61-1.82-6.94-2.68-10.11c-0.67-2.46-1.91-7-2.16-7.98
			c-2.13-8.14-0.45-14.24-1.03-24.31c-0.68-11.74-3.37-10.37-2.97-17.42c0.6-10.52,6.57-12.98,13.41-28.21
			c4.69-10.42,9.61-21.37,5.08-27.36C404.17,203.51,386.84,208.25,384.91,208.8z"/>
		
			<linearGradient id="SVGID_6_" gradientUnits="userSpaceOnUse" x1="-771.4731" y1="344.2592" x2="-751.1029" y2="344.2592" gradientTransform="matrix(1 0 0 1 1174.6333 0)">
			<stop  offset="0" style="stop-color:#444B8C"/>
			<stop  offset="0.9964" style="stop-color:#26264F"/>
		</linearGradient>
		<path class="st9" d="M421.47,339.46c1.58,1,2.53,3.39,1.81,4.9c-0.71,1.48-2.51,1.01-6.89,2.36c-4.69,1.44-5.62,2.9-9.08,2.9
			c-1.4,0-3.93-0.24-4.14-1.18c-0.15-0.66,0.93-1.32,4.47-3.7c5.03-3.38,4.97-3.47,6.1-3.99
			C416.56,339.44,419.39,338.13,421.47,339.46z"/>
		
			<linearGradient id="SVGID_7_" gradientUnits="userSpaceOnUse" x1="-760.3875" y1="343.2248" x2="-752.5372" y2="326.9766" gradientTransform="matrix(1 0 0 1 1174.6333 0)">
			<stop  offset="0" style="stop-color:#FFC444"/>
			<stop  offset="0.9964" style="stop-color:#F36F56"/>
		</linearGradient>
		<path class="st10" d="M413.97,332.3l1.93,8.8c0.27,0.39,3.01,1.33,4.93,0l-0.71-8.8H413.97z"/>
		
			<linearGradient id="SVGID_8_" gradientUnits="userSpaceOnUse" x1="-863.8828" y1="363.0054" x2="-837.7045" y2="248.8233" gradientTransform="matrix(0.9989 0.0464 -0.0464 0.9989 1251.7813 13.2323)">
			<stop  offset="0" style="stop-color:#AA80F9"/>
			<stop  offset="0.9964" style="stop-color:#6165D7"/>
		</linearGradient>
		<path class="st11" d="M409.86,211.04c-5.69-7.53-23.02-2.8-24.95-2.25c-2.08,3.5-4.68,8.37-7.15,14.4
			c6.14-1.21,8.8-0.11,10.05,1.34c4.82,5.65-10.27,18.13-7.17,37.07c1.21,7.41,4.38,10.74,3.8,19.78
			c-0.43,6.73-2.52,10.14-3.97,15.07c-0.87,2.96-1.54,6.59-1.57,10.99c4.34,9.54,10.04,18.62,13.63,23.4
			c2.96-1.24,4.71-3.18,7.67-4.42c-0.45-1.61-1.82-6.94-2.68-10.11c-0.67-2.46-1.91-7-2.16-7.98c-2.13-8.14-0.45-14.24-1.03-24.31
			c-0.68-11.74-3.37-10.37-2.97-17.42c0.6-10.52,6.57-12.98,13.41-28.21C409.46,227.98,414.38,217.03,409.86,211.04z"/>
		
			<linearGradient id="SVGID_9_" gradientUnits="userSpaceOnUse" x1="-772.4006" y1="286.3502" x2="-726.1548" y2="213.4451" gradientTransform="matrix(1 0 0 1 1174.6333 0)">
			<stop  offset="0" style="stop-color:#AA80F9"/>
			<stop  offset="0.9964" style="stop-color:#6165D7"/>
		</linearGradient>
		<path class="st12" d="M398.44,213.42c-0.49,19.63,0.25,42.37,3.48,67.44c2.63,20.41,6.45,38.82,10.66,54.98
			c0.58,0.33,2.63,1.39,5.24,0.89c1.85-0.35,3.09-1.31,3.64-1.8c-0.46-3.3-0.93-8.29-0.54-14.33c0.66-10.37,3.1-12.49,4.15-23.22
			c0.92-9.41-0.05-17.1-0.52-20.67c-1.45-10.97-3.41-11.2-3.45-17.77c-0.06-10.12,4.57-13.75,7.11-23.39
			c1.7-6.43,2.6-16.04-1.67-29.21C417.18,208.7,407.81,211.06,398.44,213.42z"/>
		
			<linearGradient id="SVGID_10_" gradientUnits="userSpaceOnUse" x1="-807.1404" y1="126.9104" x2="-792.1151" y2="180.2034" gradientTransform="matrix(1 0 0 1 1174.6333 0)">
			<stop  offset="0" style="stop-color:#311944"/>
			<stop  offset="1" style="stop-color:#893976"/>
		</linearGradient>
		<path class="st13" d="M388.43,135.11c-3.44,1.93-8.22,5.13-12.68,10.24c-10.27,11.77-16.63,31.13-10.03,37.46
			c4.49,4.31,15.15,3,18.82-2.11c2.7-3.76,0.76-8.38-0.18-14.95C383.37,158.68,383.4,148.43,388.43,135.11z"/>
		
			<linearGradient id="SVGID_11_" gradientUnits="userSpaceOnUse" x1="-781.1903" y1="119.7048" x2="-751.6781" y2="224.3808" gradientTransform="matrix(1 0 0 1 1174.6333 0)">
			<stop  offset="0" style="stop-color:#311944"/>
			<stop  offset="1" style="stop-color:#893976"/>
		</linearGradient>
		<path class="st14" d="M428.33,211.08c-3.8-50.15-15.93-70.68-14.87-76.77c-1.53-1.1-7.56-2.84-21.22-1.04
			c-1.17,0.43-4.28,1.69-7.37,4.51c0,0-0.72,0.65-1.7,1.81c9.6,1.81,19.38,7.28,22.9,15.02c6.1,14.81-5.23,31.36,0,44.42
			c2.75,6.87,7.14,12.95,12.39,18.64C424.44,216.17,428.55,213.97,428.33,211.08z"/>
		
			<linearGradient id="SVGID_12_" gradientUnits="userSpaceOnUse" x1="-766.4435" y1="290.1291" x2="-720.1977" y2="217.2239" gradientTransform="matrix(1 0 0 1 1174.6333 0)">
			<stop  offset="0" style="stop-color:#AA80F9"/>
			<stop  offset="0.9964" style="stop-color:#6165D7"/>
		</linearGradient>
		<path class="st15" d="M426.55,206.35c-2.74,0.69-5.49,1.38-8.23,2.07c1.43,4.94,2.81,12.36,1.16,20.78
			c-2.29,11.63-8.2,14.18-9.07,24.66c-0.78,9.43,3.67,11.36,5.8,23.94c2.18,12.89-1.12,18.96-1.81,29.74
			c-0.47,7.38,0.29,17.04,4.79,28.79c1.11-0.44,1.88-1.05,2.29-1.4c-0.46-3.3-0.93-8.29-0.54-14.33c0.66-10.37,3.1-12.49,4.15-23.22
			c0.92-9.41-0.05-17.1-0.52-20.67c-1.45-10.97-3.41-11.2-3.45-17.77c-0.06-10.12,4.57-13.75,7.11-23.39
			C429.92,229.12,430.82,219.52,426.55,206.35z"/>
		
			<linearGradient id="SVGID_13_" gradientUnits="userSpaceOnUse" x1="-798.1575" y1="110.0152" x2="-768.6446" y2="214.6938" gradientTransform="matrix(1 0 0 1 1174.6333 0)">
			<stop  offset="0" style="stop-color:#311944"/>
			<stop  offset="1" style="stop-color:#893976"/>
		</linearGradient>
		<path class="st16" d="M384.86,137.77c0,0-3.64,3.31-5.76,8.17c-3.19,7.32,0.25,13.61,1.28,25.57c1.13,13.12-0.47,34.97-4.16,42.8
			c-0.06,0.14-0.22,0.53-0.16,1.02c1,7.57,53.03,5.85,52.27-4.25c-3.8-50.15-15.93-70.68-14.87-76.77
			c-1.53-1.1-7.56-2.84-21.22-1.04C391.06,133.69,387.94,134.95,384.86,137.77z"/>
		<g>
			
				<linearGradient id="SVGID_14_" gradientUnits="userSpaceOnUse" x1="125.6834" y1="-237.0432" x2="126.6258" y2="-262.1459" gradientTransform="matrix(-0.917 0.3988 0.3988 0.917 613.5775 307.7635)">
				<stop  offset="0" style="stop-color:#FFC444"/>
				<stop  offset="0.9964" style="stop-color:#F36F56"/>
			</linearGradient>
			<path class="st17" d="M400.32,120.67c0,0,3.36,10.55,4.45,11.82c1.09,1.27-4.37,4.59-8.55,3.09c-3.84-1.37,0-7.23,0-7.23
				L400.32,120.67z"/>
			<g>
				
					<linearGradient id="SVGID_15_" gradientUnits="userSpaceOnUse" x1="149.2009" y1="609.975" x2="161.3338" y2="625.3871" gradientTransform="matrix(0.8225 0.5688 -0.5688 0.8225 621.3498 -482.0252)">
					<stop  offset="0" style="stop-color:#444B8C"/>
					<stop  offset="0.9964" style="stop-color:#26264F"/>
				</linearGradient>
				<path class="st18" d="M389.89,118.21c-1.32-2.08-1.13-5.51,0.74-7.53c1.61-1.74,3.94-1.82,5.33-1.87
					c4.03-0.14,8.93,1.93,10.39,5.75c0.86,2.26-1.75,6.61-2.17,7.39c-0.47,0.89-1.22,1.15-1.94,1.79c-1,0.89-2.58,2.31-5.15,4.68
					c-0.12-0.77-0.33-1.73-0.69-2.78c-0.14-0.4-0.7-1.99-1.64-3.34C392.89,119.59,391.14,120.18,389.89,118.21z"/>
				
					<linearGradient id="SVGID_16_" gradientUnits="userSpaceOnUse" x1="-388.7419" y1="531.0122" x2="-389.2874" y2="574.9653" gradientTransform="matrix(-0.9894 -0.1449 -0.1449 0.9894 89.3045 -462.844)">
					<stop  offset="0" style="stop-color:#FFC444"/>
					<stop  offset="0.9964" style="stop-color:#F36F56"/>
				</linearGradient>
				<path class="st19" d="M400.64,126.53c0,0-2.97,4.09-8.17,3.33c-4.65-0.68-4.49-11.23-1.33-13.22c1.06-0.66,3.08-0.81,4.67-0.22
					c0.94,0.35,1.23,0.77,2.77,1.31c1.42,0.49,1.85,0.37,2.26,0.77c0.51,0.51,0.82,1.67-0.34,4.66c0.97-0.83,2.07-1.09,2.8-0.67
					c0.12,0.07,0.42,0.31,0.57,0.66C404.42,124.4,403.21,125.84,400.64,126.53z"/>
				
					<linearGradient id="SVGID_17_" gradientUnits="userSpaceOnUse" x1="-1411.4977" y1="508.4705" x2="-1410.8802" y2="513.9749" gradientTransform="matrix(0.9965 0.0841 -0.0841 0.9965 1841.0551 -264.5334)">
					<stop  offset="0" style="stop-color:#FFC444"/>
					<stop  offset="1" style="stop-color:#F36F56"/>
				</linearGradient>
				<path class="st20" d="M390.52,124.79c0,0,0.97,0.61,2.72,0.65c0.09,0,0.18,0.03,0.18,0.08c0.03,0.17-1.15,0.82-2.16,0.45
					c-0.72-0.27-1.23-1.01-1.12-1.17C390.2,124.73,390.36,124.75,390.52,124.79z"/>
			</g>
		</g>
		
			<linearGradient id="SVGID_18_" gradientUnits="userSpaceOnUse" x1="-794.9709" y1="109.1169" x2="-765.4579" y2="213.7956" gradientTransform="matrix(1 0 0 1 1174.6333 0)">
			<stop  offset="0" style="stop-color:#311944"/>
			<stop  offset="1" style="stop-color:#893976"/>
		</linearGradient>
		<path class="st21" d="M413.65,166.8c-5.68,1.99-13.21,7.6-13.72,14.77c-0.78,11.03,15.64,17.07,13.46,24.8
			c-0.6,2.11-2.48,4.01-14.77,8.44c-4.97,1.8-9.59,3.26-13.79,4.47c15.04,2.22,44.07-0.64,43.5-8.21
			c-1.46-19.2-4.13-34.04-6.82-45.41C418.78,165.56,416.13,165.93,413.65,166.8z"/>
		
			<linearGradient id="SVGID_19_" gradientUnits="userSpaceOnUse" x1="87.1344" y1="145.8743" x2="108.7635" y2="222.59" gradientTransform="matrix(0.9424 0.3345 -0.3345 0.9424 390.2397 -51.4866)">
			<stop  offset="0" style="stop-color:#311944"/>
			<stop  offset="1" style="stop-color:#893976"/>
		</linearGradient>
		<path class="st22" d="M395.78,189.36c9.24,9.38,22.42,12.33,32.56,7.64c14.08-6.51,16.26-24.99,12.97-36.55
			c-5.48-19.3-29.37-30.56-36.89-25.41c-5.44,3.72-5.39,18.1,1.1,25.3c5.83,6.47,14.78,4.84,17.22,11.43c1.82,4.94-1.7,9.92-2,10.33
			c-3.92,5.37-12.46,7.19-20.54,3.5C398.72,186.85,397.25,188.11,395.78,189.36z"/>
		
			<linearGradient id="SVGID_20_" gradientUnits="userSpaceOnUse" x1="-791.677" y1="182.918" x2="-791.0097" y2="165.1431" gradientTransform="matrix(1 0 0 1 1174.6333 0)">
			<stop  offset="0" style="stop-color:#FFC444"/>
			<stop  offset="0.9964" style="stop-color:#F36F56"/>
		</linearGradient>
		<path class="st23" d="M377.49,173.2c0.75-2.42,3.2-3.65,5.12-3.92c1.88-0.26,4.98,0.17,6.22,2.63c1.15,2.3,0.25,5.52-2.41,7.26
			c-0.37-0.93-1.04-2.15-2.22-2.52c-2.17-0.68-4.05,2.15-5.65,1.41C377.27,177.47,376.94,174.97,377.49,173.2z"/>
		<path class="st3" d="M386.36,187.84l7.11,1.24c1.38,0.24,2.56-0.99,2.27-2.36l-2.59-12.02c-0.19-0.87-0.93-1.51-1.82-1.55
			l-8.51-0.46c-1.4-0.08-2.43,1.3-1.96,2.63l3.99,11.24C385.07,187.23,385.66,187.72,386.36,187.84z"/>
		
			<linearGradient id="SVGID_21_" gradientUnits="userSpaceOnUse" x1="-782.7205" y1="192.5172" x2="-782.154" y2="177.4261" gradientTransform="matrix(1 0 0 1 1174.6333 0)">
			<stop  offset="0" style="stop-color:#FFC444"/>
			<stop  offset="0.9964" style="stop-color:#F36F56"/>
		</linearGradient>
		<path class="st24" d="M398.76,186.82c-0.58-4.19-2.35-5.28-2.99-5.59c-1.07-0.52-1.6-0.12-5.34-0.18
			c-3.34-0.05-4.13-0.4-4.55,0.18c-0.8,1.08,0.84,3.93,2.71,5.59c2.61,2.34,5.85,2.54,7.19,2.54L398.76,186.82z"/>
	</g>
	<g>
		<g>
			<g>
				<g>
					<g>
						
							<linearGradient id="SVGID_22_" gradientUnits="userSpaceOnUse" x1="2277.5815" y1="141.2016" x2="2488.7495" y2="141.2016" gradientTransform="matrix(0.9998 0.0199 -0.0199 0.9998 -2156.5291 -10.6929)">
							<stop  offset="0" style="stop-color:#444B8C"/>
							<stop  offset="0.9964" style="stop-color:#26264F"/>
						</linearGradient>
						<path class="st25" d="M295.15,18.61l30.76,309.35c0.46,4.61-2.71,8.63-7.06,8.95l-149.87,12.55
							c-9.14,0.32-14.07-4.6-14.56-9.48L121.09,12.54c-0.5-4.92,4.06-9.27,13.29-9.08l151.91,6.4
							C290.7,10.03,294.68,13.97,295.15,18.61z"/>
						<path class="st26" d="M301.96,18.22l30.89,310.94c0.46,4.63-2.72,8.68-7.09,9l-155.37,11.39c-4.85,0.36-9.24-3.36-9.74-8.26
							L127.17,12.1c-0.5-4.95,3.13-8.84,8.06-8.65l157.84,5.97C297.5,9.59,301.5,13.55,301.96,18.22z"/>
						<path class="st27" d="M298.69,35.37l28.65,288.2c0.43,4.33-2.55,8.1-6.64,8.39l-146.14,10.39c-4.51,0.32-8.59-3.15-9.05-7.71
							l-30.9-304.05c-0.47-4.6,2.91-8.25,7.48-8.1l148.28,4.72C294.52,27.34,298.26,31.01,298.69,35.37z"/>
					</g>
					<path class="st3" d="M220.09,16.31c0.17,1.66-1.01,2.97-2.62,2.91c-1.62-0.05-3.07-1.45-3.24-3.12
						c-0.17-1.67,1.01-2.97,2.63-2.91C218.48,13.25,219.92,14.65,220.09,16.31z"/>
				</g>
			</g>
			<g class="st28">
				<path class="st0" d="M205.7,168.09c-15.44-45.63,11.44-68.61-3.79-110.87c-8.28-22.99-24.86-40.12-43.1-52.88l-23.59-0.89
					c-4.93-0.19-8.56,3.71-8.06,8.65l33.48,329.18c0.5,4.9,4.89,8.62,9.74,8.26l134.14-9.83c-0.42-34.37-9.15-58.83-18.86-76.22
					C258.98,215.71,221.69,215.34,205.7,168.09z"/>
			</g>
		</g>
		<g>
			<g>
				
					<linearGradient id="SVGID_23_" gradientUnits="userSpaceOnUse" x1="-3212.8845" y1="-2203.9751" x2="-3139.7468" y2="-1961.0774" gradientTransform="matrix(0.6379 -0.7701 0.7701 0.6379 3922.9092 -953.7583)">
					<stop  offset="0" style="stop-color:#AA80F9"/>
					<stop  offset="0.9964" style="stop-color:#6165D7"/>
				</linearGradient>
				<path class="st29" d="M294.09,58.67c23.13,19.16,46.27,38.33,69.4,57.49c-59.68,26.84-52.74,108.87-112.42,135.7
					c-23.13-19.16-46.27-38.33-69.4-57.49C241.35,167.54,234.41,85.51,294.09,58.67z"/>
				<path class="st3" d="M351.79,115.18c-50.63,28.53-48.72,100.58-99.35,129.11c-19.69-16.31-39.38-32.62-59.07-48.93
					C244,166.83,242.09,94.78,292.72,66.25C312.41,82.56,332.1,98.87,351.79,115.18z"/>
				<g>
					<g>
						
							<linearGradient id="SVGID_24_" gradientUnits="userSpaceOnUse" x1="-3278.1902" y1="-2191.6882" x2="-3190.7554" y2="-1901.3079" gradientTransform="matrix(0.6379 -0.7701 0.7701 0.6379 3922.9092 -953.7583)">
							<stop  offset="0" style="stop-color:#AA80F9"/>
							<stop  offset="0.9964" style="stop-color:#6165D7"/>
						</linearGradient>
						<path class="st30" d="M203.87,186.94c0.26,0.22,0.49,0.42,0.72,0.65c0.02,0.02,0.04,0.04,0.06,0.06
							c2.69,2.59,3.96,5.87,3.65,9c-0.27,2.74-1.75,5.36-4.57,7.29c-0.41,0.28-0.85,0.54-1.32,0.8c-1.76,0.95-3.78,1.58-5.92,1.92
							c-4.94-4.09-9.88-8.19-14.82-12.28c6.34-2.85,11.93-6.33,16.93-10.3C200.41,184.61,202.31,185.65,203.87,186.94z"/>
						
							<linearGradient id="SVGID_25_" gradientUnits="userSpaceOnUse" x1="-3304.5132" y1="-2204.416" x2="-3212.4834" y2="-1898.7758" gradientTransform="matrix(0.6379 -0.7701 0.7701 0.6379 3922.9092 -953.7583)">
							<stop  offset="0" style="stop-color:#AA80F9"/>
							<stop  offset="0.9964" style="stop-color:#6165D7"/>
						</linearGradient>
						<path class="st31" d="M264.32,237.02c1.62,1.34,2.71,2.82,3.61,4.62c-4.98,3.94-10.54,7.4-16.85,10.23
							c-5.06-4.19-10.11-8.38-15.17-12.56c1.17-1.15,2.66-2.22,4.42-3.17c0.47-0.25,0.94-0.49,1.42-0.71
							c7.2-3.3,16.04-3.3,21.93,1.08c0.02,0.02,0.05,0.03,0.07,0.05C263.94,236.71,264.14,236.87,264.32,237.02z"/>
					</g>
					<g>
						
							<linearGradient id="SVGID_26_" gradientUnits="userSpaceOnUse" x1="-3136.6516" y1="-2254.8755" x2="-3045.0679" y2="-1950.7169" gradientTransform="matrix(0.6379 -0.7701 0.7701 0.6379 3922.9092 -953.7583)">
							<stop  offset="0" style="stop-color:#AA80F9"/>
							<stop  offset="0.9964" style="stop-color:#6165D7"/>
						</linearGradient>
						<path class="st32" d="M294.09,58.67c4.94,4.09,9.88,8.19,14.82,12.28c-1.17,1.15-2.66,2.22-4.42,3.17
							c-0.47,0.25-0.94,0.49-1.42,0.71c-7.13,3.27-15.83,3.32-21.72-0.93c-0.28-0.2-0.5-0.37-0.76-0.58
							c-1.56-1.29-2.82-2.87-3.43-4.34C282.15,65,287.75,61.52,294.09,58.67z"/>
						
							<linearGradient id="SVGID_27_" gradientUnits="userSpaceOnUse" x1="-3159.583" y1="-2256.5557" x2="-3071.6782" y2="-1964.6151" gradientTransform="matrix(0.6379 -0.7701 0.7701 0.6379 3922.9092 -953.7583)">
							<stop  offset="0" style="stop-color:#AA80F9"/>
							<stop  offset="0.9964" style="stop-color:#6165D7"/>
						</linearGradient>
						<path class="st33" d="M348.32,103.6c5.06,4.19,10.11,8.38,15.17,12.56c-6.31,2.84-11.88,6.29-16.85,10.23
							c-2.19-0.77-3.98-1.67-5.6-3.02c-0.18-0.15-0.37-0.32-0.55-0.48c-0.02-0.02-0.04-0.04-0.06-0.06
							c-2.62-2.42-3.97-5.48-3.92-8.48c0.05-3.01,1.53-5.94,4.6-8.04c0.41-0.28,0.84-0.55,1.31-0.8
							C344.18,104.58,346.18,103.94,348.32,103.6z"/>
					</g>
				</g>
				
					<linearGradient id="SVGID_28_" gradientUnits="userSpaceOnUse" x1="-3189.9321" y1="-2127.8596" x2="-3175.4685" y2="-2079.8242" gradientTransform="matrix(0.6379 -0.7701 0.7701 0.6379 3922.9092 -953.7583)">
					<stop  offset="0" style="stop-color:#AA80F9"/>
					<stop  offset="0.9964" style="stop-color:#6165D7"/>
				</linearGradient>
				<path class="st34" d="M284.68,131.31c11.08,9.18,14.35,27.1,7.97,40.58c-6.38,13.48-21.15,16.45-32.33,7.19
					c-11.08-9.18-14.35-27.1-7.97-40.58C258.73,125.03,273.5,122.05,284.68,131.31z"/>
				<g>
					<path class="st3" d="M276.56,147.4c-1.95,0.46-3.97,1.78-6.3,4.5c-1.64-1.36-3.28-2.72-4.93-4.08
						c0.06-0.11,0.13-0.23,0.19-0.34c0.64-1.1,1.37-2.09,2.14-2.92c0.44-0.48,0.92-0.92,1.41-1.32c0.55-0.44,0.55-1.4,0.01-1.95
						c-0.68-0.68-1.35-1.36-2.03-2.04c-0.43-0.43-1.04-0.44-1.43-0.04c-0.67,0.67-1.32,1.42-1.92,2.16c-0.82,1-1.57,2.05-2.28,3.21
						c-0.57-0.48-1.15-0.95-1.72-1.43c-0.5-0.42-1.16-0.35-1.5,0.21c-0.34,0.56-0.18,1.31,0.33,1.73c0.59,0.49,1.17,0.97,1.76,1.46
						c-1.41,2.9-1.99,5.62-1.73,8.07c0.27,2.47,1.38,4.52,3.33,6.13c1.89,1.56,3.8,2.11,5.74,1.65c1.93-0.46,3.93-1.94,6-4.43
						c1.82,1.52,3.65,3.04,5.47,4.56c-0.71,1.25-1.52,2.39-2.42,3.43c-0.58,0.67-1.2,1.29-1.85,1.87c-0.56,0.5-0.57,1.51,0,2.07
						c0.88,0.87,1.75,1.73,2.63,2.59c0.44,0.43,1.05,0.42,1.45-0.01c0.66-0.71,1.28-1.49,1.88-2.32c0.8-1.12,1.58-2.38,2.31-3.73
						c0.09-0.17,0.18-0.33,0.26-0.5c0.62,0.52,1.25,1.03,1.87,1.55c0.51,0.42,1.16,0.36,1.45-0.24c0-0.01,0.01-0.01,0.01-0.02
						c0.29-0.6,0.13-1.33-0.38-1.75c-0.63-0.52-1.27-1.05-1.9-1.57c0.9-2.16,1.4-4.22,1.48-6.14c0.04-0.83,0-1.66-0.12-2.46
						c-0.39-2.61-1.58-4.7-3.56-6.34C280.39,147.46,278.5,146.94,276.56,147.4z M275.11,156.2c0.78-0.8,1.56-1.37,2.25-1.5
						c0.68-0.14,1.36,0.06,2.02,0.61c0.73,0.6,1.15,1.36,1.29,2.23c0.14,0.87-0.03,1.8-0.53,2.83
						C278.46,158.98,276.78,157.59,275.11,156.2z M266.79,155.03c-0.62,0.15-1.23-0.02-1.82-0.5c-0.62-0.51-0.99-1.18-1.1-2
						c-0.12-0.82,0.07-1.81,0.41-2.68c1.51,1.25,3.02,2.5,4.52,3.75C268.06,154.43,267.41,154.87,266.79,155.03z"/>
				</g>
				
					<linearGradient id="SVGID_29_" gradientUnits="userSpaceOnUse" x1="-3270.813" y1="-2098.6172" x2="-3094.5906" y2="-2098.6172" gradientTransform="matrix(0.6379 -0.7701 0.7701 0.6379 3922.9092 -953.7583)">
					<stop  offset="0" style="stop-color:#AA80F9"/>
					<stop  offset="0.9964" style="stop-color:#6165D7"/>
				</linearGradient>
				<path class="st35" d="M363.27,115.98c0.08,0.06,0.15,0.12,0.23,0.19c-59.68,26.84-52.74,108.87-112.42,135.7
					c-22.65-18.76-45.29-37.52-67.94-56.28c3.29-0.35,6.85-0.56,10.69-0.49c4.43,0.08,9.23,0.51,14.47,1.55
					c5.82,1.15,12.2,3.04,19.26,6.03c34.88,14.8,44.9,2.34,50.95-18.71c1.66-5.58,3.09-11.72,4.83-17.97
					c0.77-2.75,1.62-5.51,2.57-8.26c1.87-5.38,4.12-10.69,6.83-15.62c8.88-16.85,24.48-28.26,43.76-27.75
					c3.53,0.05,7.14,0.46,10.75,1.25c0.94,0.2,1.93,0.36,2.97,0.47C353.98,116.5,358.34,116.34,363.27,115.98z"/>
			</g>
		</g>
		<g>
			
				<linearGradient id="SVGID_30_" gradientUnits="userSpaceOnUse" x1="-6181.3955" y1="-2296.7693" x2="-6343.46" y2="-2311.6042" gradientTransform="matrix(0.3746 -0.924 0.9606 0.2746 4802.0532 -4982.6733)">
				<stop  offset="0" style="stop-color:#311944"/>
				<stop  offset="1" style="stop-color:#893976"/>
			</linearGradient>
			<path class="st36" d="M305.08,128.24c2.07,0.82,3.14,3.01,2.38,4.87l-47.95,117.89c-0.82,2-3.69,3.45-5.83,2.56l-78.11-32.48
				c-2.09-0.87-2.96-3.9-2.1-5.86l48.35-116.04c0.8-1.82,3.1-2.65,5.13-1.85L305.08,128.24z"/>
			
				<linearGradient id="SVGID_31_" gradientUnits="userSpaceOnUse" x1="-6316.3633" y1="-2353.9836" x2="-6087.1313" y2="-2345.4563" gradientTransform="matrix(0.367 -0.9283 0.9606 0.2746 4795.1426 -4985.6626)">
				<stop  offset="3.597120e-03" style="stop-color:#E38DDD"/>
				<stop  offset="1" style="stop-color:#9571F6"/>
			</linearGradient>
			<path class="st37" d="M306.35,125.91c2.09,0.83,3.16,3.04,2.4,4.91l-48.83,119.4c-0.83,2.02-3.26,2.94-5.41,2.04l-78.59-32.66
				c-2.1-0.87-3.12-3.21-2.25-5.18l48.87-117.73c0.8-1.84,3.13-2.68,5.17-1.87L306.35,125.91z"/>
			<g class="st38">
				<path class="st0" d="M247.36,207.6l-8.27,19.38c-0.37,0.86-1.4,1.33-2.29,1.03l-4.88-1.64c-0.89-0.3-1.31-1.25-0.94-2.12
					l8.33-19.37c0.37-0.85,1.39-1.31,2.27-1.01l4.84,1.63C247.3,205.81,247.73,206.75,247.36,207.6z"/>
				<path class="st0" d="M258.25,182.1l-8.12,19.02c-0.36,0.85-1.38,1.3-2.26,1l-4.83-1.63c-0.88-0.3-1.3-1.24-0.94-2.08l8.18-19.01
					c0.36-0.84,1.37-1.28,2.24-0.98l4.79,1.62C258.18,180.34,258.61,181.26,258.25,182.1z"/>
				<path class="st0" d="M268.94,157.07l-7.97,18.68c-0.36,0.83-1.36,1.27-2.23,0.98l-4.78-1.62c-0.87-0.3-1.29-1.22-0.94-2.05
					l8.03-18.67c0.35-0.82,1.35-1.25,2.22-0.96l4.74,1.61C268.87,155.33,269.29,156.24,268.94,157.07z"/>
				<path class="st0" d="M279.44,132.48l-7.83,18.34c-0.35,0.82-1.34,1.25-2.21,0.95l-4.74-1.61c-0.86-0.29-1.28-1.2-0.93-2.02
					l7.89-18.33c0.35-0.81,1.33-1.23,2.19-0.93l4.7,1.61C279.36,130.78,279.78,131.67,279.44,132.48z"/>
			</g>
			<g>
				
					<linearGradient id="SVGID_32_" gradientUnits="userSpaceOnUse" x1="-6328.625" y1="-2381.8711" x2="-6257.3545" y2="-2341.4685" gradientTransform="matrix(0.367 -0.9283 0.9606 0.2746 4795.1426 -4985.6626)">
					<stop  offset="0" style="stop-color:#F57E53"/>
					<stop  offset="4.537139e-03" style="stop-color:#F58152"/>
					<stop  offset="0.042" style="stop-color:#F99A4D"/>
					<stop  offset="0.084" style="stop-color:#FCAD49"/>
					<stop  offset="0.1333" style="stop-color:#FEBA46"/>
					<stop  offset="0.1962" style="stop-color:#FFC244"/>
					<stop  offset="0.3183" style="stop-color:#FFC444"/>
					<stop  offset="0.455" style="stop-color:#FDB946"/>
					<stop  offset="0.6941" style="stop-color:#F99C4C"/>
					<stop  offset="0.9964" style="stop-color:#F36F56"/>
				</linearGradient>
				<path class="st39" d="M224,208.92l-3.9,9.19c-0.71,1.67-2.76,2.44-4.55,1.7l-9.75-4.03c-1.78-0.74-2.66-2.7-1.94-4.37l3.94-9.15
					c0.71-1.65,2.75-2.41,4.53-1.68l9.71,3.99C223.82,205.3,224.7,207.26,224,208.92z"/>
				
					<linearGradient id="SVGID_33_" gradientUnits="userSpaceOnUse" x1="-6316.1997" y1="-2316.2861" x2="-6300.4814" y2="-2316.2861" gradientTransform="matrix(0.3746 -0.924 0.9606 0.2746 4802.0532 -4982.6733)">
					<stop  offset="0" style="stop-color:#FF9085"/>
					<stop  offset="1" style="stop-color:#FB6FBB"/>
				</linearGradient>
				<path class="st40" d="M222.79,209.18l-3.35,7.89c-0.66,1.55-2.54,2.25-4.19,1.56l-8.37-3.46c-1.65-0.68-2.45-2.49-1.79-4.03
					l3.38-7.86c0.66-1.53,2.53-2.23,4.18-1.55l8.34,3.43C222.63,205.84,223.44,207.64,222.79,209.18z M205.49,211.32
					c-0.57,1.33,0.12,2.88,1.54,3.47l8.37,3.46c1.43,0.59,3.05-0.02,3.61-1.35l3.35-7.89c0.56-1.32-0.14-2.88-1.56-3.46l-8.34-3.43
					c-1.42-0.58-3.03,0.02-3.6,1.34L205.49,211.32z"/>
				<g>
					<g>
						<path class="st0" d="M207.99,215.41l5.6-13.06L207.99,215.41z"/>
						
							<linearGradient id="SVGID_34_" gradientUnits="userSpaceOnUse" x1="-6303.063" y1="-2367.0054" x2="-6288.8213" y2="-2367.0054" gradientTransform="matrix(0.367 -0.9283 0.9606 0.2746 4795.1426 -4985.6626)">
							<stop  offset="0" style="stop-color:#FF9085"/>
							<stop  offset="1" style="stop-color:#FB6FBB"/>
						</linearGradient>
						<polygon class="st41" points="213.79,202.43 208.2,215.5 207.78,215.33 213.38,202.26 						"/>
					</g>
					<g>
						<path class="st0" d="M211.13,216.71l5.59-13.07L211.13,216.71z"/>
						
							<linearGradient id="SVGID_35_" gradientUnits="userSpaceOnUse" x1="-6303.4507" y1="-2363.5886" x2="-6289.2017" y2="-2363.5886" gradientTransform="matrix(0.367 -0.9283 0.9606 0.2746 4795.1426 -4985.6626)">
							<stop  offset="0" style="stop-color:#FF9085"/>
							<stop  offset="1" style="stop-color:#FB6FBB"/>
						</linearGradient>
						<polygon class="st42" points="216.93,203.72 211.34,216.8 210.93,216.63 216.51,203.55 						"/>
					</g>
					<g>
						<path class="st0" d="M214.28,218.01l5.58-13.08L214.28,218.01z"/>
						
							<linearGradient id="SVGID_36_" gradientUnits="userSpaceOnUse" x1="-6303.8389" y1="-2360.1689" x2="-6289.5825" y2="-2360.1689" gradientTransform="matrix(0.367 -0.9283 0.9606 0.2746 4795.1426 -4985.6626)">
							<stop  offset="0" style="stop-color:#FF9085"/>
							<stop  offset="1" style="stop-color:#FB6FBB"/>
						</linearGradient>
						<polygon class="st43" points="220.07,205.01 214.49,218.1 214.07,217.93 219.65,204.84 						"/>
					</g>
				</g>
				<g>
					<path class="st44" d="M220.17,210.59l-1.56,3.66c-0.4,0.93-1.53,1.35-2.53,0.94l-7.31-3.02c-0.99-0.41-1.48-1.5-1.08-2.43
						l1.57-3.65c0.4-0.92,1.53-1.35,2.53-0.94l7.29,3C220.08,208.57,220.57,209.66,220.17,210.59z"/>
					
						<linearGradient id="SVGID_37_" gradientUnits="userSpaceOnUse" x1="-6312.8232" y1="-2316.2832" x2="-6303.8315" y2="-2316.2832" gradientTransform="matrix(0.3746 -0.924 0.9606 0.2746 4802.0532 -4982.6733)">
						<stop  offset="0" style="stop-color:#FF9085"/>
						<stop  offset="1" style="stop-color:#FB6FBB"/>
					</linearGradient>
					<path class="st45" d="M220.38,210.67l-1.56,3.66c-0.44,1.04-1.71,1.51-2.82,1.05l-7.31-3.02c-1.11-0.46-1.65-1.68-1.21-2.71
						l1.57-3.65c0.44-1.03,1.71-1.5,2.82-1.05l7.29,3C220.28,208.42,220.82,209.63,220.38,210.67z M207.9,209.83
						c-0.35,0.82,0.08,1.79,0.96,2.15l7.3,3.01c0.88,0.36,1.89-0.01,2.24-0.83l1.56-3.66c0.35-0.82-0.08-1.79-0.97-2.15l-7.29-3
						c-0.88-0.36-1.88,0.01-2.23,0.83L207.9,209.83z"/>
				</g>
			</g>
			
				<linearGradient id="SVGID_38_" gradientUnits="userSpaceOnUse" x1="-6317.6812" y1="-2325.0071" x2="-6095.4482" y2="-2316.7402" gradientTransform="matrix(0.367 -0.9283 0.9606 0.2746 4795.1426 -4985.6626)">
				<stop  offset="0" style="stop-color:#FB6FBB"/>
				<stop  offset="1" style="stop-color:#FF9085"/>
			</linearGradient>
			<path class="st46" d="M256.04,202.49c-2.85,10.36-5.37,16.67-10.77,22.72c-7.42,8.31-16.67,12.1-22.45,13.88l31.69,13.17
				c2.15,0.89,4.59-0.03,5.41-2.04l48.83-119.4c0.77-1.88-0.31-4.09-2.4-4.91l-12.59-4.99c-19.2,13.09-26.45,26.44-29.47,36.45
				C260.64,169.46,262.8,177.88,256.04,202.49z"/>
			<g class="st47">
				
					<linearGradient id="SVGID_39_" gradientUnits="userSpaceOnUse" x1="-6321.8818" y1="-2273.1763" x2="-6290.3726" y2="-2273.1763" gradientTransform="matrix(0.3746 -0.924 0.9606 0.2746 4802.0532 -4982.6733)">
					<stop  offset="0" style="stop-color:#FB6FBB"/>
					<stop  offset="1" style="stop-color:#FF9085"/>
				</linearGradient>
				<path class="st48" d="M264.92,207.93l-11.03,26.73c-0.21,0.51-0.83,0.74-1.37,0.52l-4.48-1.85c-0.54-0.22-0.82-0.82-0.61-1.33
					l11.07-26.68c0.21-0.5,0.82-0.73,1.36-0.51l4.45,1.82C264.85,206.83,265.12,207.43,264.92,207.93z"/>
				
					<linearGradient id="SVGID_40_" gradientUnits="userSpaceOnUse" x1="-6275.8271" y1="-2272.7092" x2="-6234.7983" y2="-2272.7092" gradientTransform="matrix(0.3746 -0.924 0.9606 0.2746 4802.0532 -4982.6733)">
					<stop  offset="0" style="stop-color:#FB6FBB"/>
					<stop  offset="1" style="stop-color:#FF9085"/>
				</linearGradient>
				<path class="st49" d="M286.23,156.66l-14.67,35.55c-0.21,0.51-0.83,0.74-1.37,0.52l-4.48-1.82c-0.54-0.22-0.82-0.82-0.61-1.32
					l14.73-35.5c0.21-0.5,0.81-0.72,1.35-0.51l4.45,1.78C286.16,155.58,286.43,156.17,286.23,156.66z"/>
			</g>
			
				<linearGradient id="SVGID_41_" gradientUnits="userSpaceOnUse" x1="-5912.6528" y1="-2997.6086" x2="-5890.7451" y2="-2997.6086" gradientTransform="matrix(0.2591 -0.9498 0.998 0.1641 4757.3394 -4989.7793)">
				<stop  offset="0" style="stop-color:#FF9085"/>
				<stop  offset="1" style="stop-color:#FB6FBB"/>
			</linearGradient>
			<path class="st50" d="M240.68,113.79c5.41,2.15,7.9,8.41,5.57,13.92c-2.3,5.46-8.46,8.12-13.77,5.99
				c-5.3-2.13-7.82-8.25-5.62-13.73C229.09,114.43,235.28,111.64,240.68,113.79z"/>
			<g class="st51">
				<path class="st0" d="M220.5,197.07c0.35,0.86-0.06,1.86-0.93,2.22c-0.87,0.37-1.87-0.04-2.22-0.91
					c-0.35-0.87,0.08-1.86,0.95-2.22C219.17,195.81,220.15,196.21,220.5,197.07z"/>
				<g>
					<path class="st0" d="M228.71,194.67c-0.06,0.15-0.17,0.28-0.33,0.34c-0.32,0.13-0.69-0.02-0.83-0.34
						c-2.07-4.77-7.59-7.02-12.47-5.09c-0.33,0.13-0.7-0.02-0.83-0.34c-0.13-0.32,0.04-0.68,0.37-0.81
						c5.51-2.16,11.75,0.39,14.09,5.75C228.77,194.35,228.77,194.52,228.71,194.67z"/>
					<path class="st0" d="M226.39,195.65c-0.06,0.15-0.18,0.28-0.34,0.35c-0.32,0.14-0.7-0.02-0.84-0.34
						c-1.51-3.54-5.6-5.21-9.2-3.76c-0.33,0.13-0.71-0.02-0.84-0.34c-0.13-0.32,0.03-0.69,0.37-0.82c4.25-1.69,9.06,0.27,10.84,4.43
						C226.45,195.32,226.45,195.5,226.39,195.65z"/>
					<path class="st0" d="M224.04,196.64c-0.06,0.15-0.18,0.28-0.35,0.35c-0.33,0.14-0.71-0.02-0.84-0.34
						c-0.95-2.28-3.58-3.35-5.89-2.41c-0.33,0.14-0.71-0.02-0.84-0.34c-0.13-0.33,0.03-0.7,0.37-0.83c1.44-0.58,3.01-0.58,4.43,0
						c1.42,0.58,2.53,1.67,3.13,3.09C224.1,196.31,224.1,196.49,224.04,196.64z"/>
				</g>
			</g>
		</g>
		<g>
			<linearGradient id="SVGID_42_" gradientUnits="userSpaceOnUse" x1="191.5481" y1="187.3443" x2="145.5723" y2="202.0993">
				<stop  offset="0" style="stop-color:#FCB148"/>
				<stop  offset="0.0521" style="stop-color:#FDBA46"/>
				<stop  offset="0.1424" style="stop-color:#FFC244"/>
				<stop  offset="0.3183" style="stop-color:#FFC444"/>
				<stop  offset="0.4849" style="stop-color:#FDB946"/>
				<stop  offset="0.7754" style="stop-color:#F99C4D"/>
				<stop  offset="0.8658" style="stop-color:#F8924F"/>
				<stop  offset="1" style="stop-color:#F8924F"/>
			</linearGradient>
			<path class="st52" d="M244.48,185.68c0,21.33-16.68,38.11-37.99,37.45c-22.18-0.68-40.84-19.84-40.84-42.77
				c0-22.93,18.66-39.57,40.84-37.26C227.8,145.32,244.48,164.35,244.48,185.68z"/>
			<linearGradient id="SVGID_43_" gradientUnits="userSpaceOnUse" x1="228.7399" y1="141.5799" x2="187.6955" y2="232.1315">
				<stop  offset="0" style="stop-color:#FFDB44"/>
				<stop  offset="1" style="stop-color:#FEEF06"/>
			</linearGradient>
			<path class="st53" d="M250.24,183.84c0,21.33-16.68,38.11-37.99,37.45c-22.18-0.68-40.84-19.84-40.84-42.77
				s18.66-39.57,40.84-37.26C233.56,143.48,250.24,162.51,250.24,183.84z"/>
			<linearGradient id="SVGID_44_" gradientUnits="userSpaceOnUse" x1="221.1897" y1="237.1925" x2="213.2701" y2="193.928">
				<stop  offset="0" style="stop-color:#FCB148"/>
				<stop  offset="0.0521" style="stop-color:#FDBA46"/>
				<stop  offset="0.1424" style="stop-color:#FFC244"/>
				<stop  offset="0.3183" style="stop-color:#FFC444"/>
				<stop  offset="0.4849" style="stop-color:#FDB946"/>
				<stop  offset="0.7754" style="stop-color:#F99C4D"/>
				<stop  offset="0.8658" style="stop-color:#F8924F"/>
				<stop  offset="1" style="stop-color:#F8924F"/>
			</linearGradient>
			<path class="st54" d="M248.56,183.72c0,20.39-15.96,36.4-36.32,35.74c-21.15-0.68-38.91-18.97-38.91-40.81
				s17.76-37.73,38.91-35.57C232.61,145.17,248.56,163.33,248.56,183.72z"/>
			<linearGradient id="SVGID_45_" gradientUnits="userSpaceOnUse" x1="204.3987" y1="167.1641" x2="237.0364" y2="236.4478">
				<stop  offset="0" style="stop-color:#FCB148"/>
				<stop  offset="0.0521" style="stop-color:#FDBA46"/>
				<stop  offset="0.1424" style="stop-color:#FFC244"/>
				<stop  offset="0.3183" style="stop-color:#FFC444"/>
				<stop  offset="0.4849" style="stop-color:#FDB946"/>
				<stop  offset="0.7754" style="stop-color:#F99C4D"/>
				<stop  offset="0.8658" style="stop-color:#F8924F"/>
				<stop  offset="1" style="stop-color:#F8924F"/>
			</linearGradient>
			<path class="st55" d="M247.36,183.64c0,19.72-15.44,35.18-35.12,34.52c-20.42-0.69-37.54-18.35-37.54-39.42
				s17.12-36.43,37.54-34.36C231.92,146.38,247.36,163.93,247.36,183.64z"/>
			<g>
				<linearGradient id="SVGID_46_" gradientUnits="userSpaceOnUse" x1="203.0984" y1="152.2552" x2="219.5097" y2="213.7621">
					<stop  offset="0" style="stop-color:#FFDB44"/>
					<stop  offset="1" style="stop-color:#FEEF06"/>
				</linearGradient>
				<path class="st56" d="M212.04,151.09L212.04,151.09c1.05,0.1,1.9,1.04,1.9,2.11v3.63c2.09,0.23,4.19,0.6,6.29,1.09
					c1.55,0.36,3.09,0.8,4.61,1.3c0.92,0.3,1.54,1.23,1.45,2.18l-0.45,4.55c-0.12,1.21-1.31,1.92-2.44,1.42
					c-1.01-0.45-2.04-0.83-3.1-1.15c-1.85-0.56-3.79-0.92-5.84-1.09l-0.54-0.04v10.4c5.46,1.53,9.48,3.58,12.07,6.17
					c2.58,2.57,3.87,5.78,3.87,9.63c0,4.16-1.42,7.5-4.28,10.02c-2.87,2.53-6.89,3.95-12.1,4.26v4.01c0,1.06-0.85,1.89-1.9,1.85
					l-0.03,0c-1.05-0.04-1.9-0.94-1.9-2.01v-3.95l-0.84-0.04c-2.44-0.11-4.77-0.36-7.01-0.75c-1.65-0.29-3.27-0.66-4.84-1.11
					c-0.95-0.28-1.61-1.18-1.52-2.16l0.52-5.85c0.11-1.27,1.38-2,2.59-1.53c1.4,0.55,2.82,1.02,4.26,1.4
					c2.24,0.59,4.51,0.97,6.81,1.14l0.03-11.56c-5.24-1.3-9.17-3.22-11.75-5.77c-2.59-2.56-3.89-5.83-3.89-9.81
					c0-4.12,1.41-7.3,4.22-9.53c2.8-2.22,6.77-3.32,11.9-3.32v-3.71C210.14,151.78,210.99,150.99,212.04,151.09z M210.14,164.97
					c-1.62,0.12-2.88,0.56-3.79,1.34c-0.91,0.77-1.36,1.81-1.36,3.12c0,1.24,0.42,2.27,1.26,3.1c0.84,0.83,2.14,1.49,3.89,1.99
					V164.97z M213.5,185.91v10.61c1.76,0,3.11-0.42,4.06-1.26c0.94-0.84,1.41-2.03,1.41-3.57c0-1.4-0.44-2.57-1.31-3.49
					C216.78,187.27,215.4,186.51,213.5,185.91z"/>
			</g>
			<linearGradient id="SVGID_47_" gradientUnits="userSpaceOnUse" x1="194.7968" y1="171.6478" x2="227.3687" y2="240.7917">
				<stop  offset="0" style="stop-color:#FCB148"/>
				<stop  offset="0.0521" style="stop-color:#FDBA46"/>
				<stop  offset="0.1424" style="stop-color:#FFC244"/>
				<stop  offset="0.3183" style="stop-color:#FFC444"/>
				<stop  offset="0.4849" style="stop-color:#FDB946"/>
				<stop  offset="0.7754" style="stop-color:#F99C4D"/>
				<stop  offset="0.8658" style="stop-color:#F8924F"/>
				<stop  offset="1" style="stop-color:#F8924F"/>
			</linearGradient>
			<path class="st57" d="M205.89,188.47c1.19-11.72,11.96-16.68,10.55-27.46c-0.87-6.64-5.9-12.24-11.52-16.62
				c-17.04,1.79-30.22,15.9-30.22,34.35c0,21.08,17.12,38.73,37.54,39.42c1.98,0.07,3.92-0.04,5.8-0.28
				C209.93,209.81,204.87,198.54,205.89,188.47z"/>
		</g>
		<g>
			<linearGradient id="SVGID_48_" gradientUnits="userSpaceOnUse" x1="188.5041" y1="101.7799" x2="157.5387" y2="111.7176">
				<stop  offset="0" style="stop-color:#FCB148"/>
				<stop  offset="0.0521" style="stop-color:#FDBA46"/>
				<stop  offset="0.1424" style="stop-color:#FFC244"/>
				<stop  offset="0.3183" style="stop-color:#FFC444"/>
				<stop  offset="0.4849" style="stop-color:#FDB946"/>
				<stop  offset="0.7754" style="stop-color:#F99C4D"/>
				<stop  offset="0.8658" style="stop-color:#F8924F"/>
				<stop  offset="1" style="stop-color:#F8924F"/>
			</linearGradient>
			<path class="st58" d="M224.15,100.66c0,14.37-11.23,25.67-25.59,25.22c-14.94-0.46-27.51-13.36-27.51-28.8
				c0-15.44,12.57-26.65,27.51-25.1C212.92,73.48,224.15,86.29,224.15,100.66z"/>
			<linearGradient id="SVGID_49_" gradientUnits="userSpaceOnUse" x1="213.5532" y1="70.957" x2="185.9093" y2="131.9447">
				<stop  offset="0" style="stop-color:#FFDB44"/>
				<stop  offset="1" style="stop-color:#FEEF06"/>
			</linearGradient>
			<path class="st59" d="M228.03,99.42c0,14.37-11.23,25.67-25.59,25.22c-14.94-0.46-27.51-13.36-27.51-28.8s12.57-26.65,27.51-25.1
				C216.8,72.24,228.03,85.05,228.03,99.42z"/>
			<linearGradient id="SVGID_50_" gradientUnits="userSpaceOnUse" x1="208.4681" y1="135.3534" x2="203.1342" y2="106.2141">
				<stop  offset="0" style="stop-color:#FCB148"/>
				<stop  offset="0.0521" style="stop-color:#FDBA46"/>
				<stop  offset="0.1424" style="stop-color:#FFC244"/>
				<stop  offset="0.3183" style="stop-color:#FFC444"/>
				<stop  offset="0.4849" style="stop-color:#FDB946"/>
				<stop  offset="0.7754" style="stop-color:#F99C4D"/>
				<stop  offset="0.8658" style="stop-color:#F8924F"/>
				<stop  offset="1" style="stop-color:#F8924F"/>
			</linearGradient>
			<path class="st60" d="M226.9,99.34c0,13.73-10.75,24.52-24.46,24.07c-14.25-0.46-26.21-12.78-26.21-27.49
				c0-14.71,11.96-25.41,26.21-23.96C216.16,73.38,226.9,85.61,226.9,99.34z"/>
			<linearGradient id="SVGID_51_" gradientUnits="userSpaceOnUse" x1="197.1591" y1="88.1883" x2="219.1411" y2="134.8518">
				<stop  offset="0" style="stop-color:#FCB148"/>
				<stop  offset="0.0521" style="stop-color:#FDBA46"/>
				<stop  offset="0.1424" style="stop-color:#FFC244"/>
				<stop  offset="0.3183" style="stop-color:#FFC444"/>
				<stop  offset="0.4849" style="stop-color:#FDB946"/>
				<stop  offset="0.7754" style="stop-color:#F99C4D"/>
				<stop  offset="0.8658" style="stop-color:#F8924F"/>
				<stop  offset="1" style="stop-color:#F8924F"/>
			</linearGradient>
			<path class="st61" d="M226.1,99.29c0,13.28-10.4,23.7-23.66,23.25c-13.75-0.46-25.28-12.36-25.28-26.55s11.53-24.53,25.28-23.14
				C215.7,74.19,226.1,86.01,226.1,99.29z"/>
			<g>
				<linearGradient id="SVGID_52_" gradientUnits="userSpaceOnUse" x1="196.2833" y1="78.1469" x2="207.3366" y2="119.5727">
					<stop  offset="0" style="stop-color:#FFDB44"/>
					<stop  offset="1" style="stop-color:#FEEF06"/>
				</linearGradient>
				<path class="st62" d="M202.31,77.36L202.31,77.36c0.71,0.07,1.28,0.7,1.28,1.42v2.44c1.41,0.16,2.82,0.4,4.24,0.74
					c1.04,0.25,2.08,0.54,3.11,0.88c0.62,0.2,1.04,0.83,0.97,1.47l-0.3,3.07c-0.08,0.81-0.88,1.29-1.64,0.95
					c-0.68-0.3-1.37-0.56-2.08-0.78c-1.24-0.38-2.55-0.62-3.93-0.73l-0.36-0.03v7c3.68,1.03,6.38,2.41,8.13,4.16
					c1.74,1.73,2.6,3.89,2.6,6.49c0,2.81-0.96,5.05-2.88,6.75c-1.93,1.7-4.64,2.66-8.15,2.87v2.7c0,0.72-0.57,1.27-1.28,1.25
					l-0.02,0c-0.71-0.03-1.28-0.63-1.28-1.35v-2.66l-0.57-0.03c-1.64-0.07-3.22-0.24-4.72-0.5c-1.11-0.19-2.2-0.44-3.26-0.75
					c-0.64-0.19-1.08-0.8-1.02-1.45l0.35-3.94c0.08-0.85,0.93-1.35,1.74-1.03c0.94,0.37,1.9,0.69,2.87,0.94
					c1.51,0.4,3.04,0.65,4.59,0.77l0.02-7.79c-3.53-0.87-6.18-2.17-7.91-3.88c-1.75-1.72-2.62-3.93-2.62-6.61
					c0-2.77,0.95-4.92,2.84-6.42c1.88-1.5,4.56-2.24,8.01-2.24v-2.5C201.03,77.83,201.6,77.3,202.31,77.36z M201.03,86.71
					c-1.09,0.08-1.94,0.38-2.55,0.9c-0.61,0.52-0.92,1.22-0.92,2.1c0,0.83,0.28,1.53,0.85,2.09c0.56,0.56,1.44,1,2.62,1.34V86.71z
					 M203.29,100.82v7.14c1.19,0,2.1-0.28,2.73-0.85c0.63-0.57,0.95-1.37,0.95-2.4c0-0.94-0.29-1.73-0.88-2.35
					C205.5,101.73,204.57,101.22,203.29,100.82z"/>
			</g>
			<linearGradient id="SVGID_53_" gradientUnits="userSpaceOnUse" x1="190.6921" y1="91.2081" x2="212.6297" y2="137.7775">
				<stop  offset="0" style="stop-color:#FCB148"/>
				<stop  offset="0.0521" style="stop-color:#FDBA46"/>
				<stop  offset="0.1424" style="stop-color:#FFC244"/>
				<stop  offset="0.3183" style="stop-color:#FFC444"/>
				<stop  offset="0.4849" style="stop-color:#FDB946"/>
				<stop  offset="0.7754" style="stop-color:#F99C4D"/>
				<stop  offset="0.8658" style="stop-color:#F8924F"/>
				<stop  offset="1" style="stop-color:#F8924F"/>
			</linearGradient>
			<path class="st63" d="M198.16,102.54c0.8-7.89,8.05-11.24,7.11-18.5c-0.58-4.48-3.98-8.25-7.76-11.19
				c-11.48,1.2-20.35,10.71-20.35,23.14c0,14.19,11.53,26.09,25.28,26.55c1.34,0.04,2.64-0.02,3.91-0.19
				C200.89,116.91,197.47,109.32,198.16,102.54z"/>
		</g>
		<g>
			<linearGradient id="SVGID_54_" gradientUnits="userSpaceOnUse" x1="260.9027" y1="72.2445" x2="220.5636" y2="427.7748">
				<stop  offset="0" style="stop-color:#AB316D"/>
				<stop  offset="1" style="stop-color:#792D3D"/>
			</linearGradient>
			<path class="st64" d="M306.95,208.23l8.56,99.97c0.22,2.58-0.56,5-2.21,6.74c-1.41,1.49-3.29,2.5-5.5,2.69l-126.13,10.62
				c-5.34,0.45-9.92-3.35-10.3-8.44l-7.92-106.36c-0.37-5.01,3.6-9.36,8.91-9.54l125.34-4.08
				C302.47,199.67,306.55,203.52,306.95,208.23z"/>
			<linearGradient id="SVGID_55_" gradientUnits="userSpaceOnUse" x1="660.0966" y1="102.1817" x2="86.4664" y2="318.6457">
				<stop  offset="0" style="stop-color:#AB316D"/>
				<stop  offset="1" style="stop-color:#792D3D"/>
			</linearGradient>
			<path class="st65" d="M313.45,314.93c-1.41,1.49-3.35,2.5-5.55,2.69l-126.17,10.62c-5.34,0.45-9.96-3.35-10.34-8.44l-7.92-106.36
				c-0.37-5.01,3.6-9.36,8.91-9.54l1.46-0.05c0.53,2.75,1.24,5.83,1.92,8.78c0.09,0.41,0.19,0.86,0.28,1.25
				c0.79,3.41,1.46,6.22,1.58,6.58c3.93,11.78,9.49,25.31,21.24,31.89c17.95,10.07,40.68,8.26,59.56,13.77
				c12.43,3.63,25.19,8.54,35.08,16.75c7.23,6,13.32,13.4,16.89,22.06C311.67,308.08,312.69,311.46,313.45,314.93z"/>
			<g class="st38">
				<path class="st3" d="M297.72,313.27C297.72,313.27,297.72,313.27,297.72,313.27l-4.35,0.27c-0.49,0.04-0.93-0.37-0.97-0.86
					c-0.04-0.49,0.32-0.86,0.82-0.9l4.34-0.29c0,0,0,0,0,0c0.74,0,1.47-0.29,2.16-0.52c0.47-0.16,0.97,0.06,1.13,0.52
					c0.16,0.47-0.09,1.04-0.56,1.19C299.46,312.95,298.61,313.27,297.72,313.27z M286.57,314.01l-6.84,0.56
					c-0.5,0.04-0.94-0.33-0.98-0.82c-0.04-0.5,0.33-0.93,0.83-0.97l6.84-0.55c0.5-0.04,0.93,0.33,0.97,0.82
					C287.43,313.53,287.06,313.97,286.57,314.01z M272.85,315.13l-6.92,0.57c-0.51,0.04-0.95-0.33-0.99-0.83
					c-0.04-0.5,0.34-0.94,0.84-0.98l6.92-0.56c0.5-0.04,0.94,0.33,0.98,0.83C273.72,314.65,273.35,315.09,272.85,315.13z
					 M258.97,316.27l-7,0.57c-0.51,0.04-0.96-0.33-1-0.83c-0.04-0.5,0.34-0.94,0.85-0.98l7-0.57c0.51-0.04,0.95,0.33,0.99,0.83
					C259.85,315.78,259.47,316.22,258.97,316.27z M244.92,317.42l-7.09,0.58c-0.52,0.04-0.97-0.33-1.01-0.84
					c-0.04-0.5,0.35-0.95,0.87-0.99l7.09-0.57c0.51-0.04,0.96,0.33,1,0.83C245.82,316.93,245.43,317.37,244.92,317.42z
					 M230.7,318.58l-7.17,0.59c-0.52,0.04-0.98-0.33-1.02-0.84c-0.04-0.51,0.35-0.95,0.88-1l7.17-0.58
					c0.52-0.04,0.98,0.33,1.02,0.84C231.61,318.09,231.22,318.54,230.7,318.58z M216.31,319.76l-7.26,0.59
					c-0.53,0.04-0.99-0.34-1.03-0.85c-0.04-0.51,0.36-0.96,0.89-1l7.26-0.59c0.53-0.04,0.99,0.34,1.03,0.84
					C217.23,319.27,216.83,319.71,216.31,319.76z M201.74,320.95l-7.35,0.6c-0.54,0.04-1.01-0.34-1.04-0.85
					c-0.04-0.51,0.36-0.97,0.9-1.01l7.35-0.6c0.53-0.04,1,0.34,1.04,0.85C202.67,320.46,202.27,320.91,201.74,320.95z
					 M186.99,321.94c-0.07,0.01-0.13,0-0.2,0c-2.68-0.3-5.21-1.47-7.12-3.31c-0.38-0.37-0.37-0.96,0.02-1.33
					c0.39-0.37,1.01-0.37,1.39,0c1.6,1.54,3.72,2.53,5.97,2.78c0.54,0.06,0.92,0.53,0.85,1.04
					C187.83,321.57,187.45,321.9,186.99,321.94z M305.32,308.59c-0.19,0.02-0.39-0.03-0.56-0.15c-0.41-0.27-0.52-0.82-0.25-1.23
					c1.14-1.73,1.65-3.75,1.48-5.83c-0.04-0.49,0.32-0.92,0.81-0.95c0.49-0.04,0.92,0.33,0.96,0.82c0.21,2.48-0.4,4.88-1.76,6.95
					C305.83,308.43,305.58,308.57,305.32,308.59z M177.31,312.58c-0.53,0.04-1.01-0.3-1.07-0.81c-0.02-0.14-0.04-0.26-0.05-0.4
					l-0.5-6.71c-0.04-0.52,0.29-0.97,0.83-1.01c0.54-0.04,0.93,0.34,0.97,0.86l0.5,6.7c0.01,0.12,0.12,0.22,0.13,0.34
					c0.06,0.51-0.28,0.99-0.83,1.03C177.29,312.58,177.32,312.58,177.31,312.58z M306.75,298.82c-0.49,0.04-0.75-0.33-0.79-0.82
					l-0.57-6.7c-0.04-0.49,0.15-0.91,0.64-0.95c0.49-0.04,0.75,0.33,0.79,0.82l0.57,6.7C307.43,298.35,307.24,298.78,306.75,298.82z
					 M176.13,298.45c-0.54,0.04-0.93-0.34-0.97-0.86l-0.53-7.08c-0.04-0.52,0.29-0.97,0.83-1c0.54-0.04,0.93,0.35,0.97,0.86
					l0.53,7.07C177,297.95,176.67,298.41,176.13,298.45z M305.61,285.42c-0.49,0.03-0.75-0.33-0.79-0.82l-0.57-6.69
					c-0.04-0.49,0.15-0.91,0.64-0.94c0.49-0.03,0.75,0.34,0.79,0.82l0.57,6.68C306.29,284.96,306.1,285.39,305.61,285.42z
					 M175.07,284.31c-0.54,0.04-0.93-0.35-0.97-0.86l-0.53-7.06c-0.04-0.51,0.29-0.96,0.83-1c0.54-0.03,0.93,0.35,0.97,0.87
					l0.53,7.05C175.94,283.82,175.61,284.27,175.07,284.31z M304.47,272.06c-0.49,0.03-0.75-0.34-0.79-0.82l-0.57-6.67
					c-0.04-0.49,0.15-0.9,0.64-0.93c0.49-0.03,0.75,0.34,0.79,0.83l0.57,6.67C305.16,271.61,304.96,272.02,304.47,272.06z
					 M174.01,270.2c-0.54,0.03-0.93-0.35-0.97-0.87l-0.53-7.05c-0.04-0.51,0.29-0.96,0.83-0.99c0.54-0.03,0.93,0.36,0.97,0.87
					l0.53,7.04C174.88,269.72,174.55,270.17,174.01,270.2z M303.34,258.72c-0.49,0.03-0.75-0.34-0.79-0.83l-0.57-6.66
					c-0.04-0.49,0.15-0.9,0.64-0.93c0.49-0.03,0.75,0.35,0.79,0.83l0.57,6.66C304.02,258.27,303.83,258.69,303.34,258.72z
					 M172.95,256.12c-0.54,0.03-0.93-0.36-0.97-0.87l-0.53-7.03c-0.04-0.51,0.29-0.95,0.83-0.98c0.54-0.03,0.93,0.36,0.97,0.88
					l0.53,7.02C173.82,255.65,173.5,256.09,172.95,256.12z M302.21,245.41c-0.49,0.03-0.75-0.35-0.79-0.83l-0.56-6.65
					c-0.04-0.48,0.16-0.89,0.64-0.92c0.49-0.02,0.75,0.35,0.79,0.83l0.57,6.64C302.89,244.97,302.69,245.38,302.21,245.41z
					 M171.9,242.07c-0.54,0.03-0.93-0.37-0.97-0.88l-0.53-7.01c-0.04-0.51,0.29-0.94,0.83-0.97c0.54-0.02,0.93,0.37,0.97,0.88
					l0.53,7.01C172.77,241.61,172.44,242.05,171.9,242.07z M301.08,232.12c-0.49,0.02-0.75-0.35-0.79-0.84l-0.56-6.63
					c-0.04-0.48,0.16-0.89,0.64-0.91c0.49-0.02,0.75,0.36,0.79,0.84l0.56,6.63C301.76,231.69,301.56,232.1,301.08,232.12z
					 M170.85,228.06c-0.54,0.02-0.93-0.37-0.97-0.88l-0.39-5.27c-0.05-0.63-0.02-1.26,0.04-1.88c0.05-0.51,0.54-0.86,1.08-0.8
					c0.54,0.06,0.84,0.52,0.79,1.03c-0.05,0.52-0.15,1.05-0.11,1.58l0.39,5.26C171.72,227.6,171.39,228.03,170.85,228.06z
					 M299.95,218.86c-0.49,0.02-0.75-0.36-0.79-0.84l-0.11-1.28c-0.14-1.64-0.85-3.22-1.81-4.58c-0.28-0.4-0.26-0.94,0.14-1.21
					c0.4-0.26,0.88-0.15,1.17,0.26c1.14,1.63,1.77,3.52,1.94,5.47l0.11,1.28C300.63,218.44,300.44,218.85,299.95,218.86z
					 M173.62,214.9c-0.27,0.01-0.54-0.08-0.75-0.27c-0.39-0.36-0.41-0.95-0.04-1.3c1.87-1.79,4.36-2.92,7.03-3.2
					c0.53-0.05,1.03,0.31,1.11,0.81c0.08,0.5-0.29,0.96-0.82,1.01c-2.23,0.23-4.32,1.19-5.89,2.69
					C174.09,214.81,173.86,214.89,173.62,214.9z M292.53,208.55c-0.11,0-0.21-0.01-0.32-0.05c-1.09-0.36-2.22-0.53-3.36-0.49
					l-3.02,0.11c-0.49,0.02-0.92-0.36-0.96-0.85c-0.04-0.48,0.32-0.89,0.82-0.91l3.02-0.11c1.36-0.05,2.71,0.15,4,0.58
					c0.47,0.16,0.74,0.66,0.6,1.11C293.2,208.31,292.89,208.54,292.53,208.55z M279.07,208.37l-6.8,0.24
					c-0.5,0.02-0.93-0.36-0.97-0.85c-0.04-0.49,0.33-0.9,0.83-0.91l6.8-0.24c0.49-0.02,0.93,0.36,0.97,0.85
					C279.94,207.94,279.57,208.35,279.07,208.37z M265.43,208.86l-6.88,0.25c-0.5,0.02-0.94-0.36-0.98-0.86
					c-0.04-0.49,0.34-0.9,0.84-0.92l6.88-0.24c0.5-0.02,0.94,0.36,0.98,0.85C266.3,208.43,265.93,208.84,265.43,208.86z
					 M251.63,209.35l-6.96,0.25c-0.51,0.02-0.95-0.37-0.99-0.86c-0.04-0.49,0.34-0.91,0.85-0.93l6.96-0.24
					c0.51-0.02,0.95,0.37,0.99,0.86S252.13,209.34,251.63,209.35z M237.66,209.86l-7.05,0.25c-0.52,0.02-0.96-0.37-1-0.86
					c-0.04-0.5,0.35-0.91,0.86-0.93l7.05-0.25c0.51-0.02,0.96,0.37,1,0.86C238.55,209.42,238.17,209.84,237.66,209.86z
					 M223.52,210.37l-7.13,0.26c-0.52,0.02-0.98-0.37-1.02-0.87c-0.04-0.5,0.35-0.92,0.87-0.94l7.13-0.25
					c0.52-0.02,0.97,0.37,1.01,0.87C224.43,209.93,224.04,210.35,223.52,210.37z M209.22,210.88l-7.22,0.26
					c-0.53,0.02-0.99-0.37-1.03-0.88c-0.04-0.5,0.36-0.92,0.89-0.94l7.22-0.25c0.52-0.02,0.98,0.37,1.02,0.87
					C210.13,210.44,209.74,210.86,209.22,210.88z M194.74,211.4l-7.31,0.26c-0.53,0.02-1-0.37-1.04-0.88
					c-0.04-0.51,0.36-0.93,0.9-0.95l7.31-0.26c0.53-0.02,0.99,0.37,1.03,0.88C195.66,210.96,195.27,211.38,194.74,211.4z"/>
			</g>
			<linearGradient id="SVGID_56_" gradientUnits="userSpaceOnUse" x1="437.6014" y1="210.9816" x2="256.8467" y2="279.1909">
				<stop  offset="0" style="stop-color:#AB316D"/>
				<stop  offset="1" style="stop-color:#792D3D"/>
			</linearGradient>
			<path class="st66" d="M312.03,235.76c-0.77-0.47-1.69-0.54-2.49-0.2l-25.65,10.97c-3.68,1.59-6.19,5.32-5.86,9.32l0.89,10.65
				c0.35,4.26,3.8,7.83,8.03,8.76l26.54,5.81c0.84,0.18,1.75-0.04,2.39-0.6c0.64-0.56,1.01-1.39,0.94-2.25l-3.47-40.33
				C313.27,237.03,312.8,236.23,312.03,235.76z"/>
			<linearGradient id="SVGID_57_" gradientUnits="userSpaceOnUse" x1="324.2108" y1="247.2689" x2="278.861" y2="264.382">
				<stop  offset="0" style="stop-color:#FFC444"/>
				<stop  offset="0.9964" style="stop-color:#F36F56"/>
			</linearGradient>
			<path class="st67" d="M295.09,259.97c0.25,2.95-1.96,5.48-4.93,5.67c-2.98,0.18-5.61-2.07-5.85-5.03
				c-0.25-2.96,1.97-5.49,4.96-5.66C292.24,254.78,294.84,257.03,295.09,259.97z"/>
		</g>
	</g>
</g>
</svg>
